<svg width="400" height="400" viewBox="0 0 400 400" fill="none" xmlns="http://www.w3.org/2000/svg">
<path d="M312.382 111.637L87.7745 111.637C83.0639 111.637 79.2451 115.625 79.2451 120.544L79.2451 279.396C79.2451 284.315 83.0639 288.303 87.7745 288.303H312.382C317.093 288.303 320.912 284.315 320.912 279.396V120.544C320.912 115.625 317.093 111.637 312.382 111.637Z" fill="url(#paint0_linear_5369_7684)"/>
<path opacity="0.7" d="M236.741 287.47L90.9076 288.303C85.6966 288.303 79.2409 284.322 79.2409 279.137L78.6265 111.637" fill="url(#paint1_linear_5369_7684)"/>
<path d="M165.293 123.303H81.96C76.4371 123.303 71.96 127.78 71.96 133.303V209.969C71.96 215.492 76.4371 219.969 81.96 219.969H165.293C170.816 219.969 175.293 215.492 175.293 209.969V133.303C175.293 127.78 170.816 123.303 165.293 123.303Z" fill="url(#paint2_linear_5369_7684)"/>
<path d="M153.643 133.303H93.6098C88.0962 133.303 83.6265 137.772 83.6265 143.286V196.653C83.6265 202.166 88.0962 206.636 93.6098 206.636H153.643C159.157 206.636 163.626 202.166 163.626 196.653V143.286C163.626 137.772 159.157 133.303 153.643 133.303Z" fill="url(#paint3_linear_5369_7684)"/>
<g opacity="0.8">
<path fill-rule="evenodd" clip-rule="evenodd" d="M127.579 158.301C130.341 158.301 132.579 156.062 132.579 153.301C132.579 153.301 132.579 153.301 132.579 153.301C132.579 150.539 130.341 148.301 127.579 148.301C124.818 148.301 122.579 150.539 122.579 153.301M127.579 158.301C124.818 158.301 122.579 156.062 122.579 153.301L127.579 158.301Z" fill="white"/>
<rect x="115.912" y="183.303" width="15" height="5" fill="white"/>
</g>
<path opacity="0.8" fill-rule="evenodd" clip-rule="evenodd" d="M132.579 153.301C132.579 150.539 130.34 148.301 127.579 148.301C124.817 148.301 122.579 150.539 122.579 153.301H132.579Z" fill="white"/>
<path d="M217.063 105.383C217.667 105.134 218.738 104.921 219.423 104.983C220.509 105.029 230.188 108.634 286.812 130.054C327.361 145.392 353.292 155.285 353.855 155.667C354.354 155.996 355.088 156.751 355.468 157.317C355.874 157.891 356.254 158.906 356.322 159.55C356.418 160.344 356.303 161.172 355.96 162.081C355.653 162.892 355.145 163.711 354.677 164.124C354.253 164.497 333.017 176.773 261.084 217.906L237.845 279.34L241.659 281.008C243.777 281.921 247.399 283.572 249.694 284.693C251.997 285.789 255.366 287.513 257.18 288.48C258.985 289.472 261.543 290.945 262.868 291.783C264.193 292.621 266.242 294.015 267.407 294.904C268.595 295.804 270.103 297.132 270.772 297.835C271.44 298.537 272.245 299.628 272.567 300.199C273.038 301.051 273.09 301.436 272.802 302.198C272.532 302.911 272.22 303.214 271.377 303.569C270.773 303.818 269.792 304.093 269.21 304.21C268.637 304.302 266.844 304.326 265.221 304.274C263.608 304.198 260.855 303.915 259.09 303.641C257.335 303.342 254.192 302.743 252.108 302.263C250.024 301.784 246.25 300.834 243.704 300.152C240.007 299.147 236.636 297.956 226.817 294.27C218.693 291.196 213.305 289.046 210.838 287.86C208.797 286.891 205.469 285.211 203.466 284.144C201.463 283.078 198.249 281.244 196.376 280.058C194.469 278.887 191.924 277.082 190.664 276.071C189.404 275.061 187.924 273.658 187.348 272.935C186.772 272.212 186.24 271.224 186.141 270.737C186.017 270.241 186.023 269.625 186.107 269.404C186.2 269.158 186.804 268.684 187.461 268.371C188.102 268.023 189.48 267.674 190.505 267.584C191.539 267.47 193.44 267.459 194.734 267.555C196.038 267.627 198.822 267.977 200.952 268.334C203.082 268.69 206.73 269.452 209.086 270.034C211.443 270.617 214.743 271.472 216.425 271.968C218.115 272.439 221.335 273.432 227.689 275.498L250.881 214.187L232.324 162.869C222.112 134.624 213.742 111.093 213.736 110.585C213.696 110.092 213.9 109.102 214.151 108.439C214.412 107.751 214.929 106.907 215.295 106.54C215.651 106.197 216.45 105.656 217.063 105.383Z" fill="url(#paint4_linear_5369_7684)"/>
<path d="M223.412 114.137C243.765 123.65 340.912 160.803 340.912 160.803C326.203 169.108 258.408 207.47 258.408 207.47C258.408 207.47 227.98 126.253 223.412 114.137Z" fill="url(#paint5_linear_5369_7684)"/>
<ellipse cx="228.313" cy="288.121" rx="53.5771" ry="11.2659" transform="rotate(-159.043 228.313 288.121)" fill="url(#paint6_linear_5369_7684)"/>
<ellipse cx="229.702" cy="284.502" rx="35.1498" ry="7.39109" transform="rotate(-159.043 229.702 284.502)" fill="url(#paint7_linear_5369_7684)"/>
<path d="M230.925 102.105L237.255 99.5291L276.955 196.873L270.975 200.395L230.925 102.105Z" fill="url(#paint8_linear_5369_7684)"/>
<rect x="199.924" y="76.0254" width="6.83436" height="39.6413" transform="rotate(-50.0882 199.924 76.0254)" fill="url(#paint9_linear_5369_7684)"/>
<path d="M230.662 101.777L235.803 97.3319L235.556 97.0468L230.39 101.522L230.662 101.777Z" fill="url(#paint10_linear_5369_7684)"/>
<rect width="6.83436" height="0.37716" transform="matrix(0.851291 -0.524694 -0.524694 -0.851291 230.924 102.111)" fill="url(#paint11_linear_5369_7684)"/>
<path d="M258.412 207.47L239.245 155.803C247.578 123.303 293.412 169.97 335.078 164.137L258.412 207.47Z" fill="url(#paint12_linear_5369_7684)"/>
<path d="M281.644 153.146C284.87 144.302 294.585 139.81 303.414 143.078C312.243 146.347 316.888 156.155 313.822 165.058" fill="url(#paint13_linear_5369_7684)"/>
<path d="M312.939 164.357C309.828 173.241 300.172 177.859 291.301 174.705C282.43 171.552 277.659 161.804 280.61 152.863" fill="url(#paint14_linear_5369_7684)"/>
<circle cx="210.021" cy="179.086" r="9.16667" transform="rotate(11.2854 210.021 179.086)" fill="url(#paint15_linear_5369_7684)"/>
<circle cx="319.245" cy="247.113" r="25" fill="url(#paint16_linear_5369_7684)"/>
<path d="M336.413 238.248C335.714 239.339 334.314 240.033 332.347 240.051C330.394 240.069 328.05 239.402 325.825 237.978C323.6 236.553 322.012 234.704 321.211 232.923C320.404 231.13 320.448 229.567 321.146 228.476C321.845 227.384 323.245 226.69 325.212 226.672C327.165 226.654 329.509 227.321 331.734 228.745C333.96 230.17 335.547 232.019 336.348 233.8C337.156 235.594 337.112 237.156 336.413 238.248Z" stroke="url(#paint17_linear_5369_7684)" stroke-width="2.52827"/>
<path d="M322.157 255.139C319.408 259.435 313.491 260.661 308.908 257.727C304.325 254.794 302.961 248.908 305.71 244.612C308.46 240.316 314.377 239.09 318.96 242.024C323.543 244.957 324.907 250.843 322.157 255.139Z" stroke="url(#paint18_linear_5369_7684)" stroke-width="2.52827"/>
<mask id="path-23-inside-1_5369_7684" fill="white">
<ellipse cx="306.061" cy="231.121" rx="2.52695" ry="8.44878" transform="rotate(50.1543 306.061 231.121)"/>
</mask>
<path d="M306.06 231.12C304.402 232.503 302.807 233.489 301.623 233.997C301.015 234.257 300.65 234.333 300.512 234.344C300.292 234.362 300.951 234.238 301.515 234.914L297.633 238.154C298.644 239.366 300.092 239.45 300.916 239.384C301.821 239.312 302.755 239.013 303.614 238.645C305.364 237.895 307.374 236.609 309.3 235.002L306.06 231.12ZM301.515 234.914C302.079 235.59 301.84 236.217 301.897 236.003C301.932 235.869 302.072 235.524 302.437 234.973C303.148 233.898 304.404 232.505 306.061 231.122L302.822 227.24C300.896 228.846 299.271 230.594 298.221 232.181C297.705 232.961 297.243 233.826 297.01 234.704C296.798 235.503 296.621 236.943 297.633 238.154L301.515 234.914ZM306.061 231.122C307.719 229.739 309.314 228.753 310.498 228.245C311.106 227.985 311.471 227.909 311.609 227.898C311.83 227.88 311.17 228.004 310.606 227.328L314.488 224.088C313.477 222.876 312.029 222.792 311.205 222.858C310.3 222.93 309.366 223.229 308.507 223.597C306.757 224.347 304.747 225.633 302.822 227.24L306.061 231.122ZM310.606 227.328C310.042 226.652 310.281 226.025 310.224 226.239C310.189 226.373 310.049 226.718 309.684 227.27C308.973 228.344 307.717 229.737 306.06 231.12L309.3 235.002C311.225 233.396 312.85 231.648 313.9 230.061C314.416 229.281 314.878 228.416 315.111 227.538C315.323 226.739 315.5 225.299 314.488 224.088L310.606 227.328Z" fill="url(#paint19_linear_5369_7684)" mask="url(#path-23-inside-1_5369_7684)"/>
<path d="M300.785 253.282C301.509 255.498 301.877 257.547 301.912 259.048C301.929 259.805 301.86 260.349 301.755 260.684C301.473 260.475 301.095 260.077 300.663 259.456C299.804 258.224 298.892 256.353 298.168 254.137C297.444 251.921 297.076 249.872 297.041 248.371C297.024 247.614 297.093 247.07 297.198 246.735C297.48 246.944 297.858 247.342 298.29 247.963C299.149 249.195 300.061 251.066 300.785 253.282ZM301.648 260.93C301.648 260.93 301.651 260.926 301.656 260.921C301.651 260.928 301.649 260.93 301.648 260.93ZM301.975 260.816C301.983 260.818 301.986 260.819 301.986 260.819C301.987 260.82 301.983 260.819 301.975 260.816ZM297.305 246.489C297.305 246.49 297.302 246.493 297.297 246.498C297.302 246.492 297.305 246.489 297.305 246.489ZM296.978 246.603C296.971 246.601 296.967 246.6 296.967 246.6C296.967 246.599 296.97 246.6 296.978 246.603Z" stroke="url(#paint20_linear_5369_7684)" stroke-width="2.52827"/>
<path d="M339.139 258.072C337.661 260.38 335.811 262.067 334.07 262.96C332.297 263.87 330.883 263.856 329.987 263.282C329.09 262.709 328.485 261.43 328.569 259.439C328.652 257.485 329.409 255.097 330.886 252.789C332.363 250.481 334.214 248.794 335.955 247.901C337.728 246.991 339.142 247.005 340.038 247.579C340.935 248.153 341.54 249.431 341.456 251.422C341.373 253.376 340.616 255.764 339.139 258.072Z" stroke="url(#paint21_linear_5369_7684)" stroke-width="2.52827"/>
<path d="M325.468 268.615C325.469 268.615 325.467 268.618 325.463 268.623C325.466 268.618 325.468 268.615 325.468 268.615ZM325.206 268.65C325.246 268.685 325.279 268.716 325.307 268.744C325.274 268.765 325.234 268.788 325.188 268.813C324.823 269.01 324.223 269.207 323.378 269.356C321.705 269.649 319.357 269.701 316.751 269.408C314.144 269.115 311.866 268.543 310.3 267.886C309.509 267.554 308.967 267.228 308.656 266.956C308.616 266.921 308.583 266.889 308.555 266.861C308.588 266.84 308.627 266.817 308.674 266.792C309.038 266.596 309.638 266.398 310.484 266.25C312.157 265.956 314.504 265.904 317.111 266.197C319.718 266.49 321.995 267.062 323.562 267.72C324.353 268.052 324.895 268.378 325.206 268.65ZM308.426 266.7C308.426 266.7 308.428 266.703 308.43 266.709C308.427 266.703 308.426 266.7 308.426 266.7ZM308.394 266.99C308.393 266.99 308.395 266.987 308.399 266.982C308.396 266.988 308.394 266.99 308.394 266.99ZM325.432 268.897C325.435 268.902 325.436 268.905 325.436 268.905C325.435 268.905 325.434 268.902 325.432 268.897Z" stroke="url(#paint22_linear_5369_7684)" stroke-width="2.52827"/>
<path d="M312.382 111.637L87.7745 111.637C83.0639 111.637 79.2451 115.625 79.2451 120.544L79.2451 279.396C79.2451 284.315 83.0639 288.303 87.7745 288.303H312.382C317.093 288.303 320.912 284.315 320.912 279.396V120.544C320.912 115.625 317.093 111.637 312.382 111.637Z" fill="url(#paint23_linear_5369_7684)"/>
<path opacity="0.7" d="M236.741 287.47L90.9076 288.303C85.6966 288.303 79.2409 284.322 79.2409 279.137L78.6265 111.637" fill="url(#paint24_linear_5369_7684)"/>
<path d="M165 76.5469H81.667C76.1441 76.5469 71.667 83.1854 71.667 91.3745V205.053C71.667 213.242 76.1441 219.88 81.667 219.88H165C170.523 219.88 175 213.242 175 205.053V91.3745C175 83.1854 170.523 76.5469 165 76.5469Z" fill="url(#paint25_linear_5369_7684)"/>
<path d="M153.643 133.303H93.6098C88.0962 133.303 83.6265 137.772 83.6265 143.286V196.653C83.6265 202.166 88.0962 206.636 93.6098 206.636H153.643C159.157 206.636 163.626 202.166 163.626 196.653V143.286C163.626 137.772 159.157 133.303 153.643 133.303Z" fill="url(#paint26_linear_5369_7684)"/>
<g opacity="0.8">
<path fill-rule="evenodd" clip-rule="evenodd" d="M127.578 158.297C130.34 158.297 132.578 156.058 132.578 153.297H142.607L123.426 176.758L104.245 153.297H122.578C122.578 156.058 124.817 158.297 127.578 158.297Z" fill="white"/>
<rect x="115.912" y="183.297" width="15" height="5" fill="white"/>
</g>
<path opacity="0.8" fill-rule="evenodd" clip-rule="evenodd" d="M132.579 153.301C132.579 150.539 130.34 148.301 127.579 148.301C124.817 148.301 122.579 150.539 122.579 153.301H132.579Z" fill="white"/>
<path d="M217.063 105.383C217.667 105.134 218.738 104.921 219.423 104.983C220.509 105.029 230.188 108.634 286.812 130.054C327.361 145.392 353.292 155.285 353.855 155.667C354.354 155.996 355.088 156.751 355.468 157.317C355.874 157.891 356.254 158.906 356.322 159.55C356.418 160.344 356.303 161.172 355.96 162.081C355.653 162.892 355.145 163.711 354.677 164.124C354.253 164.497 333.017 176.773 261.084 217.906L237.845 279.34L241.659 281.008C243.777 281.921 247.399 283.572 249.694 284.693C251.997 285.789 255.366 287.513 257.18 288.48C258.985 289.472 261.543 290.945 262.868 291.783C264.193 292.621 266.242 294.015 267.407 294.904C268.595 295.804 270.103 297.132 270.772 297.835C271.44 298.537 272.245 299.628 272.567 300.199C273.038 301.051 273.09 301.436 272.802 302.198C272.532 302.911 272.22 303.214 271.377 303.569C270.773 303.818 269.792 304.093 269.21 304.21C268.637 304.302 266.844 304.326 265.221 304.274C263.608 304.198 260.855 303.915 259.09 303.641C257.335 303.342 254.192 302.743 252.108 302.263C250.024 301.784 246.25 300.834 243.704 300.152C240.007 299.147 236.636 297.956 226.817 294.27C218.693 291.196 213.305 289.046 210.838 287.86C208.797 286.891 205.469 285.211 203.466 284.144C201.463 283.078 198.249 281.244 196.376 280.058C194.469 278.887 191.924 277.082 190.664 276.071C189.404 275.061 187.924 273.658 187.348 272.935C186.772 272.212 186.24 271.224 186.141 270.737C186.017 270.241 186.023 269.625 186.107 269.404C186.2 269.158 186.804 268.684 187.461 268.371C188.102 268.023 189.48 267.674 190.505 267.584C191.539 267.47 193.44 267.459 194.734 267.555C196.038 267.627 198.822 267.977 200.952 268.334C203.082 268.69 206.73 269.452 209.086 270.034C211.443 270.617 214.743 271.472 216.425 271.968C218.115 272.439 221.335 273.432 227.689 275.498L250.881 214.187L232.324 162.869C222.112 134.624 213.742 111.093 213.736 110.585C213.696 110.092 213.9 109.102 214.151 108.439C214.412 107.751 214.929 106.907 215.295 106.54C215.651 106.197 216.45 105.656 217.063 105.383Z" fill="url(#paint27_linear_5369_7684)"/>
<path d="M223.412 114.137C243.765 123.65 340.912 160.803 340.912 160.803C326.203 169.108 258.408 207.47 258.408 207.47C258.408 207.47 227.98 126.253 223.412 114.137Z" fill="url(#paint28_linear_5369_7684)"/>
<ellipse cx="228.313" cy="288.121" rx="53.5771" ry="11.2659" transform="rotate(-159.043 228.313 288.121)" fill="url(#paint29_linear_5369_7684)"/>
<ellipse cx="229.702" cy="284.502" rx="35.1498" ry="7.39109" transform="rotate(-159.043 229.702 284.502)" fill="url(#paint30_linear_5369_7684)"/>
<path d="M230.925 102.105L237.255 99.5291L276.955 196.873L270.975 200.395L230.925 102.105Z" fill="url(#paint31_linear_5369_7684)"/>
<rect x="199.924" y="76.0254" width="6.83436" height="39.6413" transform="rotate(-50.0882 199.924 76.0254)" fill="url(#paint32_linear_5369_7684)"/>
<path d="M230.662 101.777L235.803 97.3319L235.556 97.0468L230.39 101.522L230.662 101.777Z" fill="url(#paint33_linear_5369_7684)"/>
<rect width="6.83436" height="0.37716" transform="matrix(0.851291 -0.524694 -0.524694 -0.851291 230.924 102.111)" fill="url(#paint34_linear_5369_7684)"/>
<path d="M258.412 207.47L239.245 155.803C247.578 123.303 293.412 169.97 335.078 164.137L258.412 207.47Z" fill="url(#paint35_linear_5369_7684)"/>
<path d="M281.644 153.146C284.87 144.302 294.585 139.81 303.414 143.078C312.243 146.347 316.888 156.155 313.822 165.058" fill="url(#paint36_linear_5369_7684)"/>
<path d="M312.939 164.357C309.828 173.241 300.172 177.859 291.301 174.705C282.43 171.552 277.659 161.804 280.61 152.863" fill="url(#paint37_linear_5369_7684)"/>
<circle cx="210.021" cy="179.086" r="9.16667" transform="rotate(11.2854 210.021 179.086)" fill="url(#paint38_linear_5369_7684)"/>
<circle cx="319.245" cy="247.113" r="25" fill="url(#paint39_linear_5369_7684)"/>
<path d="M336.413 238.248C335.714 239.339 334.314 240.033 332.347 240.051C330.394 240.069 328.05 239.402 325.825 237.978C323.6 236.553 322.012 234.704 321.211 232.923C320.404 231.13 320.448 229.567 321.146 228.476C321.845 227.384 323.245 226.69 325.212 226.672C327.165 226.654 329.509 227.321 331.734 228.745C333.96 230.17 335.547 232.019 336.348 233.8C337.156 235.594 337.112 237.156 336.413 238.248Z" stroke="url(#paint40_linear_5369_7684)" stroke-width="2.52827"/>
<path d="M322.157 255.139C319.408 259.435 313.491 260.661 308.908 257.727C304.325 254.794 302.961 248.908 305.71 244.612C308.46 240.316 314.377 239.09 318.96 242.024C323.543 244.957 324.907 250.843 322.157 255.139Z" stroke="url(#paint41_linear_5369_7684)" stroke-width="2.52827"/>
<mask id="path-50-inside-2_5369_7684" fill="white">
<ellipse cx="306.061" cy="231.121" rx="2.52695" ry="8.44878" transform="rotate(50.1543 306.061 231.121)"/>
</mask>
<path d="M306.06 231.12C304.402 232.503 302.807 233.489 301.623 233.997C301.015 234.257 300.65 234.333 300.512 234.344C300.292 234.362 300.951 234.238 301.515 234.914L297.633 238.154C298.644 239.366 300.092 239.45 300.916 239.384C301.821 239.312 302.755 239.013 303.614 238.645C305.364 237.895 307.374 236.609 309.3 235.002L306.06 231.12ZM301.515 234.914C302.079 235.59 301.84 236.217 301.897 236.003C301.932 235.869 302.072 235.524 302.437 234.973C303.148 233.898 304.404 232.505 306.061 231.122L302.822 227.24C300.896 228.846 299.271 230.594 298.221 232.181C297.705 232.961 297.243 233.826 297.01 234.704C296.798 235.503 296.621 236.943 297.633 238.154L301.515 234.914ZM306.061 231.122C307.719 229.739 309.314 228.753 310.498 228.245C311.106 227.985 311.471 227.909 311.609 227.898C311.83 227.88 311.17 228.004 310.606 227.328L314.488 224.088C313.477 222.876 312.029 222.792 311.205 222.858C310.3 222.93 309.366 223.229 308.507 223.597C306.757 224.347 304.747 225.633 302.822 227.24L306.061 231.122ZM310.606 227.328C310.042 226.652 310.281 226.025 310.224 226.239C310.189 226.373 310.049 226.718 309.684 227.27C308.973 228.344 307.717 229.737 306.06 231.12L309.3 235.002C311.225 233.396 312.85 231.648 313.9 230.061C314.416 229.281 314.878 228.416 315.111 227.538C315.323 226.739 315.5 225.299 314.488 224.088L310.606 227.328Z" fill="url(#paint42_linear_5369_7684)" mask="url(#path-50-inside-2_5369_7684)"/>
<path d="M300.785 253.282C301.509 255.498 301.877 257.547 301.912 259.048C301.929 259.805 301.86 260.349 301.755 260.684C301.473 260.475 301.095 260.077 300.663 259.456C299.804 258.224 298.892 256.353 298.168 254.137C297.444 251.921 297.076 249.872 297.041 248.371C297.024 247.614 297.093 247.07 297.198 246.735C297.48 246.944 297.858 247.342 298.29 247.963C299.149 249.195 300.061 251.066 300.785 253.282ZM301.648 260.93C301.648 260.93 301.651 260.926 301.656 260.921C301.651 260.928 301.649 260.93 301.648 260.93ZM301.975 260.816C301.983 260.818 301.986 260.819 301.986 260.819C301.987 260.82 301.983 260.819 301.975 260.816ZM297.305 246.489C297.305 246.49 297.302 246.493 297.297 246.498C297.302 246.492 297.305 246.489 297.305 246.489ZM296.978 246.603C296.971 246.601 296.967 246.6 296.967 246.6C296.967 246.599 296.97 246.6 296.978 246.603Z" stroke="url(#paint43_linear_5369_7684)" stroke-width="2.52827"/>
<path d="M339.139 258.072C337.661 260.38 335.811 262.067 334.07 262.96C332.297 263.87 330.883 263.856 329.987 263.282C329.09 262.709 328.485 261.43 328.569 259.439C328.652 257.485 329.409 255.097 330.886 252.789C332.363 250.481 334.214 248.794 335.955 247.901C337.728 246.991 339.142 247.005 340.038 247.579C340.935 248.153 341.54 249.431 341.456 251.422C341.373 253.376 340.616 255.764 339.139 258.072Z" stroke="url(#paint44_linear_5369_7684)" stroke-width="2.52827"/>
<path d="M325.468 268.615C325.469 268.615 325.467 268.618 325.463 268.623C325.466 268.618 325.468 268.615 325.468 268.615ZM325.206 268.65C325.246 268.685 325.279 268.716 325.307 268.744C325.274 268.765 325.234 268.788 325.188 268.813C324.823 269.01 324.223 269.207 323.378 269.356C321.705 269.649 319.357 269.701 316.751 269.408C314.144 269.115 311.866 268.543 310.3 267.886C309.509 267.554 308.967 267.228 308.656 266.956C308.616 266.921 308.583 266.889 308.555 266.861C308.588 266.84 308.627 266.817 308.674 266.792C309.038 266.596 309.638 266.398 310.484 266.25C312.157 265.956 314.504 265.904 317.111 266.197C319.718 266.49 321.995 267.062 323.562 267.72C324.353 268.052 324.895 268.378 325.206 268.65ZM308.426 266.7C308.426 266.7 308.428 266.703 308.43 266.709C308.427 266.703 308.426 266.7 308.426 266.7ZM308.394 266.99C308.393 266.99 308.395 266.987 308.399 266.982C308.396 266.988 308.394 266.99 308.394 266.99ZM325.432 268.897C325.435 268.902 325.436 268.905 325.436 268.905C325.435 268.905 325.434 268.902 325.432 268.897Z" stroke="url(#paint45_linear_5369_7684)" stroke-width="2.52827"/>
<defs>
<linearGradient id="paint0_linear_5369_7684" x1="323.412" y1="268.303" x2="178.713" y2="139.176" gradientUnits="userSpaceOnUse">
<stop stop-color="#24505E"/>
<stop offset="1" stop-color="#00133C" stop-opacity="0"/>
</linearGradient>
<linearGradient id="paint1_linear_5369_7684" x1="92.5742" y1="306.637" x2="156.906" y2="268.794" gradientUnits="userSpaceOnUse">
<stop stop-color="#317482"/>
<stop offset="0.845741" stop-color="#13181E" stop-opacity="0"/>
</linearGradient>
<linearGradient id="paint2_linear_5369_7684" x1="123.947" y1="219.791" x2="123.947" y2="123.124" gradientUnits="userSpaceOnUse">
<stop stop-color="#FF658D" stop-opacity="0.56"/>
<stop offset="1" stop-color="#13181E" stop-opacity="0"/>
</linearGradient>
<linearGradient id="paint3_linear_5369_7684" x1="96.7409" y1="199.136" x2="155.908" y2="133.303" gradientUnits="userSpaceOnUse">
<stop stop-color="#FF3065"/>
<stop offset="1" stop-color="#FFB0C4"/>
</linearGradient>
<linearGradient id="paint4_linear_5369_7684" x1="194.241" y1="302.469" x2="317.575" y2="205.803" gradientUnits="userSpaceOnUse">
<stop stop-color="#00789A" stop-opacity="0"/>
<stop offset="1" stop-color="#047799" stop-opacity="0.41"/>
</linearGradient>
<linearGradient id="paint5_linear_5369_7684" x1="288.828" y1="152.47" x2="288.828" y2="207.47" gradientUnits="userSpaceOnUse">
<stop stop-color="#317482" stop-opacity="0.24"/>
</linearGradient>
<linearGradient id="paint6_linear_5369_7684" x1="228.313" y1="276.855" x2="228.313" y2="299.387" gradientUnits="userSpaceOnUse">
<stop stop-color="#185B7A"/>
<stop offset="1" stop-color="#13181E" stop-opacity="0"/>
</linearGradient>
<linearGradient id="paint7_linear_5369_7684" x1="229.702" y1="277.111" x2="229.702" y2="291.894" gradientUnits="userSpaceOnUse">
<stop stop-color="#653B5D"/>
<stop offset="1" stop-color="#13181E" stop-opacity="0"/>
</linearGradient>
<linearGradient id="paint8_linear_5369_7684" x1="249.49" y1="146.424" x2="255.893" y2="143.818" gradientUnits="userSpaceOnUse">
<stop stop-color="#1BD0D8"/>
<stop offset="1" stop-color="#13181E" stop-opacity="0"/>
</linearGradient>
<linearGradient id="paint9_linear_5369_7684" x1="200.412" y1="94.2976" x2="207.326" y2="94.2976" gradientUnits="userSpaceOnUse">
<stop stop-color="#1BD0D8"/>
<stop offset="1" stop-color="#13181E" stop-opacity="0"/>
</linearGradient>
<linearGradient id="paint10_linear_5369_7684" x1="230.892" y1="101.356" x2="236.118" y2="96.8289" gradientUnits="userSpaceOnUse">
<stop stop-color="#1BD0D8"/>
<stop offset="1" stop-color="#13181E" stop-opacity="0"/>
</linearGradient>
<linearGradient id="paint11_linear_5369_7684" x1="0.488169" y1="0.173847" x2="7.40187" y2="0.173847" gradientUnits="userSpaceOnUse">
<stop stop-color="#1BD0D8"/>
<stop offset="1" stop-color="#13181E" stop-opacity="0"/>
</linearGradient>
<linearGradient id="paint12_linear_5369_7684" x1="288.828" y1="152.47" x2="288.828" y2="207.47" gradientUnits="userSpaceOnUse">
<stop stop-color="#FF3065"/>
<stop offset="1" stop-color="#09C4C9" stop-opacity="0.31"/>
</linearGradient>
<linearGradient id="paint13_linear_5369_7684" x1="302.573" y1="144.97" x2="296.869" y2="160.743" gradientUnits="userSpaceOnUse">
<stop stop-color="#DF3465"/>
<stop offset="1" stop-color="#154E63" stop-opacity="0"/>
</linearGradient>
<linearGradient id="paint14_linear_5369_7684" x1="291.315" y1="174.824" x2="297.129" y2="158.525" gradientUnits="userSpaceOnUse">
<stop stop-color="#00D3FF" stop-opacity="0.61"/>
<stop offset="1" stop-color="#13181E" stop-opacity="0"/>
</linearGradient>
<linearGradient id="paint15_linear_5369_7684" x1="210.021" y1="169.919" x2="206.969" y2="193.342" gradientUnits="userSpaceOnUse">
<stop stop-color="#FFE3EA"/>
<stop offset="1" stop-opacity="0"/>
</linearGradient>
<linearGradient id="paint16_linear_5369_7684" x1="319.245" y1="222.113" x2="319.245" y2="272.113" gradientUnits="userSpaceOnUse">
<stop stop-color="#04E2E5"/>
<stop offset="0.9999" stop-color="#04E2E5" stop-opacity="0.0677083"/>
<stop offset="1" stop-color="#04E2E5" stop-opacity="0"/>
</linearGradient>
<linearGradient id="paint17_linear_5369_7684" x1="332.416" y1="227.681" x2="325.143" y2="239.042" gradientUnits="userSpaceOnUse">
<stop stop-color="#010202"/>
<stop offset="1" stop-color="#010202" stop-opacity="0"/>
</linearGradient>
<linearGradient id="paint18_linear_5369_7684" x1="319.641" y1="240.959" x2="308.227" y2="258.792" gradientUnits="userSpaceOnUse">
<stop stop-color="#010202"/>
<stop offset="1" stop-color="#010202" stop-opacity="0"/>
</linearGradient>
<linearGradient id="paint19_linear_5369_7684" x1="312.547" y1="225.708" x2="299.574" y2="236.534" gradientUnits="userSpaceOnUse">
<stop stop-color="#010202"/>
<stop offset="1" stop-color="#010202" stop-opacity="0"/>
</linearGradient>
<linearGradient id="paint20_linear_5369_7684" x1="296.756" y1="245.381" x2="302.198" y2="262.038" gradientUnits="userSpaceOnUse">
<stop stop-color="#010202"/>
<stop offset="1" stop-color="#010202" stop-opacity="0"/>
</linearGradient>
<linearGradient id="paint21_linear_5369_7684" x1="340.72" y1="246.514" x2="329.305" y2="264.347" gradientUnits="userSpaceOnUse">
<stop stop-color="#010202"/>
<stop offset="1" stop-color="#010202" stop-opacity="0"/>
</linearGradient>
<linearGradient id="paint22_linear_5369_7684" x1="317.253" y1="264.941" x2="316.609" y2="270.664" gradientUnits="userSpaceOnUse">
<stop stop-color="#010202"/>
<stop offset="1" stop-color="#010202" stop-opacity="0"/>
</linearGradient>
<linearGradient id="paint23_linear_5369_7684" x1="323.412" y1="268.303" x2="178.713" y2="139.176" gradientUnits="userSpaceOnUse">
<stop stop-color="#24505E"/>
<stop offset="1" stop-color="#00133C" stop-opacity="0"/>
</linearGradient>
<linearGradient id="paint24_linear_5369_7684" x1="92.5742" y1="306.637" x2="156.906" y2="268.794" gradientUnits="userSpaceOnUse">
<stop stop-color="#317482"/>
<stop offset="0.845741" stop-color="#13181E" stop-opacity="0"/>
</linearGradient>
<linearGradient id="paint25_linear_5369_7684" x1="123.654" y1="219.615" x2="123.654" y2="76.2817" gradientUnits="userSpaceOnUse">
<stop stop-color="#FF658D" stop-opacity="0.56"/>
<stop offset="1" stop-color="#13181E" stop-opacity="0"/>
</linearGradient>
<linearGradient id="paint26_linear_5369_7684" x1="96.7409" y1="199.136" x2="155.908" y2="133.303" gradientUnits="userSpaceOnUse">
<stop stop-color="#FF3065"/>
<stop offset="1" stop-color="#FFB0C4"/>
</linearGradient>
<linearGradient id="paint27_linear_5369_7684" x1="194.241" y1="302.469" x2="317.575" y2="205.803" gradientUnits="userSpaceOnUse">
<stop stop-color="#00789A" stop-opacity="0"/>
<stop offset="1" stop-color="#047799" stop-opacity="0.41"/>
</linearGradient>
<linearGradient id="paint28_linear_5369_7684" x1="288.828" y1="152.47" x2="288.828" y2="207.47" gradientUnits="userSpaceOnUse">
<stop stop-color="#317482" stop-opacity="0.24"/>
</linearGradient>
<linearGradient id="paint29_linear_5369_7684" x1="228.313" y1="276.855" x2="228.313" y2="299.387" gradientUnits="userSpaceOnUse">
<stop stop-color="#185B7A"/>
<stop offset="1" stop-color="#13181E" stop-opacity="0"/>
</linearGradient>
<linearGradient id="paint30_linear_5369_7684" x1="229.702" y1="277.111" x2="229.702" y2="291.894" gradientUnits="userSpaceOnUse">
<stop stop-color="#653B5D"/>
<stop offset="1" stop-color="#13181E" stop-opacity="0"/>
</linearGradient>
<linearGradient id="paint31_linear_5369_7684" x1="249.49" y1="146.424" x2="255.893" y2="143.818" gradientUnits="userSpaceOnUse">
<stop stop-color="#1BD0D8"/>
<stop offset="1" stop-color="#13181E" stop-opacity="0"/>
</linearGradient>
<linearGradient id="paint32_linear_5369_7684" x1="200.412" y1="94.2976" x2="207.326" y2="94.2976" gradientUnits="userSpaceOnUse">
<stop stop-color="#1BD0D8"/>
<stop offset="1" stop-color="#13181E" stop-opacity="0"/>
</linearGradient>
<linearGradient id="paint33_linear_5369_7684" x1="230.892" y1="101.356" x2="236.118" y2="96.8289" gradientUnits="userSpaceOnUse">
<stop stop-color="#1BD0D8"/>
<stop offset="1" stop-color="#13181E" stop-opacity="0"/>
</linearGradient>
<linearGradient id="paint34_linear_5369_7684" x1="0.488169" y1="0.173847" x2="7.40187" y2="0.173847" gradientUnits="userSpaceOnUse">
<stop stop-color="#1BD0D8"/>
<stop offset="1" stop-color="#13181E" stop-opacity="0"/>
</linearGradient>
<linearGradient id="paint35_linear_5369_7684" x1="288.828" y1="152.47" x2="288.828" y2="207.47" gradientUnits="userSpaceOnUse">
<stop stop-color="#FF3065"/>
<stop offset="1" stop-color="#09C4C9" stop-opacity="0.31"/>
</linearGradient>
<linearGradient id="paint36_linear_5369_7684" x1="302.573" y1="144.97" x2="296.869" y2="160.743" gradientUnits="userSpaceOnUse">
<stop stop-color="#DF3465"/>
<stop offset="1" stop-color="#154E63" stop-opacity="0"/>
</linearGradient>
<linearGradient id="paint37_linear_5369_7684" x1="291.315" y1="174.824" x2="297.129" y2="158.525" gradientUnits="userSpaceOnUse">
<stop stop-color="#00D3FF" stop-opacity="0.61"/>
<stop offset="1" stop-color="#13181E" stop-opacity="0"/>
</linearGradient>
<linearGradient id="paint38_linear_5369_7684" x1="210.021" y1="169.919" x2="206.969" y2="193.342" gradientUnits="userSpaceOnUse">
<stop stop-color="#FFE3EA"/>
<stop offset="1" stop-opacity="0"/>
</linearGradient>
<linearGradient id="paint39_linear_5369_7684" x1="319.245" y1="222.113" x2="319.245" y2="272.113" gradientUnits="userSpaceOnUse">
<stop stop-color="#04E2E5"/>
<stop offset="0.9999" stop-color="#04E2E5" stop-opacity="0.0677083"/>
<stop offset="1" stop-color="#04E2E5" stop-opacity="0"/>
</linearGradient>
<linearGradient id="paint40_linear_5369_7684" x1="332.416" y1="227.681" x2="325.143" y2="239.042" gradientUnits="userSpaceOnUse">
<stop stop-color="#010202"/>
<stop offset="1" stop-color="#010202" stop-opacity="0"/>
</linearGradient>
<linearGradient id="paint41_linear_5369_7684" x1="319.641" y1="240.959" x2="308.227" y2="258.792" gradientUnits="userSpaceOnUse">
<stop stop-color="#010202"/>
<stop offset="1" stop-color="#010202" stop-opacity="0"/>
</linearGradient>
<linearGradient id="paint42_linear_5369_7684" x1="312.547" y1="225.708" x2="299.574" y2="236.534" gradientUnits="userSpaceOnUse">
<stop stop-color="#010202"/>
<stop offset="1" stop-color="#010202" stop-opacity="0"/>
</linearGradient>
<linearGradient id="paint43_linear_5369_7684" x1="296.756" y1="245.381" x2="302.198" y2="262.038" gradientUnits="userSpaceOnUse">
<stop stop-color="#010202"/>
<stop offset="1" stop-color="#010202" stop-opacity="0"/>
</linearGradient>
<linearGradient id="paint44_linear_5369_7684" x1="340.72" y1="246.514" x2="329.305" y2="264.347" gradientUnits="userSpaceOnUse">
<stop stop-color="#010202"/>
<stop offset="1" stop-color="#010202" stop-opacity="0"/>
</linearGradient>
<linearGradient id="paint45_linear_5369_7684" x1="317.253" y1="264.941" x2="316.609" y2="270.664" gradientUnits="userSpaceOnUse">
<stop stop-color="#010202"/>
<stop offset="1" stop-color="#010202" stop-opacity="0"/>
</linearGradient>
</defs>
</svg>
