<svg width="400" height="400" viewBox="0 0 400 400" fill="none" xmlns="http://www.w3.org/2000/svg">
<path d="M312.229 111.572L87.6212 111.572C82.9105 111.572 79.0918 115.56 79.0918 120.48L79.0918 279.331C79.0918 284.251 82.9105 288.239 87.6212 288.239H312.229C316.94 288.239 320.758 284.251 320.758 279.331V120.48C320.758 115.56 316.94 111.572 312.229 111.572Z" fill="url(#paint0_linear_5369_7689)"/>
<path d="M87.621 288.238L312.229 288.238C316.94 288.238 320.758 284.25 320.758 279.331V120.479C320.758 115.56 316.94 111.572 312.229 111.572L87.621 111.572C82.9104 111.572 79.0916 115.56 79.0916 120.479L79.0916 279.331C79.0916 284.25 82.9104 288.238 87.621 288.238Z" fill="url(#paint1_linear_5369_7689)"/>
<path d="M312.229 111.572L87.6212 111.572C82.9105 111.572 79.0918 115.56 79.0918 120.48L79.0918 279.331C79.0918 284.251 82.9105 288.239 87.6212 288.239H312.229C316.94 288.239 320.758 284.251 320.758 279.331V120.48C320.758 115.56 316.94 111.572 312.229 111.572Z" fill="url(#paint2_linear_5369_7689)"/>
<path d="M333.333 76.4844H250C244.477 76.4844 240 83.1229 240 91.312V204.99C240 213.179 244.477 219.818 250 219.818H333.333C338.856 219.818 343.333 213.179 343.333 204.99V91.312C343.333 83.1229 338.856 76.4844 333.333 76.4844Z" fill="url(#paint3_linear_5369_7689)"/>
<path d="M321.399 133.15H261.366C255.853 133.15 251.383 137.62 251.383 143.134V196.5C251.383 202.014 255.853 206.484 261.366 206.484H321.399C326.913 206.484 331.383 202.014 331.383 196.5V143.134C331.383 137.62 326.913 133.15 321.399 133.15Z" fill="url(#paint4_linear_5369_7689)"/>
<path d="M303.08 161.9C303.28 161.9 303.413 161.9 303.53 161.9C304.931 161.9 306.331 161.9 307.732 161.9C308.016 161.9 308.316 161.934 308.599 162.017C309.233 162.217 309.616 162.667 309.683 163.349C309.7 163.566 309.716 163.783 309.716 163.982C309.716 165.448 309.716 166.914 309.716 168.38C309.716 168.813 309.616 168.913 309.183 168.913C304.414 168.913 299.645 168.913 294.876 168.913C294.242 168.913 293.975 168.647 293.975 168.014C293.975 166.298 293.975 164.582 293.975 162.883C293.975 162.2 293.692 161.934 293.008 161.917C292.458 161.917 291.908 161.917 291.358 161.917C290.757 161.917 290.474 162.217 290.474 162.816C290.474 164.532 290.474 166.265 290.474 167.98C290.474 168.663 290.207 168.913 289.523 168.913C284.788 168.913 280.052 168.913 275.317 168.913C274.8 168.913 274.716 168.846 274.716 168.33C274.716 166.814 274.716 165.315 274.716 163.799C274.716 162.766 275.133 162.183 275.984 161.967C276.217 161.9 276.467 161.9 276.717 161.9C278.101 161.9 279.485 161.9 280.886 161.9C281.003 161.9 281.136 161.9 281.319 161.9C281.236 161.784 281.203 161.717 281.153 161.65C279.702 159.901 279.585 157.253 280.886 155.387C282.253 153.438 284.671 152.672 286.905 153.472C288.79 154.155 290.457 155.187 291.925 156.52C292.025 156.603 292.125 156.703 292.225 156.786C292.658 156.42 293.075 156.054 293.509 155.72C294.726 154.771 296.043 154.021 297.511 153.488C300.529 152.372 303.78 154.138 304.397 157.286C304.681 158.985 304.33 160.518 303.08 161.9ZM294.142 159.718C294.159 159.768 294.176 159.835 294.209 159.885C295.876 159.985 297.561 160.101 299.228 160.151C299.962 160.168 300.529 159.818 300.829 159.119C301.096 158.486 300.945 157.586 300.479 157.17C299.912 156.653 299.261 156.553 298.528 156.836C297.527 157.22 296.61 157.786 295.743 158.419C295.193 158.819 294.676 159.268 294.142 159.718ZM290.24 159.851C290.174 159.735 290.174 159.702 290.14 159.685C288.806 158.436 287.339 157.403 285.622 156.737C285.188 156.57 284.754 156.653 284.338 156.853C283.621 157.203 283.27 158.069 283.487 158.902C283.704 159.718 284.404 160.201 285.305 160.168C286.155 160.135 286.989 160.085 287.839 160.035C288.623 159.985 289.407 159.918 290.24 159.851Z" fill="#FFE1E9"/>
<path d="M290.44 180.256C290.44 182.571 290.44 184.903 290.44 187.219C290.44 187.885 290.174 188.151 289.49 188.151C285.788 188.151 282.07 188.151 278.368 188.151C277.351 188.151 276.75 187.785 276.517 187.002C276.45 186.769 276.417 186.519 276.417 186.269C276.417 181.838 276.417 177.391 276.417 172.96C276.417 172.527 276.534 172.41 276.951 172.41C281.153 172.41 285.338 172.41 289.54 172.41C290.157 172.41 290.424 172.693 290.424 173.293C290.44 175.608 290.44 177.94 290.44 180.256Z" fill="#FFE1E9"/>
<path d="M293.958 180.289C293.958 177.99 293.958 175.692 293.958 173.393C293.958 172.66 294.209 172.41 294.926 172.41C299.061 172.41 303.196 172.41 307.332 172.41C307.898 172.41 307.965 172.493 307.965 173.06C307.965 177.457 307.965 181.838 307.965 186.236C307.965 187.019 307.748 187.668 306.965 187.985C306.698 188.101 306.381 188.135 306.081 188.135C302.346 188.151 298.594 188.135 294.859 188.135C294.225 188.135 293.958 187.852 293.958 187.235C293.958 184.92 293.958 182.604 293.958 180.289Z" fill="#FFE1E9"/>
<g opacity="0.6">
<path d="M130.377 87.5848C129.654 88.4202 128.665 89.7609 128.224 91.4216C127.893 92.6729 127.785 92.9416 127.992 94.7285C128.184 96.386 132.487 106.837 133.126 108.382C133.126 108.382 133.221 108.61 133.449 108.515L133.677 108.421C134.077 107.993 134.23 107.95 135.085 107.301C136.172 106.476 137.64 105.379 138.814 104.683C141.819 102.9 145.557 100.914 150.073 98.9376C154.494 97.0029 158.839 95.5651 161.216 94.8459C162.811 94.3634 164.372 94.0705 166.159 93.8637C167.231 93.7396 168.592 93.9237 168.592 93.9237L161.308 80.6281C161.308 80.6281 160.347 79.0382 159.393 78.2123C158.976 77.8507 158.463 77.2608 156.164 76.8779C153.865 76.4949 147.221 78.3743 141.942 80.6426C137.102 82.7223 131.1 86.7494 130.377 87.5848Z" fill="url(#paint5_linear_5369_7689)"/>
<path d="M134.285 109.239L135.383 112.528C135.383 112.528 145.277 106.59 152.063 103.73C158.753 100.91 169.747 97.9926 169.747 97.9926L168.515 95.0259C165.893 94.5095 158.629 96.9904 150.642 100.307C142.655 103.623 135.731 107.568 134.285 109.239Z" fill="url(#paint6_linear_5369_7689)"/>
<path d="M170.218 99.7733C170.459 100.355 163.379 104.65 154.052 108.523C144.726 112.395 136.685 114.378 136.444 113.797C136.202 113.215 143.305 108.972 152.631 105.1C161.958 101.227 169.976 99.1916 170.218 99.7733Z" fill="url(#paint7_linear_5369_7689)"/>
<path d="M129.347 124.4C130.755 120.229 136.808 115.951 136.808 115.951C136.808 115.951 147.478 112.859 154.621 109.893C161.695 106.955 172.081 101.038 172.081 101.038C172.081 101.038 179.833 98.9727 183.926 101.203C187.57 103.189 190.777 109.328 190.777 109.328L196.565 116.824C196.565 116.824 198.105 118.06 199.205 118.671C200.817 119.566 202.633 118.761 203.632 120.311C204.216 121.217 204.01 121.952 204.217 123.01C204.542 124.664 204.477 125.642 204.915 127.269C205.745 130.349 208.499 134.61 208.499 134.61C208.499 134.61 203.992 135.915 201.14 136.863C193.905 139.266 190.061 141.204 183.017 144.12C175.349 147.294 171.08 149.148 163.487 152.497C155.359 156.08 150.643 157.774 142.776 161.899C140.369 163.16 136.671 165.236 136.671 165.236C136.671 165.236 135.029 159.425 132.747 156.431C131.747 155.12 130.415 154.902 129.862 153.348C129.595 152.599 129.513 152.127 129.56 151.333C129.667 149.541 131.502 149.142 131.941 147.402C132.205 146.356 132.135 144.646 132.135 144.646L130.605 136.452C130.605 136.452 127.833 128.883 129.347 124.4Z" fill="url(#paint8_linear_5369_7689)"/>
<path d="M117.532 212.431C123.648 198.214 133.991 176.382 133.991 176.382C133.991 176.382 156.356 187.256 170.301 194.95C182.475 201.667 200.989 213 200.989 213C200.989 213 189.24 233.723 181.074 246.611C165.09 271.836 136.438 308.699 136.438 308.699C136.438 308.699 134.913 310.375 133.603 310.815C132.253 311.269 129.955 310.804 129.955 310.804C129.439 310.845 117.686 305.773 110.568 301.977C103.666 298.295 93.2618 291.623 92.0435 290.524C92.0435 290.524 89.9681 288.642 89.7279 287.02C89.5357 285.721 90.3905 283.725 90.3905 283.725C90.3905 283.725 105.76 239.797 117.532 212.431Z" fill="url(#paint9_linear_5369_7689)"/>
</g>
<circle cx="223.808" cy="277.026" r="24.5392" transform="rotate(25.2027 223.808 277.026)" fill="url(#paint10_linear_5369_7689)"/>
<path d="M243.138 276.929C241.792 277.776 239.988 277.744 238.098 276.875C236.214 276.01 234.311 274.335 232.867 272.04C231.424 269.745 230.738 267.306 230.773 265.232C230.809 263.152 231.561 261.513 232.907 260.666C234.253 259.819 236.057 259.851 237.947 260.719C239.831 261.585 241.734 263.259 243.178 265.554C244.622 267.849 245.307 270.289 245.272 272.362C245.237 274.442 244.485 276.082 243.138 276.929Z" stroke="url(#paint11_linear_5369_7689)" stroke-width="1.06024"/>
<path d="M223.42 285.974C218.827 288.863 212.629 287.341 209.591 282.512C206.552 277.682 207.863 271.436 212.456 268.547C217.049 265.657 223.246 267.179 226.285 272.009C229.323 276.839 228.012 283.085 223.42 285.974Z" stroke="url(#paint12_linear_5369_7689)" stroke-width="1.06024"/>
<path d="M219.277 259.198C217.096 259.767 215.073 260.013 213.572 259.96C212.818 259.934 212.227 259.833 211.821 259.68C211.399 259.522 211.294 259.355 211.273 259.273C211.251 259.191 211.262 258.994 211.552 258.65C211.831 258.318 212.297 257.941 212.942 257.549C214.225 256.769 216.11 255.993 218.29 255.424C220.471 254.854 222.494 254.609 223.995 254.661C224.749 254.688 225.34 254.788 225.746 254.941C226.168 255.1 226.273 255.266 226.294 255.348C226.316 255.43 226.305 255.627 226.015 255.972C225.736 256.303 225.27 256.68 224.625 257.072C223.342 257.852 221.457 258.628 219.277 259.198Z" stroke="url(#paint13_linear_5369_7689)" stroke-width="1.06024"/>
<path d="M205.54 274.878C205.251 277.198 204.707 279.242 204.075 280.669C203.758 281.386 203.431 281.918 203.124 282.252C202.806 282.598 202.596 282.643 202.495 282.631C202.394 282.618 202.201 282.523 201.978 282.109C201.763 281.71 201.576 281.114 201.445 280.341C201.183 278.803 201.158 276.687 201.447 274.367C201.737 272.047 202.28 270.003 202.912 268.576C203.23 267.859 203.557 267.327 203.864 266.993C204.182 266.647 204.391 266.602 204.493 266.614C204.594 266.627 204.786 266.722 205.009 267.136C205.225 267.535 205.411 268.131 205.543 268.904C205.805 270.442 205.829 272.558 205.54 274.878Z" stroke="url(#paint14_linear_5369_7689)" stroke-width="1.06024"/>
<path d="M237.276 295.674C234.912 297.161 232.442 297.935 230.377 298.006C228.296 298.077 226.737 297.441 225.989 296.253C225.242 295.065 225.343 293.384 226.309 291.54C227.267 289.708 229.033 287.817 231.397 286.33C233.761 284.843 236.231 284.069 238.296 283.998C240.377 283.927 241.936 284.563 242.683 285.751C243.431 286.938 243.329 288.619 242.364 290.464C241.406 292.295 239.639 294.187 237.276 295.674Z" stroke="url(#paint15_linear_5369_7689)" stroke-width="1.06024"/>
<path d="M220.854 299.204C220.787 299.313 220.587 299.464 220.055 299.493C219.543 299.521 218.845 299.426 217.996 299.194C216.305 298.733 214.136 297.765 211.902 296.39C209.668 295.015 207.827 293.515 206.654 292.213C206.065 291.559 205.665 290.979 205.459 290.509C205.246 290.021 205.29 289.774 205.358 289.665C205.425 289.556 205.625 289.406 206.156 289.377C206.669 289.348 207.367 289.444 208.216 289.675C209.907 290.136 212.076 291.104 214.309 292.479C216.543 293.854 218.384 295.355 219.558 296.657C220.147 297.31 220.546 297.891 220.752 298.361C220.965 298.849 220.921 299.095 220.854 299.204Z" stroke="url(#paint16_linear_5369_7689)" stroke-width="1.06024"/>
<circle cx="85.6654" cy="179.241" r="12.4359" fill="url(#paint17_linear_5369_7689)"/>
<path d="M94.3724 174.938C93.9769 175.556 93.2045 175.917 92.1846 175.926C91.1693 175.936 89.966 175.59 88.8313 174.863C87.6965 174.137 86.8787 173.189 86.462 172.263C86.0434 171.333 86.0482 170.48 86.4437 169.862C86.8393 169.245 87.6116 168.883 88.6316 168.874C89.6469 168.864 90.8502 169.21 91.9849 169.937C93.1196 170.663 93.9375 171.611 94.3542 172.537C94.7728 173.467 94.768 174.32 94.3724 174.938Z" stroke="url(#paint18_linear_5369_7689)" stroke-width="0.860502"/>
<path d="M87.2813 183.339C85.8503 185.575 82.782 186.201 80.4163 184.687C78.0507 183.172 77.3345 180.124 78.7655 177.888C80.1965 175.652 83.2649 175.026 85.6305 176.54C87.9962 178.055 88.7124 181.103 87.2813 183.339Z" stroke="url(#paint19_linear_5369_7689)" stroke-width="0.860502"/>
<path d="M79.6372 171.922C78.7689 172.646 77.9074 173.186 77.2258 173.478C76.8824 173.625 76.6078 173.699 76.4134 173.715C76.2917 173.724 76.2353 173.71 76.2141 173.701C76.2096 173.679 76.2052 173.621 76.2366 173.503C76.2867 173.314 76.4088 173.057 76.6151 172.746C77.0244 172.128 77.7095 171.377 78.5777 170.652C79.446 169.927 80.3075 169.388 80.9891 169.096C81.3325 168.949 81.6071 168.874 81.8015 168.859C81.9232 168.849 81.9795 168.864 82.0008 168.872C82.0053 168.895 82.0097 168.953 81.9783 169.071C81.9282 169.259 81.8061 169.516 81.5998 169.828C81.1905 170.446 80.5054 171.197 79.6372 171.922Z" stroke="url(#paint20_linear_5369_7689)" stroke-width="0.860502"/>
<path d="M76.6716 182.248C77.036 183.363 77.224 184.402 77.2418 185.173C77.2507 185.561 77.2157 185.856 77.1544 186.052C77.1094 186.196 77.0658 186.242 77.0512 186.254C77.0322 186.253 76.9696 186.242 76.8484 186.152C76.6833 186.03 76.4809 185.813 76.2589 185.494C75.8181 184.861 75.3565 183.912 74.992 182.796C74.6275 181.681 74.4396 180.642 74.4218 179.871C74.4129 179.483 74.4479 179.188 74.5092 178.992C74.5542 178.848 74.5978 178.802 74.6124 178.79C74.6314 178.791 74.694 178.803 74.8152 178.892C74.9802 179.014 75.1827 179.231 75.4047 179.55C75.8455 180.183 76.3071 181.132 76.6716 182.248Z" stroke="url(#paint21_linear_5369_7689)" stroke-width="0.860502"/>
<path d="M95.7296 184.798C94.9792 185.97 94.0338 186.837 93.1317 187.3C92.2185 187.768 91.433 187.79 90.9027 187.45C90.3724 187.111 90.063 186.389 90.1062 185.363C90.149 184.35 90.5396 183.129 91.2899 181.956C92.0403 180.784 92.9857 179.918 93.8878 179.455C94.801 178.986 95.5866 178.965 96.1169 179.304C96.6472 179.644 96.9566 180.366 96.9133 181.392C96.8706 182.405 96.48 183.626 95.7296 184.798Z" stroke="url(#paint22_linear_5369_7689)" stroke-width="0.860502"/>
<path d="M88.7623 189.803C88.9195 189.94 88.9348 190.015 88.9364 190.028C88.932 190.04 88.9005 190.109 88.7167 190.208C88.5093 190.32 88.1875 190.423 87.7566 190.499C86.9008 190.649 85.7134 190.674 84.4034 190.527C83.0933 190.379 81.941 190.092 81.1399 189.755C80.7366 189.586 80.4457 189.414 80.2683 189.259C80.111 189.121 80.0958 189.047 80.0942 189.034C80.0986 189.022 80.13 188.953 80.3138 188.853C80.5213 188.741 80.8431 188.638 81.2739 188.563C82.1297 188.413 83.3171 188.388 84.6272 188.535C85.9373 188.682 87.0895 188.97 87.8907 189.306C88.294 189.476 88.5849 189.648 88.7623 189.803Z" stroke="url(#paint23_linear_5369_7689)" stroke-width="0.860502"/>
<circle cx="260.917" cy="247.432" r="9.92879" transform="rotate(31.3477 260.917 247.432)" fill="url(#paint24_linear_5369_7689)"/>
<path d="M268.641 248.117C268.114 248.374 267.438 248.299 266.738 247.882C266.042 247.467 265.365 246.731 264.893 245.765C264.421 244.798 264.257 243.812 264.358 243.008C264.459 242.2 264.816 241.62 265.342 241.363C265.869 241.106 266.545 241.18 267.245 241.598C267.941 242.013 268.618 242.749 269.09 243.715C269.562 244.682 269.726 245.668 269.625 246.472C269.524 247.28 269.167 247.86 268.641 248.117Z" stroke="url(#paint25_linear_5369_7689)" stroke-width="0.687022"/>
<path d="M260.316 250.898C258.411 251.828 256.059 250.98 255.075 248.965C254.091 246.95 254.869 244.574 256.773 243.644C258.677 242.714 261.03 243.561 262.014 245.577C262.998 247.592 262.22 249.968 260.316 250.898Z" stroke="url(#paint26_linear_5369_7689)" stroke-width="0.687022"/>
<path d="M259.847 239.936C258.954 240.07 258.142 240.08 257.556 239.996C257.261 239.953 257.043 239.89 256.904 239.82C256.817 239.776 256.784 239.743 256.773 239.728C256.78 239.711 256.801 239.669 256.871 239.602C256.984 239.494 257.174 239.37 257.444 239.243C257.98 238.991 258.759 238.764 259.652 238.631C260.545 238.497 261.356 238.487 261.942 238.571C262.237 238.613 262.455 238.677 262.595 238.747C262.682 238.791 262.714 238.824 262.725 238.839C262.719 238.856 262.697 238.897 262.627 238.965C262.515 239.072 262.325 239.197 262.055 239.324C261.519 239.575 260.74 239.803 259.847 239.936Z" stroke="url(#paint27_linear_5369_7689)" stroke-width="0.687022"/>
<path d="M253.536 245.748C253.321 246.66 253.018 247.447 252.71 247.98C252.555 248.248 252.408 248.435 252.285 248.543C252.195 248.622 252.146 248.636 252.131 248.638C252.118 248.629 252.08 248.595 252.035 248.484C251.973 248.332 251.925 248.1 251.906 247.79C251.869 247.176 251.948 246.337 252.163 245.425C252.378 244.513 252.681 243.726 252.989 243.193C253.144 242.925 253.291 242.738 253.414 242.63C253.504 242.551 253.553 242.537 253.568 242.535C253.581 242.544 253.619 242.578 253.664 242.689C253.726 242.841 253.774 243.073 253.793 243.383C253.831 243.997 253.751 244.836 253.536 245.748Z" stroke="url(#paint28_linear_5369_7689)" stroke-width="0.687022"/>
<path d="M265.471 255.4C264.472 255.888 263.468 256.086 262.66 256.027C261.843 255.967 261.298 255.656 261.078 255.204C260.857 254.752 260.946 254.131 261.402 253.45C261.852 252.777 262.625 252.106 263.624 251.619C264.622 251.131 265.627 250.933 266.434 250.992C267.251 251.052 267.796 251.363 268.016 251.815C268.237 252.267 268.148 252.888 267.693 253.569C267.243 254.242 266.469 254.913 265.471 255.4Z" stroke="url(#paint29_linear_5369_7689)" stroke-width="0.687022"/>
<path d="M258.64 255.921C258.69 256.08 258.67 256.137 258.665 256.146C258.657 256.153 258.607 256.187 258.441 256.178C258.253 256.169 257.99 256.105 257.665 255.978C257.019 255.725 256.199 255.248 255.367 254.604C254.535 253.959 253.869 253.285 253.463 252.722C253.258 252.44 253.131 252.201 253.074 252.022C253.024 251.863 253.045 251.806 253.049 251.796C253.057 251.79 253.107 251.756 253.274 251.764C253.462 251.774 253.724 251.838 254.049 251.965C254.695 252.218 255.515 252.694 256.347 253.339C257.179 253.983 257.845 254.658 258.252 255.22C258.457 255.503 258.584 255.741 258.64 255.921Z" stroke="url(#paint30_linear_5369_7689)" stroke-width="0.687022"/>
<circle cx="185.557" cy="161.347" r="12.9032" transform="rotate(-42.486 185.557 161.347)" fill="url(#paint31_linear_5369_7689)"/>
<path d="M189.121 151.968C189.245 152.681 188.926 153.472 188.165 154.182C187.408 154.888 186.261 155.461 184.897 155.698C183.534 155.935 182.26 155.783 181.31 155.374C180.354 154.963 179.787 154.326 179.663 153.612C179.539 152.899 179.857 152.108 180.618 151.398C181.375 150.692 182.523 150.12 183.886 149.883C185.25 149.646 186.523 149.797 187.474 150.206C188.43 150.618 188.997 151.255 189.121 151.968Z" stroke="url(#paint32_linear_5369_7689)" stroke-width="1.06024"/>
<path d="M189.582 163.366C190.046 166.031 188.171 168.619 185.342 169.111C182.513 169.603 179.875 167.799 179.411 165.134C178.948 162.47 180.823 159.881 183.652 159.389C186.481 158.897 189.119 160.701 189.582 163.366Z" stroke="url(#paint33_linear_5369_7689)" stroke-width="1.06024"/>
<path d="M175.73 159.96C175.575 161.117 175.295 162.126 174.983 162.818C174.825 163.167 174.671 163.407 174.542 163.546C174.506 163.585 174.477 163.61 174.456 163.627C174.439 163.605 174.418 163.573 174.394 163.526C174.306 163.358 174.221 163.086 174.161 162.707C174.043 161.957 174.04 160.911 174.196 159.754C174.352 158.597 174.631 157.588 174.944 156.896C175.101 156.547 175.255 156.307 175.384 156.168C175.421 156.129 175.449 156.104 175.471 156.087C175.487 156.109 175.508 156.141 175.533 156.188C175.62 156.356 175.705 156.629 175.765 157.007C175.883 157.757 175.886 158.803 175.73 159.96ZM174.409 163.655C174.409 163.655 174.41 163.654 174.412 163.654C174.41 163.654 174.409 163.655 174.409 163.655ZM174.49 163.664C174.492 163.665 174.493 163.666 174.493 163.666C174.493 163.666 174.492 163.665 174.49 163.664ZM175.517 156.059C175.517 156.059 175.516 156.06 175.514 156.06C175.516 156.06 175.517 156.059 175.517 156.059ZM175.436 156.05C175.434 156.049 175.434 156.048 175.434 156.048C175.434 156.048 175.434 156.049 175.436 156.05Z" stroke="url(#paint34_linear_5369_7689)" stroke-width="1.06024"/>
<path d="M180.741 170.023C181.796 170.619 182.661 171.277 183.208 171.847C183.484 172.135 183.657 172.377 183.742 172.559C183.773 172.626 183.787 172.672 183.793 172.701C183.766 172.711 183.719 172.723 183.645 172.731C183.446 172.752 183.148 172.729 182.76 172.642C181.989 172.469 180.978 172.07 179.923 171.475C178.867 170.879 178.002 170.221 177.456 169.651C177.18 169.363 177.007 169.121 176.922 168.939C176.89 168.872 176.876 168.826 176.87 168.797C176.898 168.787 176.944 168.775 177.019 168.767C177.218 168.746 177.515 168.769 177.904 168.856C178.675 169.029 179.685 169.428 180.741 170.023ZM183.797 172.741C183.797 172.741 183.797 172.74 183.797 172.739L183.797 172.741ZM183.827 172.685C183.828 172.685 183.829 172.684 183.829 172.684L183.827 172.685ZM176.866 168.757C176.866 168.757 176.866 168.758 176.866 168.759L176.866 168.757ZM176.836 168.813C176.835 168.813 176.835 168.814 176.834 168.814L176.836 168.813Z" stroke="url(#paint35_linear_5369_7689)" stroke-width="1.06024"/>
<path d="M197.069 158.562C197.314 159.973 197.198 161.283 196.838 162.253C196.473 163.238 195.904 163.773 195.302 163.877C194.7 163.982 193.985 163.67 193.309 162.867C192.642 162.075 192.091 160.881 191.845 159.47C191.6 158.059 191.717 156.75 192.076 155.779C192.441 154.795 193.01 154.26 193.612 154.155C194.214 154.05 194.93 154.362 195.606 155.166C196.272 155.957 196.824 157.151 197.069 158.562Z" stroke="url(#paint36_linear_5369_7689)" stroke-width="1.06024"/>
<path d="M195.33 167.342C195.45 167.339 195.514 167.353 195.544 167.364C195.544 167.395 195.538 167.46 195.499 167.573C195.423 167.792 195.254 168.089 194.98 168.445C194.437 169.151 193.552 169.997 192.451 170.799C191.35 171.602 190.274 172.184 189.435 172.485C189.012 172.637 188.678 172.706 188.446 172.711C188.326 172.714 188.263 172.7 188.233 172.69C188.232 172.658 188.238 172.593 188.278 172.48C188.354 172.261 188.522 171.965 188.796 171.609C189.34 170.902 190.224 170.056 191.325 169.254C192.426 168.452 193.503 167.869 194.342 167.568C194.765 167.417 195.098 167.347 195.33 167.342Z" stroke="url(#paint37_linear_5369_7689)" stroke-width="1.06024"/>
<circle cx="201.7" cy="181.11" r="17.0161" transform="rotate(-24.1849 201.7 181.11)" fill="url(#paint38_linear_5369_7689)"/>
<path d="M210.213 170.866C210.062 171.885 209.282 172.783 208.003 173.371C206.729 173.958 205.022 174.201 203.189 173.929C201.355 173.657 199.792 172.928 198.743 171.998C197.69 171.063 197.204 169.978 197.356 168.959C197.507 167.94 198.287 167.042 199.566 166.454C200.84 165.867 202.547 165.624 204.38 165.896C206.213 166.168 207.777 166.896 208.825 167.827C209.879 168.762 210.364 169.847 210.213 170.866Z" stroke="url(#paint39_linear_5369_7689)" stroke-width="1.06024"/>
<path d="M206.072 185.331C205.534 188.958 202.023 191.479 198.192 190.911C194.36 190.342 191.733 186.911 192.271 183.284C192.809 179.657 196.319 177.136 200.151 177.704C203.982 178.272 206.61 181.704 206.072 185.331Z" stroke="url(#paint40_linear_5369_7689)" stroke-width="1.06024"/>
<path d="M190.124 175.378C189.445 176.772 188.669 177.934 187.977 178.686C187.629 179.065 187.323 179.316 187.081 179.449C186.873 179.563 186.785 179.553 186.769 179.55C186.756 179.539 186.694 179.476 186.656 179.242C186.611 178.969 186.62 178.573 186.704 178.066C186.869 177.057 187.305 175.73 187.985 174.336C188.664 172.941 189.44 171.779 190.132 171.027C190.48 170.649 190.786 170.397 191.028 170.265C191.236 170.15 191.324 170.161 191.34 170.164C191.353 170.175 191.415 170.238 191.453 170.472C191.498 170.744 191.489 171.14 191.405 171.648C191.24 172.656 190.804 173.983 190.124 175.378Z" stroke="url(#paint41_linear_5369_7689)" stroke-width="1.06024"/>
<path d="M192.203 189.868C193.286 191.059 194.106 192.255 194.564 193.214C194.794 193.697 194.918 194.091 194.953 194.379C194.97 194.521 194.962 194.617 194.948 194.676C194.941 194.704 194.934 194.72 194.929 194.729C194.924 194.737 194.921 194.74 194.92 194.741C194.919 194.742 194.916 194.745 194.907 194.749C194.898 194.753 194.881 194.758 194.852 194.763C194.792 194.771 194.696 194.77 194.556 194.739C194.273 194.678 193.892 194.516 193.434 194.241C192.523 193.695 191.41 192.765 190.327 191.573C189.244 190.382 188.423 189.186 187.966 188.228C187.736 187.745 187.611 187.351 187.577 187.063C187.56 186.921 187.568 186.825 187.582 186.766C187.588 186.738 187.596 186.721 187.601 186.713C187.605 186.705 187.608 186.702 187.61 186.701C187.611 186.699 187.614 186.697 187.622 186.693C187.631 186.689 187.649 186.683 187.677 186.679C187.737 186.671 187.833 186.672 187.973 186.702C188.256 186.764 188.637 186.925 189.096 187.2C190.007 187.747 191.12 188.677 192.203 189.868Z" stroke="url(#paint42_linear_5369_7689)" stroke-width="1.06024"/>
<path d="M217.435 182.416C217.155 184.308 216.457 185.929 215.583 187.022C214.699 188.128 213.712 188.612 212.831 188.482C211.949 188.351 211.145 187.6 210.62 186.286C210.101 184.987 209.904 183.233 210.185 181.34C210.466 179.448 211.163 177.827 212.038 176.734C212.921 175.629 213.908 175.144 214.79 175.275C215.671 175.405 216.475 176.156 217 177.47C217.519 178.77 217.716 180.524 217.435 182.416Z" stroke="url(#paint43_linear_5369_7689)" stroke-width="1.06024"/>
<path d="M211.886 192.726C211.889 192.733 211.917 192.85 211.704 193.128C211.502 193.391 211.152 193.704 210.654 194.042C209.665 194.713 208.191 195.412 206.469 195.963C204.748 196.515 203.143 196.803 201.947 196.833C201.346 196.848 200.879 196.796 200.562 196.699C200.227 196.597 200.182 196.486 200.18 196.478C200.177 196.47 200.149 196.354 200.362 196.076C200.564 195.813 200.914 195.5 201.412 195.162C202.401 194.491 203.875 193.792 205.597 193.24C207.318 192.688 208.923 192.4 210.119 192.371C210.72 192.356 211.187 192.408 211.504 192.504C211.839 192.607 211.884 192.718 211.886 192.726Z" stroke="url(#paint44_linear_5369_7689)" stroke-width="1.06024"/>
<path opacity="0.3" d="M151.917 141.326L219.951 176.025L201.086 213.013C201.086 213.013 179.531 199.78 166.631 193.092C153.004 186.028 134.074 176.507 134.074 176.507L151.917 141.326Z" fill="url(#paint45_linear_5369_7689)"/>
<defs>
<linearGradient id="paint0_linear_5369_7689" x1="323.258" y1="268.239" x2="178.56" y2="139.112" gradientUnits="userSpaceOnUse">
<stop stop-color="#E00000"/>
<stop offset="1" stop-color="#00133C" stop-opacity="0"/>
</linearGradient>
<linearGradient id="paint1_linear_5369_7689" x1="76.5917" y1="131.572" x2="221.29" y2="260.699" gradientUnits="userSpaceOnUse">
<stop stop-color="#24505E"/>
<stop offset="0.40625" stop-color="#00133C" stop-opacity="0"/>
</linearGradient>
<linearGradient id="paint2_linear_5369_7689" x1="323.258" y1="268.239" x2="178.56" y2="139.112" gradientUnits="userSpaceOnUse">
<stop stop-color="#24505E"/>
<stop offset="1" stop-color="#00133C" stop-opacity="0"/>
</linearGradient>
<linearGradient id="paint3_linear_5369_7689" x1="291.987" y1="219.553" x2="291.987" y2="76.2192" gradientUnits="userSpaceOnUse">
<stop stop-color="#FF658D" stop-opacity="0.56"/>
<stop offset="1" stop-color="#13181E" stop-opacity="0"/>
</linearGradient>
<linearGradient id="paint4_linear_5369_7689" x1="264.497" y1="198.984" x2="323.664" y2="133.15" gradientUnits="userSpaceOnUse">
<stop stop-color="#FF3065"/>
<stop offset="1" stop-color="#FFB0C4"/>
</linearGradient>
<linearGradient id="paint5_linear_5369_7689" x1="168.679" y1="93.8878" x2="130.257" y2="110.939" gradientUnits="userSpaceOnUse">
<stop stop-color="#185556" stop-opacity="0.62"/>
<stop offset="0.15898" stop-color="#359FA0" stop-opacity="0.72"/>
<stop offset="0.354167" stop-color="#0ABEE5"/>
<stop offset="0.604167" stop-color="#13B5BC" stop-opacity="0.6"/>
<stop offset="1" stop-color="#275865" stop-opacity="0.48"/>
</linearGradient>
<linearGradient id="paint6_linear_5369_7689" x1="169.926" y1="98.1858" x2="133.963" y2="117.392" gradientUnits="userSpaceOnUse">
<stop stop-color="#185556" stop-opacity="0.62"/>
<stop offset="0.15898" stop-color="#359FA0" stop-opacity="0.72"/>
<stop offset="0.354167" stop-color="#0ABEE5"/>
<stop offset="0.604167" stop-color="#13B5BC" stop-opacity="0.6"/>
<stop offset="1" stop-color="#275865" stop-opacity="0.48"/>
</linearGradient>
<linearGradient id="paint7_linear_5369_7689" x1="171.022" y1="101.477" x2="136.765" y2="121.664" gradientUnits="userSpaceOnUse">
<stop stop-color="#185556" stop-opacity="0.62"/>
<stop offset="0.15898" stop-color="#359FA0" stop-opacity="0.72"/>
<stop offset="0.354167" stop-color="#0ABEE5"/>
<stop offset="0.604167" stop-color="#13B5BC" stop-opacity="0.6"/>
<stop offset="1" stop-color="#275865" stop-opacity="0.48"/>
</linearGradient>
<linearGradient id="paint8_linear_5369_7689" x1="209.92" y1="134.823" x2="128.848" y2="170.892" gradientUnits="userSpaceOnUse">
<stop stop-color="#185556" stop-opacity="0.62"/>
<stop offset="0.15898" stop-color="#359FA0" stop-opacity="0.72"/>
<stop offset="0.354167" stop-color="#0ABEE5"/>
<stop offset="0.604167" stop-color="#13B5BC" stop-opacity="0.6"/>
<stop offset="1" stop-color="#275865" stop-opacity="0.48"/>
</linearGradient>
<linearGradient id="paint9_linear_5369_7689" x1="143.312" y1="319.738" x2="69.2798" y2="280.428" gradientUnits="userSpaceOnUse">
<stop offset="0.0355016" stop-color="#AF405A"/>
<stop offset="0.188024" stop-color="#359FA0" stop-opacity="0.72"/>
<stop offset="0.354167" stop-color="#0ABEE5"/>
<stop offset="0.604167" stop-color="#13B5BC" stop-opacity="0.6"/>
<stop offset="1" stop-color="#275865" stop-opacity="0.48"/>
</linearGradient>
<linearGradient id="paint10_linear_5369_7689" x1="223.093" y1="253.368" x2="223.808" y2="301.565" gradientUnits="userSpaceOnUse">
<stop stop-color="#FFE2EA"/>
<stop offset="0.416145" stop-color="#B05A72"/>
<stop offset="1" stop-color="#4B4758" stop-opacity="0"/>
</linearGradient>
<linearGradient id="paint11_linear_5369_7689" x1="243.626" y1="265.272" x2="232.419" y2="272.323" gradientUnits="userSpaceOnUse">
<stop stop-color="#010202"/>
<stop offset="1" stop-color="#010202" stop-opacity="0"/>
</linearGradient>
<linearGradient id="paint12_linear_5369_7689" x1="226.733" y1="271.727" x2="209.142" y2="282.794" gradientUnits="userSpaceOnUse">
<stop stop-color="#010202"/>
<stop offset="1" stop-color="#010202" stop-opacity="0"/>
</linearGradient>
<linearGradient id="paint13_linear_5369_7689" x1="226.807" y1="255.214" x2="210.76" y2="259.407" gradientUnits="userSpaceOnUse">
<stop stop-color="#010202"/>
<stop offset="1" stop-color="#010202" stop-opacity="0"/>
</linearGradient>
<linearGradient id="paint14_linear_5369_7689" x1="204.558" y1="266.088" x2="202.429" y2="283.157" gradientUnits="userSpaceOnUse">
<stop stop-color="#010202"/>
<stop offset="1" stop-color="#010202" stop-opacity="0"/>
</linearGradient>
<linearGradient id="paint15_linear_5369_7689" x1="243.132" y1="285.468" x2="225.541" y2="296.535" gradientUnits="userSpaceOnUse">
<stop stop-color="#010202"/>
<stop offset="1" stop-color="#010202" stop-opacity="0"/>
</linearGradient>
<linearGradient id="paint16_linear_5369_7689" x1="214.587" y1="292.028" x2="211.624" y2="296.842" gradientUnits="userSpaceOnUse">
<stop stop-color="#010202"/>
<stop offset="1" stop-color="#010202" stop-opacity="0"/>
</linearGradient>
<linearGradient id="paint17_linear_5369_7689" x1="85.6654" y1="177.678" x2="85.6654" y2="191.677" gradientUnits="userSpaceOnUse">
<stop stop-color="#04E2E5"/>
<stop offset="0.9999" stop-color="#04E2E5" stop-opacity="0.0677083"/>
<stop offset="1" stop-color="#04E2E5" stop-opacity="0"/>
</linearGradient>
<linearGradient id="paint18_linear_5369_7689" x1="92.2169" y1="169.574" x2="88.5993" y2="175.226" gradientUnits="userSpaceOnUse">
<stop stop-color="#010202"/>
<stop offset="1" stop-color="#010202" stop-opacity="0"/>
</linearGradient>
<linearGradient id="paint19_linear_5369_7689" x1="85.8625" y1="176.178" x2="80.1844" y2="185.049" gradientUnits="userSpaceOnUse">
<stop stop-color="#010202"/>
<stop offset="1" stop-color="#010202" stop-opacity="0"/>
</linearGradient>
<linearGradient id="paint20_linear_5369_7689" x1="82.3342" y1="168.594" x2="75.8807" y2="173.98" gradientUnits="userSpaceOnUse">
<stop stop-color="#010202"/>
<stop offset="1" stop-color="#010202" stop-opacity="0"/>
</linearGradient>
<linearGradient id="paint21_linear_5369_7689" x1="74.4783" y1="178.379" x2="77.1853" y2="186.665" gradientUnits="userSpaceOnUse">
<stop stop-color="#010202"/>
<stop offset="1" stop-color="#010202" stop-opacity="0"/>
</linearGradient>
<linearGradient id="paint22_linear_5369_7689" x1="96.3488" y1="178.942" x2="90.6707" y2="187.813" gradientUnits="userSpaceOnUse">
<stop stop-color="#010202"/>
<stop offset="1" stop-color="#010202" stop-opacity="0"/>
</linearGradient>
<linearGradient id="paint23_linear_5369_7689" x1="84.6752" y1="188.107" x2="84.3553" y2="190.954" gradientUnits="userSpaceOnUse">
<stop stop-color="#010202"/>
<stop offset="1" stop-color="#010202" stop-opacity="0"/>
</linearGradient>
<linearGradient id="paint24_linear_5369_7689" x1="260.917" y1="246.184" x2="260.917" y2="257.361" gradientUnits="userSpaceOnUse">
<stop stop-color="#04E2E5"/>
<stop offset="0.9999" stop-color="#04E2E5" stop-opacity="0.0677083"/>
<stop offset="1" stop-color="#04E2E5" stop-opacity="0"/>
</linearGradient>
<linearGradient id="paint25_linear_5369_7689" x1="269.399" y1="243.564" x2="264.584" y2="245.915" gradientUnits="userSpaceOnUse">
<stop stop-color="#010202"/>
<stop offset="1" stop-color="#010202" stop-opacity="0"/>
</linearGradient>
<linearGradient id="paint26_linear_5369_7689" x1="262.322" y1="245.426" x2="254.766" y2="249.116" gradientUnits="userSpaceOnUse">
<stop stop-color="#010202"/>
<stop offset="1" stop-color="#010202" stop-opacity="0"/>
</linearGradient>
<linearGradient id="paint27_linear_5369_7689" x1="263.068" y1="238.787" x2="256.431" y2="239.779" gradientUnits="userSpaceOnUse">
<stop stop-color="#010202"/>
<stop offset="1" stop-color="#010202" stop-opacity="0"/>
</linearGradient>
<linearGradient id="paint28_linear_5369_7689" x1="253.647" y1="242.199" x2="252.052" y2="248.974" gradientUnits="userSpaceOnUse">
<stop stop-color="#010202"/>
<stop offset="1" stop-color="#010202" stop-opacity="0"/>
</linearGradient>
<linearGradient id="paint29_linear_5369_7689" x1="268.325" y1="251.664" x2="260.769" y2="255.355" gradientUnits="userSpaceOnUse">
<stop stop-color="#010202"/>
<stop offset="1" stop-color="#010202" stop-opacity="0"/>
</linearGradient>
<linearGradient id="paint30_linear_5369_7689" x1="256.558" y1="253.067" x2="255.157" y2="254.876" gradientUnits="userSpaceOnUse">
<stop stop-color="#010202"/>
<stop offset="1" stop-color="#010202" stop-opacity="0"/>
</linearGradient>
<linearGradient id="paint31_linear_5369_7689" x1="185.557" y1="148.444" x2="185.557" y2="174.251" gradientUnits="userSpaceOnUse">
<stop stop-color="#FF95B0"/>
<stop offset="0.0001" stop-color="white"/>
<stop offset="0.390625" stop-color="#FF95B0"/>
<stop offset="1" stop-color="#FF95B0" stop-opacity="0"/>
</linearGradient>
<linearGradient id="paint32_linear_5369_7689" x1="183.795" y1="149.36" x2="184.988" y2="156.22" gradientUnits="userSpaceOnUse">
<stop stop-color="#010202"/>
<stop offset="1" stop-color="#010202" stop-opacity="0"/>
</linearGradient>
<linearGradient id="paint33_linear_5369_7689" x1="183.561" y1="158.867" x2="185.433" y2="169.634" gradientUnits="userSpaceOnUse">
<stop stop-color="#010202"/>
<stop offset="1" stop-color="#010202" stop-opacity="0"/>
</linearGradient>
<linearGradient id="paint34_linear_5369_7689" x1="175.545" y1="155.535" x2="174.381" y2="164.179" gradientUnits="userSpaceOnUse">
<stop stop-color="#010202"/>
<stop offset="1" stop-color="#010202" stop-opacity="0"/>
</linearGradient>
<linearGradient id="paint35_linear_5369_7689" x1="176.393" y1="168.528" x2="184.271" y2="172.97" gradientUnits="userSpaceOnUse">
<stop stop-color="#010202"/>
<stop offset="1" stop-color="#010202" stop-opacity="0"/>
</linearGradient>
<linearGradient id="paint36_linear_5369_7689" x1="193.521" y1="153.633" x2="195.393" y2="164.4" gradientUnits="userSpaceOnUse">
<stop stop-color="#010202"/>
<stop offset="1" stop-color="#010202" stop-opacity="0"/>
</linearGradient>
<linearGradient id="paint37_linear_5369_7689" x1="191.013" y1="168.825" x2="192.763" y2="171.228" gradientUnits="userSpaceOnUse">
<stop stop-color="#010202"/>
<stop offset="1" stop-color="#010202" stop-opacity="0"/>
</linearGradient>
<linearGradient id="paint38_linear_5369_7689" x1="201.7" y1="178.972" x2="201.7" y2="198.126" gradientUnits="userSpaceOnUse">
<stop stop-color="#04E2E5"/>
<stop offset="0.9999" stop-color="#04E2E5" stop-opacity="0.0677083"/>
<stop offset="1" stop-color="#04E2E5" stop-opacity="0"/>
</linearGradient>
<linearGradient id="paint39_linear_5369_7689" x1="204.458" y1="165.371" x2="203.111" y2="174.454" gradientUnits="userSpaceOnUse">
<stop stop-color="#010202"/>
<stop offset="1" stop-color="#010202" stop-opacity="0"/>
</linearGradient>
<linearGradient id="paint40_linear_5369_7689" x1="200.229" y1="177.18" x2="198.114" y2="191.435" gradientUnits="userSpaceOnUse">
<stop stop-color="#010202"/>
<stop offset="1" stop-color="#010202" stop-opacity="0"/>
</linearGradient>
<linearGradient id="paint41_linear_5369_7689" x1="191.573" y1="169.687" x2="186.536" y2="180.027" gradientUnits="userSpaceOnUse">
<stop stop-color="#010202"/>
<stop offset="1" stop-color="#010202" stop-opacity="0"/>
</linearGradient>
<linearGradient id="paint42_linear_5369_7689" x1="187.253" y1="186.308" x2="195.277" y2="195.133" gradientUnits="userSpaceOnUse">
<stop stop-color="#010202"/>
<stop offset="1" stop-color="#010202" stop-opacity="0"/>
</linearGradient>
<linearGradient id="paint43_linear_5369_7689" x1="214.867" y1="174.75" x2="212.753" y2="189.006" gradientUnits="userSpaceOnUse">
<stop stop-color="#010202"/>
<stop offset="1" stop-color="#010202" stop-opacity="0"/>
</linearGradient>
<linearGradient id="paint44_linear_5369_7689" x1="205.435" y1="192.735" x2="206.631" y2="196.468" gradientUnits="userSpaceOnUse">
<stop stop-color="#010202"/>
<stop offset="1" stop-color="#010202" stop-opacity="0"/>
</linearGradient>
<linearGradient id="paint45_linear_5369_7689" x1="185.934" y1="158.675" x2="167.069" y2="195.664" gradientUnits="userSpaceOnUse">
<stop stop-opacity="0"/>
<stop offset="1" stop-color="#FF5B85"/>
</linearGradient>
</defs>
</svg>
