<svg width="400" height="400" viewBox="0 0 400 400" fill="none" xmlns="http://www.w3.org/2000/svg">
<path d="M321.926 95.1289L71.4563 95.1289C66.2033 95.1289 61.9448 99.5762 61.9448 105.062L61.9448 282.204C61.9448 287.69 66.2033 292.137 71.4563 292.137H321.926C327.179 292.137 331.438 287.69 331.438 282.204V105.062C331.438 99.5762 327.179 95.1289 321.926 95.1289Z" fill="url(#paint0_linear_5369_7682)"/>
<path d="M321.926 95.1289L71.4563 95.1289C66.2033 95.1289 61.9448 99.5762 61.9448 105.062L61.9448 282.204C61.9448 287.69 66.2033 292.137 71.4563 292.137H321.926C327.179 292.137 331.438 287.69 331.438 282.204V105.062C331.438 99.5762 327.179 95.1289 321.926 95.1289Z" fill="url(#paint1_linear_5369_7682)"/>
<path opacity="0.7" d="M237.579 291.208L74.9544 292.137C69.1434 292.137 61.9444 287.697 61.9444 281.915L61.2593 95.1289" fill="url(#paint2_linear_5369_7682)"/>
<path opacity="0.7" d="M237.579 291.208L74.9544 292.137C69.1434 292.137 61.9444 287.697 61.9444 281.915L61.2593 95.1289" fill="url(#paint3_linear_5369_7682)"/>
<path d="M346.983 56H254.055C247.896 56 242.903 63.4029 242.903 72.5349V199.302C242.903 208.434 247.896 215.837 254.055 215.837H346.983C353.142 215.837 358.135 208.434 358.135 199.302V72.5349C358.135 63.4029 353.142 56 346.983 56Z" fill="url(#paint4_linear_5369_7682)"/>
<path d="M334.079 119.191H267.133C260.985 119.191 256 124.176 256 130.324V189.836C256 195.984 260.985 200.969 267.133 200.969H334.079C340.228 200.969 345.212 195.984 345.212 189.836V130.324C345.212 124.176 340.228 119.191 334.079 119.191Z" fill="url(#paint5_linear_5369_7682)"/>
<path fill-rule="evenodd" clip-rule="evenodd" d="M157.499 145.211C147.234 145.211 138.913 153.532 138.913 163.797V282.745C138.913 293.01 147.234 301.331 157.499 301.331H200.246C210.511 301.331 218.832 293.01 218.832 282.745V163.797C218.832 153.532 210.51 145.211 200.246 145.211H157.499ZM163.075 154.505C154.863 154.505 148.206 161.161 148.206 169.373V202.827C148.206 211.039 154.863 217.696 163.075 217.696H194.67C202.882 217.696 209.539 211.039 209.539 202.827V169.373C209.539 161.161 202.882 154.505 194.67 154.505H163.075Z" fill="url(#paint6_linear_5369_7682)"/>
<rect x="149.135" y="155.435" width="59.4743" height="61.3328" rx="13.9393" stroke="url(#paint7_linear_5369_7682)" stroke-width="1.85857"/>
<line x1="138.913" y1="227.918" x2="218.831" y2="227.918" stroke="#122A40" stroke-width="1.85857" stroke-dasharray="1.86 1.86"/>
<path fill-rule="evenodd" clip-rule="evenodd" d="M105.459 100.605C95.1946 100.605 86.8735 108.927 86.8735 119.191V238.14C86.8735 248.404 95.1947 256.725 105.459 256.725H148.206C158.471 256.725 166.792 248.404 166.792 238.14V119.191C166.792 108.927 158.471 100.605 148.206 100.605H105.459ZM111.035 109.899C102.824 109.899 96.1667 116.556 96.1667 124.768V158.222C96.1667 166.434 102.824 173.091 111.035 173.091H142.631C150.843 173.091 157.499 166.434 157.499 158.222V124.768C157.499 116.556 150.843 109.899 142.631 109.899H111.035Z" fill="url(#paint8_linear_5369_7682)"/>
<rect x="96.166" y="109.898" width="61.3328" height="63.1914" rx="14.8686" fill="url(#paint9_linear_5369_7682)" fill-opacity="0.3"/>
<path d="M96.166 174.949C113.627 174.949 127.762 160.799 127.762 143.354C127.762 125.908 113.607 111.758 96.166 111.758C78.7254 111.758 64.5703 125.908 64.5703 143.354C64.5703 160.82 78.7047 174.949 96.166 174.949Z" fill="url(#paint10_radial_5369_7682)"/>
<path d="M269.941 275.311C280.726 275.311 289.456 266.571 289.456 255.796C289.456 245.021 280.713 236.281 269.941 236.281C259.169 236.281 250.426 245.021 250.426 255.796C250.426 266.584 259.156 275.311 269.941 275.311Z" fill="url(#paint11_radial_5369_7682)"/>
<rect x="97.0953" y="110.828" width="59.4743" height="61.3328" rx="13.9393" stroke="url(#paint12_linear_5369_7682)" stroke-width="1.85857"/>
<line x1="86.873" y1="183.313" x2="166.792" y2="183.313" stroke="#14191F" stroke-width="1.85857" stroke-dasharray="1.86 1.86"/>
<circle cx="82.0719" cy="142.263" r="20.0467" transform="rotate(80.5308 82.0719 142.263)" fill="url(#paint13_linear_5369_7682)"/>
<path d="M91.1839 155.058C90.0542 154.575 89.2601 153.406 88.9709 151.765C88.6829 150.131 88.9176 148.106 89.7782 146.093C90.6388 144.081 91.941 142.512 93.3216 141.592C94.7074 140.667 96.1015 140.434 97.2312 140.917C98.3609 141.4 99.155 142.569 99.4441 144.21C99.7321 145.844 99.4975 147.869 98.6369 149.882C97.7763 151.894 96.4741 153.463 95.0935 154.383C93.7076 155.308 92.3135 155.541 91.1839 155.058Z" stroke="url(#paint14_linear_5369_7682)" stroke-width="1.18232"/>
<path d="M75.9442 146.009C71.9543 144.303 70.126 139.528 71.9269 135.316C73.7279 131.105 78.4435 129.128 82.4334 130.835C86.4233 132.541 88.2516 137.316 86.4506 141.527C84.6496 145.739 79.9341 147.715 75.9442 146.009Z" stroke="url(#paint15_linear_5369_7682)" stroke-width="1.18232"/>
<path d="M92.0481 130.81C90.6604 129.617 89.5664 128.383 88.9146 127.366C88.5865 126.854 88.3894 126.427 88.3093 126.107C88.2696 125.948 88.2644 125.838 88.272 125.769C88.2756 125.736 88.2818 125.716 88.2861 125.706C88.2901 125.696 88.2932 125.692 88.2945 125.69C88.2958 125.689 88.2992 125.685 88.3084 125.68C88.3183 125.674 88.3371 125.665 88.3692 125.656C88.4363 125.638 88.5458 125.627 88.7083 125.643C89.0368 125.674 89.4891 125.805 90.0442 126.052C91.1473 126.544 92.5315 127.44 93.9192 128.633C95.3068 129.826 96.4008 131.06 97.0526 132.077C97.3807 132.589 97.5778 133.016 97.6579 133.336C97.6976 133.495 97.7028 133.605 97.6952 133.674C97.6916 133.707 97.6854 133.727 97.6811 133.737C97.6771 133.747 97.674 133.751 97.6727 133.753C97.6714 133.754 97.668 133.758 97.6588 133.763C97.6489 133.769 97.6301 133.778 97.598 133.787C97.5309 133.805 97.4215 133.816 97.2589 133.801C96.9304 133.769 96.4781 133.639 95.923 133.391C94.8199 132.899 93.4357 132.003 92.0481 130.81Z" stroke="url(#paint16_linear_5369_7682)" stroke-width="1.18232"/>
<path d="M74.9539 128.847C73.2704 129.725 71.659 130.304 70.4256 130.539C69.8051 130.657 69.3144 130.682 68.9713 130.634C68.6102 130.584 68.5464 130.477 68.5432 130.471C68.5399 130.465 68.4887 130.351 68.654 130.026C68.8111 129.717 69.1118 129.329 69.5636 128.888C70.4617 128.01 71.8577 127.019 73.5412 126.14C75.2246 125.262 76.8361 124.683 78.0695 124.448C78.69 124.33 79.1807 124.305 79.5237 124.353C79.8848 124.403 79.9486 124.51 79.9519 124.516C79.9552 124.522 80.0063 124.636 79.841 124.961C79.684 125.269 79.3833 125.658 78.9315 126.099C78.0334 126.977 76.6373 127.968 74.9539 128.847Z" stroke="url(#paint17_linear_5369_7682)" stroke-width="1.18232"/>
<path d="M75.8648 159.832C73.7881 158.944 72.1447 157.66 71.1566 156.331C70.1583 154.989 69.8944 153.706 70.3137 152.726C70.7331 151.745 71.8429 151.05 73.503 150.844C75.1463 150.641 77.2098 150.943 79.2864 151.831C81.363 152.719 83.0064 154.002 83.9946 155.331C84.9928 156.673 85.2568 157.956 84.8374 158.937C84.418 159.917 83.3083 160.613 81.6481 160.818C80.0049 161.021 77.9414 160.72 75.8648 159.832Z" stroke="url(#paint18_linear_5369_7682)" stroke-width="1.18232"/>
<path d="M65.7913 150.426C65.7651 150.427 65.615 150.414 65.3594 150.084C65.1169 149.772 64.8633 149.276 64.6271 148.606C64.1575 147.274 63.8017 145.382 63.688 143.253C63.5743 141.124 63.7266 139.205 64.0516 137.83C64.2151 137.139 64.4145 136.619 64.6223 136.283C64.8413 135.928 64.9892 135.898 65.0154 135.897C65.0416 135.896 65.1917 135.909 65.4473 136.239C65.6897 136.551 65.9434 137.047 66.1796 137.717C66.6492 139.049 67.005 140.941 67.1187 143.07C67.2324 145.199 67.0801 147.118 66.755 148.492C66.5916 149.184 66.3922 149.704 66.1844 150.04C65.9653 150.395 65.8175 150.424 65.7913 150.426Z" stroke="url(#paint19_linear_5369_7682)" stroke-width="1.18232"/>
<circle cx="274.432" cy="259.249" r="15.7518" transform="rotate(-51.1884 274.432 259.249)" fill="url(#paint20_linear_5369_7682)"/>
<path d="M277.053 247.253C277.342 248.114 277.094 249.147 276.299 250.154C275.509 251.155 274.22 252.064 272.61 252.605C270.999 253.146 269.424 253.199 268.189 252.878C266.948 252.555 266.126 251.881 265.837 251.02C265.548 250.159 265.796 249.126 266.59 248.119C267.381 247.118 268.669 246.209 270.28 245.668C271.89 245.127 273.466 245.074 274.701 245.395C275.942 245.718 276.763 246.392 277.053 247.253Z" stroke="url(#paint21_linear_5369_7682)" stroke-width="1.18232"/>
<path d="M279.716 260.923C280.778 264.084 278.975 267.585 275.625 268.71C272.275 269.835 268.725 268.132 267.663 264.971C266.601 261.81 268.404 258.309 271.754 257.184C275.104 256.059 278.654 257.761 279.716 260.923Z" stroke="url(#paint22_linear_5369_7682)" stroke-width="1.18232"/>
<path d="M262.373 259.383C262.399 260.812 262.248 262.086 261.997 262.985C261.87 263.439 261.727 263.763 261.592 263.962C261.53 264.052 261.485 264.097 261.458 264.118C261.43 264.098 261.383 264.055 261.318 263.967C261.176 263.773 261.021 263.454 260.878 263.005C260.594 262.116 260.397 260.848 260.372 259.419C260.346 257.99 260.497 256.716 260.748 255.817C260.875 255.364 261.018 255.039 261.153 254.841C261.215 254.75 261.26 254.705 261.287 254.684C261.315 254.704 261.362 254.747 261.427 254.836C261.569 255.029 261.724 255.348 261.867 255.797C262.151 256.686 262.348 257.954 262.373 259.383ZM261.487 264.136C261.487 264.136 261.486 264.136 261.485 264.135L261.487 264.136ZM261.259 254.667C261.259 254.667 261.259 254.667 261.26 254.667L261.259 254.667Z" stroke="url(#paint23_linear_5369_7682)" stroke-width="1.18232"/>
<path d="M270.242 270.557C271.629 271.082 272.8 271.719 273.57 272.31C273.959 272.608 274.218 272.873 274.358 273.083C274.437 273.201 274.459 273.27 274.466 273.302C274.44 273.322 274.377 273.359 274.241 273.395C273.996 273.459 273.626 273.486 273.138 273.453C272.169 273.386 270.87 273.089 269.483 272.564C268.096 272.039 266.925 271.402 266.155 270.811C265.767 270.513 265.508 270.248 265.367 270.038C265.288 269.921 265.266 269.852 265.259 269.82C265.286 269.8 265.348 269.763 265.485 269.727C265.729 269.663 266.099 269.635 266.587 269.669C267.556 269.736 268.855 270.033 270.242 270.557Z" stroke="url(#paint24_linear_5369_7682)" stroke-width="1.18232"/>
<path d="M287.861 253.742C288.421 255.407 288.524 257.019 288.266 258.268C288.006 259.533 287.41 260.306 286.676 260.553C285.942 260.799 285.001 260.542 284.029 259.691C283.07 258.851 282.179 257.503 281.62 255.838C281.061 254.173 280.958 252.561 281.215 251.312C281.476 250.047 282.071 249.274 282.805 249.027C283.539 248.781 284.481 249.038 285.452 249.889C286.411 250.729 287.302 252.077 287.861 253.742Z" stroke="url(#paint25_linear_5369_7682)" stroke-width="1.18232"/>
<path d="M287.324 264.623C287.527 264.588 287.614 264.609 287.641 264.619C287.652 264.647 287.672 264.734 287.635 264.937C287.582 265.223 287.431 265.618 287.164 266.101C286.636 267.06 285.721 268.248 284.538 269.422C283.354 270.596 282.159 271.502 281.196 272.023C280.711 272.285 280.315 272.433 280.028 272.484C279.826 272.52 279.738 272.499 279.711 272.488C279.701 272.461 279.68 272.373 279.717 272.171C279.77 271.884 279.922 271.49 280.188 271.007C280.716 270.048 281.631 268.859 282.815 267.685C283.998 266.512 285.193 265.606 286.156 265.085C286.641 264.822 287.037 264.674 287.324 264.623Z" stroke="url(#paint26_linear_5369_7682)" stroke-width="1.18232"/>
<path d="M280.227 156.321C280.395 155.82 280.842 155.448 281.364 155.374L293.773 153.608L299.381 142.271C299.549 141.936 299.847 141.676 300.201 141.564C300.555 141.453 300.946 141.472 301.3 141.639C301.58 141.769 301.803 141.992 301.934 142.271L307.505 153.534L319.839 155.299C320.622 155.411 321.162 156.136 321.032 156.916C320.995 157.232 320.846 157.511 320.603 157.715L311.604 166.525L313.765 178.847C313.858 179.386 313.635 179.925 313.188 180.241C312.741 180.557 312.163 180.613 311.679 180.371L300.611 174.517L289.488 180.353C289.003 180.613 288.426 180.557 287.978 180.241C287.531 179.925 287.326 179.368 287.419 178.829L289.544 166.506L280.526 157.715C280.19 157.325 280.078 156.805 280.227 156.321Z" fill="#FFE1E9"/>
<defs>
<linearGradient id="paint0_linear_5369_7682" x1="334.225" y1="269.835" x2="172.866" y2="125.839" gradientUnits="userSpaceOnUse">
<stop stop-color="#24505E"/>
<stop offset="1" stop-color="#00133C" stop-opacity="0"/>
</linearGradient>
<linearGradient id="paint1_linear_5369_7682" x1="330.345" y1="288.321" x2="177.624" y2="128.424" gradientUnits="userSpaceOnUse">
<stop stop-color="#24505E"/>
<stop offset="0.429379" stop-color="#551A36" stop-opacity="0.44"/>
<stop offset="1" stop-color="#00133C" stop-opacity="0"/>
</linearGradient>
<linearGradient id="paint2_linear_5369_7682" x1="76.813" y1="312.582" x2="148.552" y2="270.382" gradientUnits="userSpaceOnUse">
<stop stop-color="#317482"/>
<stop offset="0.845741" stop-color="#13181E" stop-opacity="0"/>
</linearGradient>
<linearGradient id="paint3_linear_5369_7682" x1="76.813" y1="312.582" x2="148.552" y2="270.382" gradientUnits="userSpaceOnUse">
<stop stop-color="#317482"/>
<stop offset="0.845741" stop-color="#13181E" stop-opacity="0"/>
</linearGradient>
<linearGradient id="paint4_linear_5369_7682" x1="300.876" y1="215.541" x2="300.876" y2="55.7043" gradientUnits="userSpaceOnUse">
<stop stop-color="#FF658D" stop-opacity="0.56"/>
<stop offset="1" stop-color="#13181E" stop-opacity="0"/>
</linearGradient>
<linearGradient id="paint5_linear_5369_7682" x1="270.625" y1="192.605" x2="336.604" y2="119.191" gradientUnits="userSpaceOnUse">
<stop stop-color="#FF3065"/>
<stop offset="1" stop-color="#FFB0C4"/>
</linearGradient>
<linearGradient id="paint6_linear_5369_7682" x1="215.114" y1="297.614" x2="111.964" y2="257.654" gradientUnits="userSpaceOnUse">
<stop stop-color="#FF7C9E"/>
<stop offset="1" stop-color="#07D7DA" stop-opacity="0"/>
</linearGradient>
<linearGradient id="paint7_linear_5369_7682" x1="154.711" y1="166.587" x2="193.741" y2="213.051" gradientUnits="userSpaceOnUse">
<stop stop-color="#0AA8B0" stop-opacity="0"/>
<stop offset="1" stop-color="#00C0CA"/>
</linearGradient>
<linearGradient id="paint8_linear_5369_7682" x1="160.287" y1="257.655" x2="45.985" y2="103.393" gradientUnits="userSpaceOnUse">
<stop stop-color="#07D7DA"/>
<stop offset="1" stop-color="#07D7DA" stop-opacity="0"/>
</linearGradient>
<linearGradient id="paint9_linear_5369_7682" x1="96.166" y1="140.565" x2="153.782" y2="140.565" gradientUnits="userSpaceOnUse">
<stop stop-color="#FF4474"/>
<stop offset="1" stop-color="#FFA4BB"/>
</linearGradient>
<radialGradient id="paint10_radial_5369_7682" cx="0" cy="0" r="1" gradientUnits="userSpaceOnUse" gradientTransform="translate(96.1633 143.371) scale(31.6455 31.5424)">
<stop stop-color="#FF6F94"/>
<stop offset="1" stop-color="#5A3846" stop-opacity="0"/>
</radialGradient>
<radialGradient id="paint11_radial_5369_7682" cx="0" cy="0" r="1" gradientUnits="userSpaceOnUse" gradientTransform="translate(269.939 255.807) scale(19.5457 19.482)">
<stop stop-color="#FF6F94"/>
<stop offset="1" stop-color="#5A3846" stop-opacity="0"/>
</radialGradient>
<linearGradient id="paint12_linear_5369_7682" x1="126.832" y1="109.898" x2="126.832" y2="173.09" gradientUnits="userSpaceOnUse">
<stop stop-color="#01C0CA"/>
<stop offset="1" stop-color="#01C0CA" stop-opacity="0.45"/>
</linearGradient>
<linearGradient id="paint13_linear_5369_7682" x1="82.0719" y1="139.744" x2="82.0719" y2="162.31" gradientUnits="userSpaceOnUse">
<stop stop-color="#04E2E5"/>
<stop offset="0.9999" stop-color="#04E2E5" stop-opacity="0.0677083"/>
<stop offset="1" stop-color="#04E2E5" stop-opacity="0"/>
</linearGradient>
<linearGradient id="paint14_linear_5369_7682" x1="99.1804" y1="150.114" x2="89.2346" y2="145.861" gradientUnits="userSpaceOnUse">
<stop stop-color="#010202"/>
<stop offset="1" stop-color="#010202" stop-opacity="0"/>
</linearGradient>
<linearGradient id="paint15_linear_5369_7682" x1="86.9942" y1="141.76" x2="71.3834" y2="135.084" gradientUnits="userSpaceOnUse">
<stop stop-color="#010202"/>
<stop offset="1" stop-color="#010202" stop-opacity="0"/>
</linearGradient>
<linearGradient id="paint16_linear_5369_7682" x1="98.121" y1="134.138" x2="87.8462" y2="125.305" gradientUnits="userSpaceOnUse">
<stop stop-color="#010202"/>
<stop offset="1" stop-color="#010202" stop-opacity="0"/>
</linearGradient>
<linearGradient id="paint17_linear_5369_7682" x1="80.476" y1="124.243" x2="68.0191" y2="130.744" gradientUnits="userSpaceOnUse">
<stop stop-color="#010202"/>
<stop offset="1" stop-color="#010202" stop-opacity="0"/>
</linearGradient>
<linearGradient id="paint18_linear_5369_7682" x1="85.381" y1="159.169" x2="69.7702" y2="152.493" gradientUnits="userSpaceOnUse">
<stop stop-color="#010202"/>
<stop offset="1" stop-color="#010202" stop-opacity="0"/>
</linearGradient>
<linearGradient id="paint19_linear_5369_7682" x1="67.709" y1="143.038" x2="63.0976" y2="143.285" gradientUnits="userSpaceOnUse">
<stop stop-color="#010202"/>
<stop offset="1" stop-color="#010202" stop-opacity="0"/>
</linearGradient>
<linearGradient id="paint20_linear_5369_7682" x1="273.973" y1="244.063" x2="274.432" y2="275.001" gradientUnits="userSpaceOnUse">
<stop stop-color="#FFE2EA"/>
<stop offset="0.416145" stop-color="#B05A72"/>
<stop offset="1" stop-color="#4B4758" stop-opacity="0"/>
</linearGradient>
<linearGradient id="paint21_linear_5369_7682" x1="270.092" y1="245.108" x2="272.798" y2="253.165" gradientUnits="userSpaceOnUse">
<stop stop-color="#010202"/>
<stop offset="1" stop-color="#010202" stop-opacity="0"/>
</linearGradient>
<linearGradient id="paint22_linear_5369_7682" x1="271.566" y1="256.624" x2="275.813" y2="269.27" gradientUnits="userSpaceOnUse">
<stop stop-color="#010202"/>
<stop offset="1" stop-color="#010202" stop-opacity="0"/>
</linearGradient>
<linearGradient id="paint23_linear_5369_7682" x1="261.276" y1="254.079" x2="261.469" y2="264.724" gradientUnits="userSpaceOnUse">
<stop stop-color="#010202"/>
<stop offset="1" stop-color="#010202" stop-opacity="0"/>
</linearGradient>
<linearGradient id="paint24_linear_5369_7682" x1="264.699" y1="269.608" x2="275.026" y2="273.514" gradientUnits="userSpaceOnUse">
<stop stop-color="#010202"/>
<stop offset="1" stop-color="#010202" stop-opacity="0"/>
</linearGradient>
<linearGradient id="paint25_linear_5369_7682" x1="282.617" y1="248.467" x2="286.864" y2="261.113" gradientUnits="userSpaceOnUse">
<stop stop-color="#010202"/>
<stop offset="1" stop-color="#010202" stop-opacity="0"/>
</linearGradient>
<linearGradient id="paint26_linear_5369_7682" x1="282.398" y1="267.266" x2="284.954" y2="269.842" gradientUnits="userSpaceOnUse">
<stop stop-color="#010202"/>
<stop offset="1" stop-color="#010202" stop-opacity="0"/>
</linearGradient>
</defs>
</svg>
