<svg width="400" height="400" viewBox="0 0 400 400" fill="none" xmlns="http://www.w3.org/2000/svg">
<g clip-path="url(#clip0_5381_13813)">
<path opacity="0.2" d="M328.001 121.33H331.334C336.858 121.33 341.334 125.812 341.334 131.34V267.987C341.334 273.515 336.858 277.997 331.334 277.997H328.001" fill="url(#paint0_linear_5381_13813)"/>
<path d="M316.334 107.996H103.001C97.4781 107.996 93.001 112.473 93.001 117.996V291.329C93.001 296.852 97.4781 301.329 103.001 301.329H316.334C321.857 301.329 326.334 296.852 326.334 291.329V117.996C326.334 112.473 321.857 107.996 316.334 107.996Z" fill="url(#paint1_linear_5381_13813)"/>
<path d="M133.003 239.442C161.596 210.847 207.958 210.847 236.553 239.442C265.146 268.037 265.146 314.397 236.553 342.992" fill="url(#paint2_linear_5381_13813)"/>
<path opacity="0.5" d="M273.001 254.663V134.663C273.001 132.821 274.493 131.329 276.334 131.329H326.334V257.996H276.334C274.493 257.996 273.001 256.504 273.001 254.663Z" fill="url(#paint3_linear_5381_13813)"/>
<path opacity="0.5" d="M146.334 134.679V254.679C146.334 256.521 144.843 258.012 143.001 258.012H93.0011V131.346H143.001C144.843 131.346 146.334 132.837 146.334 134.679Z" fill="url(#paint4_linear_5381_13813)"/>
<path d="M326.334 151.33V291.373C326.334 296.873 321.894 301.33 316.418 301.33H176.334" fill="url(#paint5_linear_5381_13813)"/>
<path d="M282.017 326.33C276.417 326.897 272.017 325.647 269.351 323.113C267.351 320.987 265.509 318.72 263.834 316.33C262.034 312.813 265.617 311.98 268.134 306.48C273.784 294.197 289.134 283.147 302.434 281.813C307.434 281.313 307.967 277.847 310.767 279.93C311.484 280.48 315.767 285.53 316.217 286.213C319.017 289.813 319.284 295.28 316.351 301.647C310.667 314.013 295.317 325.047 282.017 326.33Z" fill="url(#paint6_linear_5381_13813)"/>
<path opacity="0.5" d="M298.516 313.342C311.844 303.623 318.133 289.553 312.563 281.915C306.994 274.277 291.674 275.963 278.346 285.682C265.019 295.401 258.73 309.471 264.299 317.109C269.869 324.748 285.189 323.061 298.516 313.342Z" fill="url(#paint7_linear_5381_13813)"/>
<path opacity="0.7" d="M297.386 311.666C309.174 303.07 314.738 290.627 309.814 283.874C304.889 277.121 291.341 278.615 279.553 287.211C267.765 295.807 262.201 308.25 267.125 315.003C272.049 321.756 285.598 320.262 297.386 311.666Z" fill="url(#paint8_linear_5381_13813)"/>
<path d="M224.484 306.813C271.327 306.813 309.301 268.839 309.301 221.996C309.301 175.153 271.327 137.18 224.484 137.18C177.641 137.18 139.667 175.153 139.667 221.996C139.667 268.839 177.641 306.813 224.484 306.813Z" fill="url(#paint9_radial_5381_13813)"/>
<path opacity="0.5" d="M246.334 169.662H176.334C174.493 169.662 173.001 171.154 173.001 172.995V254.662C173.001 256.503 174.493 257.995 176.334 257.995H246.334C248.175 257.995 249.668 256.503 249.668 254.662V172.995C249.668 171.154 248.175 169.662 246.334 169.662Z" fill="url(#paint10_linear_5381_13813)"/>
<path opacity="0.5" d="M194.684 131.463H174.651C173.74 131.463 173.001 132.202 173.001 133.113V143.146C173.001 144.057 173.74 144.796 174.651 144.796H194.684C195.596 144.796 196.334 144.057 196.334 143.146V133.113C196.334 132.202 195.596 131.463 194.684 131.463Z" fill="url(#paint11_linear_5381_13813)"/>
<path opacity="0.5" d="M221.351 131.463H201.317C200.406 131.463 199.667 132.202 199.667 133.113V143.146C199.667 144.057 200.406 144.796 201.317 144.796H221.351C222.262 144.796 223.001 144.057 223.001 143.146V133.113C223.001 132.202 222.262 131.463 221.351 131.463Z" fill="url(#paint12_linear_5381_13813)"/>
<path opacity="0.5" d="M248.018 131.463H227.984C227.073 131.463 226.334 132.202 226.334 133.113V143.146C226.334 144.057 227.073 144.796 227.984 144.796H248.018C248.929 144.796 249.668 144.057 249.668 143.146V133.113C249.668 132.202 248.929 131.463 248.018 131.463Z" fill="url(#paint13_linear_5381_13813)"/>
<path opacity="0.5" d="M194.684 147.996H174.651C173.74 147.996 173.001 148.735 173.001 149.646V159.679C173.001 160.591 173.74 161.329 174.651 161.329H194.684C195.596 161.329 196.334 160.591 196.334 159.679V149.646C196.334 148.735 195.596 147.996 194.684 147.996Z" fill="url(#paint14_linear_5381_13813)"/>
<path opacity="0.5" d="M221.351 147.996H201.317C200.406 147.996 199.667 148.735 199.667 149.646V159.679C199.667 160.591 200.406 161.329 201.317 161.329H221.351C222.262 161.329 223.001 160.591 223.001 159.679V149.646C223.001 148.735 222.262 147.996 221.351 147.996Z" fill="url(#paint15_linear_5381_13813)"/>
<path opacity="0.5" d="M248.018 147.996H227.984C227.073 147.996 226.334 148.735 226.334 149.646V159.679C226.334 160.591 227.073 161.329 227.984 161.329H248.018C248.929 161.329 249.668 160.591 249.668 159.679V149.646C249.668 148.735 248.929 147.996 248.018 147.996Z" fill="url(#paint16_linear_5381_13813)"/>
<path d="M208.151 263.428C207.148 261.328 207.1 258.898 208.018 256.761C208.796 255.488 209.66 254.27 210.601 253.111C212.101 251.761 212.985 253.411 216.035 253.911C223.468 255.506 229.701 260.535 232.835 267.461C233.785 269.895 235.551 269.645 234.885 271.278C234.718 271.711 232.801 274.461 232.535 274.828C231.135 276.695 228.485 277.561 224.951 276.978C217.523 275.373 211.291 270.348 208.151 263.428Z" fill="url(#paint17_linear_5381_13813)"/>
<path opacity="0.2" d="M234.201 272.47C237.211 268.69 234.305 261.367 227.709 256.115C221.113 250.863 213.326 249.67 210.315 253.45C207.305 257.23 210.212 264.553 216.808 269.805C223.403 275.057 231.191 276.25 234.201 272.47Z" fill="url(#paint18_linear_5381_13813)"/>
<path opacity="0.7" d="M232.84 271.373C235.5 268.032 232.929 261.558 227.096 256.914C221.264 252.269 214.379 251.213 211.718 254.554C209.058 257.895 211.629 264.369 217.462 269.013C223.294 273.657 230.179 274.714 232.84 271.373Z" fill="url(#paint19_linear_5381_13813)"/>
<path d="M134.667 221.329V164.662C134.667 159.139 130.19 154.662 124.667 154.662H68.0008C62.478 154.662 58.0008 159.139 58.0008 164.662V221.329C58.0008 226.852 62.478 231.329 68.0008 231.329H124.667C130.19 231.329 134.667 226.852 134.667 221.329Z" fill="url(#paint20_linear_5381_13813)"/>
<path fill-rule="evenodd" clip-rule="evenodd" d="M98.2707 205.13L90.6507 209.18L78.6407 202.668L76.334 203.895L90.6507 211.658L98.5173 207.475C98.364 207.202 98.2707 206.897 98.2707 206.577V205.128V205.13ZM117.604 197.323L115.311 196.068L109.509 199.15V201.627L117.604 197.323Z" fill="#E9F0FD"/>
<path fill-rule="evenodd" clip-rule="evenodd" d="M90.6507 204.228L78.6373 197.717L76.334 198.942L90.6507 206.705L98.2723 202.652V200.175L90.6507 204.228ZM115.311 191.113L109.509 194.198V196.675L117.604 192.368L115.311 191.113Z" fill="#E9F0FD"/>
<path fill-rule="evenodd" clip-rule="evenodd" d="M78.6392 192.763L76.3325 193.988L90.6509 201.752L98.2709 197.698V195.222L90.6509 199.275L78.6392 192.763ZM115.311 186.16L109.509 189.245V191.722L117.604 187.415L115.311 186.16Z" fill="#E9F0FD"/>
<path fill-rule="evenodd" clip-rule="evenodd" d="M107.904 187.264H107.903L94.5911 178.994C94.3894 178.871 94.1394 178.866 93.9294 178.972L86.5577 182.892C86.3594 182.997 86.2327 183.192 86.2244 183.412C86.2177 183.629 86.3294 183.836 86.5194 183.954L99.5611 192.056V206.572C99.5611 206.794 99.6894 207.192 100.206 207.192C100.314 207.192 100.419 207.167 100.518 207.116L107.889 203.196C108.093 203.087 108.223 202.879 108.223 202.654V187.797C108.223 187.446 107.906 187.264 107.906 187.264" fill="#E9F0FD"/>
<path fill-rule="evenodd" clip-rule="evenodd" d="M87.3021 191.802C86.3754 191.802 85.6254 191.247 85.6254 190.564C85.6254 189.88 86.3754 189.325 87.3021 189.325C88.2288 189.325 88.9788 189.88 88.9788 190.564C88.9788 191.247 88.2288 191.802 87.3021 191.802ZM85.8188 184.992C85.5488 184.825 85.3388 184.589 85.1871 184.325L76.3354 189.039L90.6504 196.804L98.2704 192.747V192.732L85.8204 184.994L85.8188 184.992ZM106.88 181.852C106.079 181.852 105.43 181.372 105.43 180.78C105.43 180.19 106.079 179.71 106.88 179.71C107.682 179.71 108.33 180.19 108.33 180.78C108.33 181.372 107.682 181.852 106.88 181.852ZM103.36 174.662L96.1588 178.492L108.625 186.239C108.839 186.372 109.227 186.842 109.262 186.902L117.604 182.464L103.36 174.662Z" fill="#E9F0FD"/>
</g>
<defs>
<linearGradient id="paint0_linear_5381_13813" x1="328.268" y1="199.739" x2="341.634" y2="199.739" gradientUnits="userSpaceOnUse">
<stop stop-color="#0D0484"/>
<stop offset="0.77" stop-color="#2977BF"/>
</linearGradient>
<linearGradient id="paint1_linear_5381_13813" x1="93.001" y1="204.663" x2="326.334" y2="204.663" gradientUnits="userSpaceOnUse">
<stop stop-color="#0D0484" stop-opacity="0.2"/>
<stop offset="1" stop-color="#0D0484"/>
</linearGradient>
<linearGradient id="paint2_linear_5381_13813" x1="236.55" y1="239.448" x2="184.776" y2="291.221" gradientUnits="userSpaceOnUse">
<stop stop-color="#2977BF"/>
<stop offset="1" stop-color="#2977BF" stop-opacity="0"/>
</linearGradient>
<linearGradient id="paint3_linear_5381_13813" x1="307.805" y1="220.446" x2="271.886" y2="199.71" gradientUnits="userSpaceOnUse">
<stop stop-color="#6A99F1"/>
<stop offset="0.21" stop-color="#6493F0"/>
<stop offset="0.48" stop-color="#5483ED"/>
<stop offset="0.78" stop-color="#3968E9"/>
<stop offset="1" stop-color="#2151E5"/>
</linearGradient>
<linearGradient id="paint4_linear_5381_13813" x1="111.533" y1="168.88" x2="147.451" y2="189.619" gradientUnits="userSpaceOnUse">
<stop stop-color="#6A99F1" stop-opacity="0.4"/>
<stop offset="0.15" stop-color="#6796F0" stop-opacity="0.43"/>
<stop offset="0.33" stop-color="#5E8DEF" stop-opacity="0.5"/>
<stop offset="0.54" stop-color="#4F7EED" stop-opacity="0.62"/>
<stop offset="0.77" stop-color="#3A6AE9" stop-opacity="0.79"/>
<stop offset="1" stop-color="#2151E5"/>
</linearGradient>
<linearGradient id="paint5_linear_5381_13813" x1="323.276" y1="298.558" x2="251" y2="226" gradientUnits="userSpaceOnUse">
<stop stop-color="#CF2266"/>
<stop offset="1" stop-color="#1B0A65" stop-opacity="0"/>
</linearGradient>
<linearGradient id="paint6_linear_5381_13813" x1="310.765" y1="337.781" x2="286.22" y2="295.472" gradientUnits="userSpaceOnUse">
<stop offset="0.193202" stop-color="#CF2265"/>
<stop offset="0.442394" stop-color="#CF2265"/>
<stop offset="0.77" stop-color="#0D0484"/>
<stop offset="1" stop-color="#1B0A65" stop-opacity="0"/>
</linearGradient>
<linearGradient id="paint7_linear_5381_13813" x1="289.41" y1="299.916" x2="249.146" y2="305.277" gradientUnits="userSpaceOnUse">
<stop stop-color="#6A99F1"/>
<stop offset="0.21" stop-color="#6493F0"/>
<stop offset="0.48" stop-color="#5483ED"/>
<stop offset="0.78" stop-color="#3968E9"/>
<stop offset="1" stop-color="#2151E5"/>
</linearGradient>
<linearGradient id="paint8_linear_5381_13813" x1="270.711" y1="306.85" x2="306.2" y2="306.85" gradientUnits="userSpaceOnUse">
<stop stop-color="#CF2265"/>
<stop offset="1" stop-color="#6E012B"/>
</linearGradient>
<radialGradient id="paint9_radial_5381_13813" cx="0" cy="0" r="1" gradientUnits="userSpaceOnUse" gradientTransform="translate(224.484 221.979) scale(82.8828)">
<stop stop-color="#7206FF" stop-opacity="0.6"/>
<stop offset="0.17" stop-color="#7206FF" stop-opacity="0.5"/>
<stop offset="1" stop-color="#7106FD" stop-opacity="0"/>
</radialGradient>
<linearGradient id="paint10_linear_5381_13813" x1="191.787" y1="261.476" x2="242.755" y2="167.874" gradientUnits="userSpaceOnUse">
<stop stop-color="#6A99F1"/>
<stop offset="0.21" stop-color="#6493F0"/>
<stop offset="0.48" stop-color="#5483ED"/>
<stop offset="0.78" stop-color="#3968E9"/>
<stop offset="1" stop-color="#2151E5"/>
</linearGradient>
<linearGradient id="paint11_linear_5381_13813" x1="179.384" y1="141.117" x2="184.829" y2="131.689" gradientUnits="userSpaceOnUse">
<stop stop-color="#6A99F1"/>
<stop offset="0.21" stop-color="#6493F0"/>
<stop offset="0.48" stop-color="#5483ED"/>
<stop offset="0.78" stop-color="#3968E9"/>
<stop offset="1" stop-color="#2151E5"/>
</linearGradient>
<linearGradient id="paint12_linear_5381_13813" x1="206.051" y1="141.117" x2="211.495" y2="131.689" gradientUnits="userSpaceOnUse">
<stop stop-color="#6A99F1"/>
<stop offset="0.21" stop-color="#6493F0"/>
<stop offset="0.48" stop-color="#5483ED"/>
<stop offset="0.78" stop-color="#3968E9"/>
<stop offset="1" stop-color="#2151E5"/>
</linearGradient>
<linearGradient id="paint13_linear_5381_13813" x1="232.718" y1="141.117" x2="238.162" y2="131.689" gradientUnits="userSpaceOnUse">
<stop stop-color="#6A99F1"/>
<stop offset="0.21" stop-color="#6493F0"/>
<stop offset="0.48" stop-color="#5483ED"/>
<stop offset="0.78" stop-color="#3968E9"/>
<stop offset="1" stop-color="#2151E5"/>
</linearGradient>
<linearGradient id="paint14_linear_5381_13813" x1="179.384" y1="157.656" x2="184.826" y2="148.223" gradientUnits="userSpaceOnUse">
<stop stop-color="#6A99F1"/>
<stop offset="0.21" stop-color="#6493F0"/>
<stop offset="0.48" stop-color="#5483ED"/>
<stop offset="0.78" stop-color="#3968E9"/>
<stop offset="1" stop-color="#2151E5"/>
</linearGradient>
<linearGradient id="paint15_linear_5381_13813" x1="206.051" y1="157.656" x2="211.493" y2="148.223" gradientUnits="userSpaceOnUse">
<stop stop-color="#6A99F1"/>
<stop offset="0.21" stop-color="#6493F0"/>
<stop offset="0.48" stop-color="#5483ED"/>
<stop offset="0.78" stop-color="#3968E9"/>
<stop offset="1" stop-color="#2151E5"/>
</linearGradient>
<linearGradient id="paint16_linear_5381_13813" x1="232.718" y1="157.656" x2="238.16" y2="148.223" gradientUnits="userSpaceOnUse">
<stop stop-color="#6A99F1"/>
<stop offset="0.21" stop-color="#6493F0"/>
<stop offset="0.48" stop-color="#5483ED"/>
<stop offset="0.78" stop-color="#3968E9"/>
<stop offset="1" stop-color="#2151E5"/>
</linearGradient>
<linearGradient id="paint17_linear_5381_13813" x1="200.239" y1="277.742" x2="219.715" y2="261.814" gradientUnits="userSpaceOnUse">
<stop offset="0.608146" stop-color="#CF2265"/>
<stop offset="1" stop-color="#1B0A65" stop-opacity="0"/>
</linearGradient>
<linearGradient id="paint18_linear_5381_13813" x1="216.287" y1="257.157" x2="208.199" y2="238.046" gradientUnits="userSpaceOnUse">
<stop stop-color="#6A99F1"/>
<stop offset="0.21" stop-color="#6493F0"/>
<stop offset="0.48" stop-color="#5483ED"/>
<stop offset="0.78" stop-color="#3968E9"/>
<stop offset="1" stop-color="#2151E5"/>
</linearGradient>
<linearGradient id="paint19_linear_5381_13813" x1="216.243" y1="255.232" x2="221.05" y2="272.717" gradientUnits="userSpaceOnUse">
<stop offset="0.271" stop-color="#CF2266" stop-opacity="0.5"/>
<stop offset="1" stop-color="#C42167"/>
</linearGradient>
<linearGradient id="paint20_linear_5381_13813" x1="57.984" y1="192.995" x2="134.651" y2="192.995" gradientUnits="userSpaceOnUse">
<stop stop-color="#0D0484"/>
<stop offset="1" stop-color="#2977BF"/>
</linearGradient>
<clipPath id="clip0_5381_13813">
<rect width="283.333" height="235" fill="white" transform="translate(58 108)"/>
</clipPath>
</defs>
</svg>
