<svg width="400" height="400" viewBox="0 0 400 400" fill="none" xmlns="http://www.w3.org/2000/svg">
<g clip-path="url(#clip0_5381_13759)">
<mask id="mask0_5381_13759" style="mask-type:alpha" maskUnits="userSpaceOnUse" x="83" y="105" width="211" height="211">
<path d="M283.333 105.334H93.3335C87.8106 105.334 83.3335 109.811 83.3335 115.334V305.334C83.3335 310.857 87.8106 315.334 93.3335 315.334H283.333C288.856 315.334 293.333 310.857 293.333 305.334V115.334C293.333 109.811 288.856 105.334 283.333 105.334Z" fill="white"/>
</mask>
<g mask="url(#mask0_5381_13759)">
<path d="M293.333 305.334V115.334C293.333 109.811 288.856 105.334 283.333 105.334L93.3335 105.334C87.8107 105.334 83.3335 109.811 83.3335 115.334V305.334C83.3335 310.857 87.8107 315.334 93.3335 315.334H283.333C288.856 315.334 293.333 310.857 293.333 305.334Z" fill="url(#paint0_linear_5381_13759)"/>
<path d="M190.984 217.468C252.785 217.468 302.884 167.369 302.884 105.568C302.884 43.7673 252.785 -6.33203 190.984 -6.33203C129.183 -6.33203 79.084 43.7673 79.084 105.568C79.084 167.369 129.183 217.468 190.984 217.468Z" fill="url(#paint1_radial_5381_13759)"/>
</g>
<path opacity="0.2" d="M293.333 127H297.417C302.527 127 306.667 131.475 306.667 136.993V283.673C306.667 289.192 302.527 293.667 297.417 293.667H293.333" fill="url(#paint2_linear_5381_13759)"/>
<path d="M370.117 162.334C334.278 198.172 276.172 198.172 240.333 162.334C204.495 126.496 204.495 68.3891 240.333 32.5508" fill="url(#paint3_linear_5381_13759)"/>
<path d="M121.667 218.667V162C121.667 156.477 117.19 152 111.667 152H55.0003C49.4775 152 45.0003 156.477 45.0003 162V218.667C45.0003 224.19 49.4775 228.667 55.0003 228.667H111.667C117.19 228.667 121.667 224.19 121.667 218.667Z" fill="url(#paint4_linear_5381_13759)"/>
<mask id="mask1_5381_13759" style="mask-type:alpha" maskUnits="userSpaceOnUse" x="63" y="173" width="41" height="34">
<path d="M68.3335 176.744C75.6852 176.744 81.6668 182.726 81.6668 190.077C81.6668 195.592 86.1518 200.077 91.6668 200.077H95.0002V197.332C95.0002 197.106 95.2168 196.956 95.4202 197.011L95.5052 197.047L102.857 201.459C103.043 201.569 103.07 201.814 102.937 201.964L102.857 202.029L95.5068 206.441C95.3102 206.557 95.0702 206.449 95.0135 206.247L95.0002 206.156V203.411H91.6668C84.3168 203.411 78.3335 197.427 78.3335 190.077C78.3335 184.561 73.8502 180.077 68.3335 180.077H65.0002C64.0802 180.077 63.3335 179.331 63.3335 178.411C63.3335 177.491 64.0802 176.744 65.0002 176.744H68.3335ZM76.2002 196.244C76.6168 197.361 77.1835 198.411 77.8502 199.394C75.4335 201.877 72.0502 203.411 68.3335 203.411H65.0002C64.0835 203.411 63.3335 202.661 63.3335 201.744C63.3335 200.827 64.0835 200.077 65.0002 200.077H68.3335C71.5335 200.077 74.3668 198.577 76.2002 196.244ZM95.4202 173.677L95.5052 173.714L102.857 178.126C103.043 178.236 103.07 178.481 102.937 178.631L102.857 178.696L95.5068 183.107C95.3102 183.224 95.0702 183.116 95.0135 182.914L95.0002 182.822V180.077H91.6668C88.4668 180.077 85.6335 181.577 83.8002 183.911C83.3835 182.794 82.8168 181.744 82.1502 180.761C84.5668 178.277 87.9502 176.744 91.6668 176.744H95.0002V173.999C95.0002 173.772 95.2168 173.622 95.4202 173.677Z" fill="white"/>
</mask>
<g mask="url(#mask1_5381_13759)">
<path fill-rule="evenodd" clip-rule="evenodd" d="M63.3335 170.334H103.333V210.334H63.3335V170.334Z" fill="#E9F1FF"/>
</g>
<path d="M162.783 184.982H187.533V209.749H162.783V184.982ZM215.567 237.782H240.317V262.549H215.567V237.782Z" fill="url(#paint5_linear_5381_13759)"/>
<path d="M110.034 264.201H134.767V288.718H110.034V264.201Z" fill="url(#paint6_linear_5381_13759)"/>
<path opacity="0.25" d="M108.35 130.334V152.001H110.017V132.001H134.75V157.001H120.317C120.62 157.534 120.877 158.091 121.083 158.667H134.75V183.351H121.683V185.017H134.75V209.751H121.683V211.417H134.75V236.167H110V228.701H108.333V290.367H268.333V130.367L108.35 130.334ZM134.75 288.667H110V264.167H134.75V288.667ZM134.75 262.501H110V237.784H134.75V262.501ZM161.133 288.667H136.4V264.167H161.133V288.667ZM161.133 262.501H136.4V237.784H161.133V262.501ZM161.133 236.117H136.4V211.384H161.133V236.117ZM161.133 209.717H136.4V185.001H161.133V209.717ZM161.133 183.334H136.4V158.601H161.133V183.334ZM161.133 156.934H136.4V131.934H161.133V156.934ZM187.533 288.601H162.783V264.167H187.583L187.533 288.601ZM187.533 262.434H162.783V237.784H187.583L187.533 262.434ZM187.533 236.051H162.783V211.384H187.583L187.533 236.051ZM187.533 209.651H162.783V185.001H187.583L187.533 209.651ZM187.533 183.267H162.783V158.601H187.583L187.533 183.267ZM187.533 156.867H162.783V131.867H187.583L187.533 156.867ZM213.917 288.534H189.25V264.167H213.917V288.534ZM213.917 262.367H189.25V237.784H213.917V262.367ZM213.917 235.984H189.25V211.384H213.917V235.984ZM213.917 209.584H189.25V185.001H213.917V209.584ZM213.917 183.201H189.25V158.601H213.917V183.201ZM213.917 156.801H189.25V131.801H213.917V156.801ZM240.317 288.467H215.567V264.167H240.317V288.467ZM240.317 262.301H215.567V237.784H240.317V262.301ZM240.317 235.917H215.567V211.384H240.317V235.917ZM240.317 209.517H215.567V185.001H240.317V209.517ZM240.317 183.134H215.567V158.601H240.317V183.134ZM240.317 156.734H215.567V131.734H240.317V156.734ZM266.7 288.401H241.967V264.167H266.7V288.401ZM266.7 262.234H241.967V237.784H266.7V262.234ZM266.7 235.851H241.967V211.384H266.7V235.851ZM266.7 209.451H241.967V185.001H266.7V209.451ZM266.7 183.067H241.967V158.601H266.7V183.067ZM266.7 156.667H241.967V131.667H266.7V156.667Z" fill="white"/>
</g>
<defs>
<linearGradient id="paint0_linear_5381_13759" x1="72.0502" y1="143.201" x2="314.134" y2="282.983" gradientUnits="userSpaceOnUse">
<stop offset="0.01" stop-color="#0D0484" stop-opacity="0.2"/>
<stop offset="1" stop-color="#0D0484"/>
</linearGradient>
<radialGradient id="paint1_radial_5381_13759" cx="0" cy="0" r="1" gradientUnits="userSpaceOnUse" gradientTransform="translate(190.984 105.568) scale(109.351)">
<stop stop-color="#2977BF"/>
<stop offset="0.38" stop-color="#2977BF" stop-opacity="0.5"/>
<stop offset="1" stop-color="#2977BF" stop-opacity="0"/>
</radialGradient>
<linearGradient id="paint2_linear_5381_13759" x1="293.595" y1="210.283" x2="306.929" y2="210.283" gradientUnits="userSpaceOnUse">
<stop stop-color="#170653"/>
<stop offset="0.14" stop-color="#1D105E" stop-opacity="0.97"/>
<stop offset="0.33" stop-color="#2D2C7C" stop-opacity="0.9"/>
<stop offset="0.55" stop-color="#475BAE" stop-opacity="0.77"/>
<stop offset="0.77" stop-color="#6A99F1" stop-opacity="0.6"/>
</linearGradient>
<linearGradient id="paint3_linear_5381_13759" x1="240.336" y1="162.327" x2="305.226" y2="97.4371" gradientUnits="userSpaceOnUse">
<stop stop-color="#2977BF"/>
<stop offset="0.38" stop-color="#2977BF" stop-opacity="0.35"/>
<stop offset="0.8" stop-color="#3E2A62" stop-opacity="0.1"/>
<stop offset="1" stop-color="#1B0A65" stop-opacity="0"/>
</linearGradient>
<linearGradient id="paint4_linear_5381_13759" x1="45.0003" y1="190.35" x2="121.667" y2="190.35" gradientUnits="userSpaceOnUse">
<stop stop-color="#1000DF" stop-opacity="0.5"/>
<stop offset="0.0001" stop-color="#0D0484" stop-opacity="0.5"/>
<stop offset="0.78" stop-color="#2977BF"/>
</linearGradient>
<linearGradient id="paint5_linear_5381_13759" x1="162.783" y1="223.766" x2="240.317" y2="223.766" gradientUnits="userSpaceOnUse">
<stop stop-color="#CF2265"/>
<stop offset="1" stop-color="#CF2265"/>
</linearGradient>
<linearGradient id="paint6_linear_5381_13759" x1="110.034" y1="276.451" x2="134.767" y2="276.451" gradientUnits="userSpaceOnUse">
<stop stop-color="#CF2265"/>
<stop offset="1" stop-color="#CF2265"/>
</linearGradient>
<clipPath id="clip0_5381_13759">
<rect width="325" height="283.333" fill="white" transform="translate(45 32)"/>
</clipPath>
</defs>
</svg>
