<svg width="40" height="40" viewBox="0 0 40 40" fill="none" xmlns="http://www.w3.org/2000/svg">
<path d="M8 5C7.73478 5 7.48043 5.10536 7.29289 5.29289C7.10536 5.48043 7 5.73478 7 6V26C7 26.2652 7.10536 26.5196 7.29289 26.7071C7.48043 26.8946 7.73478 27 8 27C8.26522 27 8.51957 26.8946 8.70711 26.7071C8.89464 26.5196 9 26.2652 9 26V6C9 5.73478 8.89464 5.48043 8.70711 5.29289C8.51957 5.10536 8.26522 5 8 5Z" fill="#676767"/>
<path d="M22 17H14C12.3431 17 11 18.3431 11 20V22C11 23.6569 12.3431 25 14 25H22C23.6569 25 25 23.6569 25 22V20C25 18.3431 23.6569 17 22 17Z" fill="#676767"/>
<path d="M22 7H14C12.3431 7 11 8.34315 11 10V12C11 13.6569 12.3431 15 14 15H22C23.6569 15 25 13.6569 25 12V10C25 8.34315 23.6569 7 22 7Z" fill="#676767"/>
</svg>
