<svg  viewBox="0 0 1715 751" fill="none" preserveAspectRatio="xMinYMin meet" xmlns="http://www.w3.org/2000/svg">
<path d="M422.086 737.558H432.034L450.706 746.889L436.875 750L428.576 746.889H418.894L422.086 737.558ZM422.086 737.558H418.894L400.913 730.715L391.923 717.651L380.166 702.721L385.007 697.122V689.035L380.166 680.948L370.485 669.75V658.552L367.027 628.692L362.186 601.942V554.041L348.355 539.732L331.066 529.779L320.001 516.093L308.936 499.919L299.254 479.389L291.646 476.279V461.971L299.254 456.372L291.646 448.285L299.254 435.221L308.936 421.535L313.776 415.314V406.605L308.936 391.674V387.32L313.776 391.674L320.001 387.32L326.916 379.855H334.523L341.439 371.767H348.355L350.35 378.228M422.086 737.558L424.426 730.715L418.894 725.116L424.426 717.651V710.186L418.894 702.721V692.145L424.426 680.948L418.894 676.593V669.75H432.034V658.552H441.716L450.706 652.953V643L446.556 636.157H462.462L471.453 628.692L483.209 611.273L487.359 594.477V585.767L497.732 577.058L512.255 570.215L521.937 567.105L533.693 549.064V516.093L543.375 506.139L554.44 489.965V471.924L546.833 468.814L533.693 461.971L521.937 456.372H507.414L497.732 451.395L492.891 448.285H483.209L475.602 442.686L467.303 438.331V430.866L462.462 421.535L455.547 410.959L439.641 406.605H428.576L421.66 400.384L405.754 382.965L397.456 379.855L384.316 382.965L373.251 379.855L367.027 374.878H356.653L350.35 378.228M350.35 378.228L351.812 382.965L348.355 391.674L341.439 382.965L350.35 378.228ZM397.081 78.8277L394.691 78.1395L385.009 83.1162L369.103 87.4709L356.655 93.6918L337.982 99.9127L328.992 112.977L342.823 121.686L351.814 127.907L366.336 131.017L362.187 145.948L369.103 153.413L379.476 145.948V137.86L391.233 132.884L405.064 121.686V112.977L411.98 99.9127L423.736 93.6918L446.558 99.9127V106.756L453.473 116.087L472.146 106.756L476.295 127.907L483.902 137.86L494.276 140.971L483.902 149.68L468.688 156.523H434.11L427.886 166.477H439.642L434.11 179.541L450.016 185.762L434.11 193.849H423.736V185.762H417.512L400.915 193.849L391.233 204.424L376.018 208.779L351.814 225.576L348.356 231.796V245.482L331.067 251.081L320.002 259.169L306.862 267.256L312.395 281.564V292.762L303.404 297.116L299.255 292.762V276.587L286.807 270.988L276.433 267.256L260.527 276.587L241.164 270.988L219.034 281.564L214.193 292.762L206.586 315.779L214.193 330.087L225.258 338.796L241.164 333.82L250.846 322C264.677 318.019 263.063 323.659 260.527 326.977L254.303 347.506L260.527 351.86H276.433V375.5L290.265 389.808H303.404L290.265 397.895L272.976 389.808L260.527 375.5L254.303 364.924H247.388L229.407 358.703L219.034 347.506H191.371L160.942 330.087V315.779L147.803 297.116L136.738 281.564V267.256H129.822V276.587L136.738 288.407V308.936L129.822 301.471L123.598 288.407L118.757 270.988V259.169L107.692 245.482L102.851 213.134L118.757 193.849C124.751 187.006 138.121 172.822 143.653 170.831C150.569 168.343 142.27 156.523 129.822 156.523C129.822 148.56 134.433 131.639 136.738 124.174L129.822 116.087L115.299 106.756L95.9356 99.9127L73.8056 106.756H66.89L43.3769 116.087L0.5 131.017L24.7047 112.977L15.7144 106.756L24.7047 103.645L30.9287 93.6918H43.3769L53.7503 87.4709C46.5581 84.4848 47.5262 80.0058 48.9094 78.1395H62.7406L73.8056 73.1627C70.4861 65.1999 78.416 63.2092 82.7959 63.2092L91.7862 59.4767L118.757 53.8778H138.812L186.53 59.4767L205.894 66.3197L234.248 59.4767H274.359L293.722 69.4302L312.395 73.1627V69.4302L328.992 66.3197L337.982 69.4302L351.814 66.3197H362.187V59.4767H369.103V66.3197L379.476 59.4767V53.8778L391.233 49.5232L394.691 59.4767L400.915 66.3197L417.512 59.4767H427.886V66.3197L417.512 73.1627H400.915L397.081 78.8277ZM397.081 78.8277L411.98 83.1162L407.83 91.2034L391.233 87.4709L397.081 78.8277ZM1332.45 406.605L1338.67 423.401L1350.43 432.11H1355.27V417.18L1350.43 406.605L1338.67 400.384L1332.45 393.541L1328.99 386.698V378.61L1320.69 371.145V390.43L1332.45 406.605ZM1024.01 227.442L1040.61 237.395L1050.98 230.552L1046.14 221.221L1040.61 212.512L1050.98 209.401L1046.14 202.558H1037.15L1024.01 196.959V188.25H1031.62L1037.15 183.273L1024.01 173.942L1006.72 188.25V196.959L1024.01 212.512V227.442ZM917.513 211.268L933.419 206.291H952.091L969.38 211.268L980.445 206.291L969.38 194.471L957.624 187.628V177.674H944.484V187.628H933.419L925.812 177.674L911.98 187.628L907.831 198.826L917.513 211.268ZM685.838 78.1395L670.624 82.4941L678.923 90.5813H695.52L710.735 82.4941L703.127 78.1395H685.838ZM696.903 278.453L687.913 281.564L679.614 290.895L673.39 303.959L664.4 314.535V349.994L659.559 357.459L664.4 363.68V371.767L667.857 376.122L673.39 382.965L679.614 391.674L684.455 398.517L701.744 410.959L713.5 414.07L731.481 410.959H749.462L763.984 407.227L775.741 402.872L784.731 407.227L790.264 414.07H803.404L813.085 420.913V453.262L819.31 461.971L824.15 466.948L828.991 480.634L833.141 489.965V508.628L828.991 521.07L824.15 531.645V542.843L833.141 555.285L839.365 570.837L843.514 589.5V598.209L854.579 610.029L860.112 621.227V630.558L864.953 636.157H876.709L885.7 630.558L892.615 636.157L905.755 630.558L920.969 621.227L937.567 603.186L939.641 595.721V589.5L944.482 583.901L954.164 577.68L957.622 570.837L954.164 555.285L963.154 545.953L969.379 537.866L982.518 534.756L989.434 524.18V498.052L982.518 489.965L978.369 473.169L986.668 459.482L999.116 447.041L1013.64 432.11L1026.78 420.913L1036.46 407.227L1046.83 391.674V376.122L1023.32 382.965L1010.87 380.477L1003.27 376.122L999.116 366.169L989.434 355.593L978.369 348.75L972.836 333.82L963.154 326.355V316.401L957.622 303.959L950.015 290.895L945.865 281.564L936.875 264.767H902.297L884.316 255.436H869.102V264.767L862.186 269.122L848.355 264.767L837.982 255.436H828.991L813.085 246.727L819.31 241.128L813.085 229.308L798.563 234.907L781.965 233.041L767.442 234.907L746.004 246.727L731.481 241.128L717.65 249.837L707.276 255.436V264.767L696.903 278.453ZM1020.56 529.157L1033.69 516.093L1037.15 509.872L1041.3 516.093V529.157L1037.15 544.087L1028.16 563.994V576.436L1020.56 583.279H1007.42L1001.19 576.436V563.994L1007.42 552.174V536L1020.56 529.157ZM1527.47 672.238L1522.63 682.814L1527.47 686.546L1538.53 682.814L1544.07 675.971L1538.53 672.238H1527.47ZM1438.26 629.936L1455.55 623.093L1473.53 619.982H1481.13L1490.12 623.093L1498.42 634.913L1505.34 629.936L1512.25 639.889L1515.71 645.488V653.576L1524.01 657.93H1535.08L1543.37 661.663L1550.29 657.93L1555.13 653.576H1565.5L1576.57 645.488L1585.56 629.936L1596.62 623.093L1607 610.029L1612.53 589.5V578.302L1602.16 567.105L1591.78 548.442L1585.56 540.977V524.18L1576.57 514.849L1573.11 504.895L1565.5 514.849V524.18L1553.06 538.488L1535.08 529.157L1527.47 524.18L1535.08 514.849C1537.61 511.738 1538.95 506.015 1524.01 508.006L1507.41 512.36L1498.42 517.959L1493.58 524.18L1483.9 519.826L1469.38 524.18L1460.39 532.889L1455.55 538.488L1438.26 554.041H1427.19L1402.3 567.105L1395.38 578.302V616.25L1390.54 629.936V634.913L1395.38 639.889L1405.75 634.913L1415.44 629.936H1438.26ZM1621.52 703.343H1636.74L1647.11 698.366L1655.41 690.901H1662.33L1667.17 682.814L1675.47 678.459V670.372L1662.33 678.459L1647.11 682.814L1629.82 690.901C1627.06 693.182 1621.52 698.864 1621.52 703.343ZM1685.84 674.727H1694.83L1703.12 666.017L1713.5 659.174L1707.27 651.709L1703.12 642.378L1698.98 655.442L1689.29 659.174V666.017L1685.84 674.727ZM1622.9 500.541L1607.69 487.477L1603.54 472.546L1589.02 462.593L1567.58 456.372L1555.13 450.773L1543.37 456.372L1536.46 462.593L1528.85 450.773V445.796H1511.56L1518.48 456.372V462.593L1528.85 465.703L1548.22 472.546L1555.13 478.145L1548.22 487.477H1555.13L1562.74 491.209L1576.57 494.32L1581.41 487.477H1589.02L1595.93 491.209L1607.69 500.541L1618.06 504.895L1622.9 500.541ZM1398.15 426.511L1411.98 417.18L1425.81 405.982H1436.18L1440.33 412.203L1436.18 422.779L1440.33 430.244V438.953L1436.18 443.93L1425.81 456.994V463.215H1411.98L1394 456.994L1387.08 447.041L1384.32 432.732L1398.15 426.511ZM1416.82 486.233L1401.61 478.145H1364.95L1368.41 486.233H1394L1409.21 489.965L1416.82 486.233ZM1365.65 468.192V458.86L1351.12 443.93V437.709L1336.6 428.378L1329.68 418.424L1306.86 409.715V418.424L1318.62 428.378L1332.45 446.419L1341.44 463.837L1351.12 473.169C1355.96 474.62 1365.65 475.657 1365.65 468.192ZM1443.79 340.663L1440.33 353.105L1451.4 370.523L1459 386.076L1467.3 401.628L1474.22 408.471H1483.9V394.785L1479.06 382.965L1467.3 370.523L1459 358.704L1451.4 353.105V340.663C1449.44 338.589 1445.17 335.686 1443.79 340.663ZM1272.98 314.535L1279.2 325.11L1290.27 333.198L1295.11 343.151V351.238H1302.02L1308.94 347.506L1314.47 354.349L1320 368.657L1326.92 376.744V368.657H1331.76L1345.59 376.744L1357.35 383.587V391.052H1364.26L1370.49 383.587L1379.48 376.744V361.192L1370.49 347.506L1357.35 333.198L1361.5 323.244L1370.49 317.645L1379.48 325.11L1388.47 317.645L1405.06 314.535L1420.97 307.692L1427.89 295.25L1432.04 278.453L1427.89 265.389L1420.97 256.058L1405.06 242.994L1420.97 233.663L1408.52 229.308H1400.22L1388.47 221.221L1400.22 209.401L1408.52 215C1408.98 216.866 1412.12 219.479 1420.97 215L1427.89 224.331L1443.1 233.663L1445.87 244.86H1458.31L1463.16 238.017L1458.31 229.308L1445.87 221.221L1443.1 215V209.401L1445.87 201.936L1452.09 196.959H1463.16L1470.07 182.029V169.587L1466.61 157.145H1470.07L1479.75 169.587L1485.98 178.296L1493.58 182.029L1489.44 169.587V162.744L1479.75 154.035L1466.61 142.837H1458.31L1443.1 137.238H1432.04L1420.97 131.64L1427.89 116.709L1438.26 111.11H1479.75V100.535H1498.43L1506.72 95.5581L1512.26 100.535L1506.72 121.064L1518.48 137.238L1536.46 154.035H1543.38V137.238L1539.92 121.064L1528.16 116.709C1524.94 114.221 1522.08 108.373 1536.46 104.89H1550.98L1565.51 95.5581V88.7151L1550.98 82.4942L1560.67 76.2733L1571.04 82.4942H1591.09L1581.41 73.1628H1565.51L1550.98 68.1861L1528.16 61.9651L1502.57 58.2326H1485.98L1479.75 61.9651H1445.87L1427.89 53.2558H1388.47L1361.5 47.0349L1338.67 43.9244L1335.22 53.2558H1308.94L1284.04 43.9244H1232.17L1206.59 40.814L1211.43 33.9709L1206.59 28.9942H1187.22L1174.08 24.0175H1160.94L1153.34 28.9942H1138.81L1115.99 33.9709V40.814H1100.78L1089.71 47.0349L1075.19 53.2558L1065.51 47.0349H1050.98L1047.53 53.2558L1055.83 61.9651H1040.61L1016.41 65.0756H992.893L974.913 71.2965L963.156 65.0756L959.007 71.2965L949.325 76.2733L941.026 83.7384H929.961L913.364 71.2965L929.961 76.2733H941.026C944.714 75.2364 949.878 71.5454 941.026 65.0756L913.364 61.9651L895.383 53.2558H865.646L848.357 61.9651L826.918 76.2733L796.489 96.8023V112.977L806.863 117.331L816.545 112.977L823.46 117.331V126.041L814.47 128.529V120.442L806.863 126.041V137.86L800.639 143.459H793.032L773.668 157.145L759.145 164.61L741.856 167.721L752.921 178.919V191.983L746.697 198.203H718.343L713.502 226.82L725.95 234.285H741.856L759.145 229.93V218.11L773.668 208.157L779.892 198.203H789.574L806.863 191.983L816.545 198.203L835.909 212.512L848.357 226.82C847.665 222.05 847.388 212.512 851.814 212.512C856.24 212.512 843.055 202.973 835.909 198.203L826.918 188.872C824.844 184.517 822.63 177.426 830.376 183.895L848.357 195.093L860.805 201.936L865.646 218.11L877.402 223.709L873.944 229.93L883.626 234.285L887.776 226.82L883.626 218.11L891.925 212.512H900.224V218.11L909.214 234.285H925.812L941.026 238.017L952.783 234.285V247.971L949.325 262.901H936.877L945.175 283.43L952.783 277.831L959.007 292.762L979.753 314.535V325.11L992.893 336.93L1000.5 347.506V358.703L1007.42 368.657H1021.94L1033.7 358.703L1048.91 351.238L1064.82 343.151L1079.34 336.93L1090.4 321.378V311.424L1075.88 302.093L1068.97 296.494L1056.52 305.203L1048.91 296.494H1037.84L1033.7 283.43L1025.4 274.721L1030.24 269.122L1037.84 274.721L1048.91 286.541L1073.11 289.029L1083.49 296.494H1100.78L1120.14 302.093L1127.75 296.494L1139.5 311.424H1149.88V321.378H1168.55V336.93L1183.76 368.657L1196.21 391.052C1200.59 393.541 1209.77 395.531 1211.43 383.587V364.302L1214.88 354.349L1235.63 336.93L1246.7 330.087L1251.54 317.645L1272.98 314.535ZM1471.45 251.703L1474.91 260.413L1479.75 263.523L1481.83 256.058L1476.29 250.459L1479.75 247.971L1485.28 250.459H1491.51L1499.81 251.703L1507.41 244.86H1519.86V234.907L1517.1 226.82V219.977L1510.87 211.267H1504.65V201.936H1513.64L1517.1 195.715L1504.65 191.982L1495.66 186.384V203.802L1503.27 216.866L1507.41 224.953L1497.73 234.907L1488.05 240.506H1479.75L1473.53 246.105L1471.45 251.703ZM768.825 145.326L757.069 129.773L752.228 117.953H743.237V129.773L752.228 136.616L743.237 145.326V149.058L739.088 159.012H752.228L768.825 154.657L773.666 149.058L768.825 145.326ZM730.1 134.128L719.035 138.483V152.791L730.1 147.814L734.941 138.483C737.016 135.58 738.952 130.644 730.1 134.128ZM550.985 67.5639L544.07 77.5174V94.936L559.284 104.889H572.424L586.947 86.8488L606.31 77.5174L627.057 71.9185L638.814 67.5639L652.645 64.4534L672.009 58.8546L682.382 53.8778L672.009 45.7906L682.382 40.1918L695.522 35.2151L701.746 24.6395L712.119 10.9534L695.522 4.11041H627.057L606.31 10.9534L572.424 7.22088L550.985 10.9534L535.771 17.7965H512.258V24.6395L524.014 28.9941H535.771L550.985 40.1918L559.284 53.8778C560.437 56.9883 560.391 64.0802 550.985 67.5639ZM456.24 24.6395L469.38 14.064H492.893V4.73256H517.098L553.059 1L533.004 14.064L502.575 19.6628L485.977 24.6395L472.838 30.2384L456.24 24.6395ZM423.044 41.4359H436.875L452.781 44.5464L461.08 48.2789H469.379L479.752 52.6336L490.126 63.8313L498.424 73.7847C500.499 76.6878 500.776 81.6231 485.285 78.1394H479.752V87.4708L469.379 96.1801L452.781 91.8254L444.483 82.494L452.781 73.7847H465.229V69.4301L452.781 55.744H423.044L409.213 48.2789L423.044 41.4359ZM279.198 41.4361L289.572 37.0814H302.02L315.159 41.4361L324.15 45.7907L331.065 41.4361L337.289 45.7907H348.354V58.2326L333.832 60.0989L321.383 62.5872H289.572L298.562 52.6337L293.029 45.7907H279.198L270.899 52.6337L266.75 45.7907L279.198 41.4361ZM498.425 169.587L485.286 162.122V154.657L472.146 165.233L465.922 169.587L472.146 173.32H485.286L498.425 169.587ZM337.293 338.174H356.657L369.105 331.953L349.741 328.221H342.825L337.293 338.174ZM286.113 310.18H308.935L328.99 320.134L335.906 323.866L314.467 326.977L304.094 320.134L292.337 314.535L286.113 310.18ZM318.618 179.541H299.254L306.17 168.965H324.15L331.066 175.808L337.981 179.541H345.589V188.872L331.066 195.715V185.762H318.618L311.01 202.558L302.712 208.157L299.254 202.558L306.17 188.872L318.618 179.541ZM454.164 38.3255L420.277 32.7267L429.268 27.1279L441.716 32.7267H461.771L454.164 38.3255ZM452.782 17.1744L457.623 8.46515H443.1L433.418 14.064L443.1 17.1744H452.782ZM845.588 119.82L839.364 130.395H826.916L817.926 135.994H832.449L839.364 140.349L853.195 135.994H860.111L869.101 130.395V119.82H878.783V112.355H892.615L901.605 106.756L892.615 103.645H869.101L865.644 92.4478L878.783 82.4943L869.101 75.6512L860.111 88.0931L845.588 92.4478V99.2908L853.195 106.756L849.738 112.355L845.588 119.82ZM1446.56 443.93L1440.33 458.238V471.302L1450.71 473.169V461.971L1453.47 458.238L1458.31 466.326L1462.46 461.971L1458.31 453.262L1465.92 447.663H1455.55L1453.47 441.442L1458.31 437.087C1464.77 439.99 1477.68 443.308 1477.68 433.355C1468.69 432.11 1450.71 430.369 1450.71 433.355C1447.94 435.013 1443.24 439.451 1446.56 443.93Z" stroke="url(#paint0_linear_4273_1290)"/>
<defs>
<linearGradient id="paint0_linear_4273_1290" x1="857" y1="-223" x2="840.5" y2="1024" gradientUnits="userSpaceOnUse">
<stop stop-color="#545454"/>
<stop offset="1" stop-color="#656565" stop-opacity="0"/>
</linearGradient>
</defs>
</svg>