<svg width="40" height="40" viewBox="0 0 40 40" fill="none" xmlns="http://www.w3.org/2000/svg">
<path d="M15.0909 6H10.5455C9.33992 6 8.18377 6.52678 7.33133 7.46447C6.47889 8.40215 6 9.67392 6 11V15H15.0909V6Z" fill="#676767"/>
<path d="M25.9991 15V11C25.9991 9.67392 25.5202 8.40215 24.6678 7.46447C23.8153 6.52678 22.6592 6 21.4537 6H16.9082V15H25.9991Z" fill="#676767"/>
<path d="M6 17V21C6 22.3261 6.47889 23.5979 7.33133 24.5355C8.18377 25.4732 9.33992 26 10.5455 26H15.0909V17H6Z" fill="#676767"/>
<path d="M16.9082 26H21.4537C22.6592 26 23.8153 25.4732 24.6678 24.5355C25.5202 23.5979 25.9991 22.3261 25.9991 21V17H16.9082V26Z" fill="#676767"/>
</svg>
