<svg width="24" height="24" viewBox="0 0 24 24" fill="none" xmlns="http://www.w3.org/2000/svg">
<g id="Icon">
<path id="add" d="M18.0627 20.4853C18.7322 21.1548 19.8176 21.1548 20.4871 20.4853C21.1566 19.8158 21.1566 18.7304 20.4871 18.0609L14.4262 12L20.4871 5.93909C21.1566 5.26962 21.1566 4.18419 20.4871 3.51472C19.8176 2.84525 18.7322 2.84525 18.0627 3.51472L12.0018 9.57563L5.9409 3.51472C5.27143 2.84525 4.186 2.84525 3.51653 3.51472C2.84706 4.18419 2.84706 5.26961 3.51653 5.93908L9.57745 12L3.51653 18.0609C2.84706 18.7304 2.84706 19.8158 3.51653 20.4853C4.186 21.1548 5.27143 21.1548 5.9409 20.4853L12.0018 14.4244L18.0627 20.4853Z" fill="white"/>
</g>
</svg>
