<svg width="32" height="32" viewBox="0 0 32 32" fill="none" xmlns="http://www.w3.org/2000/svg">
<path fill-rule="evenodd" clip-rule="evenodd" d="M11.8198 8.22701C11.8198 9.22308 11.0614 10.0292 9.87532 10.0292C8.73548 10.0292 7.97706 9.22308 8.00053 8.22701C7.97706 7.18253 8.73547 6.3999 9.89804 6.3999C11.0614 6.3999 11.7971 7.18253 11.8198 8.22701ZM8.09589 23.0551V11.4529H11.7017V23.0544H8.09589V23.0551Z" fill="white"/>
<path fill-rule="evenodd" clip-rule="evenodd" d="M14.5915 15.1556C14.5915 13.7085 14.5438 12.4748 14.4961 11.4545H17.6281L17.7946 13.0439H17.8657C18.3403 12.3083 19.5263 11.1941 21.4481 11.1941C23.8202 11.1941 25.5996 12.7601 25.5996 16.1752V23.0567H21.9938V16.627C21.9938 15.1314 21.4723 14.1119 20.1674 14.1119C19.1706 14.1119 18.578 14.7999 18.341 15.4637C18.2457 15.7014 18.1987 16.0329 18.1987 16.3659V23.0567H14.5929V15.1556H14.5915Z" fill="white"/>
</svg>
