<svg width="32" height="32" viewBox="0 0 32 32" fill="none" xmlns="http://www.w3.org/2000/svg">
<g clip-path="url(#clip0_3312_1892)">
<path d="M14 17.9999C14.6583 18.6718 15.5594 19.0504 16.5 19.0504C17.4406 19.0504 18.3417 18.6718 19 17.9999L23 13.9999C24.3807 12.6192 24.3807 10.3806 23 8.99989C21.6193 7.61918 19.3807 7.61918 18 8.99989L17.5 9.49989" stroke="white" stroke-width="2" stroke-linecap="round" stroke-linejoin="round"/>
<path d="M18.0004 14C17.3421 13.3281 16.441 12.9495 15.5004 12.9495C14.5597 12.9495 13.6587 13.3281 13.0004 14L9.00038 18C7.61967 19.3807 7.61967 21.6193 9.00038 23C10.3811 24.3807 12.6197 24.3807 14.0004 23L14.5004 22.5" stroke="white" stroke-width="2" stroke-linecap="round" stroke-linejoin="round"/>
</g>
<defs>
<clipPath id="clip0_3312_1892">
<rect width="32" height="32" fill="white"/>
</clipPath>
</defs>
</svg>
