<svg width="240" height="39" viewBox="0 0 240 39" fill="none" xmlns="http://www.w3.org/2000/svg">
<path d="M48.7689 24.8812L46.4909 19.8414C40.2052 19.4857 33.8586 19.3041 27.4587 19.3041C21.0207 19.3041 14.636 19.4933 8.32752 19.849L6.04945 24.8888C13.0741 24.4347 20.2131 24.2001 27.4587 24.2001C34.6662 24.1926 41.7747 24.4272 48.7689 24.8812ZM38.5062 2.15667L37.5995 0.158913C34.232 0.0529709 30.8491 0 27.4511 0C24.0226 0 20.6017 0.0605382 17.2036 0.158913L16.3046 2.15667C19.9921 2.0356 23.7102 1.95236 27.4587 1.95236C31.1691 1.95992 34.8491 2.0356 38.5062 2.15667ZM44.6318 15.7172L40.1214 5.72843C35.9234 5.57708 31.7025 5.49384 27.4587 5.49384C23.1769 5.49384 18.9255 5.57708 14.697 5.736L10.1865 15.7324C15.8931 15.4372 21.6531 15.2859 27.4663 15.2859C33.2263 15.2783 38.9557 15.4297 44.6318 15.7172ZM53.4241 35.1954C48.3651 34.8019 43.2604 34.5295 38.11 34.3706L39.4281 37.3445C44.6166 37.5337 49.7442 37.8364 54.8032 38.2526L53.4241 35.1954ZM50.407 28.5059C42.8566 27.9914 35.192 27.7265 27.4587 27.7265C19.6874 27.7265 11.9922 27.9914 4.41138 28.5135L3.03234 31.5631C11.017 30.9729 19.1769 30.6626 27.4587 30.6626C35.71 30.6626 43.8319 30.9729 51.786 31.5555L50.407 28.5059ZM0 38.2677C5.05137 37.8439 10.1789 37.5413 15.3598 37.3521L16.6855 34.3706C11.5427 34.537 6.43802 34.8095 1.37903 35.203L0 38.2677Z" fill="white"/>
<path d="M79.8326 12.5356L85.9943 26.242H80.7088L79.6741 23.9265H72.8878L71.8531 26.242H66.6143L72.7573 12.5356H79.8326ZM74.5192 19.9771H78.0615L76.281 16.3731L74.5192 19.9771Z" fill="white"/>
<path d="M84.0183 12.4985H102.149V17.0456H95.363V26.2516H90.8232V17.0456H84.0183V12.4985Z" fill="white"/>
<path d="M116.383 26.2516H112.627L109.243 20.2201V26.2516H104.685V12.4985H110.119L114.556 20.1174L118.994 12.4985H124.447V26.2516H119.888V20.1827L116.383 26.2516Z" fill="white"/>
<path d="M135.885 12.2837C137.124 12.2837 138.224 12.349 139.166 12.4891C140.117 12.6292 141.002 12.8532 141.804 13.18C142.615 13.5068 143.277 13.9363 143.789 14.4592C144.302 14.9914 144.703 15.6543 144.992 16.4572C145.281 17.2602 145.421 18.2032 145.421 19.2863C145.421 20.36 145.29 21.2844 145.039 22.0686C144.787 22.8529 144.414 23.5158 143.948 24.0574C143.473 24.5989 142.848 25.0377 142.074 25.3739C141.301 25.71 140.424 25.9434 139.445 26.0835C138.467 26.2329 137.329 26.2982 136.024 26.2982C132.79 26.2982 130.441 25.71 128.968 24.5242C127.504 23.3478 126.768 21.5084 126.768 19.0342C126.768 16.7373 127.514 15.038 129.014 13.9363C130.515 12.8346 132.808 12.2837 135.885 12.2837ZM136.062 22.7035C137.441 22.7035 138.513 22.4234 139.268 21.8632C140.023 21.303 140.406 20.444 140.406 19.2956C140.406 18.1845 140.005 17.3442 139.212 16.756C138.42 16.1771 137.348 15.8877 136.006 15.8877C135.307 15.8877 134.682 15.9624 134.151 16.1118C133.619 16.2612 133.172 16.4852 132.827 16.784C132.482 17.0828 132.221 17.4469 132.053 17.8578C131.885 18.2779 131.802 18.7541 131.802 19.2863C131.802 20.3133 132.165 21.1443 132.874 21.7605C133.582 22.3954 134.654 22.7035 136.062 22.7035Z" fill="white"/>
<path d="M155.889 12.5356C157.12 12.5356 158.164 12.5637 159.04 12.6197C159.916 12.6757 160.69 12.7877 161.371 12.9465C162.051 13.1052 162.592 13.2919 163.002 13.5253C163.412 13.7494 163.748 14.0669 164.018 14.459C164.288 14.8512 164.475 15.2807 164.577 15.7568C164.68 16.233 164.736 16.8212 164.736 17.5122H159.888C159.888 17.2974 159.851 17.1387 159.777 17.0173C159.702 16.8959 159.543 16.7839 159.292 16.6718C159.049 16.5598 158.649 16.4851 158.117 16.4384C157.586 16.3917 156.877 16.3731 156.001 16.3731C154.845 16.3731 153.997 16.4011 153.456 16.4478C152.925 16.5038 152.58 16.5691 152.44 16.6438C152.291 16.7185 152.226 16.8586 152.226 17.0546C152.235 17.2227 152.422 17.3348 152.767 17.4001C153.111 17.4561 154.155 17.5588 155.889 17.6989C155.917 17.6989 155.936 17.7082 155.945 17.7176C159.385 17.9883 161.576 18.2404 162.498 18.4645C163.71 18.7539 164.493 19.2395 164.848 19.9397C165.081 20.4066 165.202 21.0881 165.202 21.9751C165.202 22.6007 165.155 23.1142 165.071 23.525C164.987 23.9265 164.82 24.3 164.559 24.6361C164.307 24.9722 163.971 25.243 163.57 25.4297C163.17 25.6165 162.601 25.7752 161.883 25.9059C161.165 26.0366 160.354 26.1207 159.432 26.1674C158.509 26.214 157.371 26.2327 156.001 26.2327C155.06 26.2327 154.249 26.2234 153.568 26.1954C152.888 26.1674 152.244 26.1207 151.648 26.0553C151.051 25.99 150.567 25.9059 150.166 25.8032C149.774 25.7005 149.42 25.5511 149.112 25.3737C148.805 25.187 148.553 24.9909 148.376 24.7762C148.199 24.5614 148.059 24.2813 147.938 23.9452C147.817 23.6091 147.742 23.2449 147.705 22.8715C147.667 22.4887 147.649 22.0405 147.649 21.5176H152.356C152.356 21.7417 152.394 21.9098 152.468 22.0312C152.543 22.1525 152.711 22.2459 152.99 22.3206C153.261 22.4046 153.643 22.4513 154.137 22.4793C154.622 22.5073 155.321 22.5167 156.216 22.5167C156.318 22.5167 156.477 22.5167 156.682 22.5167C158.173 22.5167 159.068 22.4887 159.394 22.4326C159.711 22.3766 159.879 22.2086 159.879 21.9191C159.879 21.7511 159.767 21.639 159.543 21.5923C159.32 21.5363 158.705 21.4803 157.707 21.4149C156.98 21.3589 156.374 21.3122 155.889 21.2749C155.125 21.2095 154.528 21.1535 154.118 21.1162C153.708 21.0788 153.195 21.0228 152.589 20.9481C151.983 20.8734 151.527 20.7987 151.21 20.7333C150.902 20.6867 150.529 20.5933 150.1 20.4812C149.672 20.3692 149.345 20.2478 149.131 20.0984C148.917 19.9584 148.684 19.7903 148.432 19.5943C148.18 19.3982 147.994 19.1741 147.882 18.9313C147.77 18.6886 147.677 18.3991 147.593 18.0817C147.509 17.7642 147.462 17.4188 147.462 17.036C147.462 16.5785 147.5 16.1677 147.565 15.8035C147.621 15.43 147.714 15.0939 147.835 14.8138C147.956 14.5244 148.115 14.2723 148.32 14.0482C148.534 13.8241 148.749 13.6374 148.982 13.4693C149.215 13.3013 149.523 13.1705 149.886 13.0585C150.259 12.9465 150.632 12.8531 151.005 12.7971C151.378 12.7317 151.834 12.6757 152.384 12.6383C152.934 12.601 153.466 12.573 153.997 12.5637C154.528 12.545 155.162 12.5356 155.889 12.5356Z" fill="white"/>
<path d="M167.737 12.48H182.466V16.6722H172.296V18.0074H180.257V22.0408H172.296V26.2517H167.737V12.48Z" fill="white"/>
<path d="M185.16 12.4985H200.317V16.3173H189.718V17.5311H199.655V21.1911H189.718V22.4235H200.317V26.2423H185.16V12.4985Z" fill="white"/>
<path d="M203.235 12.4985H213.33C213.592 12.4985 213.843 12.5079 214.076 12.5172C214.309 12.5265 214.645 12.5732 215.064 12.6479C215.484 12.7226 215.875 12.816 216.22 12.9467C216.565 13.0681 216.938 13.2548 217.32 13.5162C217.712 13.7683 218.038 14.0765 218.308 14.4219C218.569 14.7674 218.793 15.2062 218.97 15.7477C219.147 16.2799 219.231 16.8868 219.231 17.5684C219.231 19.7345 218.392 21.2845 216.705 22.2088L219.52 26.261L214.253 26.2423L211.904 23.0118H207.775V26.261H203.216V12.4985H203.235ZM212.892 18.9783C214.02 18.9783 214.589 18.5488 214.589 17.6898C214.589 16.9055 213.992 16.5134 212.808 16.5134H207.784V18.9783H212.892Z" fill="white"/>
<path d="M233.838 12.5356L240 26.2514H234.715L233.68 23.9359H226.894L225.859 26.2514H220.62L226.763 12.545H233.838V12.5356ZM228.525 19.9771H232.067L230.287 16.3731L228.525 19.9771Z" fill="white"/>
</svg>
