<svg width="180" height="100" viewBox="0 0 180 100" fill="none" xmlns="http://www.w3.org/2000/svg">
<path fill-rule="evenodd" clip-rule="evenodd" d="M47.026 42.5567C47.0258 42.5772 47.0255 45.9374 47.0253 50.0241L47.025 57.4543L52.5695 57.4747C60.3196 57.5032 61.2911 57.3623 63.5972 55.8761C69.3907 52.1423 67.088 44.2116 59.7764 42.7173C59.0527 42.5694 47.0271 42.4179 47.026 42.5567ZM68.5022 50.0071V57.4883H70.8806H73.259V50.0071V42.5259H70.8806H68.5022V50.0071ZM82.7028 42.6021C73.4942 43.6309 72.001 54.1442 80.6657 56.9455C82.2591 57.4607 82.0285 57.4456 88.7363 57.4711L94.7349 57.494V52.7635V48.0329L92.374 48.0509L90.013 48.0688L89.9947 50.8437L89.9764 53.6187L86.532 53.5951C82.664 53.5687 82.6331 53.5651 81.5607 53.0172C78.9595 51.6882 79.121 48.2088 81.8427 46.9408C82.9426 46.4283 83.2785 46.4058 89.8206 46.4039L94.7349 46.4025V44.4642V42.5259L88.9812 42.5347C85.8167 42.5396 82.9914 42.5699 82.7028 42.6021ZM96.4138 50.0062V57.4883H98.8275H101.241L101.223 50.0241L101.206 42.5599L98.8097 42.542L96.4138 42.5241V50.0062ZM102.866 44.4812L102.885 46.4365L105.805 46.4543L108.726 46.472V51.9801V57.4883H111.104H113.483V51.9802V46.4721L116.228 46.4543L118.974 46.4365L118.992 44.4812L119.011 42.5259H110.929H102.847L102.866 44.4812ZM127.229 42.6201C126.678 42.7503 126.152 43.0644 125.62 43.5801C125.207 43.9798 115.343 57.1386 115.243 57.4231C115.228 57.4662 116.217 57.4835 118.036 57.472L120.853 57.4543L124.414 52.5575C126.373 49.8642 127.996 47.6538 128.022 47.6454C128.064 47.6315 130.415 50.8848 130.47 51.0323C130.484 51.0696 129.885 51.0961 129.001 51.0975L127.508 51.0997L126.144 52.9798C125.394 54.0137 124.77 54.8849 124.757 54.9158C124.744 54.9466 126.664 54.9727 129.024 54.9739L133.315 54.9759L134.194 56.2151L135.074 57.4543L137.925 57.472L140.775 57.4898L140.394 56.9619C130.372 43.0859 130.607 43.3983 129.842 42.9538C129.152 42.5526 128.088 42.4169 127.229 42.6201ZM142.444 50.0071V57.4883H144.822H147.2V50.0071V42.5259H144.822H142.444V50.0071ZM150.614 42.6531C149.874 42.8907 149.361 43.3833 149.067 44.1392C148.914 44.5319 148.914 44.5376 148.895 51.0102L148.876 57.4883H151.046H153.216V53.1356C153.216 50.7416 153.234 48.7829 153.255 48.7829C153.276 48.7829 155.471 50.6279 158.134 52.883C163.54 57.4619 163.246 57.2285 163.812 57.3886C165.262 57.7983 166.674 57.0243 167.062 55.6086C167.126 55.3735 167.156 50.2954 167.138 42.7129L167.137 42.5259H164.969H162.801L162.783 46.7707L162.765 51.0155L157.816 46.9492C154.214 43.9894 152.767 42.8405 152.5 42.7271C151.991 42.5115 151.158 42.4788 150.614 42.6531ZM59.0933 46.5655C63.1529 47.7191 63.0352 52.3366 58.9185 53.424C58.4349 53.5517 58.1351 53.5651 55.0885 53.5946L51.7832 53.6266V50.0105V46.3943L55.2284 46.4203C58.2544 46.4431 58.7247 46.4607 59.0933 46.5655Z" fill="white" fill-opacity="0.8"/>
<path fill-rule="evenodd" clip-rule="evenodd" d="M27.893 37.4171C29.2516 37.5377 30.3411 37.8775 30.5425 38.2434C30.6229 38.3894 31.0448 38.3442 25.6822 38.7637C19.8694 39.2186 19.5796 39.222 19.7943 38.8344C20.339 37.8511 24.5263 37.1183 27.893 37.4171ZM31.9365 38.8671C33.4185 39.3325 35.4869 40.9526 35.8785 41.9546C36.1981 42.7723 35.5933 43.1151 33.9289 43.0597C32.9655 43.0276 32.7427 42.8855 31.9322 41.7862C31.6175 41.3593 31.1655 40.8279 30.7922 40.446C29.9491 39.5833 29.8524 39.3456 30.2305 39.0652C30.6844 38.7286 31.2766 38.6598 31.9365 38.8671ZM28.2274 39.6608C28.9686 39.8269 29.4471 40.2692 30.1792 41.4646C31.3378 43.3567 31.2988 43.428 28.8291 43.9299C26.204 44.4632 25.1097 44.5548 23.1831 44.4021C20.9979 44.2291 20.47 44.2535 19.17 44.5885C18.2581 44.8234 17.7451 44.8847 17.4175 44.7981C16.228 44.4836 16.5575 41.9125 17.9546 40.6082C18.755 39.8611 19.7826 39.6731 21.7412 39.9155C23.1725 40.0927 24.6719 40.0285 26.6194 39.7067C27.2131 39.6085 27.9059 39.5888 28.2274 39.6608ZM17.3401 40.6268C17.2913 40.8942 17.1121 41.2129 16.6505 41.8534C16.4189 42.1746 16.1098 42.6372 15.9636 42.8813C15.8175 43.1255 15.5599 43.5542 15.3914 43.834C14.9439 44.5766 14.5869 44.9007 13.991 45.1051L13.801 45.1703L13.8323 45.0421C14.1405 43.7804 17.5469 39.4928 17.3401 40.6268ZM37.1812 43.8263C38.0604 45.1189 38.2366 45.8652 37.8902 46.8297C37.7794 47.1381 37.5931 47.6702 37.4762 48.0122C36.8073 49.9686 35.6543 50.8274 33.292 51.1284C31.6832 51.3335 30.9407 51.1604 28.9984 50.1276C27.3178 49.2339 26.6511 49.1065 24.7392 49.3135C22.6026 49.5448 21.6036 49.3738 20.3127 48.5557C19.0138 47.7325 18.5908 46.7443 19.3329 46.2669C19.9897 45.8443 20.9283 45.7832 23.1831 46.0163C25.4358 46.2492 26.2585 46.1626 29.6726 45.3332C32.7785 44.5787 33.3759 44.4741 34.8403 44.4284C36.2249 44.3851 36.3578 44.3297 36.7472 43.6332C36.8539 43.4423 36.9486 43.4844 37.1812 43.8263ZM16.57 45.6566C17.295 45.9511 16.7427 47.1046 15.5977 47.6876C14.9311 48.0271 14.7597 48.2497 14.388 49.2594C13.866 50.6771 13.3851 50.9706 13.0382 50.0834C12.8163 49.5159 12.8557 48.6114 13.169 47.0802L13.3472 46.2093L13.7834 46.1885C14.1799 46.1696 14.2659 46.1472 14.7244 45.9431C15.5155 45.591 16.1616 45.4907 16.57 45.6566ZM38.7819 48.1784C39.2996 49.2777 38.5499 53.9036 37.5654 55.6842C36.4235 57.7496 34.6684 59.5622 33.8103 59.5623L33.648 59.5624L33.6789 59.3743C33.6959 59.2708 33.8194 58.8976 33.9532 58.5449C34.087 58.1922 34.3157 57.5889 34.4614 57.2043C34.7777 56.3696 34.8515 56.0548 35.075 54.5861C35.3479 52.7934 35.4048 52.6555 36.1554 51.9697C37.3324 50.8944 37.4014 50.7929 37.7683 49.5929C38.2638 47.9722 38.5179 47.6176 38.7819 48.1784ZM18.3383 49.3157C20.8553 50.1652 22.4335 53.6867 21.4597 56.2809C20.7249 58.2385 18.7249 58.289 16.12 56.4157C15.4977 55.9681 15.147 55.7976 14.6523 55.7021C14.1499 55.6051 14.1094 55.5611 13.7949 54.773C13.3181 53.5781 13.0057 52.4928 12.897 51.6533C12.8189 51.05 12.8583 50.991 12.9909 51.5128C13.3378 52.8776 13.6443 52.9093 14.4135 51.6597C15.8618 49.3072 16.7468 48.7786 18.3383 49.3157ZM24.9028 51.0349C26.1656 51.2094 28.0571 51.803 29.8678 52.593C30.8 52.9997 30.9209 53.025 32.5643 53.1579C33.885 53.2646 34.0906 53.8471 33.6295 56.1748C33.0136 59.2841 32.405 60.3579 31.2598 60.3563C30.4096 60.355 29.8676 59.7935 29.2941 58.3195C28.6314 56.6166 28.2994 56.3163 25.8654 55.2182C23.5029 54.1523 22.7879 53.5673 22.5632 52.5162C22.3029 51.2991 23.1112 50.7873 24.9028 51.0349ZM25.1795 56.2233C26.3617 56.52 27.0915 57.1771 27.845 58.6236C28.3599 59.6119 28.6788 60.0511 29.1801 60.4621C29.7546 60.9331 29.744 61.0597 29.1112 61.2899C27.0377 62.0441 24.0567 61.0437 23.2334 59.3173C22.2844 57.3272 23.2788 55.7463 25.1795 56.2233ZM17.1772 57.8755C17.3499 57.9455 17.7659 58.176 18.1017 58.3873C18.8493 58.8581 18.9302 58.8866 19.7843 58.9794C22.0971 59.2309 22.6965 59.5392 22.4628 60.3571L22.416 60.521L21.61 60.6801C21.1667 60.7676 20.7608 60.8547 20.7079 60.8737L20.6118 60.9081L20.7079 60.9454C21.4788 61.2447 23.7357 62.3274 23.7357 62.3979C23.7357 62.5258 23.3677 62.5003 22.6261 62.321C19.4755 61.5592 15.4995 58.8507 16.139 57.9019C16.3025 57.6591 16.624 57.6509 17.1772 57.8755ZM33.9529 59.9285C33.6628 60.4555 31.2614 61.6892 29.3588 62.2886C27.0383 63.0197 23.0389 62.5709 23.0389 61.5794C23.0389 61.1895 23.7188 61.1718 25.2256 61.5224C27.9055 62.1462 29.4976 61.9148 32.4647 60.4707C33.0955 60.1636 33.8409 59.8566 33.9864 59.844C33.9939 59.8433 33.9788 59.8813 33.9529 59.9285Z" fill="white" fill-opacity="0.8"/>
</svg>
