<svg width="180" height="100" viewBox="0 0 180 100" fill="none" xmlns="http://www.w3.org/2000/svg">
<path d="M59.2389 45.8277C58.9971 47.3534 58.2159 48.5598 56.8952 49.4468C58.1973 50.4225 58.7274 51.8329 58.4856 53.6779C58.2624 55.31 57.4904 56.605 56.1697 57.563C54.8676 58.521 53.1191 59 50.9242 59H43L46.4319 40.3725H53.7981C55.5652 40.3725 56.9789 40.887 58.0391 41.916C59.0994 42.9272 59.4994 44.2311 59.2389 45.8277ZM53.2121 44.3641H50.1708L49.557 47.6639H52.5983C53.1563 47.6639 53.6306 47.5131 54.0213 47.2115C54.4119 46.9099 54.6537 46.5107 54.7467 46.014C54.8397 45.535 54.7467 45.1447 54.4677 44.8431C54.2073 44.5238 53.7888 44.3641 53.2121 44.3641ZM52.4588 51.4426H48.8594L48.1898 55.0084H51.7891C52.403 55.0084 52.9145 54.8487 53.3237 54.5294C53.7515 54.1923 54.012 53.7577 54.105 53.2255C54.198 52.6933 54.0957 52.2675 53.7981 51.9482C53.519 51.6111 53.0726 51.4426 52.4588 51.4426Z" fill="white" fill-opacity="0.8"/>
<path d="M75.2996 40.3725L74.5462 44.4706H66.8732L66.2872 47.584H73.2906L72.5373 51.5756H65.5618L64.9479 54.902H72.7605L72.0071 59H59.7303L63.1622 40.3725H75.2996Z" fill="white" fill-opacity="0.8"/>
<path d="M76.5628 40.3725H91.0718L90.3184 44.4706H85.2961L82.6175 59H78.1532L80.8318 44.4706H75.8094L76.5628 40.3725Z" fill="white" fill-opacity="0.8"/>
<path d="M105.833 45.8277C105.591 47.3534 104.81 48.5598 103.489 49.4468C104.791 50.4225 105.321 51.8329 105.08 53.6779C104.856 55.31 104.084 56.605 102.764 57.563C101.462 58.521 99.7132 59 97.5182 59H89.5941L93.026 40.3725H100.392C102.159 40.3725 103.573 40.887 104.633 41.916C105.693 42.9272 106.093 44.2311 105.833 45.8277ZM99.8062 44.3641H96.7649L96.151 47.6639H99.1923C99.7504 47.6639 100.225 47.5131 100.615 47.2115C101.006 46.9099 101.248 46.5107 101.341 46.014C101.434 45.535 101.341 45.1447 101.062 44.8431C100.801 44.5238 100.383 44.3641 99.8062 44.3641ZM99.0528 51.4426H95.4535L94.7838 55.0084H98.3832C98.997 55.0084 99.5086 54.8487 99.9178 54.5294C100.346 54.1923 100.606 53.7577 100.699 53.2255C100.792 52.6933 100.69 52.2675 100.392 51.9482C100.113 51.6111 99.6667 51.4426 99.0528 51.4426Z" fill="white" fill-opacity="0.8"/>
<path d="M118.028 59H104.747L105.305 55.9132L113.062 49.4202C114.624 48.1251 115.489 47.0252 115.657 46.1204C115.768 45.535 115.675 45.0649 115.378 44.7101C115.08 44.3375 114.634 44.1513 114.038 44.1513C112.829 44.1513 111.769 44.852 110.858 46.2535L107.286 44.0714C108.16 42.7409 109.23 41.7297 110.495 41.0378C111.76 40.3459 113.136 40 114.624 40C116.354 40 117.796 40.5854 118.949 41.7563C120.084 42.8917 120.484 44.373 120.149 46.2003C119.944 47.247 119.535 48.1961 118.921 49.0476C118.326 49.8992 117.452 50.8128 116.298 51.7885L112.504 54.902H118.782L118.028 59Z" fill="white" fill-opacity="0.8"/>
<path d="M136.923 45.8277C136.681 47.3534 135.9 48.5598 134.579 49.4468C135.881 50.4225 136.411 51.8329 136.17 53.6779C135.946 55.31 135.174 56.605 133.854 57.563C132.552 58.521 130.803 59 128.608 59H120.684L124.116 40.3725H131.482C133.249 40.3725 134.663 40.887 135.723 41.916C136.783 42.9272 137.183 44.2311 136.923 45.8277ZM130.896 44.3641H127.855L127.241 47.6639H130.282C130.84 47.6639 131.315 47.5131 131.705 47.2115C132.096 46.9099 132.338 46.5107 132.431 46.014C132.524 45.535 132.431 45.1447 132.152 44.8431C131.891 44.5238 131.473 44.3641 130.896 44.3641ZM130.143 51.4426H126.543L125.874 55.0084H129.473C130.087 55.0084 130.599 54.8487 131.008 54.5294C131.436 54.1923 131.696 53.7577 131.789 53.2255C131.882 52.6933 131.78 52.2675 131.482 51.9482C131.203 51.6111 130.757 51.4426 130.143 51.4426Z" fill="white" fill-opacity="0.8"/>
</svg>
