<svg width="180" height="100" viewBox="0 0 180 100" fill="none" xmlns="http://www.w3.org/2000/svg">
<path fill-rule="evenodd" clip-rule="evenodd" d="M84.3774 42.0006L80.6082 57.9999H76.1994L79.9671 42.0006H84.3774ZM90.9712 42.0006C93.4193 42.0006 95.7811 42.807 97.3896 44.2862L97.6656 44.5536L95.1946 47.2949C94.0187 45.9939 92.0033 45.3672 90.4911 45.3672C89.3871 45.3672 88.7632 45.9249 88.7632 46.5517C88.7632 47.2244 89.7953 47.6442 91.1394 48.1071C93.4193 48.8273 96.4668 49.9657 96.4668 52.7746C96.4668 55.5849 94.0187 57.9999 89.9635 57.9999C86.8427 57.9999 84.0712 56.9161 82.5345 55.2773L82.3333 55.0502L84.8043 52.2413C85.9558 53.6573 88.1163 54.5859 90.2524 54.5859C91.6181 54.5859 92.1471 53.9131 92.1471 53.3094C92.1471 52.5662 91.1394 52.1479 89.7464 51.6836C87.5154 50.9404 84.4924 49.8953 84.4924 46.8766C84.4924 44.67 86.7234 42.0006 90.9712 42.0006ZM104.3 42.0006L101.564 54.4019H107.994L107.329 57.435L116.54 42.0006H121.724L124.244 57.9999H119.973L119.304 52.099L118.54 55.5778H112.999L111.668 57.9999H96.6436L100.171 42.0006H104.3ZM132.016 42.0006L136.357 51.7152L138.493 42.0006H142.644L139.117 57.9999H135.137L130.603 47.8296L128.372 57.9999H124.246L127.773 42.0006H132.018H132.016ZM151.835 42.0006C155.417 42.0006 158.999 44.7102 158.999 48.8862C158.999 52.9313 156.369 57.8088 148.823 57.9942L148.375 57.9999H141.62L145.178 42.0006H151.833H151.835ZM61.8877 42.0006L76.1994 42.0078L67.0282 57.9999H62.9558L70.0901 45.5584L63.9232 45.5541L61.8877 42.0006ZM151.085 45.5986H148.543L146.584 54.4019H149.148C152.61 54.4019 154.691 52.0041 154.691 49.1722C154.691 47.1813 153.215 45.5986 151.085 45.5986ZM118.557 45.4779L114.914 52.099H119.304L118.557 45.4779ZM31.8123 47.0217V47.0203L31.808 47.0275L31.8123 47.0217ZM31.8324 46.9873L31.8367 46.9801L31.8324 46.9887V46.9873ZM31.8324 46.9873V46.9901L31.8238 47.0045L31.8209 47.0059L31.8181 47.0131L31.8152 47.0174L31.8137 47.0203V47.0232L31.8094 47.0275L31.808 47.0289V47.0333L31.7792 47.0836L27.0355 55.1839C28.9086 56.1599 29.1975 57.4695 31.2876 57.4695C34.2029 57.4695 34.3121 54.3645 38.8877 54.3645C43.4647 54.3645 43.5739 57.4695 46.4892 57.4695C48.4557 57.4695 48.8323 56.3051 50.4279 55.3564L50.7442 55.1824L44.8174 45.0624L39.9428 53.3856H35.8057L44.8174 38L56.7055 58.3018C56.8263 58.5059 56.7917 58.7647 56.6221 58.9314C55.9221 58.2414 55.0064 57.8964 54.0892 57.8964C51.174 57.8964 51.0648 61 46.4892 61C41.9122 61 41.8029 57.8964 38.8877 57.8964C35.9739 57.8964 35.8646 61 31.2876 61C26.7121 61 26.6014 57.8964 23.6876 57.8964C22.7704 57.8964 21.8533 58.2414 21.1547 58.9314C21.0138 58.792 20.9664 58.5893 21.0239 58.4082L21.0699 58.3018L24.9971 51.5973C29.1041 44.5852 29.7409 42.5353 33.2742 41.6024C35.0668 41.128 37.8987 41.22 40.1153 43.3504L40.3784 43.6149L38.4018 46.9887C37.2087 44.3379 33.4784 44.1784 32.0265 46.6581L32.0222 46.6667L32.0179 46.6739L31.9604 46.7716L31.9345 46.8176L31.9057 46.8622H31.9043L31.8971 46.8766L31.8942 46.8809L31.8899 46.8895L31.8827 46.9024L31.8813 46.9053L31.8655 46.9312L31.8597 46.9412L31.8482 46.9599L31.8396 46.9757L31.8367 46.9801L31.8382 46.9757L31.8367 46.9815L31.8324 46.9873Z" fill="white" fill-opacity="0.8"/>
</svg>
