<svg width="180" height="100" viewBox="0 0 180 100" fill="none" xmlns="http://www.w3.org/2000/svg">
<path d="M43.3452 39H29.5008C27.5674 39 26 40.5674 26 42.5008V56.4992C26 58.4326 27.5674 60 29.5008 60H43.3452C45.2786 60 46.846 58.4326 46.846 56.4992V42.5008C46.846 40.5674 45.2786 39 43.3452 39Z" fill="white" fill-opacity="0.8"/>
<path d="M54.1605 54.4037C54.1612 54.5643 54.1946 54.7231 54.2585 54.8704C54.3219 55.0141 54.4104 55.1453 54.5199 55.2578C54.6343 55.3672 54.7691 55.4529 54.9167 55.5099C55.1404 55.6019 55.3861 55.6271 55.6238 55.5824C55.8616 55.5376 56.0813 55.4249 56.2563 55.2578C56.3688 55.1467 56.4591 55.0153 56.5224 54.8704C56.5847 54.7227 56.6165 54.564 56.6157 54.4037V44.6015C56.6169 44.4411 56.5851 44.2823 56.5224 44.1347C56.4602 43.9892 56.3698 43.8575 56.2563 43.7473C56.1489 43.6326 56.0185 43.542 55.8736 43.4812C55.5739 43.3617 55.2397 43.3617 54.94 43.4812C54.7911 43.5399 54.6559 43.6289 54.5433 43.7426C54.4327 43.8543 54.3441 43.9857 54.2819 44.13C54.2177 44.2773 54.1843 44.4362 54.1839 44.5968L54.1605 54.4037Z" fill="white" fill-opacity="0.8"/>
<path d="M60.5128 54.4684C60.511 54.6398 60.5444 54.8098 60.6108 54.9678C60.6722 55.1176 60.7645 55.2528 60.8816 55.3646C61 55.4733 61.1356 55.5617 61.283 55.626C61.4393 55.6928 61.6078 55.7262 61.7778 55.724C61.9382 55.7218 62.0967 55.6885 62.2445 55.626C62.3933 55.5617 62.5305 55.4734 62.6506 55.3646C62.7662 55.2515 62.8582 55.1167 62.9213 54.9678C62.9878 54.8098 63.0211 54.6398 63.0194 54.4684V48.4003C62.9601 47.7133 63.1488 47.0278 63.5515 46.4679C63.7384 46.2696 63.9665 46.1146 64.2197 46.0138C64.4729 45.913 64.7451 45.8689 65.0171 45.8845C65.2935 45.8672 65.57 45.9172 65.8228 46.0302C66.0756 46.1432 66.2973 46.3158 66.4688 46.5333C66.8358 47.0718 67.0131 47.7172 66.9729 48.3677V54.4684C66.9726 54.6401 67.0076 54.8101 67.0756 54.9678C67.1386 55.1164 67.2305 55.2511 67.3459 55.3641C67.4612 55.4771 67.5978 55.5661 67.7478 55.626C67.8955 55.6885 68.0541 55.7218 68.2145 55.724C68.5495 55.7227 68.8715 55.5943 69.1154 55.3646C69.2295 55.2502 69.3213 55.1157 69.3861 54.9678C69.4563 54.8108 69.4914 54.6403 69.4888 54.4684V48.3723C69.4991 47.6645 69.3934 46.9596 69.1761 46.2859C68.9853 45.7036 68.6771 45.1666 68.2705 44.7082C67.8754 44.2712 67.3873 43.9283 66.8422 43.7046C66.2379 43.4589 65.5901 43.3382 64.9378 43.3499C64.2964 43.3397 63.6601 43.4654 63.0707 43.7186C62.5343 43.9478 62.0559 44.2938 61.6704 44.7315C61.2816 45.1805 60.9864 45.7026 60.8022 46.2672C60.5973 46.8954 60.4964 47.5529 60.5035 48.2136L60.5128 54.4684Z" fill="white" fill-opacity="0.8"/>
<path d="M74.6094 43.3506H74.4834C74.4407 43.3539 74.3984 43.3617 74.3574 43.374L74.2547 43.402C74.0063 43.4905 73.7909 43.6528 73.6373 43.8673C73.4838 44.0817 73.3996 44.3379 73.3958 44.6016V54.4038C73.394 54.5752 73.4274 54.7452 73.4938 54.9032C73.561 55.0537 73.6542 55.1912 73.7692 55.3093C73.884 55.425 74.0204 55.517 74.1707 55.58C74.3182 55.6434 74.4769 55.6767 74.6374 55.678C74.7979 55.6758 74.9564 55.6426 75.1042 55.58C75.2558 55.517 75.3938 55.425 75.5103 55.3093C75.6265 55.1922 75.7199 55.0545 75.7857 54.9032C75.8506 54.7449 75.8824 54.5749 75.879 54.4038V51.5425H78.7823C78.9434 51.5409 79.1023 51.506 79.2491 51.4398C79.3993 51.3745 79.5356 51.281 79.6505 51.1644C79.7662 51.0469 79.8595 50.9092 79.9259 50.7583C79.9924 50.5986 80.0257 50.4271 80.024 50.2542C80.0248 50.0843 79.9915 49.9161 79.9259 49.7594C79.8595 49.6084 79.7662 49.4708 79.6505 49.3533C79.5356 49.2367 79.3993 49.1432 79.2491 49.0779C79.1023 49.0117 78.9434 48.9767 78.7823 48.9752H75.9444V45.9179H80.108C80.2766 45.9172 80.4433 45.8822 80.5981 45.8152C80.7466 45.7493 80.8812 45.6559 80.9948 45.5398C81.1077 45.4219 81.1979 45.2842 81.2609 45.1337C81.3245 44.9766 81.3562 44.8084 81.3542 44.6389C81.3588 44.3001 81.2297 43.973 80.9948 43.7287C80.8825 43.6112 80.7475 43.5175 80.5981 43.4533C80.4441 43.384 80.2768 43.349 80.108 43.3506H74.6094Z" fill="white" fill-opacity="0.8"/>
<path d="M84.3464 54.4038C84.3472 54.5645 84.3805 54.7233 84.4445 54.8706C84.5043 55.016 84.593 55.1477 84.7054 55.2576C84.8177 55.3675 84.9513 55.4535 85.0979 55.5101C85.3979 55.6282 85.7315 55.6282 86.0315 55.5101C86.1751 55.4507 86.3064 55.3652 86.4189 55.258C86.53 55.1468 86.6187 55.0152 86.6803 54.8706C86.7443 54.7233 86.7776 54.5645 86.7783 54.4038V44.6017C86.7772 44.2777 86.648 43.9673 86.4189 43.7381C86.308 43.6266 86.1764 43.5379 86.0315 43.4768C85.7315 43.3587 85.3979 43.3587 85.0979 43.4768C84.8759 43.5695 84.6862 43.7257 84.5525 43.9258C84.4188 44.1259 84.3471 44.361 84.3464 44.6017V54.4038Z" fill="white" fill-opacity="0.8"/>
<path d="M90.6942 54.4683C90.6925 54.6397 90.7258 54.8097 90.7923 54.9677C90.8554 55.1166 90.9474 55.2514 91.063 55.3645C91.1814 55.4733 91.3171 55.5616 91.4644 55.6259C91.7798 55.7563 92.134 55.7563 92.4493 55.6259C92.5988 55.5629 92.7362 55.4745 92.8554 55.3645C92.9725 55.2527 93.0647 55.1175 93.1261 54.9677C93.1925 54.8097 93.2259 54.6397 93.2241 54.4683V48.4003C93.1651 47.7233 93.3469 47.0472 93.7376 46.4912C93.9245 46.2929 94.1526 46.1379 94.4058 46.0371C94.659 45.9363 94.9312 45.8921 95.2032 45.9077C95.4795 45.8917 95.7556 45.9422 96.0082 46.0551C96.2608 46.1681 96.4826 46.34 96.6549 46.5565C97.0219 47.0951 97.1992 47.7405 97.159 48.391V54.4683C97.1565 54.6403 97.1915 54.8107 97.2617 54.9677C97.3266 55.1156 97.4184 55.2502 97.5324 55.3645C97.6493 55.4753 97.7853 55.5639 97.9338 55.6259C98.0816 55.6884 98.2402 55.7217 98.4006 55.7239C98.5704 55.7243 98.7386 55.691 98.8954 55.6259C99.0449 55.5629 99.1823 55.4745 99.3015 55.3645C99.4139 55.2488 99.5055 55.1146 99.5722 54.9677C99.6424 54.8107 99.6774 54.6403 99.6749 54.4683V48.3723C99.6829 47.6645 99.5773 46.9601 99.3622 46.2858C99.1714 45.7035 98.8632 45.1666 98.4566 44.7081C98.0589 44.272 97.5695 43.9293 97.0236 43.7046C96.4208 43.4593 95.7746 43.3387 95.1239 43.3498C94.4825 43.3404 93.8464 43.466 93.2568 43.7186C92.7201 43.9472 92.2416 44.2933 91.8565 44.7315C91.4644 45.1781 91.1688 45.7009 90.9883 46.2671C90.7818 46.8951 90.6793 47.5526 90.6849 48.2136L90.6942 54.4683Z" fill="white" fill-opacity="0.8"/>
<path d="M110.588 49.0682C110.427 49.0688 110.269 49.1022 110.121 49.1663C109.976 49.2297 109.845 49.3236 109.739 49.4416C109.631 49.5575 109.546 49.692 109.486 49.8384C109.367 50.1381 109.367 50.4722 109.486 50.7719C109.543 50.9195 109.629 51.0544 109.739 51.1687C109.848 51.281 109.978 51.3713 110.121 51.4348C110.269 51.4988 110.427 51.5322 110.588 51.5328H111.587V52.5363C111.258 52.7922 110.884 52.9852 110.485 53.1058C110.092 53.2098 109.688 53.2616 109.281 53.2598C108.776 53.2643 108.275 53.1642 107.811 52.9658C106.926 52.5862 106.227 51.8735 105.864 50.982C105.673 50.5318 105.577 50.0473 105.58 49.5583C105.574 48.5769 105.959 47.6335 106.648 46.9351C106.982 46.6031 107.374 46.3371 107.806 46.1509C108.249 45.9642 108.726 45.869 109.206 45.8709C109.685 45.8693 110.16 45.9579 110.607 46.1322C111.085 46.3059 111.521 46.5796 111.886 46.9351C111.996 47.0476 112.128 47.1365 112.273 47.1965C112.414 47.2525 112.565 47.281 112.717 47.2805C112.877 47.2774 113.036 47.2425 113.183 47.1778C113.332 47.1125 113.468 47.0208 113.585 46.9071C113.699 46.7945 113.791 46.6615 113.855 46.515C113.924 46.3691 113.959 46.2096 113.958 46.0482C113.961 45.8882 113.931 45.7292 113.869 45.5815C113.807 45.4295 113.715 45.2914 113.599 45.1754C113.026 44.5843 112.344 44.1089 111.592 43.7751C110.833 43.4607 110.018 43.302 109.197 43.3083C108.646 43.305 108.097 43.3821 107.568 43.537C106.542 43.8444 105.616 44.4177 104.884 45.1987C104.141 45.9653 103.609 46.9107 103.339 47.9433C103.194 48.4773 103.122 49.0284 103.124 49.5817C103.122 50.1356 103.198 50.6871 103.348 51.22C103.485 51.7339 103.688 52.2281 103.951 52.6904C104.22 53.143 104.543 53.5615 104.912 53.9366C105.28 54.2973 105.69 54.6108 106.135 54.8702C106.584 55.1384 107.065 55.3471 107.568 55.491C108.076 55.6415 108.602 55.7201 109.132 55.7244C110.806 55.7465 112.425 55.1249 113.655 53.988C113.769 53.8662 113.866 53.7296 113.944 53.5819C114.026 53.425 114.066 53.2499 114.061 53.0731V50.2725C114.06 50.1119 114.027 49.953 113.963 49.8057C113.899 49.6637 113.809 49.5353 113.697 49.4276C113.581 49.3174 113.447 49.2289 113.3 49.1663C113.152 49.1031 112.994 49.0698 112.833 49.0682H110.588Z" fill="white" fill-opacity="0.8"/>
<path d="M123.229 44.2231L123.191 44.1205C123.147 44.0146 123.091 43.9143 123.023 43.8217L122.977 43.7797L122.767 43.5883C122.701 43.5196 122.617 43.4724 122.524 43.453C122.454 43.4207 122.38 43.3972 122.305 43.383C122.227 43.3756 122.149 43.3756 122.071 43.383H121.856C121.766 43.3886 121.677 43.4108 121.595 43.4483H121.539C121.358 43.518 121.198 43.6319 121.072 43.7797C120.951 43.9146 120.861 44.0738 120.806 44.2465L117.114 53.8713C117.003 54.1726 117.003 54.5035 117.114 54.8048C117.234 55.1127 117.47 55.3609 117.772 55.4956C117.936 55.572 118.114 55.6103 118.295 55.6077C118.541 55.6104 118.781 55.5353 118.981 55.393C119.188 55.25 119.35 55.0508 119.448 54.8188L119.639 54.3054H124.424L124.624 54.8188C124.713 55.0575 124.877 55.2608 125.091 55.3976C125.299 55.5343 125.542 55.6073 125.791 55.6077C125.973 55.6108 126.154 55.5725 126.319 55.4956C126.468 55.4277 126.603 55.331 126.715 55.2109C126.823 55.0916 126.908 54.9541 126.968 54.8048C127.025 54.6559 127.055 54.4977 127.056 54.3381C127.056 54.1673 127.024 53.998 126.963 53.8386L123.229 44.2231ZM120.615 51.7755L122.015 48.1207L123.415 51.7755H120.615Z" fill="white" fill-opacity="0.8"/>
<path d="M130.179 54.3757C130.178 54.5466 130.209 54.7161 130.272 54.8751C130.336 55.0248 130.43 55.1598 130.547 55.2719C130.664 55.3832 130.8 55.4718 130.949 55.5333C131.104 55.598 131.271 55.6313 131.439 55.6313C131.607 55.6313 131.774 55.598 131.929 55.5333C132.079 55.4719 132.217 55.3833 132.335 55.2719C132.453 55.1598 132.547 55.0248 132.611 54.8751C132.677 54.7171 132.71 54.5471 132.709 54.3757V47.2574C132.707 47.0876 132.741 46.9192 132.807 46.7627C132.876 46.6107 132.97 46.4718 133.087 46.3519C133.202 46.2346 133.34 46.1424 133.493 46.0812C133.651 46.0148 133.821 45.9814 133.992 45.9832C134.167 45.9806 134.341 46.0156 134.501 46.0859C134.652 46.1472 134.789 46.2394 134.902 46.3566C135.016 46.4754 135.107 46.6148 135.168 46.7673C135.233 46.9291 135.265 47.102 135.262 47.2761V48.8725C135.26 49.0439 135.293 49.2139 135.36 49.3719C135.426 49.5217 135.519 49.6579 135.635 49.7733C135.749 49.8919 135.885 49.9857 136.037 50.0487C136.184 50.1121 136.343 50.1454 136.503 50.1468C136.672 50.1476 136.839 50.1143 136.994 50.0487C137.146 49.9858 137.285 49.892 137.4 49.7733C137.516 49.6579 137.609 49.5217 137.675 49.3719C137.738 49.2129 137.769 49.0434 137.768 48.8725V47.2388C137.777 47.0782 137.813 46.9203 137.876 46.772C137.937 46.6231 138.026 46.487 138.137 46.3706C138.245 46.2546 138.378 46.1638 138.525 46.1045C138.672 46.0412 138.831 46.0079 138.991 46.0065C139.163 46.0061 139.332 46.0394 139.491 46.1045C139.647 46.1645 139.788 46.2567 139.906 46.3752C140.022 46.4962 140.118 46.6348 140.191 46.786C140.261 46.9415 140.296 47.1104 140.294 47.2808V54.3757C140.293 54.5474 140.328 54.7174 140.396 54.8751C140.462 55.0228 140.553 55.1572 140.667 55.2719C140.783 55.3832 140.92 55.4718 141.068 55.5333C141.227 55.5993 141.397 55.6327 141.568 55.6313C141.9 55.63 142.219 55.5014 142.459 55.2719C142.578 55.1546 142.672 55.015 142.736 54.8612C142.8 54.7074 142.833 54.5423 142.833 54.3757V47.1641C142.837 46.6525 142.735 46.1455 142.534 45.6751C142.355 45.2238 142.092 44.8105 141.759 44.4568C141.41 44.1087 140.999 43.8299 140.546 43.6353C140.074 43.4326 139.565 43.3293 139.052 43.3319C138.572 43.325 138.095 43.4171 137.652 43.6026C137.226 43.7783 136.835 44.0298 136.499 44.3448C136.164 44.0284 135.773 43.7767 135.346 43.6026C134.902 43.4183 134.426 43.3262 133.946 43.3319C133.434 43.3287 132.926 43.432 132.457 43.6353C131.769 43.9332 131.184 44.4264 130.774 45.0537C130.364 45.681 130.147 46.4148 130.151 47.1641L130.179 54.3757Z" fill="white" fill-opacity="0.8"/>
<path d="M147.911 43.3407C147.851 43.3417 147.791 43.3528 147.734 43.3733C147.679 43.3938 147.62 43.4049 147.561 43.406C147.309 43.4903 147.091 43.6541 146.94 43.8728C146.782 44.0911 146.699 44.3547 146.702 44.6243V54.3751C146.703 54.5349 146.733 54.6932 146.791 54.8419C146.915 55.1366 147.147 55.3723 147.44 55.5C147.586 55.5693 147.745 55.6075 147.907 55.6121H153.317C153.477 55.6105 153.636 55.5771 153.783 55.514C153.93 55.4514 154.065 55.3629 154.18 55.2526C154.294 55.1389 154.384 55.0042 154.446 54.8559C154.513 54.6978 154.546 54.5279 154.544 54.3564C154.542 54.196 154.509 54.0375 154.446 53.8897C154.383 53.7377 154.293 53.5985 154.18 53.4789C154.066 53.3629 153.932 53.2695 153.783 53.2035C153.636 53.1404 153.477 53.1071 153.317 53.1055H149.228V50.8137H152.108C152.276 50.8153 152.444 50.7803 152.598 50.711C152.747 50.6462 152.883 50.5544 152.999 50.4402C153.112 50.3213 153.203 50.184 153.27 50.0341C153.338 49.8772 153.372 49.708 153.372 49.537C153.372 49.3661 153.338 49.1969 153.27 49.0399C153.206 48.8875 153.114 48.7482 152.999 48.6292C152.885 48.5121 152.748 48.4185 152.598 48.3538C152.444 48.2845 152.276 48.2494 152.108 48.2511H149.228V45.9172H153.317C153.477 45.914 153.636 45.8791 153.783 45.8145C153.93 45.7452 154.064 45.6521 154.18 45.5392C154.293 45.4213 154.383 45.2836 154.446 45.1331C154.511 44.9762 154.545 44.8081 154.544 44.6383C154.551 44.2913 154.42 43.9558 154.18 43.7047C154.065 43.5907 153.931 43.4975 153.783 43.4293C153.637 43.3628 153.478 43.3278 153.317 43.3267L147.911 43.3407Z" fill="white" fill-opacity="0.8"/>
<path d="M36.4234 52.1815C38.1171 52.1815 39.4901 50.7981 39.4901 49.0915C39.4901 47.3849 38.1171 46.0015 36.4234 46.0015C34.7297 46.0015 33.3567 47.3849 33.3567 49.0915C33.3567 50.7981 34.7297 52.1815 36.4234 52.1815Z" fill="#272727"/>
</svg>
