<svg width="180" height="100" viewBox="0 0 180 100" fill="none" xmlns="http://www.w3.org/2000/svg">
<path fill-rule="evenodd" clip-rule="evenodd" d="M91.7401 39C97.1379 39 99.3347 41.9865 98.4355 45.5959C98.0806 47.008 97.3245 48.3019 96.0774 49.197L95.7801 49.3964V49.4514C97.2053 50.2379 97.8351 51.8191 97.2908 54.0714C96.2275 58.3559 92.2002 60.868 86.9524 60.9945L86.5343 60.9986H78.2201L75.6811 56.6577L80.0577 39.0165L91.7387 39H91.7401ZM119.58 39L118.365 44.2044H107.892L107.074 47.2789H117.647L116.432 52.4832H105.793L105.003 55.7956H117.684L116.405 60.9986H96.943L102.396 39H119.58ZM141 39L139.691 44.2044H132.888L128.707 61H122.03L126.202 44.2057H119.846L121.061 39H141ZM52.4244 39L47.2664 59.8477L52.4637 55.0421L65.8588 42.7648L65.8714 42.7881L69.8511 39H79.5485L69.1371 48.2634L71.2862 51.8796L71.2932 51.8755L76.6223 60.9973H71.0519C66.4606 60.9973 65.2388 59.8588 64.4813 58.888L64.4111 58.7972L62.0938 54.8716L55.1977 61H40.2525L43.1675 49.285L43.8422 47.5113L42.0593 49.241L40.08 51.2416L40 45.3814L46.9858 39H52.4244ZM88.7423 52.0103H83.4637L82.5378 55.7956H87.8431C90.4327 55.7956 91.0597 54.8524 91.2771 53.9298C91.5226 52.981 91.3333 52.0103 88.7423 52.0103ZM59.4916 39C59.594 39.0014 59.7301 39.0041 59.89 39.0096C61.1314 39.0027 63.5484 39.2571 65.1139 41.5176L65.1448 41.5685L58.0692 48.0544L52.7232 39H59.4916ZM90.1872 44.2044H85.4262L84.635 47.2789H89.396C91.632 47.2789 92.1763 46.4209 92.3671 45.7141C92.5579 44.9276 92.4499 44.2044 90.1872 44.2044Z" fill="white" fill-opacity="0.8"/>
</svg>
