<svg width="180" height="100" viewBox="0 0 180 100" fill="none" xmlns="http://www.w3.org/2000/svg">
<path fill-rule="evenodd" clip-rule="evenodd" d="M18.4842 41.3921L19.9685 42.7843H22.8536H25.7387L27.2229 41.3921L28.7071 40H22.8536H17L18.4842 41.3921ZM33.2727 41.3921L34.757 42.7843H37.6421H40.5272L42.0114 41.3921L43.4956 40H37.6421H31.7885L33.2727 41.3921ZM26.9295 45.4071L25.5424 46.7921V51.5297V56.2677L27.0548 57.6338L28.5673 59V51.5109C28.5673 47.392 28.5108 44.0218 28.4419 44.0218C28.373 44.0218 27.6924 44.6451 26.9295 45.4071ZM31.5922 51.4465V59L33.1047 57.6338L34.6171 56.2677V51.4465V46.6254L33.1047 45.2592L31.5922 43.8931V51.4465ZM72.0593 47.0702C70.0145 47.9485 69.0677 49.3512 69.0677 51.5013C69.0677 52.7985 69.2515 53.4856 69.7708 54.1309C71.9941 56.8929 76.6676 57.4689 79.9984 55.3916C81.5233 54.4406 81.5468 54.129 80.1416 53.5122C78.98 53.0023 78.9037 53.0057 78.0735 53.6068C76.1493 54.9999 72.5799 54.108 72.1043 52.1154C71.4537 49.388 74.9115 47.7335 77.9633 49.3125C79.1534 49.9282 79.2761 49.9359 80.2777 49.4592C80.8595 49.1823 81.3354 48.8222 81.3354 48.6588C81.3354 48.4952 80.7035 47.9767 79.9315 47.5064C78.0644 46.3692 74.1909 46.1545 72.0593 47.0702ZM43.3558 47.8888V48.9716H45.5405H47.7251V52.684V56.3964H49.2376H50.7501V52.684V48.9716H52.9347H55.1194V47.8888V46.806H49.2376H43.3558V47.8888ZM56.5391 51.5239L56.6319 56.2417L62.2616 56.3265L67.8913 56.4112V55.3306V54.25L63.774 54.1631L59.6568 54.0761V53.3027C59.6568 52.5367 59.688 52.5284 62.9338 52.4408L66.2108 52.3524V51.4465V50.5407L62.9338 50.4522C59.8252 50.3684 59.6514 50.3279 59.5492 49.6677C59.443 48.9787 59.484 48.9716 63.4984 48.9716H67.5552V47.8888V46.806H62.0008H56.4463L56.5391 51.5239ZM83.0159 51.6012V56.3964H84.5284H86.0408V54.5402V52.684H89.2338H92.4268V54.5402V56.3964H93.9392H95.4517V51.6012V46.806H93.9392H92.4268V48.5076V50.2091H89.2338H86.0408V48.5076V46.806H84.5284H83.0159V51.6012ZM97.8044 51.6012V56.3964H99.3169H100.829V53.2309V50.0655L104.28 53.2309C107.422 56.1127 107.843 56.3964 108.986 56.3964H110.24V51.6012V46.806H108.896H107.551V49.5903C107.551 51.1217 107.421 52.3746 107.262 52.3746C107.103 52.3746 105.729 51.1217 104.209 49.5903L101.444 46.806H99.6244H97.8044V51.6012ZM114.59 51.0598C113.256 53.3996 112.029 55.5574 111.863 55.855C111.597 56.3323 111.744 56.3964 113.101 56.3964C114.46 56.3964 114.708 56.2875 115.214 55.4701C115.781 54.5529 115.814 54.5442 118.718 54.542C121.637 54.5402 121.653 54.5445 122.172 55.4683C122.635 56.2937 122.863 56.3964 124.225 56.3964C125.08 56.3964 125.707 56.2621 125.645 56.0923C125.583 55.9249 124.399 53.7699 123.012 51.303L120.491 46.8178L118.754 46.8119L117.016 46.806L114.59 51.0598ZM127.045 51.6012V56.3964H128.546H130.046L130.142 53.4042L130.238 50.412L132.241 52.6667L134.243 54.921L135.602 53.4299C136.349 52.6101 137.296 51.5845 137.706 51.1514L138.452 50.3637L138.462 53.3801L138.473 56.3964H139.985H141.498V51.6012V46.806H139.86C138.225 46.806 138.216 46.8119 136.433 48.9716C135.449 50.1627 134.544 51.1372 134.423 51.1372C134.302 51.1372 133.386 50.1682 132.388 48.9837L130.574 46.8302L128.81 46.8181L127.045 46.806V51.6012ZM144.187 51.6012V56.3964H145.699H147.211V51.6012V46.806H145.699H144.187V51.6012ZM149.564 51.6012V56.3964H151.077H152.589V53.2309V50.0655L156.04 53.2309C159.181 56.1127 159.603 56.3964 160.745 56.3964H162V51.6012V46.806H160.488H158.975V49.6615V52.5169L155.86 49.6615C152.811 46.867 152.711 46.806 151.154 46.806H149.564V51.6012ZM120.308 52.2973C120.318 52.5568 119.771 52.684 118.643 52.684C117.718 52.684 116.962 52.6097 116.962 52.5191C116.962 52.4281 117.359 51.6334 117.844 50.7526L118.725 49.1513L119.509 50.5311C119.94 51.2897 120.3 52.0847 120.308 52.2973Z" fill="white" fill-opacity="0.8"/>
</svg>
