<svg width="180" height="100" viewBox="0 0 180 100" fill="none" xmlns="http://www.w3.org/2000/svg">
<path d="M27.3817 24.4257L27.7125 25.1175C27.8117 25.0516 39.0585 19.5507 51.5623 22.7787C56.9542 24.1952 63.2061 28.4444 63.2061 35.8229C63.2061 38.7874 62.1476 41.4885 60.3944 43.5966C61.3868 41.785 61.916 39.7756 61.9491 37.7334C61.9822 31.7383 57.5827 26.6327 50.7023 24.7222C38.8931 21.4941 28.1425 26.5668 28.0102 26.5998L28.374 27.2585C28.4733 27.2256 38.9924 22.3176 50.5369 25.4798C57.0534 27.2585 61.2214 32.0677 61.1552 37.7663C61.1221 40.5003 60.1298 43.1355 58.3104 45.2107C59.3028 43.5308 59.8321 41.6203 59.8982 39.6768C59.9975 34.0771 55.9949 29.3008 49.7099 27.4562C38.8931 24.3599 28.8702 28.7738 28.7379 28.8067L29.1018 29.4655C29.1679 29.4326 38.9924 25.1504 49.5445 28.1809C55.4987 29.8937 59.2697 34.3735 59.1705 39.6439C59.1043 42.2132 58.112 44.6178 56.5242 46.4624C57.3181 45.0131 57.8143 43.3331 57.8473 41.5873C58.0127 36.317 54.5064 31.9689 48.6845 30.1572C38.827 27.1268 29.4987 30.9149 29.4326 30.9807L29.7303 31.6395C29.8295 31.6066 38.8601 27.9173 48.4529 30.849C55.0025 32.8583 57.2188 37.7004 57.0865 41.5544C57.0204 43.6296 56.3257 45.6389 55.0687 47.2859C55.0025 47.3188 54.9033 47.3518 54.8372 47.3847C55.3995 46.1659 55.7303 44.8484 55.7964 43.4978C55.9949 38.6557 52.8524 34.5382 47.626 32.8254C38.7608 29.8937 30.1603 33.0889 30.0941 33.1218L30.3588 33.8465C30.4249 33.8135 38.7939 30.7502 47.3944 33.55C52.3232 35.197 55.2341 38.9521 55.0356 43.4319C54.9695 44.9142 54.5394 46.3636 53.8117 47.6812C53.6463 47.7141 53.4809 47.747 53.3155 47.78C53.5802 47.0224 53.7125 46.2318 53.7786 45.4083C54.0433 40.9944 51.2977 37.2063 46.6005 35.5264C38.7277 32.7265 31.0865 35.197 30.7557 35.2958L30.9873 36.0205C31.0865 36.0205 38.7277 33.5171 46.3359 36.2511C50.6692 37.7993 53.2494 41.2909 52.9517 45.3424C52.9186 46.2318 52.7201 47.0883 52.3893 47.9117C52.1578 47.9447 51.8931 47.9776 51.6285 47.9776C51.6616 47.78 51.6947 47.5823 51.6947 47.3518C52.0585 43.3661 49.6768 39.9074 45.6081 38.2604C38.7277 35.5594 31.8142 37.4699 31.4835 37.5357L31.6819 38.2604C31.7481 38.2604 38.6285 36.3828 45.2774 38.9851C49.0814 40.4674 51.2646 43.6296 50.9338 47.2859C50.9338 47.5494 50.8677 47.78 50.8346 48.0106C50.4377 48.0106 50.0738 48.0106 49.7099 48.0106C49.6107 44.9472 47.7583 42.3449 44.5496 40.9285C38.6285 38.2934 32.4427 39.6109 32.1781 39.6768L32.3104 40.4344C32.3766 40.4344 38.5623 39.1498 44.2188 41.6532C47.0967 42.9378 48.7837 45.2436 48.916 48.0106L47.3613 48.0435C46.7659 46.1989 45.4758 44.6507 43.5242 43.6625C38.5954 41.1262 33.1043 41.8508 32.8728 41.8838L32.972 42.6414C33.0382 42.6414 38.4962 41.9167 43.1934 44.3543C44.8473 45.2107 46.0051 46.4953 46.5674 48.0435C46.0712 48.0435 45.5751 48.0435 45.112 48.0435C44.8804 48.0435 44.6489 48.0435 44.4504 48.0435C43.9211 47.3847 43.2595 46.7918 42.5318 46.3306C38.5954 43.8602 33.799 44.0249 33.6005 44.0249L33.6336 44.7825C33.6667 44.7825 38.3639 44.6507 42.1018 46.9894C42.598 47.2859 43.028 47.6482 43.4249 48.0764C42.3995 48.0764 41.2748 48.0764 39.9847 48.0764C37.3715 46.5942 34.4936 46.2648 34.3282 46.2648L34.2621 47.0224C34.2621 47.0224 36.2137 47.22 38.2977 48.0764H38C37.0407 48.1094 36.1145 48.2411 35.1883 48.4717L35.056 48.4388L35.0229 48.5376C29.598 50.0858 25 55.6196 25 61.2194C25 68.1038 30.9211 73.9671 37.9669 74L38.0331 73.2094C38 73.2094 37.9338 73.1765 37.8677 73.1765C37.173 72.8142 35.0229 71.5954 34.5929 69.3226C34.1298 67.0827 35.4198 64.4475 38.3639 61.4829C38.6947 61.1535 40.8448 59.243 41.2748 58.8477C41.7048 58.4525 43.9873 56.9372 46.9313 54.7961C51.5293 51.4692 57.3181 47.22 57.6819 46.9236C61.486 44.6507 64 40.5333 64 35.8229C64 29.3996 59.2036 23.9975 51.7939 22.0541C49.0153 21.3623 46.1705 21 43.3257 21C34.3282 21 27.4478 24.3599 27.3817 24.4257ZM53.0178 48.6035C53.084 48.6035 53.1501 48.5705 53.2163 48.5705V48.6035C53.1171 48.6364 53.0509 48.6364 52.9847 48.6694C52.9847 48.6364 52.9847 48.6364 53.0178 48.6035ZM51.4631 48.7352C51.6616 48.7352 51.8601 48.7352 52.0585 48.7352C51.9924 48.8011 51.9593 48.867 51.9262 48.9329C51.7608 48.9658 51.5623 48.9988 51.3969 49.0317C51.43 48.9329 51.43 48.8341 51.4631 48.7352ZM49.7099 48.7682H50.6692C50.6361 48.8999 50.57 48.9988 50.5369 49.1305C50.3053 49.1635 50.0407 49.1964 49.8092 49.1964H49.6768C49.7099 49.0646 49.6768 48.8999 49.7099 48.7682ZM47.5598 48.7682C47.9898 48.7682 48.4198 48.7682 48.883 48.7682C48.883 48.8999 48.883 49.0646 48.883 49.1964V49.2293L47.626 49.2623C47.5929 49.0976 47.5598 48.9329 47.5598 48.7682ZM44.9466 48.8011H45.145C45.6743 48.8011 46.2036 48.8011 46.7659 48.8011C46.799 48.9329 46.8321 49.0976 46.8321 49.2623C46.2697 49.2952 45.7405 49.2952 45.2112 49.3282C45.112 49.1305 45.0127 48.9658 44.9466 48.8011ZM41.5064 49.0976C41.374 49.0317 41.2748 48.9329 41.1425 48.8341C42.201 48.8341 43.1272 48.8011 44.0204 48.8011C44.1196 48.9988 44.2188 49.1635 44.3181 49.3611L43.4911 49.394L41.8372 49.427C41.7379 49.3282 41.6387 49.1964 41.5064 49.0976ZM36.5445 48.9988C37.0407 48.8999 37.5369 48.867 38.0331 48.8341C38.6616 48.8341 39.257 48.8341 39.8193 48.8341C40.1501 49.0317 40.4478 49.2293 40.7455 49.4599C39.8524 49.4599 38.8601 49.4929 37.7684 49.5258C37.7354 49.5258 37.7023 49.5258 37.6692 49.5258C37.2723 49.3282 36.8753 49.1305 36.5445 48.9988ZM25.7939 61.2194C25.7939 56.0479 30.2265 50.7775 35.2545 49.2952C35.5191 49.3611 35.8499 49.5258 36.2799 49.6905C30.7888 50.7116 25.827 56.3114 25.827 61.977C25.827 61.7135 25.7939 61.4829 25.7939 61.2194ZM51.1323 49.8223C51.2316 49.7893 51.3308 49.7893 51.43 49.7564C51.43 49.7893 51.3969 49.8223 51.3639 49.8552C51.2646 49.8881 51.1654 49.9211 51.0662 49.9211L51.1323 49.8223ZM49.5445 49.9211H49.8422C49.9746 49.9211 50.14 49.8881 50.2723 49.8881C50.2392 49.9869 50.173 50.0528 50.1399 50.1516C49.9084 50.1846 49.7099 50.2175 49.4784 50.2505C49.5115 50.1516 49.5114 50.0199 49.5445 49.9211ZM47.6921 49.9869L48.7176 49.954C48.7176 50.0858 48.6845 50.2175 48.6514 50.3163L47.659 50.3822C47.659 50.2505 47.6921 50.1187 47.6921 49.9869ZM45.4758 50.0528L46.8982 49.9869C46.9313 50.1516 46.8982 50.2834 46.8982 50.4152L45.5751 50.481C45.542 50.3493 45.5089 50.1846 45.4758 50.0528ZM42.4987 50.1187C42.8295 50.1187 43.1934 50.1187 43.5242 50.1187L44.6158 50.0528C44.6489 50.2175 44.715 50.3822 44.7481 50.5469L42.8626 50.6457C42.7303 50.481 42.631 50.3163 42.4987 50.1187ZM38.7939 50.2505C39.7201 50.2175 40.6463 50.1846 41.5725 50.1516C41.7379 50.3163 41.8702 50.514 42.0025 50.7116L41.1094 50.7446C40.6132 50.7775 40.084 50.8104 39.5878 50.8434C39.3232 50.6457 39.0585 50.4152 38.7939 50.2505ZM26.5878 61.977C26.5547 56.3443 31.8804 50.7116 37.4377 50.2834C37.7684 50.481 38.0992 50.6787 38.43 50.9422L37.5369 50.9751C32.0127 51.2716 26.6539 57.036 26.6539 62.6687C26.6209 62.4382 26.6209 62.2076 26.5878 61.977ZM49.2468 51.041C49.3791 51.0081 49.5115 51.0081 49.6768 51.0081C49.6438 51.041 49.6107 51.074 49.6107 51.1069C49.4453 51.1398 49.313 51.2057 49.1807 51.2387L49.2468 51.041ZM47.626 51.2057V51.1398L48.3868 51.1069C48.3206 51.2057 48.3206 51.3045 48.2545 51.4034C48.0229 51.4363 47.7913 51.4692 47.5598 51.5022C47.5598 51.4034 47.5929 51.3045 47.626 51.2057ZM45.6743 51.2387C46.0382 51.2387 46.4351 51.2057 46.8321 51.2057C46.799 51.3045 46.7659 51.4363 46.7328 51.5681L45.7074 51.6669C45.6743 51.5351 45.6743 51.3704 45.6743 51.2387ZM43.2265 51.4034L44.8804 51.3045C44.8804 51.4363 44.8804 51.5681 44.8804 51.7328C44.3842 51.7657 43.9211 51.7986 43.4249 51.8645C43.3588 51.6998 43.2926 51.5351 43.2265 51.4034ZM40.3155 51.5681C40.6132 51.5351 40.9109 51.5351 41.2087 51.5022L42.4657 51.4363C42.5318 51.601 42.598 51.7657 42.6641 51.9304C42.0356 51.9633 41.4071 52.0292 40.7455 52.0951C40.6132 51.8975 40.4809 51.7328 40.3155 51.5681ZM27.4478 62.7676C27.3817 57.5301 32.4097 52.0292 37.6031 51.7328C38.1985 51.6998 38.7608 51.6669 39.2901 51.6339C39.4555 51.7986 39.6539 51.9963 39.8193 52.1939L37.2723 52.4245C32.2774 52.8856 27.6794 57.9584 27.4478 63.0311C27.4478 62.9323 27.4478 62.8664 27.4478 62.7676ZM47.3944 52.2927L47.5598 52.2598C47.626 52.2598 47.7252 52.2598 47.8244 52.2269C47.7913 52.2598 47.7914 52.3257 47.7583 52.3586C47.626 52.3915 47.4606 52.4245 47.3282 52.4574C47.3613 52.3915 47.3613 52.3586 47.3944 52.2927ZM45.6743 52.4245L46.5344 52.3586C46.5013 52.4574 46.4682 52.5233 46.4351 52.6221C46.369 52.6221 46.3028 52.6551 46.2366 52.6551L45.6412 52.7209C45.6412 52.6221 45.6412 52.5233 45.6743 52.4245ZM43.5903 52.5892L44.8473 52.4904C44.8473 52.6221 44.8143 52.7209 44.8143 52.8198L43.6565 52.9845C43.6234 52.8527 43.6234 52.7209 43.5903 52.5892ZM41.1756 52.8198L42.8626 52.6551C42.8957 52.8198 42.8957 52.9515 42.8957 53.0833L41.4071 53.2809C41.341 53.1162 41.2748 52.9845 41.1756 52.8198ZM28.2087 63.5581C28.1094 58.6501 32.5751 53.6433 37.3715 53.1821L40.3486 52.9186C40.4478 53.0503 40.514 53.215 40.5802 53.3797C39.3893 53.5444 38.1985 53.7091 37.0076 53.8738C32.3435 54.5326 28.2748 59.3418 28.2417 64.0851C28.2417 63.9204 28.2087 63.7557 28.2087 63.5581ZM45.4758 53.5115L46.0382 53.4456C46.0051 53.5115 45.972 53.5774 45.9389 53.6433C45.7735 53.6762 45.5751 53.7091 45.4097 53.7421C45.4427 53.6762 45.4427 53.6103 45.4758 53.5115ZM43.6565 53.7421L44.6158 53.6433C44.5827 53.7421 44.5827 53.8409 44.5496 53.9068L43.6565 54.0715C43.6565 53.9727 43.6565 53.8738 43.6565 53.7421ZM41.6387 54.0056C42.0687 53.9727 42.4987 53.9068 42.9288 53.8409C42.8957 53.9727 42.8957 54.0715 42.8957 54.2032C42.4656 54.2691 42.0687 54.335 41.7048 54.4009C41.6718 54.2691 41.6718 54.1374 41.6387 54.0056ZM29.0356 64.3487C28.9033 59.9677 32.8397 55.2244 37.1399 54.6314C38.6285 54.4338 39.7863 54.2691 40.8448 54.1374C40.8779 54.2691 40.9109 54.4009 40.9109 54.5326C39.5216 54.7961 38.1654 55.0597 36.7761 55.3232C32.7074 56.1137 29.1679 60.5277 29.1018 64.7439C29.0687 64.6122 29.0687 64.4804 29.0356 64.3487ZM43.4911 55.0597C43.4911 54.9938 43.5242 54.9279 43.5242 54.862L44.1858 54.7632C44.1527 54.8291 44.0865 54.895 44.0534 54.9608C43.9873 54.9608 43.9542 54.9938 43.888 55.0267L43.4911 55.0926V55.0597ZM41.7379 55.1914C42.0687 55.1255 42.3995 55.0597 42.7303 55.0267C42.6972 55.0926 42.6641 55.1914 42.631 55.2902C42.3333 55.3561 42.0356 55.422 41.7379 55.4879C41.7379 55.3891 41.7379 55.2902 41.7379 55.1914ZM29.8626 65.1392C29.6641 61.1206 33.0382 56.8384 36.9084 56.0808C38.5293 55.7843 39.7532 55.5538 40.944 55.3232C40.944 55.4549 40.944 55.5538 40.944 55.6855C39.5547 56.0149 38.2646 56.3443 36.5115 56.8055C32.8728 57.7278 29.9618 61.5817 29.8957 65.3369C29.8626 65.271 29.8626 65.2051 29.8626 65.1392ZM41.6056 56.3114C41.8372 56.2784 42.0687 56.2126 42.3003 56.1796C42.2672 56.2126 42.2341 56.2784 42.201 56.3114C42.0025 56.3773 41.8041 56.4431 41.5725 56.509C41.6056 56.4431 41.6056 56.3773 41.6056 56.3114ZM30.6234 65.8968C30.4249 62.3393 33.2366 58.4525 36.6768 57.5301C38.2977 57.1019 39.5216 56.8055 40.7786 56.509C40.7455 56.6078 40.7125 56.7066 40.6794 56.7725C39.1908 57.2337 37.7023 57.7278 36.2468 58.2548C33.0382 59.3748 30.6234 62.8993 30.6896 66.2592C30.6565 66.1274 30.6234 66.0286 30.6234 65.8968ZM41.3079 57.3654L41.6056 57.2666L41.5725 57.3325C41.5394 57.3325 41.5064 57.3654 41.4733 57.3654L41.2748 57.4313C41.2748 57.4313 41.2748 57.3984 41.3079 57.3654ZM36.5445 58.9465C37.9669 58.4195 39.0916 58.0572 40.2824 57.6619C40.2494 57.7278 40.2163 57.7937 40.1832 57.8595C38.7608 58.4525 37.3384 59.0454 35.9491 59.7371C33.5013 60.89 31.7481 63.4922 31.5165 66.1604C31.4835 63.1299 33.6336 59.9347 36.5445 58.9465ZM36.3461 60.4288C37.2723 59.9677 38.0662 59.6053 38.8601 59.2759C37.7684 59.8689 36.743 60.4947 35.6845 61.1865C33.6997 62.504 32.4097 64.7439 32.2774 67.0168C32.2112 64.3487 33.8982 61.6147 36.3461 60.4288ZM36.1807 61.8123C36.4784 61.6147 36.743 61.45 37.0407 61.2853C36.4784 61.7135 35.9491 62.2076 35.4198 62.7017C34.1959 63.8546 33.4351 65.271 33.1374 66.7203C33.369 64.8098 34.4936 62.9323 36.1807 61.8123ZM25.8601 62.4052V62.4382V62.4052ZM35.1883 64.151C34.4606 65.271 33.9975 66.358 33.8321 67.3791C33.9313 66.2592 34.4275 65.1392 35.1883 64.151Z" fill="white" fill-opacity="0.8"/>
<path d="M154.914 68.6293C154.585 68.3707 154.289 68.2092 153.895 68.0799C153.566 67.9507 153.204 67.8537 152.842 67.7568C152.25 67.6276 151.789 67.4983 151.526 67.4014C151.263 67.2721 151.098 67.1105 151.098 66.8197C151.098 66.5289 151.197 66.335 151.493 66.2381C151.691 66.1412 151.987 66.0765 152.283 66.0765C152.645 66.0765 153.006 66.1735 153.335 66.3027C153.697 66.4643 153.993 66.6905 154.256 66.9167L156 65.1718C155.507 64.7194 154.914 64.3963 154.289 64.1701C153.631 63.9762 152.908 63.8469 152.184 63.8469C151.756 63.8469 151.296 63.9116 150.835 64.0408C150.375 64.1378 149.947 64.3316 149.585 64.5901C149.19 64.8486 148.861 65.1718 148.631 65.5595C148.368 65.9473 148.236 66.432 148.236 66.9813C148.236 67.4337 148.368 67.7891 148.5 68.1122C148.697 68.4031 148.894 68.6616 149.158 68.8878C149.421 69.0816 149.684 69.2755 150.046 69.3725C150.375 69.4694 150.671 69.5986 151.033 69.6633C151.691 69.8248 152.151 69.9541 152.48 70.1156C152.776 70.2772 152.908 70.4388 152.908 70.7619C152.941 71.0204 152.776 71.2789 152.546 71.3759C152.283 71.5051 152.052 71.5697 151.789 71.5697C151.329 71.5697 150.901 71.4728 150.506 71.2789C150.111 71.1173 149.75 70.8588 149.454 70.5357L147.71 72.3452C148.203 72.8299 148.861 73.1854 149.585 73.4439C150.309 73.7024 151.098 73.8316 151.855 73.7993C152.348 73.7993 152.809 73.7347 153.302 73.6378C153.763 73.5085 154.191 73.3146 154.585 73.0561C154.98 72.8299 155.309 72.5068 155.539 72.0867C155.77 71.699 155.901 71.2143 155.901 70.6003C155.901 70.148 155.803 69.7925 155.605 69.4371C155.441 69.1139 155.21 68.8554 154.914 68.6293ZM143.565 69.6633C143.466 69.9541 143.302 70.2126 143.105 70.4065C142.94 70.665 142.677 70.8265 142.381 70.9558C142.085 71.0527 141.789 71.1173 141.46 71.1173C141.065 71.1173 140.769 71.085 140.506 70.9558C140.243 70.7942 140.012 70.6327 139.815 70.4065C139.617 70.2126 139.453 69.9541 139.354 69.6633C139.256 69.3724 139.19 69.0816 139.19 68.7908C139.19 68.4677 139.256 68.1769 139.354 67.8861C139.486 67.5952 139.617 67.369 139.815 67.1429C140.012 66.9167 140.243 66.7228 140.506 66.6259C141.098 66.3673 141.789 66.3673 142.381 66.6259C142.677 66.7551 142.94 66.9167 143.105 67.1429C143.302 67.369 143.466 67.5952 143.565 67.8861C143.664 68.1769 143.73 68.4677 143.73 68.7908C143.73 69.0816 143.697 69.3724 143.565 69.6633ZM143.795 65.4626H143.762C143.433 64.9456 142.973 64.5578 142.447 64.3316C141.887 64.0731 141.328 63.9439 140.736 63.9762C140.078 63.9439 139.42 64.1054 138.828 64.3639C138.302 64.6225 137.808 65.0102 137.413 65.4626C137.019 65.915 136.723 66.432 136.558 67.0136C136.361 67.6276 136.262 68.2415 136.229 68.8878C136.229 69.534 136.361 70.1156 136.558 70.7296C136.723 71.2789 137.019 71.7959 137.413 72.2483C137.808 72.7007 138.269 73.0561 138.828 73.2823C139.387 73.5408 140.045 73.6701 140.769 73.6701C141.361 73.6701 141.953 73.5408 142.447 73.3146C142.94 73.0884 143.302 72.7976 143.598 72.4422H143.664V72.9915C143.664 73.7347 143.466 74.381 143.006 74.8656C142.578 75.3503 141.887 75.5765 140.999 75.5765C140.473 75.5765 139.881 75.4473 139.354 75.2857C138.795 75.0918 138.269 74.7687 137.841 74.381L136.295 76.5459C136.92 77.0306 137.677 77.3537 138.565 77.6122C139.387 77.8707 140.275 78 141.131 78C141.986 78 142.743 77.8707 143.433 77.6446C144.091 77.4184 144.684 77.0952 145.177 76.6429C145.638 76.1905 145.999 75.6412 146.263 74.9626C146.526 74.284 146.69 73.4762 146.69 72.5714V64.267H143.795V65.4626ZM133.992 65.1071C133.729 64.7517 133.334 64.4609 132.939 64.267C132.512 64.0408 131.985 63.9116 131.328 63.9116C130.999 63.9116 130.702 64.0085 130.374 64.0731C130.11 64.1378 129.847 64.267 129.584 64.3963C129.354 64.5255 129.123 64.6871 128.959 64.881C128.762 65.0748 128.63 65.2687 128.498 65.4949H128.465V64.1701H125.439V73.4762H128.564V68.4354C128.564 68.1769 128.597 67.9507 128.663 67.6922C128.762 67.466 128.827 67.2398 128.992 67.0459C129.123 66.8844 129.321 66.7228 129.518 66.6259C129.716 66.4966 129.979 66.4643 130.242 66.4643C130.505 66.4643 130.735 66.4966 130.933 66.6259C131.097 66.6905 131.229 66.8197 131.328 67.0136C131.459 67.2075 131.525 67.4337 131.558 67.6599C131.624 67.8861 131.624 68.1446 131.656 68.4031V73.4762H134.749V67.7245C134.749 67.2721 134.683 66.7874 134.584 66.335C134.453 65.8503 134.255 65.4949 133.992 65.1071ZM120.307 73.4762H123.432V64.1701H120.307V73.4762ZM123.136 60.034C122.972 59.8401 122.774 59.7432 122.577 59.6786C122.347 59.5816 122.116 59.517 121.886 59.517C121.623 59.517 121.393 59.5816 121.162 59.6786C120.932 59.7755 120.768 59.8724 120.57 60.034C120.439 60.1956 120.307 60.3571 120.208 60.551C120.143 60.7772 120.077 60.9711 120.077 61.1973C120.077 61.682 120.241 62.0697 120.57 62.3929C120.932 62.716 121.393 62.8776 121.886 62.8776C122.116 62.8776 122.347 62.8452 122.577 62.7806C122.774 62.6514 122.972 62.5544 123.136 62.3929C123.301 62.2313 123.399 62.102 123.498 61.8759C123.63 61.6497 123.663 61.4235 123.663 61.1973C123.663 60.9711 123.597 60.7449 123.498 60.551C123.432 60.3571 123.301 60.1956 123.136 60.034ZM117.675 65.1395C117.379 64.784 117.017 64.4609 116.59 64.267C116.129 64.0408 115.603 63.9116 114.978 63.9116C114.254 63.9116 113.629 64.0731 113.136 64.3639C112.642 64.6548 112.215 65.0425 111.918 65.5272C111.655 65.0425 111.326 64.6225 110.833 64.3639C110.339 64.1054 109.747 63.9762 109.089 63.9762C108.695 63.9762 108.399 64.0408 108.07 64.1054C107.806 64.1701 107.543 64.2993 107.28 64.4609C107.05 64.5901 106.82 64.7517 106.688 64.9456C106.523 65.1071 106.392 65.301 106.26 65.4949H106.227V64.1701H103.234V73.4762H106.326V68.4677C106.326 67.9184 106.491 67.4337 106.754 67.0459C107.017 66.6582 107.412 66.4643 107.905 66.4643C108.366 66.4643 108.695 66.5935 108.925 66.9167C109.155 67.2075 109.254 67.6599 109.254 68.1769V73.4762H112.379V68.4677C112.379 68.2092 112.379 67.983 112.445 67.7245C112.544 67.4983 112.609 67.2721 112.774 67.1105C112.872 66.9167 113.07 66.7551 113.267 66.6582C113.432 66.5289 113.662 66.4643 113.925 66.4643C114.254 66.4643 114.419 66.4966 114.616 66.5935C114.813 66.7228 114.912 66.8197 115.044 67.0136C115.175 67.2075 115.241 67.4337 115.274 67.6599C115.307 67.8861 115.307 68.1446 115.307 68.4031V73.4762H118.432V67.7245C118.432 67.2721 118.333 66.8197 118.235 66.3997C118.103 65.9473 117.939 65.5272 117.675 65.1395ZM98.4309 69.6956C98.4309 70.2772 98.2664 70.7619 97.9374 71.085C97.6084 71.4405 97.1479 71.602 96.49 71.602C96.3913 71.602 96.1939 71.602 96.0294 71.5697C95.8978 71.5374 95.7333 71.5051 95.6346 71.4405C95.5031 71.3435 95.4044 71.2466 95.3057 71.1173C95.2399 70.9881 95.207 70.8265 95.207 70.665C95.207 70.3742 95.2728 70.1803 95.4702 70.0187C95.6675 69.8571 95.8649 69.7602 96.161 69.631C96.4571 69.534 96.7531 69.4694 97.115 69.4371C97.444 69.4048 97.7729 69.4048 98.1348 69.4048H98.4309V69.6956ZM100.372 65.0748C100.043 64.6548 99.5493 64.3639 99.0559 64.1701C98.4967 64.0085 97.8387 63.8793 97.0163 63.8793C96.2597 63.8793 95.4702 64.0085 94.7464 64.267C94.0227 64.5255 93.3648 64.9456 92.8055 65.4626L94.3188 67.1429C94.6477 66.8844 94.9767 66.6582 95.4044 66.4643C95.7991 66.2381 96.2268 66.1735 96.6873 66.1735C97.1808 66.1735 97.5426 66.2704 97.9045 66.4966C98.2335 66.7228 98.398 67.0459 98.398 67.4983V67.6275C97.74 67.6275 97.0163 67.6599 96.2926 67.7245C95.6346 67.7891 94.9767 67.9507 94.3188 68.1769C93.7595 68.3708 93.2661 68.7262 92.8713 69.1463C92.5095 69.5663 92.3121 70.0833 92.3121 70.7619C92.3121 71.3112 92.4437 71.7636 92.641 72.119C92.8713 72.5068 93.1674 72.7976 93.4964 73.0238C93.8253 73.25 94.1872 73.4116 94.582 73.5085C94.9767 73.6054 95.3715 73.6701 95.7662 73.6701C96.3584 73.6701 96.8847 73.6054 97.3782 73.3793C97.8716 73.1531 98.2335 72.8299 98.4638 72.4745H98.4967V73.4762H101.359V68.8231C101.359 67.9507 101.293 67.2075 101.128 66.5935C100.997 66.0442 100.734 65.5272 100.372 65.0748ZM85.4367 68.2415H88.0355V70.6327C87.7066 70.7619 87.4105 70.8588 87.0815 70.8912C86.7197 70.9558 86.3249 70.9881 85.963 70.9881C85.3709 70.9881 84.7788 70.8912 84.2195 70.665C83.7261 70.5034 83.2655 70.2126 82.9365 69.8248C82.5747 69.4371 82.3115 68.9847 82.147 68.5C81.9496 67.983 81.8509 67.4337 81.8509 66.8197C81.8509 66.2381 81.9825 65.6888 82.1799 65.2041C82.3444 64.6548 82.6734 64.267 83.0023 63.8793C83.3642 63.5238 83.7589 63.2653 84.2524 63.0391C84.713 62.8452 85.2393 62.716 85.8314 62.716C86.4565 62.716 87.0486 62.8452 87.575 63.0714C88.1013 63.2976 88.529 63.5884 88.825 63.9762L90.8646 61.6497C90.3054 61.1327 89.5488 60.7126 88.6277 60.3895C87.7066 60.034 86.7197 59.9048 85.667 59.9048C84.6472 59.9048 83.6603 60.034 82.7721 60.3895C81.9167 60.6803 81.1272 61.1327 80.4693 61.7466C79.7785 62.3605 79.285 63.1037 78.8903 63.9762C78.5284 64.8163 78.331 65.7857 78.331 66.8197C78.331 67.8861 78.5284 68.8231 78.8903 69.6633C79.2521 70.5034 79.7456 71.2466 80.4364 71.8605C81.0943 72.5068 81.8838 72.9915 82.7392 73.2823C83.6603 73.6378 84.6472 73.767 85.6999 73.767C86.7525 73.767 87.7066 73.7024 88.5948 73.4762C89.4501 73.25 90.2725 72.9915 90.9962 72.7007V65.6888H85.4367V68.2415ZM75.6006 61.7466H72.5083V64.1701H69.8437V63.2653C69.8437 63.0391 69.8437 62.8452 69.9095 62.619C69.9424 62.4252 70.0082 62.2313 70.1397 62.0697C70.2384 61.8759 70.3371 61.7466 70.5345 61.6497C70.7319 61.5204 70.9622 61.4881 71.2582 61.4881C71.4227 61.4881 71.5543 61.4881 71.7188 61.5204C71.8833 61.5204 71.982 61.585 72.1135 61.6173L72.278 59.1939C72.0477 59.0969 71.8175 59.0646 71.5543 59.0323C71.2911 59 71.0279 59 70.7648 59C69.9753 59 69.3173 59.0969 68.791 59.3231C68.2975 59.5493 67.8699 59.8725 67.5409 60.2602C67.2119 60.6803 67.0146 61.1327 66.883 61.6497C66.7843 62.199 66.7185 62.7483 66.7185 63.2976V64.1701H65.0079V66.4643H66.7514V73.4762H69.8437V66.4643H72.5412V70.3741C72.5412 70.8588 72.607 71.3112 72.7057 71.7313C72.8373 72.1191 73.0017 72.4745 73.2649 72.7653C73.561 73.0561 73.89 73.2823 74.3176 73.4439C74.7124 73.6054 75.2387 73.6701 75.8967 73.6701C76.2585 73.6701 76.5546 73.6378 76.8836 73.6054C77.2454 73.5408 77.5086 73.4762 77.7389 73.4116L77.6731 71.1497C77.5744 71.2143 77.4099 71.2466 77.2783 71.2789C77.0809 71.3112 76.9164 71.3112 76.7849 71.3112C76.3572 71.3112 76.0611 71.2143 75.8638 70.9881C75.6664 70.7619 75.6006 70.4388 75.6006 70.0187V66.4643H77.8376V64.1701H75.6006V61.7466ZM61.6524 69.631C61.5866 69.9218 61.4221 70.1803 61.2247 70.4065C61.0274 70.6327 60.7642 70.8265 60.501 70.9881C60.2049 71.085 59.876 71.1497 59.5141 71.1497C59.1852 71.1497 58.8233 71.1173 58.5601 70.9881C58.264 70.8265 58.0338 70.6327 57.8364 70.4065C57.639 70.1803 57.5074 69.9218 57.4416 69.631C57.31 69.3725 57.2771 69.0816 57.2771 68.7908C57.2771 68.4354 57.3429 68.1769 57.4416 67.8861C57.5074 67.6276 57.6719 67.369 57.8364 67.1429C58.0338 66.9167 58.264 66.7551 58.5272 66.6259C58.7904 66.4966 59.1194 66.432 59.4812 66.432C59.8431 66.432 60.1721 66.4643 60.4352 66.6259C60.7313 66.7228 60.9616 66.9167 61.159 67.1429C61.3563 67.369 61.455 67.5952 61.5866 67.8861C61.6853 68.1769 61.7182 68.4677 61.7182 68.7908C61.7182 69.0816 61.6524 69.3725 61.6524 69.631ZM63.1656 65.1395C62.6722 64.7517 62.1459 64.3963 61.4879 64.1701C60.83 63.9439 60.1392 63.8469 59.4483 63.8469C58.7575 63.8469 58.0667 63.9762 57.4416 64.1701C56.8166 64.3963 56.2574 64.7194 55.7639 65.1395C55.2705 65.5918 54.8757 66.1412 54.6125 66.7228C54.3493 67.3691 54.1849 68.0799 54.2178 68.7908C54.2178 69.534 54.3493 70.2449 54.6125 70.8265C54.9415 71.4728 55.2705 71.9575 55.7639 72.4099C56.2574 72.8299 56.7837 73.1854 57.4416 73.4116C58.0667 73.6701 58.7575 73.7993 59.4483 73.767C60.1721 73.767 60.8629 73.6378 61.4879 73.4116C62.1459 73.1531 62.6722 72.8299 63.1656 72.4099C63.6591 71.9575 64.0539 71.4728 64.317 70.8265C64.5802 70.2449 64.7447 69.534 64.7447 68.7908C64.7447 68.0153 64.5802 67.3044 64.317 66.7228C64.0539 66.1088 63.6591 65.5918 63.1656 65.1395ZM47.5397 62.8452C47.7371 62.716 47.9345 62.6514 48.1648 62.619C48.3951 62.5867 48.5924 62.5867 48.8227 62.5867C49.2504 62.5867 49.7109 62.6837 50.1057 62.8776C50.5333 63.0391 50.8952 63.3299 51.1913 63.6854L53.2967 61.6173C52.6716 61.068 51.9808 60.6803 51.1913 60.4218C50.4017 60.1633 49.6451 60.0017 48.8885 60.0017C48.2306 60.0017 47.6055 60.0663 46.9805 60.2279C46.3884 60.3895 45.8291 60.6156 45.3028 60.9711C44.8422 61.3265 44.4475 61.7789 44.1185 62.2959C43.8224 62.7806 43.6908 63.3946 43.6908 64.1378C43.6908 64.7517 43.7895 65.2687 43.9869 65.6888C44.2172 66.0765 44.4475 66.432 44.7764 66.7228C45.0725 67.0136 45.4672 67.2398 45.8949 67.4337C46.2897 67.6276 46.7173 67.7568 47.145 67.9184C47.5397 68.0153 47.9674 68.1769 48.3293 68.2738C48.6582 68.4031 48.9543 68.5 49.1846 68.6616C49.4148 68.8231 49.6122 68.9524 49.7109 69.1463C49.8425 69.3401 49.9083 69.534 49.9083 69.7925C49.9083 70.051 49.8754 70.2772 49.7438 70.4388C49.6451 70.6327 49.5135 70.7942 49.3491 70.8912C49.1517 71.0204 48.9543 71.085 48.724 71.1173C48.4937 71.182 48.2635 71.182 48.0003 71.2143C47.4739 71.2143 46.9476 71.0527 46.4213 70.7942C45.9278 70.5357 45.4672 70.2126 45.1054 69.7925L43 71.9252C43.5921 72.5391 44.3159 72.9915 45.237 73.3146C46.1252 73.6701 47.0792 73.8316 48.0332 73.7993C48.6911 73.7993 49.3491 73.7347 49.9412 73.5408C50.5662 73.3793 51.1255 73.1207 51.6189 72.733C52.0795 72.3452 52.5071 71.9252 52.7703 71.3435C53.0335 70.7942 53.1651 70.1156 53.1651 69.3725C53.1651 68.7262 53.0664 68.1769 52.8032 67.7245C52.54 67.2721 52.244 66.9167 51.8163 66.6259C51.3886 66.3027 50.9281 66.0765 50.4346 65.915C49.9412 65.7211 49.4477 65.5595 48.9872 65.4303C48.6582 65.301 48.3951 65.2041 48.1319 65.1071C47.9016 65.0425 47.6713 64.9456 47.4739 64.8163C47.2766 64.7517 47.1779 64.5901 47.0463 64.4609C46.9476 64.2993 46.9147 64.1054 46.9147 63.8793C46.9147 63.6207 46.9805 63.3946 47.1121 63.2653C47.2108 63.1037 47.3753 62.9422 47.5397 62.8452Z" fill="white" fill-opacity="0.8"/>
</svg>
