<svg width="180" height="100" viewBox="0 0 180 100" fill="none" xmlns="http://www.w3.org/2000/svg">
<path d="M43.1602 38.4292H57.2325C57.8142 38.4292 58.3902 38.5438 58.9275 38.7664C59.4649 38.989 59.9532 39.3152 60.3645 39.7265C60.7758 40.1378 61.102 40.6261 61.3246 41.1635C61.5472 41.7009 61.6618 42.2768 61.6618 42.8585C61.6618 43.4401 61.5472 44.0161 61.3246 44.5535C61.102 45.0909 60.7758 45.5791 60.3645 45.9904C59.9532 46.4017 59.4649 46.728 58.9275 46.9506C58.3902 47.1732 57.8142 47.2877 57.2325 47.2877H45.4887V64.1948H51.9681V52.4003H50.6013V62.828H46.8555V48.6545H57.2325C57.9937 48.6545 58.7474 48.5045 59.4506 48.2133C60.1538 47.922 60.7927 47.4951 61.3309 46.9569C61.8691 46.4187 62.2961 45.7797 62.5873 45.0765C62.8786 44.3733 63.0285 43.6196 63.0285 42.8585C63.0285 42.0973 62.8786 41.3437 62.5873 40.6405C62.2961 39.9373 61.8691 39.2983 61.3309 38.7601C60.7927 38.2219 60.1538 37.795 59.4506 37.5037C58.7474 37.2124 57.9937 37.0625 57.2325 37.0625L41.7935 37.0625V62.828H37.9464V37.0625H36.5796V64.1948H43.1602V38.4292Z" fill="white" fill-opacity="0.8"/>
<path d="M57.4856 32C58.9148 32 60.33 32.2815 61.6505 32.8284C62.9709 33.3754 64.1706 34.177 65.1812 35.1876C66.1918 36.1982 66.9935 37.398 67.5404 38.7184C68.0874 40.0389 68.3689 41.4541 68.3689 42.8833C68.3689 44.3125 68.0874 45.7277 67.5404 47.0481C66.9935 48.3686 66.1918 49.5683 65.1812 50.5789C64.1706 51.5895 62.9709 52.3912 61.6504 52.9381C60.5351 53.4001 59.3521 53.6727 58.1502 53.7463L58.0351 52.384C59.097 52.3225 60.1424 52.0835 61.1274 51.6754C62.282 51.1972 63.3311 50.4962 64.2148 49.6125C65.0985 48.7288 65.7995 47.6797 66.2777 46.5251C66.756 45.3705 67.0021 44.133 67.0021 42.8833C67.0021 41.6336 66.756 40.3961 66.2777 39.2415C65.7995 38.0869 65.0985 37.0378 64.2148 36.1541C63.3311 35.2704 62.282 34.5694 61.1274 34.0911C59.9728 33.6129 58.7353 33.3667 57.4856 33.3667L28.3768 33.3667L31.4405 38.6309L30.1014 39.0471L26 32H57.4856Z" fill="white" fill-opacity="0.8"/>
<path fill-rule="evenodd" clip-rule="evenodd" d="M88.0917 57.7782C88.0747 58.8152 88.0466 60.6831 88.0293 61.929L87.9977 64.1942H87.7699H87.5421L87.574 60.8913C87.5916 59.0746 87.6197 57.2068 87.6364 56.7405L87.6669 55.8926H87.8948H88.1227L88.0917 57.7782ZM138.83 56.0006C139.038 56.0732 139.147 56.3006 139.074 56.5102C138.938 56.9012 138.275 56.8122 138.275 56.4029C138.275 56.1399 138.332 56.0727 138.66 55.9452C138.663 55.9441 138.739 55.969 138.83 56.0006ZM112.767 56.27C114.246 56.493 115.56 57.4897 115.923 58.664C115.995 58.8965 115.511 58.8256 115.412 58.5893C114.634 56.7276 111.782 56.0308 109.792 57.216C107.703 58.46 107.601 61.8659 109.613 63.1989C111.995 64.7765 115.447 63.3839 115.686 60.7495L115.713 60.4484H113.681H111.649V60.2459V60.0434H113.933H116.217L116.182 60.4357C115.971 62.7854 114.305 64.2645 111.877 64.2585C109.388 64.2525 107.703 62.6597 107.701 60.3125C107.7 57.6186 109.926 55.8418 112.767 56.27ZM60.2096 56.4874L60.2251 56.7025H58.9649H57.7046L57.6712 58.0774C57.6527 58.8337 57.6377 60.0239 57.6376 60.7223C57.6375 61.4208 57.6225 62.4877 57.6042 63.0933L57.5709 64.1942H57.3467H57.1224L57.1528 61.3975C57.1695 59.8593 57.1963 58.1737 57.2123 57.6516L57.2414 56.7025H55.9716H54.7018V56.4743V56.2461L57.4479 56.2591L60.194 56.2722L60.2096 56.4874ZM84.4916 56.3696C85.7265 56.643 86.3579 57.4521 86.2732 58.6526C86.1656 60.1766 85.2821 60.6989 82.8085 60.7006L81.5303 60.7015L81.5301 61.8784C81.53 62.5257 81.5151 63.3116 81.4971 63.6248L81.4642 64.1942H81.2442C81.0378 64.1942 81.0241 64.1856 81.0243 64.055C81.0261 62.743 81.1387 56.3168 81.1605 56.2816C81.2105 56.2008 84.0701 56.2763 84.4916 56.3696ZM81.5809 57.7267C81.5809 58.296 81.566 59.1071 81.5477 59.5292L81.5145 60.2965L82.4462 60.2952C85.0249 60.2916 85.8036 59.8763 85.8048 58.5039C85.806 57.1118 85.2318 56.7571 82.9097 56.7155L81.5809 56.6916V57.7267ZM129.76 58.041C130.401 58.21 130.977 58.662 131.234 59.1961L131.381 59.503L131.518 59.2333C132.377 57.5378 135.423 57.5006 136.272 59.1752C136.566 59.755 136.583 59.9507 136.566 62.4858L136.554 64.1942H136.324H136.094L136.102 62.1062C136.111 59.7782 136.098 59.672 135.735 59.1437C135.063 58.1669 133.229 58.0841 132.274 58.9874C131.657 59.5711 131.562 59.997 131.514 62.3846L131.478 64.1942H131.252H131.025L131.061 62.258C131.1 60.1372 131.077 59.864 130.816 59.3482C130.227 58.1875 128.128 58.0063 127.167 59.0333C126.605 59.6346 126.485 60.1723 126.482 62.1188C126.481 62.8845 126.466 63.6647 126.448 63.8526L126.416 64.1942H126.197H125.979L126.004 61.6506C126.017 60.2516 126.041 58.8735 126.057 58.5881L126.086 58.0692H126.308H126.531V58.5773V59.0853L126.842 58.7529C127.271 58.2948 127.704 58.091 128.556 57.9467C128.766 57.9111 129.479 57.967 129.76 58.041ZM144.64 58.048C145.543 58.2798 146.171 58.8935 146.398 59.7671C146.462 60.0108 146.476 60.4387 146.476 62.1295V64.1942H146.248H146.02V62.128C146.02 59.8917 146.008 59.7692 145.733 59.3001C145.069 58.1637 142.856 58.0175 141.884 59.0457C141.295 59.668 141.233 59.9613 141.185 62.334L141.148 64.1942H140.918H140.689L140.722 62.0302C140.74 60.84 140.756 59.4607 140.756 58.965L140.756 58.0637L140.99 58.0791L141.225 58.0945L141.215 58.6241L141.205 59.1536L141.509 58.8214C142.216 58.0506 143.456 57.7442 144.64 58.048ZM65.3724 58.1246C68.3325 58.8745 68.4378 63.1199 65.52 64.0738C63.4989 64.7346 61.3868 63.7137 61.0041 61.891C60.4715 59.3541 62.6866 57.4442 65.3724 58.1246ZM73.583 58.1007C76.5914 58.7753 76.7545 63.0599 73.8103 64.0729C72.349 64.5756 70.4525 64.0448 69.7227 62.9287C69.645 62.8099 69.6397 62.8855 69.6371 64.1689C69.6355 64.9206 69.6194 65.8603 69.6013 66.257L69.5683 66.9783H69.3419H69.1155L69.1469 66.0798C69.1642 65.5856 69.193 63.5811 69.211 61.6253L69.2437 58.0692H69.4644H69.6853V58.7572V59.4451L69.8817 59.1965C70.6723 58.1963 72.1106 57.7705 73.583 58.1007ZM94.0186 58.1231C94.7027 58.297 95.2514 58.6395 95.6533 59.1435L95.8811 59.4291L95.8951 58.7492L95.9092 58.0692H96.134H96.3587L96.3326 60.9166C96.3184 62.4827 96.2947 63.862 96.2802 63.9818L96.2537 64.1997L96.0437 64.1843L95.8337 64.1689L95.846 63.4856L95.8582 62.8022L95.7474 62.9541C94.3846 64.8207 90.9333 64.6518 89.9661 62.6712C88.6551 59.9865 90.9994 57.3555 94.0186 58.1231ZM121.864 58.1246C122.533 58.294 123.153 58.6993 123.56 59.2335L123.696 59.4107L123.696 58.9748C123.696 58.7351 123.711 58.4332 123.729 58.3041L123.761 58.0692H123.969L124.178 58.0692L124.165 59.4486C124.159 60.2073 124.139 61.5854 124.122 62.5111L124.09 64.1942H123.868H123.646L123.646 63.5235L123.645 62.8528L123.509 63.03C122.204 64.7234 119.092 64.663 117.929 62.9218C117.483 62.2533 117.316 61.1347 117.538 60.3002C118.005 58.5469 119.856 57.6159 121.864 58.1246ZM152.334 58.0977C153.013 58.2501 153.673 58.658 154.056 59.1621L154.271 59.4449V58.7571V58.0692H154.506H154.741L154.705 61.2456C154.666 64.7187 154.653 64.9075 154.397 65.4494C153.319 67.7379 149.346 67.577 148.446 65.2082L148.349 64.9535H148.593H148.836L148.956 65.2446C149.583 66.7703 152.225 67.1639 153.524 65.9251C154.073 65.401 154.221 64.914 154.221 63.6205V62.8123L154.078 63.0097C152.754 64.8371 149.317 64.6248 148.347 62.6558C147.047 60.0179 149.318 57.4207 152.334 58.0977ZM99.1437 60.8027C99.8499 62.3061 100.441 63.5355 100.458 63.5347C100.474 63.5339 101.035 62.3095 101.704 60.8138L102.92 58.0945L103.159 58.0791C103.458 58.0598 103.692 57.4625 101.469 62.4077C99.1403 67.5897 99.4478 66.9783 99.17 66.9783C98.886 66.9783 98.8406 67.1416 99.577 65.5149L100.21 64.1156L98.8884 61.3075C98.1613 59.7631 97.524 58.4027 97.4722 58.2844L97.3779 58.0692H97.6188H97.8597L99.1437 60.8027ZM138.866 60.3554C138.847 61.6128 138.832 62.991 138.832 63.4179V64.1942H138.604H138.376V62.6586C138.376 61.8139 138.392 60.4358 138.41 59.5961L138.443 58.0692H138.671H138.899L138.866 60.3554ZM63.4186 58.5259C60.7022 59.2376 60.6798 63.0473 63.3879 63.7399C65.7282 64.3385 67.673 62.5284 67.0807 60.3031C66.6998 58.8719 65.0865 58.089 63.4186 58.5259ZM71.8872 58.4753C69.0347 59.0479 68.8855 63.0228 71.6896 63.7399C73.8113 64.2826 75.5504 62.9676 75.4403 60.904C75.3462 59.1414 73.8078 58.0898 71.8872 58.4753ZM92.3377 58.4564C90.6548 58.8069 89.762 60.2107 90.1567 61.8858C90.7972 64.6042 95.2303 64.4772 95.8002 61.724C96.2222 59.6856 94.4528 58.0159 92.3377 58.4564ZM119.966 58.4999C118.429 58.8338 117.567 60.3973 118.02 62.0294C118.647 64.2896 122.385 64.5161 123.396 62.3553C124.462 60.0773 122.558 57.9367 119.966 58.4999ZM150.442 58.5239C147.746 59.2308 147.793 63.1895 150.504 63.764C152.568 64.2012 154.251 62.9778 154.236 61.0516C154.221 59.1794 152.448 57.998 150.442 58.5239Z" fill="white" fill-opacity="0.8"/>
</svg>
