<svg width="180" height="100" viewBox="0 0 180 100" fill="none" xmlns="http://www.w3.org/2000/svg">
<path fill-rule="evenodd" clip-rule="evenodd" d="M54.7213 45.21C56.91 45.21 58.69 45.91 60.1213 47.31C61.5513 48.71 62.2512 50.4763 62.2512 52.5763C62.2512 53.1925 62.1938 53.7812 62.0475 54.3138H51.9788C52.475 55.4613 53.5537 56.0225 55.2475 56.0225C56.2975 56.0225 57.1725 55.685 57.9025 55.0413L61.405 57.395C59.975 59.1313 57.875 60 55.13 60C52.65 60 50.6637 59.3 49.1763 57.9263C47.6875 56.5262 46.9575 54.7612 46.9575 52.6325C46.9575 50.5325 47.6875 48.7675 49.1475 47.3388C50.6063 45.91 52.475 45.21 54.7225 45.21H54.7213ZM101.29 45.21C103.479 45.21 105.319 45.9387 106.806 47.3675C108.324 48.795 109.082 50.5325 109.082 52.605C109.082 54.6775 108.324 56.4425 106.806 57.8713C105.319 59.3 103.479 60 101.29 60C99.13 60 97.2913 59.3 95.7738 57.8713C94.2562 56.4425 93.4975 54.6775 93.4975 52.605C93.4975 50.5325 94.2562 48.795 95.7738 47.3675C97.2913 45.9387 99.13 45.21 101.29 45.21ZM118.308 45.21C120.495 45.21 122.335 45.9387 123.822 47.3675C125.341 48.795 126.097 50.5325 126.097 52.605C126.097 54.6775 125.341 56.4425 123.822 57.8713C122.335 59.3 120.496 60 118.308 60C116.148 60 114.309 59.3 112.79 57.8713C111.272 56.4425 110.515 54.6775 110.515 52.605C110.515 50.5325 111.272 48.795 112.79 47.3675C114.309 45.9387 116.148 45.21 118.308 45.21ZM70.8475 41.68V45.6037H73.8825V50.0562H70.8475V54.1162C70.8475 55.35 71.695 55.5188 73.8825 55.4063V59.6087C70.9937 59.9438 68.95 59.6913 67.7537 58.8513C66.5875 57.9838 66.0038 56.4425 66.0038 54.2287V50.0562H63.815V45.6037H66.0025V43.0813L70.8475 41.6812V41.68ZM144.512 45.21C147.897 45.21 150 47.4225 150 51.0362V59.6087H145.126V51.5675C145.126 50.2513 144.514 49.6075 143.316 49.6075C142.004 49.6075 141.302 50.505 141.302 51.96V59.6087H136.459V51.5675C136.459 50.2513 135.845 49.6075 134.619 49.6075C133.306 49.6075 132.606 50.505 132.606 51.96V59.6087H127.76V45.6025H132.606V46.9187C133.509 45.77 134.823 45.21 136.544 45.21C138.209 45.21 139.464 45.7987 140.281 47.0025C141.302 45.7987 142.702 45.21 144.512 45.21ZM38.0562 40C42.1425 40 44.7975 42.1287 44.7975 45.5737C44.7975 47.2262 44.1562 48.5163 42.9 49.4688C44.6225 50.4475 45.47 51.9037 45.47 53.865C45.47 55.6025 44.8563 57.0025 43.6013 58.0387C42.3463 59.075 40.6825 59.6075 38.61 59.6075H30V40H38.0562ZM84.595 40C88.6812 40 91.3363 42.1287 91.3363 45.5737C91.3363 47.2262 90.6937 48.5163 89.44 49.4688C91.1625 50.4475 92.0087 51.9037 92.0087 53.865C92.0087 55.6025 91.3962 57.0025 90.14 58.0387C88.885 59.075 87.2225 59.6075 85.15 59.6075H76.54V40H84.595ZM101.29 49.6912C99.6275 49.6912 98.3712 50.8962 98.3712 52.6038C98.3712 54.3138 99.6262 55.5175 101.29 55.5175C103.012 55.5175 104.238 54.3137 104.238 52.605C104.238 50.8962 103.012 49.6925 101.29 49.6925V49.6912ZM118.308 49.6912C116.643 49.6912 115.389 50.8962 115.389 52.6038C115.389 54.3138 116.643 55.5175 118.308 55.5175C120.029 55.5175 121.254 54.3137 121.254 52.605C121.254 50.8962 120.029 49.6925 118.308 49.6925V49.6912ZM38.4625 51.82H35.225V55.125H38.4625L38.645 55.1188C39.5975 55.045 40.2425 54.395 40.2425 53.4725C40.2425 52.465 39.5138 51.82 38.4625 51.82ZM85.0025 51.82H81.7625V55.125H85.0025L85.185 55.1188C86.1362 55.045 86.7825 54.395 86.7825 53.4725C86.7825 52.465 86.0537 51.82 85.0025 51.82ZM54.7775 49.1325C53.29 49.1325 52.3275 49.7763 51.9188 51.0925H57.5225C57.1437 49.7763 56.2087 49.1313 54.7787 49.1313L54.7775 49.1325ZM37.9087 44.4825H35.225V47.5625H37.91L38.0825 47.5563C38.9325 47.4913 39.5738 46.9413 39.5738 46.0225C39.5738 45.0975 38.8737 44.4825 37.91 44.4825H37.9087ZM84.4487 44.4825H81.7625V47.5625H84.4487L84.6212 47.5563C85.47 47.4913 86.1113 46.9413 86.1113 46.0225C86.1113 45.0975 85.4112 44.4825 84.4487 44.4825Z" fill="white" fill-opacity="0.8"/>
</svg>
