<svg width="180" height="100" viewBox="0 0 180 100" fill="none" xmlns="http://www.w3.org/2000/svg">
<path d="M75.1846 46.1764H72.0682V45.22C72.0682 44.7736 72.0283 44.4894 71.9486 44.3672C71.8689 44.245 71.7361 44.1838 71.5501 44.1838C71.3482 44.1838 71.1941 44.2662 71.0879 44.4309C70.9869 44.5956 70.9364 44.8454 70.9364 45.1801C70.9364 45.6105 70.9949 45.9346 71.1118 46.1525C71.2234 46.3704 71.5395 46.6334 72.0602 46.9416C73.5533 47.8289 74.4938 48.5569 74.8817 49.1254C75.2696 49.6939 75.4635 50.6105 75.4635 51.8751C75.4635 52.7944 75.3546 53.4718 75.1367 53.9075C74.9242 54.3433 74.5097 54.7099 73.8934 55.0074C73.277 55.2997 72.5597 55.4458 71.7414 55.4458C70.8434 55.4458 70.0756 55.2758 69.438 54.9357C68.8057 54.5956 68.3913 54.1626 68.1947 53.6366C67.9981 53.1105 67.8998 52.364 67.8998 51.3969V50.5521H71.0161V52.1222C71.0161 52.6057 71.0586 52.9166 71.1436 53.0547C71.234 53.1929 71.3907 53.262 71.6139 53.262C71.8371 53.262 72.0018 53.1743 72.108 52.9989C72.2196 52.8236 72.2754 52.5632 72.2754 52.2179C72.2754 51.458 72.1718 50.9612 71.9646 50.7274C71.752 50.4936 71.2287 50.1031 70.3944 49.5558C69.5602 49.0032 69.0076 48.602 68.7366 48.3523C68.4656 48.1026 68.2398 47.7572 68.0592 47.3162C67.8838 46.8751 67.7961 46.3119 67.7961 45.6265C67.7961 44.6382 67.921 43.9155 68.1707 43.4586C68.4258 43.0016 68.8349 42.6456 69.3982 42.3905C69.9614 42.1302 70.6415 42 71.4385 42C72.31 42 73.0512 42.1408 73.6622 42.4224C74.2786 42.704 74.6851 43.06 74.8817 43.4904C75.0836 43.9155 75.1846 44.6408 75.1846 45.6663V46.1764Z" fill="white" fill-opacity="0.8"/>
<path d="M79.0508 44.5983L78.995 45.5308C79.2819 45.1536 79.5981 44.8719 79.9434 44.686C80.2888 44.5 80.6661 44.407 81.0752 44.407C81.5747 44.407 82.0051 44.5425 82.3664 44.8135C82.733 45.0792 82.9615 45.3874 83.0518 45.738C83.1422 46.0887 83.1873 46.6838 83.1873 47.5234V51.9787C83.1873 52.9405 83.1289 53.6259 83.012 54.0351C82.9004 54.4389 82.6666 54.763 82.3106 55.0074C81.9599 55.2465 81.5348 55.3661 81.0354 55.3661C80.6368 55.3661 80.2676 55.2731 79.9275 55.0871C79.5874 54.9012 79.2766 54.6249 78.995 54.2582V56.6812H75.775V44.5983H79.0508ZM79.9673 47.6748C79.9673 47.0213 79.9434 46.6254 79.8956 46.4872C79.8478 46.3491 79.7149 46.28 79.4971 46.28C79.2846 46.28 79.1464 46.3597 79.0826 46.5191C79.0242 46.6785 78.995 47.0638 78.995 47.6748V52.0584C78.995 52.6961 79.0269 53.0946 79.0906 53.254C79.1544 53.4134 79.2925 53.4931 79.5051 53.4931C79.7123 53.4931 79.8398 53.4214 79.8876 53.2779C79.9408 53.1291 79.9673 52.7731 79.9673 52.2099V47.6748Z" fill="white" fill-opacity="0.8"/>
<path d="M90.8872 48.3124V50.9028C90.8872 51.8539 90.8394 52.5526 90.7437 52.9989C90.6481 53.44 90.4435 53.8544 90.13 54.2423C89.8165 54.6249 89.4127 54.9091 88.9186 55.0951C88.4297 55.2758 87.8665 55.3661 87.2289 55.3661C86.5169 55.3661 85.9138 55.2891 85.4196 55.135C84.9255 54.9756 84.5402 54.7391 84.2639 54.4256C83.993 54.1068 83.799 53.7242 83.6821 53.2779C83.5652 52.8262 83.5068 52.1514 83.5068 51.2535V48.5436C83.5068 47.5606 83.613 46.7928 83.8256 46.2402C84.0381 45.6876 84.4207 45.2439 84.9733 44.9091C85.5259 44.5744 86.2326 44.407 87.0934 44.407C87.816 44.407 88.435 44.5159 88.9504 44.7338C89.4712 44.9463 89.8723 45.2253 90.154 45.5707C90.4356 45.916 90.6269 46.2721 90.7278 46.6387C90.8341 47.0053 90.8872 47.5632 90.8872 48.3124ZM87.6672 47.5154C87.6672 46.9734 87.638 46.6334 87.5796 46.4952C87.5211 46.3518 87.3962 46.28 87.205 46.28C87.0137 46.28 86.8862 46.3518 86.8224 46.4952C86.7586 46.6334 86.7267 46.9734 86.7267 47.5154V52.2896C86.7267 52.7891 86.7586 53.1158 86.8224 53.2699C86.8862 53.4187 87.011 53.4931 87.197 53.4931C87.3883 53.4931 87.5131 53.424 87.5716 53.2859C87.6354 53.1477 87.6672 52.8502 87.6672 52.3932V47.5154Z" fill="white" fill-opacity="0.8"/>
<path d="M94.5223 44.5983L94.3948 45.9851C94.8623 44.9915 95.5398 44.4655 96.4272 44.407V48.1291C95.8374 48.1291 95.4043 48.2088 95.128 48.3682C94.8517 48.5276 94.6817 48.7508 94.6179 49.0377C94.5542 49.3193 94.5223 49.9729 94.5223 50.9984V55.1748H91.3023V44.5983H94.5223Z" fill="white" fill-opacity="0.8"/>
<path d="M99.8949 43.1876V44.8533H100.764V46.5271H99.8949V52.186C99.8949 52.882 99.9294 53.2699 99.9985 53.3496C100.073 53.4293 100.373 53.4692 100.899 53.4692V55.1748H99.6C98.8667 55.1748 98.3433 55.1456 98.0298 55.0871C97.7163 55.0234 97.44 54.8826 97.2009 54.6647C96.9618 54.4416 96.813 54.1892 96.7546 53.9075C96.6961 53.6206 96.6669 52.9511 96.6669 51.899V46.5271H95.9735V44.8533H96.6669V43.1876H99.8949Z" fill="white" fill-opacity="0.8"/>
<path d="M104.136 42.271V43.9527H100.82V42.271H104.136ZM104.136 44.5983V55.1748H100.82V44.5983H104.136Z" fill="white" fill-opacity="0.8"/>
<path d="M107.922 44.5983L107.866 45.5707C108.1 45.1828 108.384 44.8932 108.719 44.7019C109.059 44.5053 109.45 44.407 109.891 44.407C110.443 44.407 110.895 44.5372 111.246 44.7976C111.596 45.0579 111.822 45.3874 111.923 45.7859C112.024 46.1791 112.075 46.8379 112.075 47.7625V55.1748H108.855V47.8502C108.855 47.1222 108.831 46.6785 108.783 46.5191C108.735 46.3597 108.602 46.28 108.384 46.28C108.156 46.28 108.013 46.373 107.954 46.559C107.896 46.7396 107.866 47.2285 107.866 48.0255V55.1748H104.646V44.5983H107.922Z" fill="white" fill-opacity="0.8"/>
<path d="M119.854 44.5983V52.7439C119.854 53.8438 119.828 54.5558 119.775 54.8799C119.727 55.1987 119.549 55.5361 119.241 55.8921C118.932 56.2535 118.502 56.5271 117.949 56.7131C117.402 56.9044 116.711 57 115.877 57C114.852 57 114.028 56.8247 113.406 56.474C112.785 56.1286 112.463 55.4458 112.442 54.4256H115.566C115.566 54.8932 115.736 55.127 116.076 55.127C116.321 55.127 116.483 55.0553 116.563 54.9118C116.642 54.7683 116.682 54.4681 116.682 54.0112V53.2141C116.406 53.4639 116.114 53.6525 115.805 53.78C115.503 53.9075 115.184 53.9713 114.849 53.9713C114.27 53.9713 113.792 53.8544 113.414 53.6206C113.042 53.3868 112.787 53.0813 112.649 52.704C112.511 52.3215 112.442 51.7795 112.442 51.0781V47.2365C112.442 46.2322 112.623 45.5096 112.984 45.0685C113.345 44.6275 113.895 44.407 114.634 44.407C115.038 44.407 115.404 44.4894 115.734 44.6541C116.068 44.8188 116.366 45.0659 116.626 45.3953L116.857 44.5983H119.854ZM116.626 47.4038C116.626 46.9203 116.597 46.6121 116.539 46.4793C116.486 46.3464 116.363 46.28 116.172 46.28C115.986 46.28 115.853 46.3571 115.774 46.5112C115.699 46.6599 115.662 46.9575 115.662 47.4038V50.9586C115.662 51.4315 115.691 51.7396 115.75 51.8831C115.808 52.0213 115.93 52.0903 116.116 52.0903C116.329 52.0903 116.467 52.0053 116.531 51.8353C116.594 51.6652 116.626 51.28 116.626 50.6796V47.4038Z" fill="white" fill-opacity="0.8"/>
<path d="M32.9304 47.898H29.5749V45.6504C29.5749 44.9968 29.5377 44.5903 29.4633 44.4309C29.3943 44.2662 29.2375 44.1838 28.9931 44.1838C28.7168 44.1838 28.5414 44.2821 28.4671 44.4787C28.3927 44.6753 28.3555 45.1004 28.3555 45.754V51.7476C28.3555 52.3746 28.3927 52.7837 28.4671 52.975C28.5414 53.1663 28.7088 53.262 28.9692 53.262C29.2189 53.262 29.381 53.1663 29.4554 52.975C29.5351 52.7837 29.5749 52.3348 29.5749 51.6281V50.0101H32.9304V50.5122C32.9304 51.8459 32.8348 52.7917 32.6435 53.3496C32.4575 53.9075 32.0404 54.3964 31.3921 54.8162C30.7492 55.2359 29.9548 55.4458 29.009 55.4458C28.026 55.4458 27.2157 55.2678 26.5781 54.9118C25.9405 54.5558 25.5181 54.0643 25.3108 53.4373C25.1036 52.805 25 51.8565 25 50.5919V46.822C25 45.8921 25.0319 45.1961 25.0956 44.7338C25.1594 44.2662 25.348 43.8172 25.6615 43.3868C25.9803 42.9564 26.4187 42.619 26.9766 42.3746C27.5399 42.1249 28.1854 42 28.9134 42C29.9017 42 30.7173 42.1913 31.3603 42.5739C32.0032 42.9564 32.4256 43.4346 32.6275 44.0085C32.8294 44.577 32.9304 45.4644 32.9304 46.6706V47.898Z" fill="white" fill-opacity="0.8"/>
<path d="M40.1282 44.5983L39.2036 52.2497C39.0602 53.4612 38.9379 54.2875 38.837 54.7285C38.7413 55.1695 38.5793 55.5335 38.3508 55.8204C38.1223 56.1073 37.8035 56.3172 37.3944 56.4501C36.9905 56.5882 36.3423 56.6573 35.4496 56.6573H33.4969V54.9676C33.9964 54.9676 34.3179 54.9437 34.4613 54.8959C34.6048 54.8427 34.6765 54.7285 34.6765 54.5531C34.6765 54.4681 34.6101 54.0988 34.4773 53.4453L32.7158 44.5983H35.6409L36.693 51.7317L37.2031 44.5983H40.1282Z" fill="white" fill-opacity="0.8"/>
<path d="M43.3249 44.5983L43.2691 45.5308C43.556 45.1536 43.8722 44.8719 44.2175 44.686C44.5629 44.5 44.9402 44.407 45.3493 44.407C45.8488 44.407 46.2792 44.5425 46.6405 44.8135C47.0071 45.0792 47.2356 45.3874 47.3259 45.738C47.4163 46.0887 47.4614 46.6838 47.4614 47.5234V51.9787C47.4614 52.9405 47.403 53.6259 47.2861 54.0351C47.1745 54.4389 46.9407 54.763 46.5847 55.0074C46.234 55.2465 45.8089 55.3661 45.3095 55.3661C44.9109 55.3661 44.5417 55.2731 44.2016 55.0871C43.8615 54.9012 43.5507 54.6249 43.2691 54.2582V56.6812H40.0491V44.5983H43.3249ZM44.2414 47.6748C44.2414 47.0213 44.2175 46.6254 44.1697 46.4872C44.1219 46.3491 43.9891 46.28 43.7712 46.28C43.5587 46.28 43.4205 46.3597 43.3567 46.5191C43.2983 46.6785 43.2691 47.0638 43.2691 47.6748V52.0584C43.2691 52.6961 43.301 53.0946 43.3647 53.254C43.4285 53.4134 43.5666 53.4931 43.7792 53.4931C43.9864 53.4931 44.1139 53.4214 44.1617 53.2779C44.2149 53.1291 44.2414 52.7731 44.2414 52.2099V47.6748Z" fill="white" fill-opacity="0.8"/>
<path d="M51.0965 44.5983L50.969 45.9851C51.4366 44.9915 52.114 44.4655 53.0014 44.407V48.1291C52.4116 48.1291 51.9785 48.2088 51.7022 48.3682C51.4259 48.5276 51.2559 48.7508 51.1921 49.0377C51.1284 49.3193 51.0965 49.9729 51.0965 50.9984V55.1748H47.8765V44.5983H51.0965Z" fill="white" fill-opacity="0.8"/>
<path d="M60.4462 44.5983V55.1748H57.1705L57.2262 54.2981C57.0031 54.6541 56.7268 54.9224 56.3973 55.1031C56.0732 55.2784 55.6986 55.3661 55.2735 55.3661C54.79 55.3661 54.3888 55.2811 54.07 55.1111C53.7512 54.941 53.5148 54.7152 53.3607 54.4336C53.2119 54.152 53.1189 53.8597 53.0817 53.5569C53.0445 53.2487 53.0259 52.6403 53.0259 51.7317V44.5983H56.2459V51.7954C56.2459 52.619 56.2698 53.1079 56.3176 53.262C56.3708 53.416 56.5089 53.4931 56.7321 53.4931C56.9712 53.4931 57.112 53.4134 57.1545 53.254C57.2023 53.0946 57.2262 52.5818 57.2262 51.7157V44.5983H60.4462Z" fill="white" fill-opacity="0.8"/>
<path d="M67.5244 47.9777H64.6711V47.4038C64.6711 46.915 64.6419 46.6068 64.5834 46.4793C64.5303 46.3464 64.3921 46.28 64.169 46.28C63.9883 46.28 63.8528 46.3411 63.7625 46.4633C63.6722 46.5802 63.627 46.7582 63.627 46.9973C63.627 47.3215 63.6483 47.5606 63.6908 47.7147C63.7386 47.8634 63.8741 48.0282 64.0972 48.2088C64.3257 48.3895 64.7906 48.6525 65.492 48.9979C66.4272 49.4548 67.0409 49.8852 67.3332 50.2891C67.6254 50.6929 67.7715 51.28 67.7715 52.0505C67.7715 52.9113 67.6599 53.5622 67.4368 54.0032C67.2136 54.4389 66.839 54.7763 66.313 55.0154C65.7922 55.2492 65.1626 55.3661 64.424 55.3661C63.6057 55.3661 62.9044 55.2386 62.3199 54.9835C61.7407 54.7285 61.3422 54.3831 61.1243 53.9474C60.9065 53.5117 60.7976 52.8528 60.7976 51.9708V51.4607H63.6509V52.1302C63.6509 52.6987 63.6854 53.068 63.7545 53.238C63.8289 53.4081 63.9724 53.4931 64.1849 53.4931C64.4134 53.4931 64.5728 53.4373 64.6631 53.3257C64.7535 53.2088 64.7986 52.9671 64.7986 52.6004C64.7986 52.0956 64.7402 51.7795 64.6233 51.652C64.5011 51.5244 63.8767 51.1472 62.7503 50.5202C61.8045 49.9888 61.228 49.508 61.0207 49.0776C60.8135 48.6419 60.7099 48.1265 60.7099 47.5314C60.7099 46.6865 60.8215 46.0648 61.0446 45.6663C61.2678 45.2625 61.6451 44.9516 62.1764 44.7338C62.7131 44.5159 63.3348 44.407 64.0414 44.407C64.7428 44.407 65.3379 44.4973 65.8268 44.678C66.3209 44.8533 66.6982 45.0871 66.9586 45.3794C67.2242 45.6716 67.3836 45.9426 67.4368 46.1923C67.4952 46.4421 67.5244 46.8326 67.5244 47.364V47.9777Z" fill="white" fill-opacity="0.8"/>
<path d="M128.279 47.898H124.924V45.6504C124.924 44.9968 124.887 44.5903 124.812 44.4309C124.743 44.2662 124.587 44.1838 124.342 44.1838C124.066 44.1838 123.891 44.2821 123.816 44.4787C123.742 44.6753 123.705 45.1004 123.705 45.754V51.7476C123.705 52.3746 123.742 52.7837 123.816 52.975C123.891 53.1663 124.058 53.262 124.318 53.262C124.568 53.262 124.73 53.1663 124.804 52.975C124.884 52.7837 124.924 52.3348 124.924 51.6281V50.0101H128.279V50.5122C128.279 51.8459 128.184 52.7917 127.993 53.3496C127.807 53.9075 127.389 54.3964 126.741 54.8162C126.098 55.2359 125.304 55.4458 124.358 55.4458C123.375 55.4458 122.565 55.2678 121.927 54.9118C121.29 54.5558 120.867 54.0643 120.66 53.4373C120.453 52.805 120.349 51.8565 120.349 50.5919V46.822C120.349 45.8921 120.381 45.1961 120.445 44.7338C120.508 44.2662 120.697 43.8172 121.011 43.3868C121.329 42.9564 121.768 42.619 122.326 42.3746C122.889 42.1249 123.535 42 124.262 42C125.251 42 126.066 42.1913 126.709 42.5739C127.352 42.9564 127.775 43.4346 127.977 44.0085C128.179 44.577 128.279 45.4644 128.279 46.6706V47.898Z" fill="white" fill-opacity="0.8"/>
<path d="M132.05 42.271V55.1748H128.734V42.271H132.05Z" fill="white" fill-opacity="0.8"/>
<path d="M139.933 44.5983V55.1748H136.657L136.713 54.2981C136.49 54.6541 136.214 54.9224 135.884 55.1031C135.56 55.2784 135.186 55.3661 134.761 55.3661C134.277 55.3661 133.876 55.2811 133.557 55.1111C133.238 54.941 133.002 54.7152 132.848 54.4336C132.699 54.152 132.606 53.8597 132.569 53.5569C132.532 53.2487 132.513 52.6403 132.513 51.7317V44.5983H135.733V51.7954C135.733 52.619 135.757 53.1079 135.805 53.262C135.858 53.416 135.996 53.4931 136.219 53.4931C136.458 53.4931 136.599 53.4134 136.642 53.254C136.689 53.0946 136.713 52.5818 136.713 51.7157V44.5983H139.933Z" fill="white" fill-opacity="0.8"/>
<path d="M143.656 42.271V45.3236C143.922 45.0154 144.217 44.7869 144.541 44.6382C144.87 44.4841 145.226 44.407 145.609 44.407C146.05 44.407 146.432 44.4761 146.756 44.6142C147.081 44.7524 147.328 44.9463 147.498 45.1961C147.668 45.4458 147.769 45.6902 147.801 45.9293C147.838 46.1684 147.856 46.6785 147.856 47.4596V52.2258C147.856 53.0016 147.803 53.5808 147.697 53.9633C147.596 54.3406 147.354 54.67 146.972 54.9516C146.589 55.228 146.135 55.3661 145.609 55.3661C145.231 55.3661 144.878 55.2837 144.549 55.119C144.225 54.9543 143.927 54.7072 143.656 54.3778L143.449 55.1748H140.436V42.271H143.656ZM144.636 47.6031C144.636 47.0558 144.602 46.6998 144.533 46.5351C144.464 46.365 144.328 46.28 144.126 46.28C143.93 46.28 143.802 46.3544 143.744 46.5032C143.685 46.6467 143.656 47.0133 143.656 47.6031V52.1621C143.656 52.7306 143.688 53.0946 143.752 53.254C143.821 53.4134 143.954 53.4931 144.15 53.4931C144.352 53.4931 144.482 53.4107 144.541 53.246C144.604 53.0813 144.636 52.6854 144.636 52.0584V47.6031Z" fill="white" fill-opacity="0.8"/>
<path d="M154.839 47.9777H151.986V47.4038C151.986 46.915 151.956 46.6068 151.898 46.4793C151.845 46.3464 151.707 46.28 151.483 46.28C151.303 46.28 151.167 46.3411 151.077 46.4633C150.987 46.5802 150.941 46.7582 150.941 46.9973C150.941 47.3215 150.963 47.5606 151.005 47.7147C151.053 47.8634 151.189 48.0282 151.412 48.2088C151.64 48.3895 152.105 48.6525 152.806 48.9979C153.742 49.4548 154.355 49.8852 154.648 50.2891C154.94 50.6929 155.086 51.28 155.086 52.0505C155.086 52.9113 154.974 53.5622 154.751 54.0032C154.528 54.4389 154.153 54.7763 153.627 55.0154C153.107 55.2492 152.477 55.3661 151.738 55.3661C150.92 55.3661 150.219 55.2386 149.634 54.9835C149.055 54.7285 148.657 54.3831 148.439 53.9474C148.221 53.5117 148.112 52.8528 148.112 51.9708V51.4607H150.965V52.1302C150.965 52.6987 151 53.068 151.069 53.238C151.143 53.4081 151.287 53.4931 151.499 53.4931C151.728 53.4931 151.887 53.4373 151.978 53.3257C152.068 53.2088 152.113 52.9671 152.113 52.6004C152.113 52.0956 152.055 51.7795 151.938 51.652C151.816 51.5244 151.191 51.1472 150.065 50.5202C149.119 49.9888 148.542 49.508 148.335 49.0776C148.128 48.6419 148.024 48.1265 148.024 47.5314C148.024 46.6865 148.136 46.0648 148.359 45.6663C148.582 45.2625 148.96 44.9516 149.491 44.7338C150.028 44.5159 150.649 44.407 151.356 44.407C152.057 44.407 152.652 44.4973 153.141 44.678C153.635 44.8533 154.013 45.0871 154.273 45.3794C154.539 45.6716 154.698 45.9426 154.751 46.1923C154.81 46.4421 154.839 46.8326 154.839 47.364V47.9777Z" fill="white" fill-opacity="0.8"/>
</svg>
