<svg width="180" height="100" viewBox="0 0 180 100" fill="none" xmlns="http://www.w3.org/2000/svg">
<path d="M53.7168 48L54.9341 43.7303H60.6071C63.5929 43.7303 65.4073 42.3759 66.2342 39.5065L66.6935 37.9225C67.75 34.2726 66.0275 32 62.2608 32H37.5935L33 48H53.7168ZM62.2378 36.2927L61.2732 39.7819H56.0825L57.0701 36.3156H62.2378V36.2927Z" fill="white" fill-opacity="0.8"/>
<path d="M68.4926 48L70.0484 45.3181H77.2618V48H82V32H72.6886L63 48H68.4926ZM75.3052 36.3553H77.2618V41.4441H72.3114L75.3052 36.3553Z" fill="white" fill-opacity="0.8"/>
<path d="M101.284 39.3582L101.695 37.914C102.746 34.2235 101.033 32 97.2886 32H88.5665L84 48H88.772L90.0278 43.5989H92.9961L94.3432 48H99.2522L97.8138 43.3009C99.549 42.7736 100.691 41.467 101.284 39.3582ZM92.1056 36.3095H97.2429L96.284 39.7708H91.1238L92.1056 36.3095Z" fill="white" fill-opacity="0.8"/>
<path d="M105.599 48L110 32H105.379L101 48H105.599Z" fill="white" fill-opacity="0.8"/>
<path d="M75.6534 51L70.1265 57.3863L67.8548 51H46.6604L42 67H63.1241L65.7002 58.1645L67.4098 63.1087H70.5714L75.1382 57.8441L72.445 67H77.3396L82 51H75.6534Z" fill="white" fill-opacity="0.8"/>
<path d="M88.7122 51L79 67H84.4926L86.0484 64.3181H93.2618V67H98V51.0229L88.7122 51ZM88.335 60.467L91.3052 55.3782H93.2618V60.467H88.335Z" fill="white" fill-opacity="0.8"/>
<path d="M113.682 55.578L115 51H100.318L99 55.578H104.318L101.012 67H105.844L109.15 55.578H113.682Z" fill="white" fill-opacity="0.8"/>
<path d="M120.054 55.5682H127.616L129 51H120.937C117.836 51 115.951 52.3544 115.093 55.2238L113.327 61.0775C112.206 64.8192 114.019 67 117.931 67H124.205L125.565 62.4319H118.003L120.054 55.5682Z" fill="white" fill-opacity="0.8"/>
<path d="M141.366 51L139.77 56.7225H134.471L136.046 51H131.412L127 67H131.634L133.208 61.2775H138.506L136.932 67H141.588L146 51H141.366Z" fill="white" fill-opacity="0.8"/>
</svg>
