<svg width="180" height="100" viewBox="0 0 180 100" fill="none" xmlns="http://www.w3.org/2000/svg">
<path d="M61.6795 44.9539C62.107 42.8528 61.3339 41.3429 59.915 40.3605C58.6234 39.5055 56.9952 39.3691 55.2761 40.2332L48.0995 43.4531C46.2986 44.2717 45.5254 46.3729 46.2986 48.1374C47.1172 49.9384 49.1728 50.7115 50.9829 49.9384L51.9289 49.5109L50.3826 57.8881C49.9551 60.4258 51.5832 62.4815 53.8208 62.9181C56.1857 63.3456 58.5051 61.7993 58.8871 59.4344L61.6795 44.9539Z" fill="white" fill-opacity="0.8"/>
<path d="M126.914 39.7334C122.967 39.1604 118.983 41.4707 117.455 44.727L117.71 43.308C118.355 40.4338 117.155 39.6515 115.09 39.6515H112.425C109.887 39.6515 109.332 41.025 109.032 42.6168L105.94 59.8078C105.685 60.972 105.858 62.9913 108.132 62.9913H111.825C114.017 62.9913 114.444 61.2722 114.744 59.6441L116.245 51.3942C116.591 49.5023 116.891 48.6018 117.537 47.9105C118.528 46.7917 120.502 46.2733 121.875 47.3921C122.694 48.0833 122.994 49.2385 122.776 50.8757L121.275 59.8169C120.948 61.7907 121.794 63.0004 123.422 63.0004H127.115C129.216 63.0004 129.652 61.3632 129.952 59.6532L132.117 48.4654C133.009 44.3632 131.681 40.4247 126.914 39.7334Z" fill="white" fill-opacity="0.8"/>
<path d="M103.22 37.4227C105.571 37.4227 107.477 35.5372 107.477 33.2113C107.477 30.8855 105.571 29 103.22 29C100.869 29 98.9631 30.8855 98.9631 33.2113C98.9631 35.5372 100.869 37.4227 103.22 37.4227Z" fill="white" fill-opacity="0.8"/>
<path d="M103.484 59.6348C103.184 61.4357 102.665 62.982 100.564 62.982H96.8256C95.0247 62.982 94.3788 61.654 94.7245 59.8895L97.8171 42.6166C98.1172 40.7701 98.9358 39.6514 101.21 39.6514H104.048C106.458 39.6514 107.058 40.8156 106.54 43.3079L103.484 59.6348Z" fill="white" fill-opacity="0.8"/>
<path d="M62.4436 39.6514C63.3895 40.7701 64.5083 42.1436 63.9444 45.4999L62.48 53.3587L62.7347 59.6712C62.7801 61.9451 63.8989 62.9365 65.7817 62.9365H70.5934C72.0942 62.9365 72.74 61.7723 73.3403 60.317L76.9968 51.3394L77.3879 59.9349C77.4334 61.8269 78.3794 62.982 80.1349 62.982H85.5923C87.1386 62.982 87.7844 62.0361 88.4666 60.3624L95.4703 43.1714C96.2435 41.4069 95.7705 39.6514 93.8786 39.6514H90.3949C89.1033 39.6514 88.2028 40.0789 87.6844 41.325L82.9546 52.8402L82.5271 42.5711C82.4452 40.379 81.4083 39.6514 80.1622 39.6514H76.5966C75.1777 39.6514 74.3591 40.2062 73.9316 41.2886L69.2017 52.8857L68.7742 42.3164C68.7288 40.3426 68.0466 39.6514 66.4548 39.6514H63.3623H62.4436Z" fill="white" fill-opacity="0.8"/>
</svg>
