<svg width="180" height="100" viewBox="0 0 180 100" fill="none" xmlns="http://www.w3.org/2000/svg">
<path fill-rule="evenodd" clip-rule="evenodd" d="M35.3912 37L30 46.6004V37H35.3912ZM39.6776 63.563L49.4562 55.5743H49.455H43.5173L39.6615 63.563H39.6776ZM110.42 55.4363L110.254 55.4314V55.4326L110.092 55.4449C109.344 55.5435 108.755 56.1693 108.695 56.9552V61.374L108.741 61.539C108.809 61.7583 108.909 61.9677 109.074 62.1328C109.384 62.4444 109.834 62.6169 110.281 62.5812C110.8 62.6169 111.284 62.341 111.525 61.8913V62.2708H112.112V58.9927H110.074V59.6826H111.491L111.456 60.96L111.449 61.0623C111.434 61.1645 111.396 61.2619 111.318 61.3395C111.076 61.7189 110.662 61.9258 110.214 61.9603C109.8 61.9948 109.453 61.7189 109.384 61.305V56.9897L109.392 56.8665C109.407 56.7483 109.445 56.6448 109.522 56.5413C109.729 56.2641 110.04 56.0917 110.385 56.0917C111.368 56.0609 111.449 57.1486 111.456 57.3913V57.4381H112.079V57.4295C112.093 57.2878 112.246 55.4363 110.42 55.4363ZM63.7472 55.4363L63.5809 55.4314V55.4326L63.4183 55.4449C62.6705 55.5435 62.0829 56.1693 62.0213 56.9552V61.374L62.0681 61.539C62.1359 61.7583 62.2357 61.9677 62.402 62.1328C62.7124 62.4444 63.1608 62.6169 63.6092 62.5812C64.1278 62.6169 64.6107 62.341 64.8867 61.8913V62.2708H65.4743V58.9927H63.4367V59.6826H64.8522L64.8177 60.96L64.8103 61.0623C64.7967 61.1645 64.7573 61.2619 64.6797 61.3395C64.437 61.7189 64.0243 61.9258 63.5747 61.9603C63.1953 61.9603 62.8504 61.6844 62.7469 61.305V56.9897L62.753 56.8665C62.7678 56.7483 62.8072 56.6448 62.8849 56.5413C63.0918 56.2641 63.4022 56.0917 63.7472 56.0917C64.7302 56.0609 64.8115 57.1486 64.8177 57.3913V57.4381H65.4053V57.4295C65.4201 57.2878 65.5728 55.4363 63.7472 55.4363ZM82.9065 59.8206L81.6303 55.7467H80.6645V62.3065H81.3199V56.9552L82.7353 61.2705H83.0457L84.5301 57.0242V62.3065H85.0808V55.7467H84.2185L82.9065 59.8206ZM102.033 61.029L99.5812 55.7467H98.9591V62.3065H99.5812L99.5467 57.1277L101.928 62.3065H102.55V55.7467H102.033V61.029ZM93.0904 56.1262V55.7467H91.0886V56.1262H91.744V61.9603H91.0886V62.3052H93.0904V61.9603H92.4006V56.1262H93.0904ZM75.0706 62.3065L73.3435 55.7812H72.4812L70.9968 62.3052H71.6533L72.0328 60.9255H74.0001L74.4842 62.3065H75.0706ZM72.8618 56.8517H73.0343L73.8276 60.269H72.1362L72.8618 56.8517ZM49.9046 37.2772V37.0013V37.0001H43.5173L40.5842 43.237L34.6121 54.9522H49.4907L52.3905 49.0835H44.0014L46.6216 43.906L49.9046 37.414L49.9736 37.2772H49.9046ZM40.6631 43.9047L49.5998 37.4139L43.5173 49.3952L35.2317 54.5728L40.6631 43.9047ZM138.659 50.0506V37.0358H136.312V44.666L127.855 37.0358L127.823 48.799L123.298 37.2785H120.847L117.015 47.2887H111.492V37.2785H106.762L103.517 41.3166L100.791 37.3475H97.9945L93.2986 42.2146V37.2785H91.1244L91.0209 49.4987H93.2641V43.9749L98.5464 49.4642L101.791 49.4987L95.6466 42.9734L99.2165 39.0056L102.448 43.3886V49.4987H104.622V43.3886L108.661 37.802V49.4987H118.396L122.159 40.5922L125.576 49.4987H129.856L129.925 42.594L138.659 50.0506ZM79.6963 45.2869V37.175H77.522C77.522 37.175 77.591 44.2509 77.522 44.735C77.453 45.2524 77.2805 45.7353 77.0046 46.1849C76.624 46.7368 75.7271 47.3589 74.3807 47.3589C73.2412 47.4267 72.1362 46.8748 71.4809 45.9422C71.2382 45.5628 71.1002 45.1144 71.1002 44.666V37.2095H69.0639V45.6786C69.0824 46.1825 69.2105 46.6703 69.4323 47.1162H63.4725V37.244H61.021V49.4642H69.9965V47.9453C70.7553 48.7731 72.0672 49.6009 74.3795 49.6009C76.6929 49.6009 78.0049 48.7386 78.765 47.8763C79.3858 47.1507 79.6963 46.2194 79.6963 45.2869ZM90.5035 38.79C89.3665 37.8193 87.9449 37.2785 86.4629 37.2785C83.6321 37.2785 80.5253 39.3148 80.5253 43.3886C80.5253 47.4611 83.3562 49.5332 86.2905 49.5332C89.2248 49.5332 90.7437 47.8763 90.7437 47.8763L89.2938 46.1849L89.0905 46.3586C88.3268 46.9758 87.3721 47.3232 86.3595 47.3232C84.5634 47.3232 82.6651 46.1159 82.6651 43.3541C82.6651 40.5922 84.6324 39.5574 86.394 39.5574C87.4632 39.5907 88.4992 39.9356 89.3271 40.5922L90.7437 39.0043L90.5035 38.79ZM147.426 37.5544C146.838 37.4164 146.252 37.3475 145.631 37.3475H140.176V49.3262H146.355L146.645 49.2966C147.032 49.2474 147.412 49.1537 147.771 49.0158C148.29 48.7731 148.738 48.4282 149.153 48.013C150.084 47.0817 150.705 45.9078 150.705 43.492C150.74 41.6282 150.429 40.1081 149.566 39.0733C149.048 38.3477 148.288 37.8303 147.426 37.5544ZM142.386 40.0748H146.08C146.39 40.0748 146.666 40.1438 146.943 40.2473C147.46 40.5232 148.393 41.2476 148.393 43.4231C148.393 45.5973 147.426 46.3574 146.805 46.6678C146.562 46.7713 146.321 46.8403 146.045 46.8748H146.011L142.386 46.8058V40.0748Z" fill="white" fill-opacity="0.8"/>
</svg>
