<svg width="180" height="100" viewBox="0 0 180 100" fill="none" xmlns="http://www.w3.org/2000/svg">
<path d="M42.8739 55.6474L41.9819 52.9053H36.0565L35.1645 55.6474H32L37.2033 40.4135H40.835L46.0596 55.6474H42.8739ZM36.991 50.0979H41.0687L39.0298 43.8738L36.991 50.0979Z" fill="white" fill-opacity="0.8"/>
<path d="M50.1154 46.6376C50.3703 45.9412 50.788 45.4189 51.3685 45.0707C51.9631 44.7225 52.6215 44.5484 53.3436 44.5484V47.6823C52.5083 47.5807 51.7578 47.7548 51.0924 48.2046C50.4411 48.6543 50.1154 49.4015 50.1154 50.4461V55.6474H47.3757V44.7661H50.1154V46.6376Z" fill="white" fill-opacity="0.8"/>
<path d="M64.7367 55.6474H61.551L57.6857 50.7073V55.6474H54.9459V40.4135H57.6857V49.5539L61.3386 44.7661H64.6093L60.3404 50.1415L64.7367 55.6474Z" fill="white" fill-opacity="0.8"/>
<path d="M67.4635 43.4603C67.0104 43.4603 66.6139 43.2934 66.2741 42.9597C65.9485 42.6115 65.7857 42.2053 65.7857 41.741C65.7857 41.2768 65.9485 40.8705 66.2741 40.5223C66.6139 40.1741 67.0104 40 67.4635 40C67.9307 40 68.3272 40.1741 68.6528 40.5223C68.9926 40.8705 69.1625 41.2768 69.1625 41.741C69.1625 42.2053 68.9926 42.6115 68.6528 42.9597C68.3272 43.2934 67.9307 43.4603 67.4635 43.4603ZM66.1042 55.6474V44.7661H68.8439V55.6474H66.1042Z" fill="white" fill-opacity="0.8"/>
<path d="M77.2557 44.4614C78.4167 44.4614 79.3725 44.8604 80.1229 45.6583C80.8874 46.4563 81.2697 47.5589 81.2697 48.9663V55.6474H78.53V49.3145C78.53 48.589 78.3389 48.0377 77.9566 47.6605C77.5743 47.2688 77.0646 47.0729 76.4274 47.0729C75.7195 47.0729 75.1532 47.2978 74.7284 47.7476C74.3036 48.1973 74.0913 48.872 74.0913 49.7715V55.6474H71.3515V44.7661H74.0913V45.9848C74.7567 44.9692 75.8115 44.4614 77.2557 44.4614Z" fill="white" fill-opacity="0.8"/>
<path d="M103.637 47.4646V48.6398C103.637 50.8161 102.957 52.5789 101.598 53.9282C100.238 55.2775 98.4828 55.9521 96.3307 55.9521C94.037 55.9521 92.1326 55.1904 90.6176 53.667C89.1168 52.1291 88.3664 50.2575 88.3664 48.0522C88.3664 45.8324 89.1097 43.9536 90.5964 42.4157C92.0972 40.8778 93.952 40.1088 96.1608 40.1088C97.5483 40.1088 98.8155 40.4353 99.9624 41.0881C101.109 41.7265 102.001 42.5825 102.638 43.6561L100.132 45.136C99.7783 44.5122 99.2403 44.0044 98.5182 43.6126C97.8103 43.2209 97.0174 43.025 96.1395 43.025C94.7237 43.025 93.5556 43.5038 92.6353 44.4614C91.7291 45.4044 91.276 46.6014 91.276 48.0522C91.276 49.4886 91.7362 50.6783 92.6565 51.6213C93.591 52.5499 94.8228 53.0141 96.3519 53.0141C97.4846 53.0141 98.4191 52.7602 99.1554 52.2524C99.9058 51.7301 100.415 51.0192 100.684 50.1197H96.182V47.4646H103.637Z" fill="white" fill-opacity="0.8"/>
<path d="M108.334 46.6376C108.588 45.9412 109.006 45.4189 109.587 45.0707C110.181 44.7225 110.84 44.5484 111.562 44.5484V47.6823C110.726 47.5807 109.976 47.7548 109.31 48.2046C108.659 48.6543 108.334 49.4015 108.334 50.4461V55.6474H105.594V44.7661H108.334V46.6376Z" fill="white" fill-opacity="0.8"/>
<path d="M121.817 54.2982C120.727 55.4008 119.396 55.9521 117.825 55.9521C116.253 55.9521 114.922 55.4008 113.832 54.2982C112.756 53.181 112.218 51.8172 112.218 50.2067C112.218 48.5963 112.756 47.2398 113.832 46.1371C114.922 45.0199 116.253 44.4614 117.825 44.4614C119.396 44.4614 120.727 45.0199 121.817 46.1371C122.908 47.2398 123.453 48.5963 123.453 50.2067C123.453 51.8172 122.908 53.181 121.817 54.2982ZM115.765 52.3613C116.317 52.9271 117.003 53.21 117.825 53.21C118.646 53.21 119.333 52.9271 119.885 52.3613C120.437 51.7954 120.713 51.0773 120.713 50.2067C120.713 49.3362 120.437 48.6181 119.885 48.0522C119.333 47.4864 118.646 47.2035 117.825 47.2035C117.003 47.2035 116.317 47.4864 115.765 48.0522C115.227 48.6181 114.957 49.3362 114.957 50.2067C114.957 51.0773 115.227 51.7954 115.765 52.3613Z" fill="white" fill-opacity="0.8"/>
<path d="M132.389 44.7661H135.128V55.6474H132.389V54.4287C131.723 55.4443 130.668 55.9521 129.224 55.9521C128.063 55.9521 127.1 55.5531 126.336 54.7552C125.585 53.9572 125.21 52.8546 125.21 51.4472V44.7661H127.95V51.099C127.95 51.8244 128.141 52.383 128.523 52.7748C128.906 53.152 129.415 53.3406 130.052 53.3406C130.76 53.3406 131.327 53.1157 131.752 52.6659C132.176 52.2162 132.389 51.5415 132.389 50.642V44.7661Z" fill="white" fill-opacity="0.8"/>
<path d="M143.818 44.4614C145.248 44.4614 146.466 45.0199 147.471 46.1371C148.49 47.2398 149 48.5963 149 50.2067C149 51.8172 148.49 53.181 147.471 54.2982C146.466 55.4008 145.248 55.9521 143.818 55.9521C142.331 55.9521 141.184 55.4226 140.377 54.3634V60H137.638V44.7661H140.377V46.0501C141.184 44.9909 142.331 44.4614 143.818 44.4614ZM141.206 52.4266C141.758 52.9924 142.459 53.2753 143.308 53.2753C144.158 53.2753 144.859 52.9924 145.411 52.4266C145.977 51.8462 146.26 51.1063 146.26 50.2067C146.26 49.3072 145.977 48.5745 145.411 48.0087C144.859 47.4284 144.158 47.1382 143.308 47.1382C142.459 47.1382 141.758 47.4284 141.206 48.0087C140.653 48.5745 140.377 49.3072 140.377 50.2067C140.377 51.1063 140.653 51.8462 141.206 52.4266Z" fill="white" fill-opacity="0.8"/>
</svg>
