<svg width="180" height="100" viewBox="0 0 180 100" fill="none" xmlns="http://www.w3.org/2000/svg">
<path fill-rule="evenodd" clip-rule="evenodd" d="M62.0187 44.0827C62.868 44.0827 63.6133 44.2067 64.2547 44.476C64.8973 44.7453 65.4773 45.096 65.9533 45.552L65.4147 46.276C65.3747 46.3373 65.332 46.38 65.2907 46.4C65.228 46.4413 65.1667 46.4627 65.084 46.4627C64.98 46.4627 64.856 46.4 64.7107 46.296C64.5653 46.1933 64.3787 46.0693 64.1507 45.9453C63.924 45.8213 63.6333 45.696 63.2813 45.5933C62.9293 45.4893 62.5147 45.428 61.9973 45.428C61.376 45.428 60.8173 45.5307 60.32 45.7387C59.8227 45.9453 59.3667 46.2547 59.0147 46.648C58.6413 47.0413 58.3733 47.5173 58.1653 48.096C57.9587 48.676 57.8547 49.3173 57.8547 50.0213C57.8547 50.744 57.9587 51.3867 58.1653 51.9653C58.3733 52.5453 58.6627 53.02 59.036 53.4133C59.4093 53.8067 59.844 54.096 60.34 54.304C60.8373 54.5107 61.376 54.6133 61.956 54.6133C62.308 54.6133 62.6187 54.5933 62.9093 54.552C63.1987 54.5107 63.4467 54.448 63.696 54.3653C63.944 54.2827 64.152 54.1787 64.3587 54.0347C64.5653 53.9107 64.772 53.744 64.98 53.5587C65.104 53.496 65.2067 53.4547 65.2907 53.4547C65.3733 53.4547 65.456 53.496 65.5173 53.5587L66.16 54.2413C65.684 54.8 65.084 55.2347 64.4 55.5453C63.716 55.8547 62.8667 56 61.8933 56C61.0453 56 60.2787 55.8547 59.5733 55.5653C58.8693 55.276 58.2907 54.8627 57.7933 54.3453C57.296 53.828 56.9227 53.1853 56.6533 52.4627C56.384 51.7373 56.24 50.9307 56.24 50.0413C56.24 49.172 56.384 48.3653 56.6533 47.6213C56.944 46.896 57.3373 46.2547 57.8347 45.7387C58.352 45.2213 58.9533 44.8067 59.6573 44.5173C60.3613 44.228 61.148 44.0827 62.0173 44.0827H62.0187ZM139.979 44.0827C140.827 44.0827 141.573 44.2067 142.215 44.476C142.857 44.7453 143.437 45.096 143.913 45.552L143.375 46.276C143.333 46.3373 143.292 46.38 143.251 46.4C143.188 46.4413 143.127 46.4627 143.043 46.4627C142.94 46.4627 142.816 46.4 142.669 46.296C142.525 46.1933 142.339 46.0693 142.111 45.9453C141.884 45.8213 141.593 45.696 141.241 45.5933C140.889 45.4893 140.475 45.428 139.957 45.428C139.336 45.428 138.776 45.5307 138.28 45.7387C137.783 45.9453 137.327 46.2547 136.975 46.648C136.601 47.0413 136.333 47.5173 136.125 48.096C135.919 48.676 135.815 49.3173 135.815 50.0213C135.815 50.744 135.919 51.3867 136.125 51.9653C136.333 52.5453 136.623 53.02 136.996 53.4133C137.369 53.8067 137.803 54.096 138.3 54.304C138.797 54.5107 139.336 54.6133 139.916 54.6133C140.268 54.6133 140.579 54.5933 140.868 54.552C141.159 54.5107 141.407 54.448 141.655 54.3653C141.904 54.2827 142.111 54.1787 142.319 54.0347C142.525 53.9107 142.732 53.744 142.94 53.5587C143.064 53.496 143.167 53.4547 143.251 53.4547C143.333 53.4547 143.416 53.496 143.477 53.5587L144.12 54.2413C143.644 54.8 143.043 55.2347 142.36 55.5453C141.676 55.8547 140.827 56 139.853 56C139.004 56 138.239 55.8547 137.533 55.5653C136.829 55.276 136.249 54.8627 135.753 54.3453C135.256 53.828 134.883 53.1853 134.613 52.4627C134.344 51.7373 134.2 50.9307 134.2 50.0413C134.2 49.172 134.344 48.3653 134.613 47.6213C134.904 46.896 135.297 46.2547 135.795 45.7387C136.312 45.2213 136.912 44.8067 137.617 44.5173C138.321 44.228 139.108 44.0827 139.977 44.0827H139.979ZM72.912 44.0827C73.7827 44.0827 74.5693 44.228 75.2947 44.5173C76.02 44.8067 76.62 45.2213 77.1373 45.7587C77.656 46.296 78.0493 46.9173 78.3387 47.6413C78.608 48.3653 78.7533 49.152 78.7533 50.0413C78.7533 50.9107 78.608 51.7173 78.34 52.4413C78.0493 53.1653 77.656 53.8067 77.1373 54.324C76.62 54.8413 75.9987 55.2547 75.2947 55.5453C74.5693 55.8347 73.7827 55.9787 72.912 55.9787C72.0427 55.9787 71.256 55.8347 70.5307 55.5453C69.8053 55.2547 69.2053 54.8413 68.688 54.324C68.1693 53.8067 67.776 53.1653 67.4867 52.4413C67.196 51.7173 67.072 50.9107 67.072 50.0413C67.072 49.172 67.2173 48.3653 67.4853 47.6413C67.776 46.9173 68.1693 46.276 68.688 45.7587C69.2053 45.2213 69.8053 44.828 70.5307 44.5173C71.256 44.228 72.0427 44.0827 72.912 44.0827ZM124.196 44.2067V51.2827C124.196 51.7787 124.257 52.2133 124.403 52.628C124.548 53.0413 124.755 53.3933 125.024 53.6827C125.293 53.972 125.624 54.2 126.019 54.3653C126.412 54.5307 126.847 54.6133 127.344 54.6133C127.841 54.6133 128.276 54.5307 128.648 54.3653C129.043 54.2 129.353 53.972 129.621 53.6827C129.891 53.3933 130.099 53.0413 130.243 52.628C130.389 52.2147 130.451 51.7787 130.451 51.2827V44.2067H132.045V51.2827C132.045 51.9653 131.941 52.5867 131.715 53.1453C131.487 53.724 131.176 54.2213 130.781 54.6347C130.368 55.048 129.891 55.3787 129.291 55.628C128.711 55.876 128.048 55.98 127.323 55.98C126.599 55.98 125.936 55.8547 125.355 55.628C124.776 55.3787 124.279 55.068 123.864 54.6347C123.451 54.2213 123.139 53.724 122.932 53.1453C122.705 52.5653 122.601 51.9453 122.601 51.2827V44.2067H124.196ZM96.9173 44C97.58 44 98.1813 44.104 98.72 44.3107C99.2587 44.5173 99.7347 44.8067 100.149 45.2L99.7347 46.0267C99.6933 46.1107 99.6307 46.1733 99.5693 46.2133C99.5067 46.2547 99.444 46.276 99.3613 46.276C99.2587 46.276 99.1547 46.2347 99.0307 46.1307C98.9067 46.048 98.74 45.944 98.5547 45.8213C98.368 45.7173 98.14 45.6133 97.8707 45.5107C97.6013 45.428 97.2707 45.3653 96.8973 45.3653C96.5453 45.3653 96.2133 45.4067 95.944 45.5107C95.6747 45.6133 95.4467 45.7373 95.2613 45.904C95.0747 46.0693 94.9293 46.2547 94.8467 46.4827C94.7427 46.7093 94.7013 46.9373 94.7013 47.1867C94.7013 47.5173 94.784 47.7867 94.9507 47.9933C95.116 48.2 95.324 48.3867 95.592 48.552C95.8613 48.696 96.172 48.8413 96.504 48.9453C96.8347 49.048 97.1867 49.172 97.5387 49.296C97.8907 49.42 98.244 49.5453 98.5747 49.6893C98.9067 49.8347 99.2173 50.02 99.4867 50.2493C99.756 50.476 99.9627 50.7653 100.128 51.076C100.293 51.4067 100.377 51.82 100.377 52.296C100.377 52.8133 100.293 53.2893 100.108 53.724C99.9213 54.1787 99.672 54.5507 99.3413 54.8827C99.0093 55.2133 98.5947 55.4827 98.0987 55.6693C97.6013 55.856 97.0427 55.9587 96.4213 55.9587C95.6547 55.9587 94.9507 55.8133 94.328 55.5453C93.708 55.276 93.168 54.904 92.7133 54.428L93.1693 53.6827C93.2093 53.62 93.272 53.5787 93.3347 53.5373C93.3973 53.4973 93.4587 53.476 93.5413 53.476C93.604 53.476 93.6867 53.4973 93.7907 53.5587C93.8733 53.62 93.9773 53.6827 94.1013 53.7653C94.2253 53.848 94.3493 53.952 94.4947 54.0547C94.64 54.1587 94.8053 54.2613 95.012 54.3453C95.1987 54.428 95.4253 54.5107 95.6547 54.552C95.9027 54.6133 96.172 54.6347 96.4827 54.6347C96.856 54.6347 97.208 54.5933 97.4973 54.4893C97.788 54.3867 98.0573 54.2413 98.264 54.0547C98.4707 53.868 98.6373 53.6413 98.74 53.3933C98.844 53.124 98.9067 52.8333 98.9067 52.524C98.9067 52.172 98.8227 51.8827 98.6573 51.6547C98.492 51.428 98.284 51.2413 98.016 51.096C97.7467 50.952 97.456 50.8067 97.104 50.704C96.752 50.6 96.4213 50.4973 96.068 50.372C95.716 50.2693 95.364 50.124 95.0333 49.9787C94.6813 49.8347 94.3907 49.648 94.1213 49.4C93.852 49.1733 93.6453 48.8827 93.48 48.5307C93.3133 48.1787 93.2307 47.744 93.2307 47.228C93.2307 46.8147 93.3133 46.4213 93.48 46.028C93.6453 45.6347 93.8733 45.304 94.184 44.9933C94.4947 44.704 94.888 44.4547 95.344 44.2693C95.8 44.0827 96.3173 44 96.9173 44ZM30.432 44C31.2613 44 31.9653 44.0827 32.5653 44.2267C33.1453 44.3733 33.6227 44.6 33.9947 44.8693C34.368 45.1373 34.6373 45.4893 34.8027 45.8827C34.968 46.276 35.0507 46.7093 35.0507 47.2067C35.0507 47.476 35.0107 47.724 34.9267 47.972C34.844 48.2213 34.72 48.448 34.5533 48.676C34.388 48.9027 34.18 49.0893 33.912 49.276C33.6427 49.4627 33.332 49.6067 32.98 49.7307C33.7667 49.9173 34.3667 50.228 34.74 50.6627C35.1133 51.096 35.32 51.6347 35.32 52.296C35.32 52.7933 35.2173 53.2693 35.0307 53.704C34.8227 54.1373 34.5333 54.5107 34.16 54.8413C33.7667 55.172 33.3107 55.42 32.752 55.6067C32.192 55.7933 31.552 55.876 30.8253 55.876H26V44H30.432ZM115.765 44.2067C116.512 44.2067 117.153 44.2893 117.712 44.4333C118.251 44.58 118.707 44.8067 119.059 45.076C119.411 45.3653 119.68 45.696 119.845 46.0893C120.012 46.4827 120.095 46.9373 120.095 47.4347C120.095 47.848 120.032 48.2413 119.887 48.5933C119.763 48.9453 119.556 49.276 119.308 49.5667C119.059 49.8547 118.748 50.104 118.396 50.2893C118.044 50.4973 117.629 50.6413 117.175 50.7453C117.381 50.8693 117.568 51.0347 117.712 51.2413L121.172 55.876H119.743C119.452 55.876 119.245 55.772 119.1 55.5453L116.015 51.3853C115.911 51.2627 115.828 51.1587 115.704 51.096C115.6 51.0347 115.435 51.0133 115.207 51.0133H114.005V55.8547H112.411V44.2067H115.765ZM82.0467 44.2067C82.088 44.2067 82.1507 44.228 82.1707 44.248C82.212 44.2693 82.2533 44.2893 82.2947 44.3307L82.42 44.4547L89.2747 53.228C89.2547 53.0827 89.2547 52.9587 89.2547 52.8147C89.2547 52.6893 89.2333 52.5453 89.2333 52.4413V44.2067H90.6427V55.8547H89.8347C89.7107 55.8547 89.6067 55.8347 89.524 55.7933C89.4413 55.752 89.3573 55.6693 89.2747 55.5667L82.3987 46.7933C82.412 46.8893 82.4173 46.9773 82.4187 47.0613V55.8347H81.0107V44.208H82.0467V44.2067ZM110.649 44.2067V45.5307H106.819V55.8547H105.224V45.5307H101.371V44.2067H110.651H110.649ZM154 44.2067V45.5307H150.168V55.8547H148.573V45.5307H144.72V44.2067H154ZM44.8267 44V46.1107H39.8773V48.884H43.6667V50.9107H39.8773V53.724H44.8267V55.8347H37.08V44H44.8267ZM55.204 44V46.1733H51.8067V55.8347H49.0107V46.1933H45.6147V44H55.204ZM72.892 45.448C72.2493 45.448 71.6907 45.552 71.172 45.7587C70.6547 45.9653 70.22 46.276 69.8467 46.6693C69.4733 47.0627 69.2053 47.5373 68.9987 48.1173C68.7907 48.696 68.708 49.3373 68.708 50.0413C68.708 50.7653 68.812 51.4067 68.9987 51.9653C69.2053 52.5253 69.4747 53.02 69.8467 53.4133C70.22 53.8067 70.6547 54.1173 71.1733 54.324C71.6907 54.5307 72.2707 54.6347 72.892 54.6347C73.5347 54.6347 74.1133 54.5307 74.632 54.324C75.1493 54.1173 75.584 53.8067 75.9573 53.4133C76.3307 53.02 76.6 52.5453 76.8067 51.9653C76.9933 51.3867 77.096 50.744 77.096 50.0413C77.096 49.3173 76.9933 48.676 76.8067 48.1173C76.6 47.5373 76.3307 47.0627 75.9573 46.6693C75.584 46.276 75.1493 45.9653 74.632 45.7587C74.1133 45.552 73.5347 45.448 72.892 45.448ZM30.7853 50.848H28.796V53.7867H30.764L30.9773 53.7813C31.2507 53.768 31.476 53.724 31.6747 53.6413C31.9027 53.5587 32.0893 53.4347 32.2347 53.2893C32.3587 53.1453 32.4613 52.9787 32.504 52.7933C32.544 52.6067 32.5867 52.42 32.5867 52.2333C32.5867 52.028 32.5653 51.82 32.504 51.6547C32.4413 51.4893 32.3373 51.3453 32.2133 51.2213C32.068 51.096 31.8827 51.0133 31.6533 50.952C31.4267 50.8893 31.136 50.848 30.784 50.848H30.7853ZM115.724 45.448H113.964V49.8547H115.684C116.137 49.8547 116.553 49.7933 116.905 49.6893C117.257 49.5867 117.568 49.42 117.796 49.2133C118.044 49.0067 118.209 48.7587 118.333 48.4893C118.459 48.2 118.52 47.8893 118.52 47.5587C118.52 46.8547 118.293 46.3373 117.816 45.9853C117.36 45.6347 116.656 45.448 115.724 45.448ZM30.4533 46.028H28.8173V48.9867H30.2453L30.544 48.9787C30.7333 48.9707 30.9093 48.952 31.0747 48.9253C31.3227 48.8827 31.5307 48.8 31.716 48.696C31.8827 48.5933 32.0267 48.448 32.1107 48.2413C32.1933 48.0547 32.2547 47.8067 32.2547 47.5173C32.2547 47.228 32.2147 47 32.152 46.8133C32.0893 46.6267 31.9653 46.4827 31.82 46.3587C31.6747 46.2347 31.4893 46.172 31.26 46.1107C31.0333 46.0693 30.764 46.028 30.4533 46.028Z" fill="white" fill-opacity="0.8"/>
</svg>
