<svg width="180" height="100" viewBox="0 0 180 100" fill="none" xmlns="http://www.w3.org/2000/svg">
<path d="M86.6263 45.1624C85.3344 43.9599 83.6576 43.3452 81.5685 43.3452C79.4794 43.3452 77.8026 43.9865 76.4832 45.2427C75.1913 46.4986 74.5315 48.0754 74.5315 49.9729C74.5315 51.9771 75.1913 53.5807 76.4832 54.81C77.8026 56.0125 79.4794 56.6272 81.5411 56.6272C83.5751 56.6272 85.2518 56.0125 86.5713 54.7565C87.2311 54.1419 87.7533 53.4203 88.0831 52.6186C88.4129 51.8168 88.5779 50.935 88.5779 49.9729C88.6053 47.9953 87.9457 46.3917 86.6263 45.1624ZM84.5098 52.9126C83.795 53.6608 82.8329 54.035 81.5685 54.035C80.469 54.035 79.4518 53.6608 78.6822 52.8858C77.9126 52.084 77.5828 51.1221 77.5828 49.9729C77.5828 48.797 77.9676 47.8082 78.7098 47.0598C79.4518 46.3116 80.414 45.9374 81.5685 45.9374C82.6679 45.9374 83.6301 46.3116 84.3998 47.0598C85.1694 47.8082 85.5268 48.7702 85.5268 49.9729C85.5542 51.1754 85.1968 52.1375 84.5098 52.9126Z" fill="white"/>
<path d="M97.4271 49.1183H93.6888V46.1786H98.0043C98.2242 46.1786 98.3891 46.0182 98.3891 45.8045V43.9337C98.3891 43.72 98.2242 43.5596 98.0043 43.5596H91.1873C90.9673 43.5596 90.8025 43.72 90.8025 43.9337V56.04C90.8025 56.2537 90.9673 56.4141 91.1873 56.4141H93.3038C93.5238 56.4141 93.6888 56.2537 93.6888 56.04V51.7372H97.4271C97.6469 51.7372 97.8119 51.5769 97.8119 51.3631V49.4924C97.7843 49.3054 97.6195 49.1183 97.4271 49.1183Z" fill="white"/>
<path d="M103.722 46.1786V56.0666C103.722 56.2804 103.887 56.4408 104.107 56.4408H106.224C106.444 56.4408 106.609 56.2804 106.609 56.0666V46.1786H110.265C110.484 46.1786 110.649 46.0182 110.649 45.8045V43.9337C110.649 43.72 110.484 43.5596 110.265 43.5596H100.094C99.8741 43.5596 99.7092 43.72 99.7092 43.9337V45.8045C99.7092 46.0182 99.8741 46.1786 100.094 46.1786H103.722Z" fill="white"/>
<path d="M115.711 51.1221C116.371 51.4159 116.866 51.7367 117.223 52.0306C117.553 52.3246 117.745 52.6186 117.745 52.9392C117.745 53.2867 117.608 53.5539 117.36 53.7678C117.113 53.9548 116.783 54.0616 116.371 54.0616C115.821 54.0616 115.299 53.928 114.749 53.6875C114.364 53.5004 114.034 53.2867 113.759 53.0194C113.595 52.8591 113.347 52.8858 113.21 53.0462L112.028 54.4359C111.918 54.5695 111.918 54.7297 112 54.8635C112.33 55.3712 112.852 55.772 113.567 56.0928C114.419 56.4669 115.326 56.654 116.288 56.654C117.608 56.654 118.652 56.3065 119.504 55.5849C120.219 55.0505 120.686 54.2755 120.769 53.4203C120.851 52.5384 120.714 51.8168 120.384 51.2022C120.109 50.6945 119.779 50.3202 119.395 50.053C118.982 49.759 118.542 49.5185 118.075 49.2513C117.58 49.0107 117.14 48.797 116.728 48.6366C116.316 48.4496 115.958 48.2358 115.656 47.9685C115.381 47.7013 115.216 47.3806 115.216 47.0065C115.216 46.6857 115.354 46.4185 115.601 46.2314C115.876 46.0444 116.233 45.9643 116.646 45.9643C117.085 45.9643 117.443 46.0176 117.745 46.1513C117.938 46.2314 118.13 46.365 118.35 46.5254C118.515 46.659 118.762 46.6322 118.9 46.4452L119.999 44.9487C120.109 44.7883 120.082 44.5745 119.944 44.4676C119.065 43.7193 117.883 43.3452 116.371 43.3452C115.079 43.3452 114.062 43.6927 113.292 44.4141C112.523 45.1357 112.138 45.9909 112.138 47.0065C112.138 47.4608 112.193 47.8884 112.33 48.2891C112.495 48.6901 112.687 49.0375 112.88 49.2781C113.1 49.5453 113.375 49.8125 113.732 50.053C114.089 50.2935 114.392 50.5074 114.667 50.641C114.969 50.8281 115.326 50.9617 115.711 51.1221Z" fill="white"/>
<path d="M128.624 56.1721L131.373 47.8341L134.15 56.1721C134.205 56.3324 134.342 56.4127 134.507 56.4127H136.733C136.898 56.4127 137.036 56.3057 137.091 56.1453L140.609 44.0392C140.664 43.7987 140.499 43.585 140.252 43.585H138.273C138.108 43.585 137.943 43.6919 137.915 43.8522L135.634 52.0566L133.05 43.8522C132.995 43.6919 132.858 43.585 132.693 43.585H130.301C130.136 43.585 129.999 43.6919 129.944 43.8522L127.443 52.0833L125.189 43.879C125.134 43.7186 124.996 43.6116 124.831 43.6116H122.357C122.11 43.6116 121.917 43.8522 122 44.066L125.683 56.1721C125.738 56.3324 125.876 56.4393 126.041 56.4393H128.267C128.405 56.4393 128.569 56.3324 128.624 56.1721Z" fill="white"/>
<path d="M143.147 56.4408H145.263C145.483 56.4408 145.648 56.2804 145.648 56.0666V43.9337C145.648 43.72 145.483 43.5596 145.263 43.5596H143.147C142.927 43.5596 142.762 43.72 142.762 43.9337V56.04C142.762 56.2537 142.927 56.4408 143.147 56.4408Z" fill="white"/>
<path d="M151.913 51.1208C152.573 51.4146 153.068 51.7354 153.425 52.0293C153.756 52.3233 153.947 52.6173 153.947 52.938C153.947 53.2854 153.811 53.5526 153.563 53.7665C153.315 53.9536 152.985 54.0605 152.573 54.0605C152.023 54.0605 151.501 53.9267 150.951 53.6862C150.567 53.4992 150.237 53.2854 149.962 53.0182C149.796 52.8578 149.549 52.8845 149.412 53.0449L148.23 54.4346C148.12 54.5682 148.12 54.7285 148.203 54.8622C148.532 55.3699 149.055 55.7707 149.77 56.0915C150.622 56.4657 151.529 56.6527 152.491 56.6527C153.811 56.6527 154.854 56.3053 155.706 55.5837L155.844 55.4769C156.559 54.8087 156.999 53.9001 156.999 52.9648C156.999 52.2966 156.861 51.7086 156.587 51.2276C156.311 50.7199 155.982 50.3457 155.597 50.0785C155.185 49.7845 154.744 49.544 154.277 49.2768C153.782 49.0363 153.342 48.8224 152.93 48.6622C152.518 48.4751 152.161 48.2612 151.858 47.994C151.584 47.7267 151.418 47.406 151.418 47.0319C151.418 46.7112 151.556 46.4439 151.803 46.2568C152.078 46.0698 152.436 45.9896 152.849 45.9896C153.287 45.9896 153.645 46.0431 153.947 46.1767C154.14 46.2568 154.332 46.3906 154.552 46.5508C154.718 46.6844 154.965 46.6578 155.102 46.4707L156.202 44.9742C156.311 44.8138 156.285 44.5999 156.147 44.4931C155.268 43.7447 154.085 43.3706 152.573 43.3706C151.282 43.3706 150.265 43.7181 149.494 44.4397C148.725 45.1613 148.341 46.0165 148.341 47.0319C148.341 47.4862 148.396 47.9138 148.532 48.3147C148.698 48.7155 148.889 49.0629 149.082 49.3035C149.303 49.5707 149.577 49.838 149.934 50.0785C150.291 50.3191 150.594 50.5328 150.87 50.6664C151.172 50.8268 151.529 50.9604 151.913 51.1208Z" fill="white"/>
<path d="M162.058 51.1208C162.717 51.4146 163.212 51.7354 163.57 52.0293C163.899 52.3233 164.091 52.6173 164.091 52.938C164.091 53.2854 163.954 53.5526 163.706 53.7665C163.46 53.9536 163.129 54.0605 162.717 54.0605C162.167 54.0605 161.646 53.9267 161.096 53.6862C160.71 53.4992 160.381 53.2854 160.105 53.0182C159.941 52.8578 159.693 52.8845 159.555 53.0449L158.374 54.4346C158.264 54.5682 158.264 54.7285 158.346 54.8622C158.676 55.3699 159.198 55.7707 159.913 56.0915C160.765 56.4657 161.672 56.6527 162.634 56.6527C163.954 56.6527 164.999 56.3053 165.851 55.5837L165.989 55.4769C166.703 54.8087 167.142 53.9001 167.142 52.9648C167.142 52.2966 167.006 51.7086 166.73 51.2276C166.456 50.7199 166.125 50.3457 165.741 50.0785C165.328 49.7845 164.889 49.544 164.422 49.2768C163.927 49.0363 163.487 48.8224 163.075 48.6622C162.662 48.4751 162.305 48.2612 162.003 47.994C161.727 47.7267 161.563 47.406 161.563 47.0319C161.563 46.7112 161.7 46.4439 161.948 46.2568C162.222 46.0698 162.579 45.9896 162.992 45.9896C163.432 45.9896 163.789 46.0431 164.091 46.1767C164.284 46.2568 164.477 46.3906 164.696 46.5508C164.861 46.6844 165.108 46.6578 165.246 46.4707L166.346 44.9742C166.456 44.8138 166.428 44.5999 166.291 44.4931C165.411 43.7447 164.229 43.3706 162.717 43.3706C161.425 43.3706 160.408 43.7181 159.638 44.4397C158.869 45.1613 158.484 46.0165 158.484 47.0319C158.484 47.4862 158.539 47.9138 158.676 48.3147C158.841 48.7155 159.034 49.0629 159.226 49.3035C159.446 49.5707 159.721 49.838 160.079 50.0785C160.436 50.3191 160.738 50.5328 161.013 50.6664C161.343 50.8268 161.672 50.9604 162.058 51.1208Z" fill="white"/>
<path d="M67.7481 51.1233C68.4079 51.4173 68.9027 51.738 69.26 52.032C69.5899 52.326 69.7824 52.62 69.7824 52.9406C69.7824 53.2881 69.6448 53.5553 69.3974 53.7692C69.1501 53.9562 68.8202 54.063 68.4079 54.063C67.8581 54.063 67.3359 53.9294 66.7861 53.6889C66.4013 53.5018 66.0715 53.2881 65.7965 53.0208C65.6316 52.8605 65.3842 52.8872 65.2468 53.0476L64.0648 54.4372C63.9548 54.5709 63.9548 54.7312 64.0374 54.8648C64.3672 55.3726 64.8894 55.7734 65.6041 56.0941C66.4563 56.4683 67.3633 56.6554 68.3255 56.6554C69.6448 56.6554 70.6894 56.3079 71.5415 55.5863L71.6514 55.4794C72.3661 54.8114 72.8059 53.9028 72.8335 52.9406C72.8335 52.2725 72.6961 51.6847 72.4211 51.1768C72.1463 50.6691 71.8164 50.2949 71.4316 50.0278C71.0192 49.7338 70.5794 49.4932 70.1122 49.226C69.6174 48.9855 69.1776 48.7716 68.7652 48.6114C68.3529 48.4242 67.9955 48.2104 67.6933 47.9432C67.4183 47.6759 67.2535 47.3552 67.2535 46.9811C67.2535 46.6605 67.3909 46.3931 67.6383 46.2061C67.9131 46.019 68.2705 45.9389 68.6828 45.9389C69.1226 45.9389 69.48 45.9923 69.7824 46.1259C69.9748 46.2061 70.1672 46.3398 70.387 46.5001C70.552 46.6337 70.7994 46.607 70.9368 46.4199L72.0363 44.9233C72.1463 44.763 72.1188 44.5491 71.9813 44.4424C71.1016 43.694 69.9198 43.3198 68.4079 43.3198C67.1159 43.3198 66.0989 43.6673 65.3292 44.3889C64.5596 45.1103 64.1748 45.9655 64.1748 46.9811C64.1748 47.4354 64.2298 47.863 64.3672 48.2639C64.532 48.6647 64.7244 49.0122 64.917 49.2527C65.1368 49.5199 65.4117 49.7872 65.7691 50.0278C66.1265 50.2683 66.4287 50.482 66.7037 50.6156C67.0335 50.8295 67.3633 50.9631 67.7481 51.1233Z" fill="white"/>
<path d="M32.5866 47.2116L25.2749 54.3204L20.8218 49.9911L25.2749 45.6617L26.5944 46.9444C26.9242 47.2651 27.364 47.4522 27.8313 47.4522C28.2985 47.4522 28.7383 47.2651 29.0683 46.9444L30.9649 45.1005C31.6521 44.4323 31.6521 43.3634 30.9649 42.722L26.5118 38.4193C26.182 38.0987 25.7422 37.9116 25.2749 37.9116C24.8076 37.9116 24.3677 38.0987 24.0379 38.4193L13.3726 48.7884C12.6854 49.4566 12.6854 50.5255 13.3726 51.1669L24.0653 61.5627C24.3953 61.8833 24.8351 62.0704 25.3024 62.0704C25.7696 62.0704 26.2094 61.8833 26.5394 61.5627L35.6653 52.6634L36.9297 51.4341L32.5866 47.2116Z" fill="white"/>
<path d="M54.7931 51.2028L44.1003 61.5986C43.7705 61.9194 43.3307 62.1064 42.8633 62.1064C42.3961 62.1064 41.9563 61.9194 41.6265 61.5986L37.2283 57.2693C36.5411 56.6012 36.5411 55.5322 37.2283 54.8908L39.125 53.0468C39.4548 52.7261 39.8946 52.5657 40.362 52.5657C40.8293 52.5657 41.2691 52.7528 41.5989 53.0468L42.9183 54.3296L47.3714 50.0002L42.8909 45.6709L36.2663 52.1115C36.2387 52.1381 36.2113 52.165 36.1837 52.1916C35.6065 52.7261 34.8643 52.9933 34.0947 52.9933C33.27 52.9933 32.5004 52.6727 31.9232 52.1115C31.3459 51.5503 31.0161 50.802 31.0161 50.0002C31.0161 49.2252 31.2909 48.5305 31.8407 47.9691L31.9782 47.8355L41.6813 38.4019C42.0113 38.0811 42.4511 37.894 42.9183 37.894C43.3856 37.894 43.8254 38.0811 44.1553 38.4019L54.8481 48.7977C55.4803 49.4658 55.4803 50.5347 54.7931 51.2028Z" fill="white"/>
</svg>
