<svg width="400" height="400" viewBox="0 0 400 400" fill="none" xmlns="http://www.w3.org/2000/svg">
<g clip-path="url(#clip0_5369_7690)">
<g clip-path="url(#clip1_5369_7690)">
<g clip-path="url(#clip2_5369_7690)">
<path d="M296.534 304.999H65.1159C60.4996 304.999 56.6665 301.166 56.6665 296.533V125.133C56.6665 120.499 60.4829 116.666 65.1159 116.666H296.55C301.183 116.666 305 120.499 305 125.133V296.533C304.983 301.166 301.167 304.999 296.534 304.999Z" fill="url(#paint0_linear_5369_7690)"/>
<path d="M106.422 234.999H56.6665V125.084C56.6665 120.477 60.4734 116.666 65.0949 116.666H121.667V219.754C121.667 227.973 114.851 234.999 106.422 234.999Z" fill="url(#paint1_linear_5369_7690)"/>
<path d="M55.1794 225.001H98.1542C104.776 225.001 110 219.575 110 213.154V170.181C110 163.56 104.576 158.334 98.1542 158.334H55.1794C48.5577 158.334 43.3335 163.76 43.3335 170.181V213.154C43.3335 219.774 48.5577 225.001 55.1794 225.001Z" fill="url(#paint2_linear_5369_7690)"/>
<path d="M94.9416 186.63C94.7912 186.18 94.3902 185.847 93.9224 185.78L82.7947 184.197L77.7655 174.03C77.6151 173.73 77.3478 173.497 77.0303 173.397C76.7128 173.297 76.362 173.314 76.0445 173.464C75.7939 173.58 75.5934 173.78 75.4764 174.03L70.4807 184.13L59.4198 185.714C58.718 185.814 58.2335 186.464 58.3504 187.164C58.3839 187.447 58.5175 187.697 58.7347 187.88L66.8048 195.78L64.8667 206.83C64.7831 207.314 64.9836 207.797 65.3846 208.08C65.7856 208.364 66.3036 208.414 66.738 208.197L76.6627 202.947L86.6376 208.18C87.072 208.414 87.5899 208.364 87.9909 208.08C88.3919 207.797 88.5757 207.297 88.4922 206.814L86.5874 195.764L94.6743 187.88C94.975 187.53 95.0753 187.064 94.9416 186.63Z" fill="#CBFFE6"/>
<path opacity="0.7" d="M78.3335 116.667V112.701C78.3335 110.301 80.6168 108.334 83.4002 108.334C103.583 108.334 123.767 108.334 143.967 108.334C162.067 108.334 180.183 108.334 198.283 108.334C198.633 108.334 200.417 108.384 201.85 109.617C203.3 110.867 203.333 112.401 203.333 112.701V116.667C180.783 116.667 158.233 116.667 135.667 116.667C116.567 116.667 97.4502 116.667 78.3335 116.667Z" fill="url(#paint3_linear_5369_7690)"/>
<path d="M255 108.334C251.317 107.117 246.434 105.951 240.634 105.767C233.467 105.551 227.517 106.934 223.333 108.334C223.333 103.317 223.333 98.3007 223.333 93.284C223.333 93.084 223.333 92.5507 223.667 92.0673C223.667 92.0673 223.967 91.6673 224.117 91.584C227.5 88.334 239.633 88.334 239.633 88.334C239.633 88.334 250 88.334 254.284 91.584C254.567 91.7507 254.733 92.0007 254.733 92.0007C255 92.384 255 92.8173 255 92.984C255 98.1007 255 103.217 255 108.334Z" fill="url(#paint4_linear_5369_7690)"/>
<path d="M203.833 259.239C241.15 279.221 287.616 265.155 307.583 227.825C327.566 190.511 313.5 144.048 276.166 124.083C238.85 104.101 192.383 118.167 172.416 155.497C152.45 192.811 166.5 239.257 203.833 259.239ZM275.216 125.866C311.416 145.231 325.05 190.278 305.683 226.458C286.316 262.639 241.266 276.288 205.083 256.922C168.9 237.557 155.25 192.511 174.616 156.33C193.983 120.133 239.033 106.501 275.216 125.866Z" fill="url(#paint5_linear_5369_7690)"/>
<path d="M202.55 209.919C212.634 230.602 237.567 239.186 258.25 229.102C278.934 219.019 287.517 194.085 277.434 173.402C267.35 152.719 242.417 144.135 221.734 154.219C201.05 164.302 192.467 189.252 202.55 209.919ZM258.284 182.435C263.25 192.619 259.017 204.886 248.834 209.852C238.65 214.819 226.384 210.585 221.417 200.402C216.45 190.219 220.684 177.952 230.867 172.985C241.05 168.019 253.317 172.269 258.284 182.435Z" fill="url(#paint6_linear_5369_7690)"/>
<path d="M335 193.332C335 178.25 332.583 167.909 328.783 158.843C324.467 148.543 319.167 141.861 313.983 135.461C313.983 135.461 292.283 108.746 263.6 103.38C262.6 103.197 262.167 103.597 262.167 103.597C261.833 103.897 261.667 104.165 261.667 104.999C261.667 108.415 261.667 111.582 261.667 114.999C268.617 116.899 289.333 123.395 305.083 143.51C315.833 157.259 322.25 174.525 322.25 193.273C322.25 193.54 322.233 193.79 322.233 194.057C321.817 238.553 285.367 274.484 240.45 274.484C195.533 274.484 159.1 238.536 158.667 194.057C158.667 193.79 158.65 193.54 158.65 193.273C158.65 156.093 183.967 124.631 218.333 114.999C218.333 111.499 218.333 108.498 218.333 104.999C218.333 104.849 218.333 104.165 217.95 103.747C217.517 103.263 216.617 103.363 216.133 103.463C208.067 105.613 184.717 112.929 166.283 135.594C146.55 159.842 145.133 185.316 145 193.332V273.332C145 283.332 153.333 291.665 163.333 291.665H316.667C326.667 291.665 335 283.332 335 273.332C335 245.401 335.017 221.28 335 193.332Z" fill="url(#paint7_linear_5369_7690)"/>
<path d="M132.017 287.061C137.784 294.33 148.284 295.447 155.451 289.562C162.617 283.677 163.751 273.024 157.984 265.755C152.217 258.486 141.717 257.369 134.551 263.254C127.384 269.139 126.251 279.809 132.017 287.061Z" fill="url(#paint8_radial_5369_7690)"/>
<path d="M137.651 246.685C138.318 246.618 138.834 246.852 139.234 247.418C139.401 247.652 139.651 247.835 139.901 248.002C141.451 249.052 143.151 249.686 144.984 249.936C146.268 250.119 147.568 250.319 148.834 250.586C151.334 251.136 153.301 252.553 154.668 254.754C155.518 256.121 155.918 257.655 156.184 259.239C156.468 260.956 156.434 262.673 156.051 264.39C155.918 265.007 155.551 265.407 154.934 265.524C154.068 265.691 153.284 264.941 153.368 264.057C153.368 264.007 153.368 263.957 153.384 263.924C153.718 263.14 153.368 262.59 152.834 262.023C150.668 259.739 148.034 258.772 144.951 258.939C144.901 258.939 144.868 258.939 144.818 258.955C144.801 258.955 144.784 258.972 144.718 259.005C144.784 259.139 144.851 259.272 144.901 259.406C147.034 263.874 149.134 268.358 151.318 272.81C152.418 275.061 152.134 277.111 150.651 278.978C148.751 281.363 146.251 282.463 143.234 282.013C139.551 281.463 137.851 277.911 139.718 274.644C141.284 271.91 143.734 270.626 146.818 270.609C146.934 270.609 147.068 270.609 147.234 270.609C147.151 270.442 147.084 270.309 147.018 270.176C143.651 263.123 140.284 256.071 136.901 249.036C136.534 248.269 136.484 247.619 137.051 246.968C137.284 246.868 137.468 246.768 137.651 246.685Z" fill="#CBFFE6"/>
<path d="M303.052 119.622C311.167 130.822 326.897 133.339 338.195 125.272C349.492 117.189 352.092 101.572 343.977 90.3723C335.862 79.1723 320.132 76.6556 308.834 84.7223C297.536 92.789 294.953 108.422 303.052 119.622Z" fill="url(#paint9_radial_5369_7690)"/>
<path d="M321.648 106.356C321.764 106.206 321.848 106.089 321.931 105.972C325.014 101.839 328.08 97.7056 331.163 93.5889C331.746 92.8056 332.262 92.6556 333.195 93.0223C339.544 95.5556 345.893 98.0723 352.258 100.606C353.041 100.922 353.441 101.422 353.308 102.089C353.258 102.389 353.075 102.706 352.891 102.956C350.325 106.406 347.759 109.839 345.193 113.272C343.743 115.206 342.327 117.172 340.861 119.089C339.744 120.556 338.194 121.056 336.411 120.656C334.662 120.256 333.529 119.122 333.129 117.372C332.696 115.472 333.545 113.606 335.178 112.656C336.828 111.706 338.844 111.889 340.327 113.172C340.644 113.456 340.894 113.806 341.21 114.139C342.91 111.856 344.61 109.572 346.326 107.256C346.243 107.206 346.159 107.156 346.06 107.122C340.611 104.956 335.145 102.772 329.696 100.589C329.396 100.472 329.28 100.572 329.113 100.789C326.58 104.206 324.031 107.622 321.498 111.022C320.498 112.372 319.165 113.022 317.465 112.906C315.299 112.772 313.583 111.006 313.449 108.806C313.316 106.672 314.849 104.689 316.949 104.306C318.815 103.956 320.298 104.589 321.431 106.072C321.498 106.172 321.564 106.256 321.648 106.356Z" fill="#CBFFE6"/>
<path d="M230.066 287.1C230.066 290.7 230.066 294.3 230.066 297.9C230.066 300.7 234.15 300.7 234.15 297.9C234.15 294.3 234.15 290.7 234.15 287.1C234.15 284.3 230.066 284.3 230.066 287.1Z" fill="url(#paint10_linear_5369_7690)"/>
<path d="M237.617 287.1C237.617 290.7 237.617 294.3 237.617 297.9C237.617 300.7 241.7 300.7 241.7 297.9C241.7 294.3 241.7 290.7 241.7 287.1C241.7 284.3 237.617 284.3 237.617 287.1Z" fill="url(#paint11_linear_5369_7690)"/>
<path d="M222.516 287.1C222.516 290.7 222.516 294.3 222.516 297.9C222.516 300.7 226.599 300.7 226.599 297.9C226.599 294.3 226.599 290.7 226.599 287.1C226.599 284.3 222.516 284.3 222.516 287.1Z" fill="url(#paint12_linear_5369_7690)"/>
<path d="M215 287.1C215 290.7 215 294.3 215 297.9C215 300.7 219.083 300.7 219.083 297.9C219.083 294.3 219.083 290.7 219.083 287.1C219.083 284.3 215 284.3 215 287.1Z" fill="url(#paint13_linear_5369_7690)"/>
<path d="M245.5 287.1C245.5 290.7 245.5 294.3 245.5 297.9C245.5 300.7 249.583 300.7 249.583 297.9C249.583 294.3 249.583 290.7 249.583 287.1C249.583 284.3 245.5 284.3 245.5 287.1Z" fill="url(#paint14_linear_5369_7690)"/>
<path d="M260.917 287.1C260.917 290.7 260.917 294.3 260.917 297.9C260.917 300.7 265 300.7 265 297.9C265 294.3 265 290.7 265 287.1C265 284.3 260.917 284.3 260.917 287.1Z" fill="url(#paint15_linear_5369_7690)"/>
<path d="M253.4 287.1C253.4 290.7 253.4 294.3 253.4 297.9C253.4 300.7 257.483 300.7 257.483 297.9C257.483 294.3 257.483 290.7 257.483 287.1C257.483 284.3 253.4 284.3 253.4 287.1Z" fill="url(#paint16_linear_5369_7690)"/>
<path d="M232.639 145.161C232.814 146.027 233.634 146.603 234.512 146.508C237.602 146.173 240.759 146.145 243.942 146.468C244.819 146.557 245.635 145.98 245.807 145.115L249.658 125.802C249.844 124.868 249.211 123.966 248.265 123.85C242.288 123.119 236.187 123.169 230.129 124.05C229.199 124.185 228.587 125.08 228.773 126.001L232.639 145.161Z" fill="url(#paint17_linear_5369_7690)"/>
<path d="M223.381 127.185C223.192 126.25 222.258 125.663 221.341 125.922C217.087 127.126 212.892 128.763 208.8 130.867C207.564 131.503 206.361 132.18 205.18 132.888C204.374 133.37 204.148 134.43 204.67 135.212L215.359 151.212C215.85 151.946 216.827 152.167 217.604 151.748C220.279 150.304 223.111 149.138 226.044 148.249C226.887 147.994 227.414 147.147 227.24 146.284L223.381 127.185Z" fill="url(#paint18_linear_5369_7690)"/>
<path d="M245.894 238.553C245.72 237.689 244.903 237.114 244.026 237.207C240.969 237.531 237.844 237.557 234.693 237.236C233.815 237.147 232.999 237.725 232.827 238.59L229.086 257.382C228.902 258.305 229.517 259.198 230.449 259.33C236.329 260.163 242.347 260.241 248.345 259.505C249.292 259.388 249.925 258.484 249.736 257.548L245.894 238.553Z" fill="url(#paint19_linear_5369_7690)"/>
<path d="M263.087 232.599C262.598 231.867 261.626 231.644 260.85 232.059C258.195 233.478 255.391 234.628 252.479 235.504C251.634 235.758 251.104 236.606 251.279 237.47L255.143 256.566C255.33 257.487 256.242 258.074 257.152 257.837C261.915 256.595 266.616 254.826 271.184 252.483C271.954 252.088 272.706 251.681 273.448 251.263C274.279 250.794 274.522 249.716 273.992 248.922L263.087 232.599Z" fill="url(#paint20_linear_5369_7690)"/>
<path d="M274.136 134.506C274.661 133.714 274.42 132.642 273.593 132.175C268.398 129.241 262.845 127.011 257.09 125.514C256.178 125.277 255.265 125.867 255.081 126.791L251.223 146.182C251.051 147.046 251.583 147.892 252.428 148.145C255.405 149.039 258.224 150.221 260.878 151.651C261.656 152.07 262.632 151.846 263.12 151.11L274.136 134.506Z" fill="url(#paint21_linear_5369_7690)"/>
<path d="M281.09 137.086C280.337 136.521 279.268 136.72 278.748 137.505L267.666 154.201C267.179 154.935 267.349 155.918 268.032 156.472C270.49 158.463 272.734 160.686 274.713 163.119C275.27 163.804 276.257 163.974 276.991 163.483L293.707 152.319C294.494 151.793 294.687 150.717 294.111 149.966C290.32 145.029 285.92 140.712 281.09 137.086Z" fill="url(#paint22_linear_5369_7690)"/>
<path d="M205.137 248.409C204.615 249.196 204.849 250.259 205.665 250.732C210.696 253.649 216.072 255.921 221.659 257.47C222.576 257.725 223.505 257.134 223.691 256.2L227.41 237.505C227.582 236.639 227.048 235.793 226.203 235.539C223.257 234.657 220.468 233.481 217.836 232.073C217.059 231.658 216.087 231.884 215.601 232.618L205.137 248.409Z" fill="url(#paint23_linear_5369_7690)"/>
<path d="M211.033 229.587C211.521 228.853 211.351 227.87 210.666 227.316C208.224 225.342 205.995 223.146 204.022 220.741C203.463 220.061 202.48 219.894 201.748 220.383L186.122 230.821C185.337 231.346 185.142 232.419 185.716 233.171C189.368 237.956 193.589 242.165 198.223 245.737C198.975 246.317 200.056 246.122 200.581 245.331L211.033 229.587Z" fill="url(#paint24_linear_5369_7690)"/>
<path d="M175.309 207.504C174.378 207.689 173.787 208.614 174.036 209.53C175.266 214.054 176.976 218.517 179.2 222.862C179.699 223.828 180.219 224.772 180.761 225.7C181.236 226.515 182.301 226.744 183.085 226.22L198.676 215.801C199.41 215.311 199.631 214.335 199.213 213.558C197.754 210.852 196.581 207.996 195.68 205.039C195.425 204.2 194.583 203.675 193.723 203.846L175.309 207.504Z" fill="url(#paint25_linear_5369_7690)"/>
<path d="M192.603 198.447C193.471 198.276 194.05 197.456 193.956 196.576C193.634 193.554 193.607 190.469 193.918 187.345C194.005 186.469 193.428 185.656 192.565 185.484L174.148 181.814C173.214 181.628 172.313 182.26 172.195 183.204C171.475 188.975 171.471 194.85 172.25 200.713C172.374 201.65 173.27 202.273 174.197 202.089L192.603 198.447Z" fill="url(#paint26_linear_5369_7690)"/>
<path d="M304.784 176.163C305.712 175.979 306.302 175.06 306.058 174.146C304.821 169.503 303.076 164.922 300.8 160.473C300.265 159.425 299.699 158.406 299.109 157.407C298.631 156.598 297.57 156.371 296.788 156.894L280.05 168.072C279.319 168.561 279.096 169.532 279.51 170.308C280.962 173.032 282.134 175.915 283.026 178.901C283.278 179.745 284.123 180.275 284.986 180.103L304.784 176.163Z" fill="url(#paint27_linear_5369_7690)"/>
<path d="M307.777 182.963C307.656 182.023 306.758 181.396 305.828 181.58L286.033 185.505C285.171 185.676 284.593 186.488 284.68 187.363C284.981 190.39 284.995 193.487 284.672 196.617C284.581 197.495 285.159 198.312 286.024 198.484L305.727 202.408C306.651 202.592 307.546 201.975 307.676 201.043C308.507 195.094 308.557 189.018 307.777 182.963Z" fill="url(#paint28_linear_5369_7690)"/>
<path d="M276.832 220.397C276.101 219.909 275.12 220.074 274.563 220.754C272.608 223.139 270.426 225.329 268.054 227.26C267.369 227.817 267.199 228.804 267.69 229.538L278.631 245.924C279.153 246.705 280.217 246.903 280.969 246.341C285.846 242.696 290.123 238.477 293.77 233.823C294.358 233.073 294.169 231.987 293.376 231.457L276.832 220.397Z" fill="url(#paint29_linear_5369_7690)"/>
<path d="M296.488 226.925C297.27 227.446 298.331 227.219 298.809 226.409C301.88 221.203 304.251 215.624 305.843 209.831C306.095 208.914 305.505 207.987 304.572 207.802L284.919 203.897C284.056 203.725 283.212 204.255 282.956 205.097C282.047 208.098 280.838 210.946 279.379 213.621C278.956 214.398 279.177 215.377 279.913 215.869L296.488 226.925Z" fill="url(#paint30_linear_5369_7690)"/>
<path d="M182.826 157.565C182.033 157.034 180.955 157.276 180.487 158.108C177.597 163.247 175.378 168.732 173.896 174.418C173.659 175.33 174.249 176.243 175.172 176.427L193.607 180.1C194.473 180.272 195.321 179.739 195.573 178.892C196.47 175.878 197.666 173.017 199.104 170.338C199.52 169.563 199.298 168.592 198.567 168.103L182.826 157.565Z" fill="url(#paint31_linear_5369_7690)"/>
<path d="M201.629 163.499C202.362 163.99 203.347 163.822 203.903 163.137C205.859 160.724 208.037 158.515 210.422 156.559C211.102 156.001 211.27 155.017 210.781 154.285L200.124 138.327C199.595 137.534 198.507 137.345 197.757 137.934C193.033 141.641 188.895 145.904 185.384 150.568C184.818 151.32 185.014 152.387 185.796 152.91L201.629 163.499Z" fill="url(#paint32_linear_5369_7690)"/>
<path opacity="0.7" d="M145 320C145 315 145 308.717 145 303.333C145 299.133 149.117 295 153.333 295L326.667 295C330.867 295 335 299.3 335 303.5C335 308.333 335 315 335 320C272.5 320 208.333 320 145 320Z" fill="url(#paint33_linear_5369_7690)"/>
<path d="M240 240.001C213.35 240.001 191.667 218.317 191.667 191.667C191.667 165.017 213.35 143.334 240 143.334C266.65 143.334 288.334 165.017 288.334 191.667C288.334 218.317 266.65 240.001 240 240.001ZM240 145.484C214.534 145.484 193.817 166.201 193.817 191.667C193.817 217.134 214.534 237.834 240 237.834C265.467 237.834 286.184 217.117 286.184 191.651C286.184 166.184 265.467 145.484 240 145.484Z" fill="url(#paint34_linear_5369_7690)"/>
<path opacity="0.7" d="M100 108.333V104.367C100 101.967 102.166 100 104.799 100C123.913 100 143.011 100 162.125 100C179.256 100 196.403 100 213.534 100C213.867 100 215.55 100.05 216.917 101.283C218.283 102.533 218.333 104.067 218.333 104.367V108.333C196.986 108.333 175.639 108.333 154.292 108.333C136.178 108.333 118.097 108.333 100 108.333Z" fill="url(#paint35_linear_5369_7690)"/>
<path d="M240.66 127.009C240.045 128.239 238.288 128.239 237.674 127.009C235.518 122.696 233.358 118.389 231.203 114.076C230.65 112.968 231.455 111.666 232.693 111.666H245.64C246.878 111.666 247.684 112.968 247.13 114.076C244.976 118.389 242.815 122.696 240.66 127.009Z" fill="#CBFFE6"/>
<path d="M236.631 197.4C236.631 197.9 236.145 198.333 235.588 198.333C235.013 198.333 234.491 197.9 234.491 197.4V189.733L231.813 194.967C231.615 195.35 231.238 195.533 230.806 195.533C230.375 195.533 230.015 195.35 229.8 194.967L227.139 189.733V197.4C227.139 197.9 226.636 198.333 226.025 198.333C225.449 198.333 225 197.9 225 197.4V186C225 185.433 225.467 185 226.114 185C226.618 185 226.995 185.2 227.211 185.583L230.842 192.7L234.456 185.567C234.689 185.15 235.103 185 235.552 185C236.181 185 236.667 185.433 236.667 186V197.4H236.631Z" fill="#CBFFE6"/>
<path d="M248.313 192.66C248.01 191.408 247.777 190.14 247.509 188.855C246.901 191.675 246.24 194.462 245.56 197.265C245.399 197.766 245.077 198.333 244.237 198.333C243.558 198.333 243.057 197.799 242.914 197.249C241.913 193.494 240.948 189.706 240 185.951C240 185.401 240.626 185.067 241.162 185.067C241.591 185.067 242.02 185.284 242.145 185.784C242.574 187.52 243.021 189.255 243.468 190.957C243.772 192.159 243.987 193.394 244.255 194.595C244.541 193.344 244.756 191.992 245.077 190.724L246.222 186.218C246.418 185.451 246.651 185 247.491 185C248.296 185 248.582 185.484 248.76 186.218L249.887 190.724C250.191 192.009 250.405 193.327 250.727 194.612C250.995 193.394 251.228 192.176 251.532 190.957L252.837 185.801C252.962 185.334 253.337 185.067 253.784 185.067C254.321 185.067 255 185.35 255 185.968C255 186.001 255 186.085 254.964 186.185L252.086 197.249C251.907 197.816 251.532 198.333 250.763 198.333C250.012 198.333 249.583 197.799 249.44 197.232L248.313 192.66Z" fill="#CBFFE6"/>
</g>
</g>
</g>
<defs>
<linearGradient id="paint0_linear_5369_7690" x1="43.1749" y1="160.729" x2="181.385" y2="211.03" gradientUnits="userSpaceOnUse">
<stop offset="0.1469" stop-color="#8960FF" stop-opacity="0.54"/>
<stop offset="0.9482" stop-color="#5173F4" stop-opacity="0"/>
</linearGradient>
<linearGradient id="paint1_linear_5369_7690" x1="89.1642" y1="234.796" x2="89.1642" y2="116.46" gradientUnits="userSpaceOnUse">
<stop stop-color="#8960FF" stop-opacity="0.71"/>
<stop offset="1" stop-color="#573982" stop-opacity="0"/>
</linearGradient>
<linearGradient id="paint2_linear_5369_7690" x1="43.526" y1="158.742" x2="109.798" y2="224.999" gradientUnits="userSpaceOnUse">
<stop stop-color="#2754FF" stop-opacity="0.82"/>
<stop offset="0.6042" stop-color="#B490D9" stop-opacity="0.38"/>
<stop offset="1" stop-color="#F81C97"/>
</linearGradient>
<linearGradient id="paint3_linear_5369_7690" x1="140.833" y1="108.23" x2="140.833" y2="116.563" gradientUnits="userSpaceOnUse">
<stop stop-color="#8960FF" stop-opacity="0.55"/>
<stop offset="1" stop-color="#573982" stop-opacity="0"/>
</linearGradient>
<linearGradient id="paint4_linear_5369_7690" x1="239.167" y1="88.334" x2="239.167" y2="108.334" gradientUnits="userSpaceOnUse">
<stop stop-color="#8960FF" stop-opacity="0.71"/>
<stop offset="1" stop-color="#573982" stop-opacity="0"/>
</linearGradient>
<linearGradient id="paint5_linear_5369_7690" x1="307.561" y1="227.645" x2="172.399" y2="155.298" gradientUnits="userSpaceOnUse">
<stop stop-color="#2754FF" stop-opacity="0.82"/>
<stop offset="0.5114" stop-color="#B490D9" stop-opacity="0.38"/>
<stop offset="1" stop-color="#F81C97"/>
</linearGradient>
<linearGradient id="paint6_linear_5369_7690" x1="279.272" y1="205.036" x2="200.494" y2="177.901" gradientUnits="userSpaceOnUse">
<stop offset="0.0848" stop-color="#2754FF" stop-opacity="0.82"/>
<stop offset="0.5734" stop-color="#B490D9" stop-opacity="0.38"/>
<stop offset="1" stop-color="#F81C97"/>
</linearGradient>
<linearGradient id="paint7_linear_5369_7690" x1="240" y1="103.347" x2="240" y2="296.665" gradientUnits="userSpaceOnUse">
<stop stop-color="#8960FF"/>
<stop offset="1" stop-color="#5173F4" stop-opacity="0.1"/>
</linearGradient>
<radialGradient id="paint8_radial_5369_7690" cx="0" cy="0" r="1" gradientUnits="userSpaceOnUse" gradientTransform="translate(144.998 276.393) rotate(51.5433) scale(16.8282 16.7677)">
<stop stop-color="#7781E0"/>
<stop offset="1" stop-color="#2D3FE0" stop-opacity="0"/>
</radialGradient>
<radialGradient id="paint9_radial_5369_7690" cx="0" cy="0" r="1" gradientUnits="userSpaceOnUse" gradientTransform="translate(323.552 105.016) rotate(54.0854) scale(25.0668 25.1184)">
<stop stop-color="#7781E0"/>
<stop offset="1" stop-color="#2D3FE0" stop-opacity="0"/>
</radialGradient>
<linearGradient id="paint10_linear_5369_7690" x1="232.107" y1="300" x2="232.107" y2="285" gradientUnits="userSpaceOnUse">
<stop stop-color="#B490D9" stop-opacity="0.2"/>
<stop offset="1" stop-color="#F81C97"/>
</linearGradient>
<linearGradient id="paint11_linear_5369_7690" x1="239.652" y1="300" x2="239.652" y2="285" gradientUnits="userSpaceOnUse">
<stop stop-color="#B490D9" stop-opacity="0.2"/>
<stop offset="1" stop-color="#F81C97"/>
</linearGradient>
<linearGradient id="paint12_linear_5369_7690" x1="224.563" y1="300" x2="224.563" y2="285" gradientUnits="userSpaceOnUse">
<stop stop-color="#B490D9" stop-opacity="0.2"/>
<stop offset="1" stop-color="#F81C97"/>
</linearGradient>
<linearGradient id="paint13_linear_5369_7690" x1="217.042" y1="300" x2="217.042" y2="285" gradientUnits="userSpaceOnUse">
<stop stop-color="#B490D9" stop-opacity="0.2"/>
<stop offset="1" stop-color="#F81C97"/>
</linearGradient>
<linearGradient id="paint14_linear_5369_7690" x1="247.54" y1="300" x2="247.54" y2="285" gradientUnits="userSpaceOnUse">
<stop stop-color="#B490D9" stop-opacity="0.2"/>
<stop offset="1" stop-color="#F81C97"/>
</linearGradient>
<linearGradient id="paint15_linear_5369_7690" x1="262.958" y1="300" x2="262.958" y2="285" gradientUnits="userSpaceOnUse">
<stop stop-color="#B490D9" stop-opacity="0.2"/>
<stop offset="1" stop-color="#F81C97"/>
</linearGradient>
<linearGradient id="paint16_linear_5369_7690" x1="255.437" y1="300" x2="255.437" y2="285" gradientUnits="userSpaceOnUse">
<stop stop-color="#B490D9" stop-opacity="0.2"/>
<stop offset="1" stop-color="#F81C97"/>
</linearGradient>
<linearGradient id="paint17_linear_5369_7690" x1="239.188" y1="123.167" x2="239.492" y2="146.398" gradientUnits="userSpaceOnUse">
<stop stop-color="#8960FF" stop-opacity="0.54"/>
<stop offset="1" stop-color="#5173F4" stop-opacity="0"/>
</linearGradient>
<linearGradient id="paint18_linear_5369_7690" x1="212.989" y1="128.635" x2="221.189" y2="150.276" gradientUnits="userSpaceOnUse">
<stop stop-color="#8960FF" stop-opacity="0.54"/>
<stop offset="1" stop-color="#5173F4" stop-opacity="0"/>
</linearGradient>
<linearGradient id="paint19_linear_5369_7690" x1="239.419" y1="260.239" x2="239.119" y2="237.343" gradientUnits="userSpaceOnUse">
<stop stop-color="#8960FF" stop-opacity="0.54"/>
<stop offset="1" stop-color="#5173F4" stop-opacity="0"/>
</linearGradient>
<linearGradient id="paint20_linear_5369_7690" x1="266.142" y1="255.867" x2="253.612" y2="234.81" gradientUnits="userSpaceOnUse">
<stop stop-color="#8960FF" stop-opacity="0.54"/>
<stop offset="1" stop-color="#5173F4" stop-opacity="0"/>
</linearGradient>
<linearGradient id="paint21_linear_5369_7690" x1="265.608" y1="128.056" x2="257.768" y2="150.505" gradientUnits="userSpaceOnUse">
<stop stop-color="#8960FF" stop-opacity="0.54"/>
<stop offset="1" stop-color="#5173F4" stop-opacity="0"/>
</linearGradient>
<linearGradient id="paint22_linear_5369_7690" x1="288.401" y1="142.885" x2="270.041" y2="158.704" gradientUnits="userSpaceOnUse">
<stop stop-color="#8960FF" stop-opacity="0.54"/>
<stop offset="1" stop-color="#5173F4" stop-opacity="0"/>
</linearGradient>
<linearGradient id="paint23_linear_5369_7690" x1="213.358" y1="254.821" x2="222.689" y2="234.108" gradientUnits="userSpaceOnUse">
<stop stop-color="#8960FF" stop-opacity="0.54"/>
<stop offset="1" stop-color="#5173F4" stop-opacity="0"/>
</linearGradient>
<linearGradient id="paint24_linear_5369_7690" x1="191.433" y1="240.035" x2="207.098" y2="223.956" gradientUnits="userSpaceOnUse">
<stop stop-color="#8960FF" stop-opacity="0.54"/>
<stop offset="1" stop-color="#5173F4" stop-opacity="0"/>
</linearGradient>
<linearGradient id="paint25_linear_5369_7690" x1="176.169" y1="218.397" x2="196.472" y2="206.319" gradientUnits="userSpaceOnUse">
<stop stop-color="#8960FF" stop-opacity="0.54"/>
<stop offset="1" stop-color="#5173F4" stop-opacity="0"/>
</linearGradient>
<linearGradient id="paint26_linear_5369_7690" x1="171.476" y1="191.999" x2="193.834" y2="191.706" gradientUnits="userSpaceOnUse">
<stop stop-color="#8960FF" stop-opacity="0.54"/>
<stop offset="1" stop-color="#5173F4" stop-opacity="0"/>
</linearGradient>
<linearGradient id="paint27_linear_5369_7690" x1="303.395" y1="165.391" x2="281.648" y2="175.88" gradientUnits="userSpaceOnUse">
<stop stop-color="#8960FF" stop-opacity="0.54"/>
<stop offset="1" stop-color="#5173F4" stop-opacity="0"/>
</linearGradient>
<linearGradient id="paint28_linear_5369_7690" x1="308.535" y1="191.994" x2="284.769" y2="192.306" gradientUnits="userSpaceOnUse">
<stop stop-color="#8960FF" stop-opacity="0.54"/>
<stop offset="1" stop-color="#5173F4" stop-opacity="0"/>
</linearGradient>
<linearGradient id="paint29_linear_5369_7690" x1="287.951" y1="240.647" x2="271.164" y2="224.296" gradientUnits="userSpaceOnUse">
<stop stop-color="#8960FF" stop-opacity="0.54"/>
<stop offset="1" stop-color="#5173F4" stop-opacity="0"/>
</linearGradient>
<linearGradient id="paint30_linear_5369_7690" x1="303.786" y1="218.964" x2="283.791" y2="207.768" gradientUnits="userSpaceOnUse">
<stop stop-color="#8960FF" stop-opacity="0.54"/>
<stop offset="0.998" stop-color="#5173F4" stop-opacity="0"/>
</linearGradient>
<linearGradient id="paint31_linear_5369_7690" x1="176.078" y1="165.596" x2="196.605" y2="177.09" gradientUnits="userSpaceOnUse">
<stop stop-color="#8960FF" stop-opacity="0.54"/>
<stop offset="1" stop-color="#5173F4" stop-opacity="0"/>
</linearGradient>
<linearGradient id="paint32_linear_5369_7690" x1="191.037" y1="143.726" x2="207.306" y2="159.573" gradientUnits="userSpaceOnUse">
<stop stop-color="#8960FF" stop-opacity="0.54"/>
<stop offset="1" stop-color="#5173F4" stop-opacity="0"/>
</linearGradient>
<linearGradient id="paint33_linear_5369_7690" x1="240" y1="295.52" x2="240" y2="320" gradientUnits="userSpaceOnUse">
<stop stop-color="#8960FF" stop-opacity="0.51"/>
<stop offset="1" stop-color="#573982" stop-opacity="0.3"/>
</linearGradient>
<linearGradient id="paint34_linear_5369_7690" x1="191.667" y1="191.667" x2="288.334" y2="191.667" gradientUnits="userSpaceOnUse">
<stop stop-color="#2754FF" stop-opacity="0.82"/>
<stop offset="0.5114" stop-color="#B490D9" stop-opacity="0.38"/>
<stop offset="1" stop-color="#F81C97"/>
</linearGradient>
<linearGradient id="paint35_linear_5369_7690" x1="159.158" y1="99.8957" x2="159.158" y2="108.229" gradientUnits="userSpaceOnUse">
<stop stop-color="#8960FF" stop-opacity="0.55"/>
<stop offset="1" stop-color="#573982" stop-opacity="0"/>
</linearGradient>
<clipPath id="clip0_5369_7690">
<rect width="400" height="400" fill="white"/>
</clipPath>
<clipPath id="clip1_5369_7690">
<rect width="400" height="400" fill="white"/>
</clipPath>
<clipPath id="clip2_5369_7690">
<rect width="400" height="400" fill="white"/>
</clipPath>
</defs>
</svg>
