<svg width="400" height="400" viewBox="0 0 400 400" fill="none" xmlns="http://www.w3.org/2000/svg">
<path d="M294.902 299.999H63.4477C58.8156 299.999 55 296.167 55 291.536V120.13C55 115.498 58.8156 111.666 63.4477 111.666H294.886C299.518 111.666 303.333 115.498 303.333 120.13V291.536C303.35 296.167 299.518 299.999 294.902 299.999Z" fill="url(#paint0_linear_5369_7679)"/>
<path d="M104.739 229.999H55V120.085C55 115.478 58.8069 111.666 63.4284 111.666H120V214.768C120 222.989 113.168 229.999 104.739 229.999Z" fill="url(#paint1_linear_5369_7679)"/>
<path opacity="0.7" d="M75 111.667V103.747C75 98.9601 78.8121 95 83.4399 95H274.893C279.521 95 283.333 98.9601 283.333 103.747V111.667H75Z" fill="url(#paint2_linear_5369_7679)"/>
<path d="M53.5124 218.333H96.4872C103.109 218.333 108.333 212.907 108.333 206.486V163.513C108.333 156.892 102.909 151.666 96.4872 151.666H53.5124C46.8907 151.666 41.6665 157.092 41.6665 163.513V206.486C41.6665 213.106 46.8907 218.333 53.5124 218.333Z" fill="url(#paint3_linear_5369_7679)"/>
<path d="M336.322 116.516C321.838 115.106 305.126 103.035 298.94 89.5046C295.739 82.5404 296.036 76.5545 299.088 72.6081C299.583 71.8619 304.235 66.3403 305.027 65.7268C308.079 63.4385 308.657 67.2357 314.101 67.7829C328.585 69.242 345.297 81.33 351.45 94.7775C354.189 100.797 358.098 101.709 356.135 105.555C354.321 108.175 352.308 110.646 350.13 112.984C347.21 115.77 342.41 117.146 336.322 116.516Z" fill="url(#paint4_linear_5369_7679)"/>
<path d="M352.539 104.128C357.901 96.7329 351.846 83.1195 339.012 73.7178C326.177 64.3161 311.429 62.6746 306.067 70.0699C300.706 77.4653 306.76 91.0787 319.595 100.48C332.429 109.882 347.178 111.507 352.539 104.128Z" fill="url(#paint5_linear_5369_7679)"/>
<path d="M140.841 323.283C134.729 323.646 130.017 322.08 127.233 319.196C125.157 316.789 123.974 313.517 123.625 311.07C122.801 305.301 123.691 306.916 126.673 301.065C133.378 287.978 146.195 277.298 160.693 276.458C166.146 276.144 168.452 274.068 171.401 276.458C172.159 277.084 175.767 277.092 179.276 281.081C182.142 285.119 182.769 291.275 179.276 298.049C172.538 311.235 155.355 322.509 140.841 323.283Z" fill="url(#paint6_linear_5369_7679)"/>
<path d="M158.222 308.051C171.434 299.249 178.057 285.998 173.016 278.416C167.975 270.851 153.197 271.84 139.984 280.641C126.772 289.443 120.149 302.694 125.19 310.276C130.232 317.858 145.009 316.852 158.222 308.051Z" fill="url(#paint7_linear_5369_7679)"/>
<path d="M256.666 280.001C249.156 280.001 242.406 280.001 234.995 280.001C234.73 278.796 234.183 277.08 232.973 275.314C231.132 272.624 228.745 271.337 227.701 270.759C227.701 270.759 221.351 267.261 213.227 261.584C207.889 257.855 205.004 253.581 202.368 249.703C194.278 237.755 193.333 224.851 193.333 218.382C193.333 167.501 193.333 135.834 193.333 123.334C193.283 122.113 193.33 118.326 195.833 115.834C197.408 114.266 199.702 113.334 203.333 113.334C231.484 113.317 260.045 113.33 288.213 113.346C291.91 113.346 294.396 113.973 295.955 115.525C298.558 118.099 298.416 122.063 298.333 123.334C298.333 130.834 298.456 170.86 298.333 225.001C298.333 230.001 298.525 238.729 293.153 248.812C291.147 252.574 287.964 258.531 281.399 262.855C278.813 264.555 269.595 270.033 263.311 272.756C262.532 273.086 260.377 274.01 258.786 276.172C257.741 277.608 256.849 279.093 256.666 280.001Z" fill="url(#paint8_linear_5369_7679)"/>
<path d="M210 331.693C210 328.509 210 325.872 210 322.546C210.501 317.456 213.839 313.918 219.01 313.47C221.012 313.288 222.982 313.383 225.001 313.4C229.621 313.45 231.667 311.737 234.167 308.411C235.001 306.748 235 305.026 235 305.026C241.667 305.026 250 304.967 256.667 305.026C257.868 311.758 264.295 313.665 270.001 313.4C275.834 313.4 280.381 313.536 282.649 319.323C283.334 322.546 283.334 327.535 283.334 331.693C257.895 331.693 235.106 331.693 210 331.693Z" fill="url(#paint9_linear_5369_7679)"/>
<path d="M186.646 131.742C186.646 135.621 186.646 139.477 186.646 143.405C183.158 143.405 179.999 143.322 176.646 143.405C171.163 143.52 168.329 146.358 168.312 151.738C168.333 170.001 168.333 188.334 168.312 206.738C168.413 215.716 176.046 221.882 185 223.334C185.596 223.431 186.666 223.334 186.666 223.334C186.666 226.865 186.612 231.584 186.612 235.001C173.618 236.024 160.405 225.875 157.605 212.606C156.985 209.619 156.717 206.517 156.7 203.48C156.616 186.4 156.65 169.336 156.666 152.255C156.683 139.334 164.228 131.858 177.273 131.759C180.257 131.726 183.225 131.742 186.646 131.742Z" fill="url(#paint10_linear_5369_7679)"/>
<path d="M306.667 141.72C306.667 137.752 306.667 134.401 306.667 130C312.5 130 320 130 325 130.833C332.816 133.117 336.567 140.098 336.667 148.333C336.9 167.622 336.667 187.5 336.667 206.667C336.267 222.455 323.332 234.548 308.467 234.998C307.967 235.015 307.5 235 306.667 235C306.667 231.532 306.667 227.001 306.667 223.333C307.5 223.333 307.5 223.333 308.334 223.333C317.133 221.816 324.867 215.536 325 206.667C325.267 187.661 325.067 169.022 325 150C324.984 145.249 322.065 141.904 317.116 141.737C313.749 141.637 310.417 141.72 306.667 141.72Z" fill="url(#paint11_linear_5369_7679)"/>
<path d="M256.667 298.335C249.472 298.335 242.376 298.335 235 298.335C235 294.512 235 290.706 235 286.668C242.195 286.668 249.275 286.668 256.667 286.668C256.667 290.491 256.667 294.296 256.667 298.335Z" fill="url(#paint12_linear_5369_7679)"/>
<path d="M193.334 198.334C207.15 198.334 218.333 187.138 218.333 173.334C218.333 159.53 207.133 148.334 193.334 148.334C179.534 148.334 168.333 159.53 168.333 173.334C168.333 187.154 179.517 198.334 193.334 198.334Z" fill="url(#paint13_radial_5369_7679)"/>
<path d="M286.667 241.667C278.334 255 263.31 265.2 248.333 265C233.357 264.816 218.794 257.622 211.023 243.475C203.252 229.329 203.334 215.833 203.334 200" fill="url(#paint14_linear_5369_7679)"/>
<path d="M293.3 126.149C293.317 126.716 293.283 127.767 293.3 128.334C264.994 128.481 236.723 128.187 208.417 128.334C208.333 128.334 208.333 128.334 207.5 128.334C205.833 128.334 205 126.667 205 125.834C205 125.001 205.833 123.313 207.5 123.334L290 123.355C291.667 123.355 293.3 124.553 293.3 126.149Z" fill="url(#paint15_linear_5369_7679)"/>
<path d="M219.38 128.334H207.286C206.153 128.334 205 127.342 205 125.834C205 124.574 205.907 123.334 207.286 123.334H219.38C220.514 123.334 221.667 124.326 221.667 125.834C221.648 127.094 220.514 128.334 219.38 128.334Z" fill="#CBFFE6"/>
<path d="M234.03 128.334H229.303C227.995 128.334 226.667 127.342 226.667 125.834C226.667 124.574 227.712 123.334 229.303 123.334H234.03C235.338 123.334 236.667 124.326 236.667 125.834C236.645 127.094 235.599 128.334 234.03 128.334Z" fill="#CBFFE6"/>
<path d="M289.817 309.534C299.217 309.534 306.85 301.884 306.85 292.451C306.85 283.017 299.217 275.367 289.817 275.367C280.417 275.367 272.783 283.017 272.783 292.451C272.783 301.884 280.4 309.534 289.817 309.534Z" fill="url(#paint16_radial_5369_7679)"/>
<path d="M294.909 296.417C295.056 296.617 295.105 296.817 295.105 297.017C295.105 297.717 294.565 298.317 293.746 298.317C293.124 298.317 292.861 298.067 292.501 297.517L290.044 293.85L287.44 297.7C287.146 298.117 286.802 298.334 286.359 298.334C285.606 298.334 285 297.8 285 297.067C285 296.867 285.049 296.667 285.18 296.484L288.489 291.734L285.409 287.267C285.295 287.067 285.197 286.85 285.197 286.667C285.197 285.984 285.753 285.4 286.523 285.4C287.26 285.4 287.604 285.917 287.899 286.35L290.077 289.584L292.337 286.167C292.632 285.717 292.96 285.417 293.566 285.417C294.172 285.417 294.86 285.934 294.86 286.617C294.86 286.817 294.81 287.067 294.663 287.267L291.584 291.75L294.909 296.417Z" fill="#CBFFE6"/>
<path d="M306.03 298.117H297.955C297.136 298.117 296.58 297.55 296.58 296.767C296.58 296.433 296.612 296.017 296.76 295.683C297.661 293.583 299.315 291.983 300.953 290.4C302.476 288.933 304.621 287.35 304.621 285.2C304.621 283.667 303.688 282.45 301.952 282.45C301.067 282.45 300.379 282.6 299.741 282.867C299.184 283.117 298.709 283.567 298.152 283.567C297.48 283.567 296.858 283.067 296.858 282.35C296.858 280.8 300.15 280 301.984 280C305.326 280 307.291 282.2 307.291 284.933C307.291 287.033 306.505 288.433 305.424 289.6C303.606 291.617 301.231 293.35 299.953 295.6H306.079C306.816 295.6 307.406 296.15 307.406 296.85C307.406 297.55 306.767 298.117 306.03 298.117Z" fill="#CBFFE6"/>
<path d="M314.661 298.314C313.58 298.314 309.535 298.031 309.535 296.214C309.535 295.531 310.075 294.964 310.812 294.964C311.615 294.964 312.434 295.914 314.104 295.914C316.561 295.914 317.314 294.197 317.314 292.464C317.314 290.297 316.102 289.281 314.579 289.281C313.94 289.281 313.482 289.431 313.007 289.681C312.728 289.831 312.106 290.431 311.451 290.431C310.665 290.431 310.108 289.847 310.108 289.031L310.354 281.847C310.37 280.981 311.107 280.447 311.86 280.447H317.789C318.428 280.447 319.296 280.781 319.296 281.731C319.296 282.631 318.51 282.947 317.789 282.947H312.827C312.778 284.381 312.728 285.831 312.663 287.264C313.285 286.964 313.94 286.864 314.645 286.864C317.789 286.864 320 288.914 320 292.331C319.984 295.214 318.412 298.314 314.661 298.314Z" fill="#CBFFE6"/>
<path d="M200.795 179.005C201.009 179.277 201.075 179.55 201.075 179.822C201.075 180.784 200.3 181.601 199.146 181.601C198.273 181.601 197.877 181.264 197.366 180.511L193.855 175.511L190.145 180.751C189.733 181.328 189.239 181.601 188.596 181.601C187.508 181.601 186.667 180.88 186.667 179.87C186.667 179.598 186.733 179.325 186.914 179.085L191.646 172.61L187.26 166.521C187.079 166.248 186.947 165.944 186.947 165.703C186.947 164.79 187.755 163.973 188.843 163.973C189.898 163.973 190.376 164.694 190.805 165.271L193.921 169.662L197.152 164.998C197.564 164.389 198.025 163.973 198.899 163.973C199.773 163.973 200.762 164.694 200.762 165.607C200.762 165.88 200.696 166.216 200.482 166.489L196.097 172.578L200.795 179.005Z" fill="#CBFFE6"/>
<path d="M210.735 181.602C209.185 181.602 203.416 181.233 203.416 178.733C203.416 177.82 204.19 177.035 205.245 177.035C206.399 177.035 207.553 178.333 209.944 178.333C213.455 178.333 214.543 175.977 214.543 173.637C214.543 170.672 212.829 169.31 210.653 169.31C209.746 169.31 209.07 169.519 208.411 169.855C208.031 170.063 207.108 170.881 206.202 170.881C205.081 170.881 204.273 170.095 204.273 168.974L204.619 159.198C204.652 158.012 205.707 157.291 206.762 157.291H215.203C216.109 157.291 217.346 157.74 217.346 159.022C217.346 160.24 216.225 160.688 215.203 160.688H208.13C208.064 162.628 207.998 164.599 207.883 166.586C208.757 166.185 209.713 166.041 210.719 166.041C215.203 166.041 218.351 168.829 218.351 173.509C218.351 177.371 216.109 181.602 210.735 181.602Z" fill="#CBFFE6"/>
<path d="M236.667 164.631V174.374C236.667 178.429 233.964 181.666 229.1 181.666C224.188 181.666 221.534 178.429 221.534 174.374V164.631C221.534 160.24 223.809 156.666 229.1 156.666C234.359 156.666 236.667 160.24 236.667 164.631ZM225.358 164.358V174.374C225.358 176.73 226.661 178.285 229.1 178.285C231.524 178.285 232.843 176.714 232.843 174.374V164.358C232.843 161.81 231.755 159.999 229.1 159.999C226.413 159.999 225.358 161.81 225.358 164.358Z" fill="#CBFFE6"/>
<path fill-rule="evenodd" clip-rule="evenodd" d="M93.3337 171.667C93.3337 173.508 91.8413 175.001 90.0003 175.001C89.1461 175.001 88.367 174.679 87.7771 174.151L83.1488 177.237C83.2686 177.58 83.3337 177.949 83.3337 178.334C83.3337 180.175 81.8413 181.667 80.0003 181.667C78.1594 181.667 76.667 180.175 76.667 178.334C76.667 178.257 76.6696 178.18 76.6748 178.104L72.7991 176.812C72.205 177.728 71.1734 178.334 70.0003 178.334C69.1461 178.334 68.367 178.013 67.7771 177.484L63.1488 180.57C63.2686 180.914 63.3337 181.283 63.3337 181.667C63.3337 183.508 61.8413 185.001 60.0003 185.001C58.1594 185.001 56.667 183.508 56.667 181.667C56.667 179.826 58.1594 178.334 60.0003 178.334C60.8545 178.334 61.6337 178.655 62.2235 179.184L66.8519 176.098C66.7321 175.754 66.667 175.385 66.667 175.001C66.667 173.16 68.1594 171.667 70.0003 171.667C71.8413 171.667 73.3337 173.16 73.3337 175.001C73.3337 175.078 73.331 175.155 73.3258 175.231L77.2016 176.523C77.7957 175.607 78.8272 175.001 80.0003 175.001C80.8545 175.001 81.6337 175.322 82.2235 175.85L86.8519 172.765C86.7321 172.421 86.667 172.052 86.667 171.667C86.667 169.826 88.1594 168.334 90.0003 168.334C91.8413 168.334 93.3337 169.826 93.3337 171.667ZM86.667 180.834C86.667 180.374 87.0401 180.001 87.5003 180.001H92.5003C92.9606 180.001 93.3337 180.374 93.3337 180.834V201.667H86.667V180.834ZM76.667 187.501C76.667 187.04 77.0401 186.667 77.5003 186.667H82.5003C82.9606 186.667 83.3337 187.04 83.3337 187.501V201.667H76.667V187.501ZM67.5003 183.334C67.0401 183.334 66.667 183.707 66.667 184.167V201.667H73.3337V184.167C73.3337 183.707 72.9606 183.334 72.5003 183.334H67.5003ZM56.667 190.834C56.667 190.374 57.0401 190.001 57.5003 190.001H62.5003C62.9606 190.001 63.3337 190.374 63.3337 190.834V201.667H56.667V190.834Z" fill="#CBFFE6"/>
<defs>
<linearGradient id="paint0_linear_5369_7679" x1="41.5133" y1="255.927" x2="205.669" y2="196.174" gradientUnits="userSpaceOnUse">
<stop stop-color="#8960FF" stop-opacity="0.54"/>
<stop offset="1" stop-color="#5173F4" stop-opacity="0"/>
</linearGradient>
<linearGradient id="paint1_linear_5369_7679" x1="87.4937" y1="229.805" x2="87.4937" y2="111.452" gradientUnits="userSpaceOnUse">
<stop stop-color="#8960FF" stop-opacity="0.71"/>
<stop offset="1" stop-color="#573982" stop-opacity="0"/>
</linearGradient>
<linearGradient id="paint2_linear_5369_7679" x1="179.168" y1="94.7898" x2="179.168" y2="111.461" gradientUnits="userSpaceOnUse">
<stop stop-color="#8960FF" stop-opacity="0.55"/>
<stop offset="1" stop-color="#573982" stop-opacity="0"/>
</linearGradient>
<linearGradient id="paint3_linear_5369_7679" x1="41.8503" y1="152.075" x2="108.122" y2="218.332" gradientUnits="userSpaceOnUse">
<stop stop-color="#2754FF" stop-opacity="0.82"/>
<stop offset="0.6042" stop-color="#B490D9" stop-opacity="0.38"/>
<stop offset="1" stop-color="#F81C97"/>
</linearGradient>
<linearGradient id="paint4_linear_5369_7679" x1="317.032" y1="113.738" x2="326.785" y2="90.8153" gradientUnits="userSpaceOnUse">
<stop stop-color="#B94990"/>
<stop offset="1" stop-color="#161360" stop-opacity="0.455"/>
</linearGradient>
<linearGradient id="paint5_linear_5369_7679" x1="352.469" y1="85.9454" x2="310.429" y2="88.0003" gradientUnits="userSpaceOnUse">
<stop stop-color="#2754FF" stop-opacity="0.82"/>
<stop offset="0.5148" stop-color="#B490D9" stop-opacity="0.4"/>
<stop offset="1" stop-color="#F81C97"/>
</linearGradient>
<linearGradient id="paint6_linear_5369_7679" x1="160.21" y1="321.324" x2="151.53" y2="298.114" gradientUnits="userSpaceOnUse">
<stop stop-color="#B94990"/>
<stop offset="1" stop-color="#161360" stop-opacity="0.455"/>
</linearGradient>
<linearGradient id="paint7_linear_5369_7679" x1="126.033" y1="292.209" x2="167.888" y2="296.061" gradientUnits="userSpaceOnUse">
<stop stop-color="#2754FF" stop-opacity="0.82"/>
<stop offset="0.5148" stop-color="#B490D9" stop-opacity="0.4"/>
<stop offset="1" stop-color="#F81C97"/>
</linearGradient>
<linearGradient id="paint8_linear_5369_7679" x1="193.336" y1="196.672" x2="298.358" y2="196.672" gradientUnits="userSpaceOnUse">
<stop stop-color="#8960FF" stop-opacity="0.54"/>
<stop offset="0.392305" stop-color="#3827B7"/>
<stop offset="1" stop-color="#5173F4" stop-opacity="0.15"/>
</linearGradient>
<linearGradient id="paint9_linear_5369_7679" x1="214.167" y1="318.695" x2="284.497" y2="318.695" gradientUnits="userSpaceOnUse">
<stop stop-color="#8960FF" stop-opacity="0.54"/>
<stop offset="0.429446" stop-color="#3827B7"/>
<stop offset="1" stop-color="#5173F4" stop-opacity="0.17"/>
</linearGradient>
<linearGradient id="paint10_linear_5369_7679" x1="156.665" y1="183.334" x2="186.671" y2="183.334" gradientUnits="userSpaceOnUse">
<stop stop-color="#8960FF" stop-opacity="0.54"/>
<stop offset="1" stop-color="#5173F4" stop-opacity="0"/>
</linearGradient>
<linearGradient id="paint11_linear_5369_7679" x1="306.668" y1="182.504" x2="336.663" y2="182.504" gradientUnits="userSpaceOnUse">
<stop stop-color="#8960FF" stop-opacity="0.54"/>
<stop offset="1" stop-color="#5173F4" stop-opacity="0.15"/>
</linearGradient>
<linearGradient id="paint12_linear_5369_7679" x1="234.994" y1="292.499" x2="256.663" y2="292.499" gradientUnits="userSpaceOnUse">
<stop stop-color="#8960FF" stop-opacity="0.54"/>
<stop offset="0.47564" stop-color="#3827B7"/>
<stop offset="1" stop-color="#5173F4" stop-opacity="0.23"/>
</linearGradient>
<radialGradient id="paint13_radial_5369_7679" cx="0" cy="0" r="1" gradientUnits="userSpaceOnUse" gradientTransform="translate(193.331 173.348) scale(25.0394 24.9578)">
<stop stop-color="#7781E0"/>
<stop offset="1" stop-color="#2D3FE0" stop-opacity="0"/>
</radialGradient>
<linearGradient id="paint14_linear_5369_7679" x1="225.493" y1="258.797" x2="251.104" y2="221.965" gradientUnits="userSpaceOnUse">
<stop stop-color="#B49AFF" stop-opacity="0.71"/>
<stop offset="1" stop-color="#573982" stop-opacity="0"/>
</linearGradient>
<linearGradient id="paint15_linear_5369_7679" x1="139.538" y1="125.824" x2="306.99" y2="125.824" gradientUnits="userSpaceOnUse">
<stop stop-color="#A373FF"/>
<stop offset="1" stop-color="#573982" stop-opacity="0"/>
</linearGradient>
<radialGradient id="paint16_radial_5369_7679" cx="0" cy="0" r="1" gradientUnits="userSpaceOnUse" gradientTransform="translate(289.813 292.443) scale(17.0585 17.0585)">
<stop stop-color="#7781E0"/>
<stop offset="1" stop-color="#2D3FE0" stop-opacity="0"/>
</radialGradient>
</defs>
</svg>
