<svg width="400" height="400" viewBox="0 0 400 400" fill="none" xmlns="http://www.w3.org/2000/svg">
<g clip-path="url(#clip0_5369_7686)">
<g clip-path="url(#clip1_5369_7686)">
<g clip-path="url(#clip2_5369_7686)">
<path d="M309.884 296.667H78.4494C73.8331 296.667 70 292.834 70 288.201V116.801C70 112.167 73.8164 108.334 78.4494 108.334H309.884C314.517 108.334 318.333 112.167 318.333 116.801V288.201C318.317 292.834 314.5 296.667 309.884 296.667Z" fill="url(#paint0_linear_5369_7686)"/>
<path d="M119.767 226.667H70V116.751C70 112.134 73.8167 108.334 78.4333 108.334H135V211.417C135 219.651 128.183 226.667 119.767 226.667Z" fill="url(#paint1_linear_5369_7686)"/>
<path opacity="0.7" d="M88.3335 106.667V98.75C88.3335 93.95 92.1502 90 96.7668 90H288.233C292.85 90 296.667 93.95 296.667 98.75V106.667H88.3335Z" fill="url(#paint2_linear_5369_7686)"/>
<path d="M68.5135 216.667H111.486C118.118 216.667 123.333 211.25 123.333 204.817V161.85C123.333 155.217 117.918 150 111.486 150H68.5135C61.8819 150 56.6665 155.417 56.6665 161.85V204.817C56.6665 211.45 61.8985 216.667 68.5135 216.667Z" fill="url(#paint3_linear_5369_7686)"/>
<path d="M100.03 173.748C100.23 173.748 100.364 173.748 100.48 173.748C101.881 173.748 103.282 173.748 104.682 173.748C104.966 173.748 105.266 173.781 105.549 173.865C106.183 174.064 106.566 174.514 106.633 175.197C106.65 175.414 106.667 175.63 106.667 175.83C106.667 177.296 106.667 178.762 106.667 180.228C106.667 180.661 106.566 180.761 106.133 180.761C101.364 180.761 96.595 180.761 91.8261 180.761C91.1925 180.761 90.9257 180.494 90.9257 179.861C90.9257 178.146 90.9257 176.43 90.9257 174.731C90.9257 174.048 90.6422 173.781 89.9586 173.765C89.4083 173.765 88.858 173.765 88.3078 173.765C87.7075 173.765 87.424 174.064 87.424 174.664C87.424 176.38 87.424 178.112 87.424 179.828C87.424 180.511 87.1572 180.761 86.4736 180.761C81.738 180.761 77.0024 180.761 72.2668 180.761C71.7499 180.761 71.6665 180.694 71.6665 180.178C71.6665 178.662 71.6665 177.163 71.6665 175.647C71.6665 174.614 72.0834 174.031 72.9338 173.815C73.1672 173.748 73.4173 173.748 73.6675 173.748C75.0515 173.748 76.4354 173.748 77.8361 173.748C77.9528 173.748 78.0862 173.748 78.2696 173.748C78.1863 173.631 78.1529 173.565 78.1029 173.498C76.6522 171.749 76.5355 169.101 77.8361 167.235C79.2034 165.286 81.6212 164.52 83.8556 165.319C85.7399 166.002 87.4073 167.035 88.8747 168.368C88.9747 168.451 89.0748 168.551 89.1748 168.634C89.6084 168.268 90.0252 167.901 90.4588 167.568C91.676 166.619 92.9933 165.869 94.4607 165.336C97.4788 164.22 100.73 165.986 101.347 169.134C101.631 170.833 101.281 172.365 100.03 173.748ZM91.0924 171.566C91.1091 171.616 91.1258 171.682 91.1591 171.732C92.8266 171.832 94.5107 171.949 96.1782 171.999C96.9119 172.016 97.4788 171.666 97.7789 170.966C98.0457 170.333 97.8957 169.434 97.4288 169.017C96.8618 168.501 96.2115 168.401 95.4778 168.684C94.4774 169.067 93.5603 169.634 92.6932 170.267C92.1429 170.666 91.626 171.116 91.0924 171.566ZM87.1906 171.699C87.1239 171.582 87.1239 171.549 87.0905 171.533C85.7565 170.283 84.2892 169.25 82.5717 168.584C82.1382 168.418 81.7046 168.501 81.2878 168.701C80.5707 169.051 80.2206 169.917 80.4374 170.75C80.6541 171.566 81.3544 172.049 82.2549 172.016C83.1053 171.982 83.939 171.932 84.7894 171.882C85.5731 171.832 86.3568 171.766 87.1906 171.699Z" fill="#CBFFE6"/>
<path d="M87.3905 192.103C87.3905 194.419 87.3905 196.751 87.3905 199.066C87.3905 199.733 87.1237 199.999 86.4401 199.999C82.7383 199.999 79.0199 199.999 75.3181 199.999C74.301 199.999 73.7007 199.633 73.4672 198.85C73.4005 198.616 73.3672 198.367 73.3672 198.117C73.3672 193.686 73.3672 189.238 73.3672 184.807C73.3672 184.374 73.4839 184.258 73.9008 184.258C78.1028 184.258 82.2881 184.258 86.4901 184.258C87.1071 184.258 87.3739 184.541 87.3739 185.141C87.3905 187.456 87.3905 189.788 87.3905 192.103Z" fill="#CBFFE6"/>
<path d="M90.9087 192.137C90.9087 189.838 90.9087 187.539 90.9087 185.241C90.9087 184.508 91.1588 184.258 91.8758 184.258C96.0111 184.258 100.146 184.258 104.282 184.258C104.849 184.258 104.915 184.341 104.915 184.907C104.915 189.305 104.915 193.686 104.915 198.083C104.915 198.866 104.699 199.516 103.915 199.832C103.648 199.949 103.331 199.982 103.031 199.982C99.296 199.999 95.5442 199.982 91.8091 199.982C91.1755 199.982 90.9087 199.699 90.9087 199.083C90.9087 196.768 90.9087 194.452 90.9087 192.137Z" fill="#CBFFE6"/>
<path d="M316.667 293.333H183.333C180 293.333 176.667 290 176.667 286.667V196.667C176.667 193.333 180 190 183.333 190H316.667C320 190 323.333 193.333 323.333 196.667V286.667C323.333 290 320 293.333 316.667 293.333Z" fill="url(#paint4_linear_5369_7686)"/>
<path d="M306.68 220.142C306.314 228.906 313.211 236.304 322.056 236.654C330.902 237.004 338.382 230.206 338.732 221.442C339.098 212.678 332.202 205.28 323.356 204.93C314.51 204.564 307.047 211.378 306.68 220.142Z" fill="url(#paint5_radial_5369_7686)"/>
<path d="M335.95 195.167C336.483 195.533 336.7 196.033 336.633 196.683C336.6 196.949 336.683 197.249 336.75 197.516C337.216 199.232 338.049 200.732 339.232 202.081C340.048 203.014 340.865 203.964 341.598 204.964C343.064 206.93 343.597 209.162 343.214 211.578C342.964 213.078 342.314 214.411 341.514 215.694C340.648 217.093 339.549 218.276 338.216 219.242C337.733 219.592 337.216 219.642 336.7 219.342C335.967 218.926 335.867 217.893 336.483 217.31C336.517 217.276 336.55 217.243 336.583 217.226C337.316 216.877 337.4 216.277 337.366 215.544C337.233 212.578 335.917 210.229 333.601 208.413C333.568 208.379 333.535 208.363 333.501 208.346C333.485 208.329 333.468 208.329 333.402 208.329C333.368 208.462 333.335 208.596 333.285 208.729C332.035 213.228 330.769 217.726 329.57 222.225C328.97 224.508 327.471 225.774 325.239 226.157C322.373 226.657 319.891 225.84 317.992 223.624C315.677 220.925 316.659 217.343 320.041 216.21C322.873 215.26 325.439 215.894 327.704 217.826C327.787 217.91 327.871 217.976 328.004 218.093C328.054 217.926 328.087 217.793 328.121 217.66C330.086 210.562 332.052 203.464 334.001 196.366C334.218 195.6 334.584 195.1 335.401 195C335.567 195.067 335.75 195.117 335.95 195.167Z" fill="#CBFFE6"/>
<path d="M158.373 235C159.04 235.017 159.307 235.483 159.457 236.084C159.824 237.501 160.124 238.935 160.557 240.319C163.559 249.805 170.095 255.274 179.8 257.074C180.116 257.141 180.584 257.316 180.834 257.499C181.201 257.766 181.567 257.908 181.667 258.308C181.817 258.908 181.35 259.275 180.767 259.425C179.049 259.842 177.315 260.175 175.648 260.709C168.411 263.043 163.609 267.928 161.058 275.031C160.441 276.731 160.04 278.515 159.557 280.266C159.524 280.416 159.49 280.549 159.457 280.699C159.307 281.283 158.99 281.683 158.34 281.666C157.689 281.666 157.423 281.216 157.273 280.649C156.806 278.899 156.405 277.098 155.822 275.397C153.537 268.778 149.302 263.893 142.716 261.292C140.615 260.459 138.364 260.025 136.179 259.458C135.529 259.292 135.029 259.058 135.029 258.325C135.029 257.574 135.546 257.341 136.196 257.208C139.081 256.658 141.899 255.907 144.533 254.573C150.019 251.806 153.621 247.388 155.672 241.686C156.322 239.902 156.739 238.018 157.223 236.184C157.373 235.567 157.589 235.05 158.373 235Z" fill="url(#paint6_linear_5369_7686)"/>
<path d="M258.357 96.666C258.841 96.6827 259.024 97.0158 259.124 97.4323C259.374 98.4485 259.591 99.4646 259.908 100.464C262.059 107.244 266.711 111.142 273.647 112.425C273.881 112.475 274.148 112.458 274.331 112.575C274.598 112.758 274.915 113.025 274.981 113.291C275.081 113.724 274.765 113.991 274.331 114.091C273.114 114.39 271.863 114.624 270.679 115.007C265.51 116.673 262.076 120.154 260.258 125.235C259.825 126.451 259.541 127.734 259.174 128.983C259.141 129.083 259.124 129.183 259.108 129.3C259.008 129.716 258.774 129.999 258.307 129.999C257.84 129.999 257.657 129.683 257.54 129.266C257.207 128.017 256.923 126.734 256.506 125.518C254.872 120.787 251.854 117.306 247.152 115.457C245.652 114.874 244.051 114.557 242.484 114.141C242.017 114.024 241.667 113.857 241.667 113.324C241.667 112.791 242.033 112.625 242.5 112.525C244.568 112.125 246.569 111.592 248.453 110.642C252.371 108.66 254.939 105.512 256.406 101.447C256.873 100.164 257.157 98.8316 257.507 97.5156C257.657 97.0658 257.807 96.6993 258.357 96.666Z" fill="url(#paint7_linear_5369_7686)"/>
<path opacity="0.7" d="M323.333 296.725C323.333 300.044 323.333 301.703 323.333 305.022C323.333 307.245 321.583 309.999 318.333 309.999H181.667C178.417 309.999 176.667 307.262 176.667 305.022C176.666 301.703 176.667 300.044 176.667 296.725C225.533 296.908 274.5 296.526 323.333 296.725Z" fill="url(#paint8_linear_5369_7686)"/>
<path d="M166.667 186.667L166.667 172.867C166.667 168.55 169.683 165 173.35 165H324.983C328.65 165 331.667 168.567 331.667 172.867V186.667H166.667Z" fill="url(#paint9_linear_5369_7686)"/>
<path d="M238.334 174.599C223.4 174.799 208.4 174.916 193.3 174.982C186.7 174.999 180.117 175.016 173.55 175.016C173.417 174.999 172.484 174.882 171.984 173.899C171.7 173.366 171.684 172.832 171.667 172.649C171.667 172.432 171.634 171.699 172.05 171.016C172.55 170.166 173.3 170.032 173.45 170.016C195.084 170.049 216.717 170.082 238.35 170.116C238.334 171.599 238.334 173.099 238.334 174.599Z" fill="url(#paint10_linear_5369_7686)"/>
<path d="M186.05 175H173.95C172.816 175 171.667 174 171.667 172.5C171.667 171.25 172.583 170 173.95 170H186.05C187.2 170 188.333 171 188.333 172.5C188.333 173.75 187.2 175 186.05 175Z" fill="#CBFFE6"/>
<path d="M199.471 175H195.529C194.431 175 193.333 174 193.333 172.5C193.333 171.25 194.215 170 195.529 170H199.471C200.569 170 201.667 171 201.667 172.5C201.65 173.75 200.785 175 199.471 175Z" fill="#CBFFE6"/>
<path fill-rule="evenodd" clip-rule="evenodd" d="M255 153.32C264.422 143.207 273.843 132.991 283.281 122.878C284.349 121.762 289.068 117.08 296.555 116.697C304.059 116.314 311.713 120.379 315.014 127.443C318.133 134.124 316.432 141.704 311.963 146.786C306.41 153.084 298.456 153.317 297.205 153.333C283.131 153.283 269.074 153.353 255 153.32Z" fill="url(#paint11_linear_5369_7686)"/>
<path fill-rule="evenodd" clip-rule="evenodd" d="M274.176 153.319C275.41 153.053 291.118 149.317 296.438 135.456C299.756 126.776 298.489 119.082 297.522 116.666C305.026 116.666 311.762 120.631 315.031 127.495C318.416 134.626 316.248 142.453 311.262 147.418C305.859 153.319 297.688 153.316 296.254 153.316C288.85 153.299 281.58 153.336 274.176 153.319Z" fill="url(#paint12_linear_5369_7686)"/>
<path fill-rule="evenodd" clip-rule="evenodd" d="M245 153.32C235.583 143.207 226.168 132.991 216.734 122.878C215.668 121.762 210.951 117.08 203.468 116.697C195.968 116.314 188.318 120.379 185.018 127.443C181.901 134.124 183.601 141.704 188.068 146.786C193.618 153.084 201.568 153.317 202.818 153.333C216.884 153.284 230.95 153.353 245 153.32Z" fill="url(#paint13_linear_5369_7686)"/>
<path fill-rule="evenodd" clip-rule="evenodd" d="M225 153.319C223.765 153.053 208.903 149.317 203.582 135.456C200.262 126.776 201.512 119.082 202.48 116.666C195.807 116.666 188.234 120.631 184.964 127.495C181.578 134.626 183.764 142.453 188.752 147.418C194.541 153.183 200.812 153.319 203.765 153.316C211.155 153.299 217.593 153.336 225 153.319Z" fill="url(#paint14_linear_5369_7686)"/>
<rect opacity="0.5" x="176.667" y="190" width="146.667" height="20" fill="url(#paint15_linear_5369_7686)"/>
<path d="M261.667 165H238.333V293.333H261.667V165Z" fill="url(#paint16_linear_5369_7686)"/>
</g>
</g>
</g>
<defs>
<linearGradient id="paint0_linear_5369_7686" x1="62.9678" y1="126.749" x2="221.242" y2="218.123" gradientUnits="userSpaceOnUse">
<stop stop-color="#8960FF" stop-opacity="0.54"/>
<stop offset="1" stop-color="#5173F4" stop-opacity="0"/>
</linearGradient>
<linearGradient id="paint1_linear_5369_7686" x1="102.506" y1="226.467" x2="102.506" y2="108.133" gradientUnits="userSpaceOnUse">
<stop stop-color="#8960FF" stop-opacity="0.71"/>
<stop offset="1" stop-color="#573982" stop-opacity="0"/>
</linearGradient>
<linearGradient id="paint2_linear_5369_7686" x1="192.506" y1="89.7913" x2="192.506" y2="106.458" gradientUnits="userSpaceOnUse">
<stop stop-color="#8960FF" stop-opacity="0.55"/>
<stop offset="1" stop-color="#573982" stop-opacity="0"/>
</linearGradient>
<linearGradient id="paint3_linear_5369_7686" x1="56.9063" y1="150.369" x2="123.269" y2="216.519" gradientUnits="userSpaceOnUse">
<stop stop-color="#2754FF" stop-opacity="0.82"/>
<stop offset="0.6042" stop-color="#B490D9" stop-opacity="0.38"/>
<stop offset="1" stop-color="#F81C97"/>
</linearGradient>
<linearGradient id="paint4_linear_5369_7686" x1="314.167" y1="168.333" x2="205.637" y2="316.908" gradientUnits="userSpaceOnUse">
<stop stop-color="#8960FF" stop-opacity="0.54"/>
<stop offset="0.481485" stop-color="#3827B7"/>
<stop offset="1" stop-color="#5173F4" stop-opacity="0"/>
</linearGradient>
<radialGradient id="paint5_radial_5369_7686" cx="0" cy="0" r="1" gradientUnits="userSpaceOnUse" gradientTransform="translate(322.653 220.807) rotate(92.3495) scale(15.9019 16.0184)">
<stop stop-color="#7781E0"/>
<stop offset="1" stop-color="#2D3FE0" stop-opacity="0"/>
</radialGradient>
<linearGradient id="paint6_linear_5369_7686" x1="180.47" y1="271.133" x2="144.687" y2="250.471" gradientUnits="userSpaceOnUse">
<stop offset="0.0848" stop-color="#2754FF" stop-opacity="0.82"/>
<stop offset="0.5734" stop-color="#B490D9" stop-opacity="0.38"/>
<stop offset="1" stop-color="#F81C97"/>
</linearGradient>
<linearGradient id="paint7_linear_5369_7686" x1="274.17" y1="122.454" x2="248.621" y2="107.69" gradientUnits="userSpaceOnUse">
<stop offset="0.0848" stop-color="#2754FF" stop-opacity="0.82"/>
<stop offset="0.5734" stop-color="#B490D9" stop-opacity="0.38"/>
<stop offset="1" stop-color="#F81C97"/>
</linearGradient>
<linearGradient id="paint8_linear_5369_7686" x1="250.023" y1="310.149" x2="250.023" y2="296.875" gradientUnits="userSpaceOnUse">
<stop offset="5.32779e-09" stop-color="#8960FF" stop-opacity="0.4"/>
<stop offset="1" stop-color="#573982" stop-opacity="0"/>
</linearGradient>
<linearGradient id="paint9_linear_5369_7686" x1="249.173" y1="164.812" x2="249.173" y2="190" gradientUnits="userSpaceOnUse">
<stop stop-color="#8960FF" stop-opacity="0.54"/>
<stop offset="1" stop-color="#5173F4" stop-opacity="0.58"/>
</linearGradient>
<linearGradient id="paint10_linear_5369_7686" x1="117.701" y1="172.503" x2="249.037" y2="172.503" gradientUnits="userSpaceOnUse">
<stop stop-color="#A373FF"/>
<stop offset="0.927" stop-color="#573982" stop-opacity="0"/>
</linearGradient>
<linearGradient id="paint11_linear_5369_7686" x1="285.125" y1="104.494" x2="286.204" y2="161.66" gradientUnits="userSpaceOnUse">
<stop stop-color="#8960FF"/>
<stop offset="0.756895" stop-color="#5173F4" stop-opacity="0"/>
</linearGradient>
<linearGradient id="paint12_linear_5369_7686" x1="295.365" y1="165.737" x2="295.364" y2="108.547" gradientUnits="userSpaceOnUse">
<stop stop-color="#2754FF" stop-opacity="0.5"/>
<stop offset="1" stop-color="#F81C97" stop-opacity="0.8"/>
</linearGradient>
<linearGradient id="paint13_linear_5369_7686" x1="214.884" y1="104.507" x2="213.804" y2="161.673" gradientUnits="userSpaceOnUse">
<stop stop-color="#8960FF"/>
<stop offset="0.767312" stop-color="#5173F4" stop-opacity="0"/>
</linearGradient>
<linearGradient id="paint14_linear_5369_7686" x1="204.631" y1="165.75" x2="204.631" y2="108.559" gradientUnits="userSpaceOnUse">
<stop stop-color="#2754FF" stop-opacity="0.5"/>
<stop offset="1" stop-color="#F81C97" stop-opacity="0.8"/>
</linearGradient>
<linearGradient id="paint15_linear_5369_7686" x1="250" y1="190" x2="250" y2="210" gradientUnits="userSpaceOnUse">
<stop stop-color="#311C5D"/>
<stop offset="1" stop-color="#311C5D" stop-opacity="0"/>
</linearGradient>
<linearGradient id="paint16_linear_5369_7686" x1="296.228" y1="148.576" x2="202.825" y2="309.283" gradientUnits="userSpaceOnUse">
<stop offset="0.1325" stop-color="#2754FF" stop-opacity="0.82"/>
<stop offset="1" stop-color="#F81C97" stop-opacity="0.8"/>
</linearGradient>
<clipPath id="clip0_5369_7686">
<rect width="400" height="400" fill="white"/>
</clipPath>
<clipPath id="clip1_5369_7686">
<rect width="400" height="400" fill="white"/>
</clipPath>
<clipPath id="clip2_5369_7686">
<rect width="400" height="400" fill="white"/>
</clipPath>
</defs>
</svg>
