<svg width="400" height="400" viewBox="0 0 400 400" fill="none" xmlns="http://www.w3.org/2000/svg">
<rect x="325" y="295" width="248.333" height="191.667" rx="8.33332" transform="rotate(-180 325 295)" fill="url(#paint0_linear_5369_7688)"/>
<rect x="311.667" y="281.666" width="191.667" height="161.667" rx="8.33332" transform="rotate(-180 311.667 281.666)" fill="url(#paint1_linear_5369_7688)"/>
<path d="M326.667 131.668H243.333C237.811 131.668 233.333 136.145 233.333 141.668V218.335C233.333 223.857 237.811 228.335 243.333 228.335H326.667C332.19 228.335 336.667 223.857 336.667 218.335V141.668C336.667 136.145 332.19 131.668 326.667 131.668Z" fill="url(#paint2_linear_5369_7688)"/>
<path d="M315.017 141.668H254.983C249.47 141.668 245 146.138 245 151.651V205.018C245 210.532 249.47 215.001 254.983 215.001H315.017C320.53 215.001 325 210.532 325 205.018V151.651C325 146.138 320.53 141.668 315.017 141.668Z" fill="url(#paint3_linear_5369_7688)"/>
<g clip-path="url(#clip0_5369_7688)">
<path d="M278.957 177.305C278.06 177.628 277.079 177.802 276.037 177.792C275.054 177.783 274.128 177.612 273.277 177.308C272.334 177.335 271.423 177.538 270.541 177.856C269.05 178.394 267.821 179.298 266.842 180.498C265.812 181.762 265.161 183.206 265.062 184.817C264.984 186.094 265.046 187.378 265.046 188.659H265.008C265.008 189.818 265.02 190.977 265 192.135C265 192.157 265.005 192.208 265.013 192.273C265.04 192.487 265.074 192.758 265.205 192.953C265.382 193.215 265.709 193.297 265.857 193.324H279.017C279.054 193.33 279.425 193.381 279.686 193.12C279.856 192.95 279.881 192.745 279.887 192.679C279.931 190.064 279.976 187.45 280.021 184.835C280.044 184.592 280.077 184.344 280.121 184.092C280.578 181.509 282.064 179.561 283.382 178.261C282.257 177.693 280.974 177.379 279.539 177.322C279.345 177.315 279.152 177.31 278.958 177.305H278.957Z" fill="white"/>
<path d="M303.325 188.662H303.291C303.291 187.38 303.348 186.096 303.276 184.819C303.186 183.208 302.589 181.763 301.644 180.501C300.746 179.302 299.62 178.397 298.252 177.858C297.385 177.517 296.487 177.308 295.554 177.307C295.273 177.307 294.992 177.305 294.711 177.303C293.812 177.628 292.826 177.804 291.782 177.794C290.833 177.785 289.935 177.625 289.108 177.341C288.404 177.413 287.72 177.596 287.054 177.858C285.686 178.397 284.56 179.301 283.662 180.501C282.717 181.764 282.121 183.208 282.03 184.819C281.958 186.096 282.015 187.38 282.015 188.662H281.981C281.981 189.821 281.992 190.979 281.973 192.138C281.973 192.159 281.978 192.21 281.985 192.275C282.01 192.489 282.041 192.761 282.161 192.955C282.323 193.218 282.623 193.3 282.759 193.327H290.267C290.379 193.342 290.465 193.33 290.481 193.327H294.823C294.839 193.33 294.925 193.342 295.037 193.327H302.545C302.681 193.3 302.98 193.218 303.143 192.955C303.263 192.761 303.294 192.489 303.318 192.275C303.326 192.21 303.331 192.16 303.331 192.138C303.313 190.979 303.323 189.82 303.323 188.662H303.325Z" fill="white"/>
<path d="M282.918 169.857C282.902 173.376 280.003 176.367 276.124 176.33C272.255 176.294 269.396 173.283 269.462 169.718C269.526 166.165 272.479 163.441 275.951 163.337C279.961 163.218 282.953 166.355 282.918 169.857V169.857Z" fill="white"/>
<path d="M298.589 169.857C298.572 173.376 295.673 176.367 291.794 176.33C287.925 176.294 285.067 173.283 285.132 169.718C285.197 166.165 288.15 163.441 291.622 163.337C295.631 163.218 298.623 166.355 298.589 169.857V169.857Z" fill="white"/>
</g>
<path opacity="0.565" d="M296.667 281.667H225.274C219.599 281.667 215 277.857 215 273.156V120" fill="url(#paint4_linear_5369_7688)" fill-opacity="0.58"/>
<path d="M67.4646 73.3477C113.709 72.7365 156.705 96.6401 180.01 135.917C203.312 175.195 203.312 223.759 180.01 263.036C156.705 302.313 113.707 326.217 67.4646 325.606" fill="url(#paint5_linear_5369_7688)" fill-opacity="0.67"/>
<path d="M67.4651 83.0499C110.259 82.4858 150.046 104.551 171.611 140.807C193.174 177.063 193.174 221.891 171.611 258.147C150.046 294.403 110.257 316.468 67.4651 315.904" fill="url(#paint6_linear_5369_7688)"/>
<path d="M63.3335 271.663C90.0086 272.01 114.81 258.429 128.253 236.114C141.694 213.798 141.694 186.207 128.253 163.891C114.81 141.576 90.0074 127.995 63.3335 128.342" fill="url(#paint7_linear_5369_7688)"/>
<mask id="path-13-inside-1_5369_7688" fill="white">
<path d="M63.3333 268.33C88.8229 268.661 112.522 255.712 125.367 234.435C138.211 213.157 138.211 186.849 125.367 165.572C112.522 144.294 88.8217 131.345 63.3333 131.676"/>
</mask>
<path d="M125.367 234.435L126.794 235.296L126.794 235.296L125.367 234.435ZM125.367 165.572L126.794 164.71L126.794 164.71L125.367 165.572ZM63.355 266.664C88.2717 266.987 111.41 254.329 123.94 233.573L126.794 235.296C113.634 257.096 89.374 270.335 63.3117 269.997L63.355 266.664ZM123.94 233.574C136.464 212.826 136.464 187.181 123.94 166.433L126.794 164.71C139.958 186.518 139.958 213.489 126.794 235.296L123.94 233.574ZM123.94 166.433C111.41 145.678 88.2706 133.019 63.355 133.343L63.3117 130.01C89.3728 129.671 113.633 142.911 126.794 164.71L123.94 166.433Z" fill="#151617" fill-opacity="0.55" mask="url(#path-13-inside-1_5369_7688)"/>
<ellipse cx="229.839" cy="266.066" rx="43.3777" ry="21.0446" transform="rotate(41.1722 229.839 266.066)" fill="url(#paint8_radial_5369_7688)"/>
<path d="M245.378 284.981C246.694 291.031 245.875 295.995 243.438 299.225C241.361 301.675 239.113 303.971 236.71 306.098C233.09 308.503 231.734 304.69 225.41 302.624C211.282 297.976 197.296 282.574 194.184 268.204C193.016 262.801 189.16 262.649 191.089 259.33C191.601 258.478 196.588 253.169 197.279 252.592C200.865 249.084 206.807 248.112 214.13 250.527C228.353 255.2 242.323 270.604 245.378 284.981Z" fill="url(#paint9_linear_5369_7688)"/>
<path d="M229.131 268.565C216.851 255.207 200.691 250.084 193.035 257.121C185.38 264.159 189.129 280.693 201.409 294.05C213.688 307.408 229.849 312.531 237.504 305.494C245.159 298.456 241.411 281.923 229.131 268.565Z" fill="url(#paint10_radial_5369_7688)"/>
<path d="M227.44 270.009C216.579 258.194 202.287 253.661 195.519 259.883C188.751 266.105 192.069 280.727 202.93 292.541C213.791 304.356 228.083 308.89 234.851 302.667C241.619 296.445 238.301 281.824 227.44 270.009Z" fill="url(#paint11_linear_5369_7688)"/>
<ellipse cx="259.401" cy="118.622" rx="23.0138" ry="15.5199" transform="rotate(148.342 259.401 118.622)" fill="url(#paint12_radial_5369_7688)"/>
<path d="M249.742 125.181C245.952 125.65 242.948 124.868 241.1 123.19C239.711 121.777 238.427 120.267 237.255 118.671C235.981 116.312 238.399 115.693 240.024 111.923C243.672 103.505 253.919 95.7763 262.922 94.6709C266.306 94.2563 266.616 91.8963 268.547 93.2674C269.041 93.6298 272.024 96.9912 272.339 97.448C274.293 99.8481 274.557 103.553 272.663 107.916C268.993 116.392 258.746 124.109 249.742 125.18L249.742 125.181Z" fill="url(#paint13_linear_5369_7688)"/>
<path opacity="0.78" d="M260.74 116.121C269.635 109.327 273.689 99.6857 269.795 94.5878C265.901 89.4899 255.533 90.8654 246.638 97.6601C237.743 104.455 233.688 114.096 237.583 119.193C241.477 124.291 251.844 122.916 260.74 116.121Z" fill="url(#paint14_linear_5369_7688)"/>
<path opacity="0.57" d="M259.947 115.003C267.815 108.993 271.402 100.467 267.959 95.9601C264.516 91.4529 255.347 92.671 247.479 98.6808C239.611 104.691 236.024 113.216 239.467 117.723C242.91 122.231 252.079 121.013 259.947 115.003Z" fill="url(#paint15_linear_5369_7688)"/>
<path d="M152.5 166.167C146.793 166.167 142.167 161.54 142.167 155.833C142.167 150.126 146.793 145.5 152.5 145.5C158.207 145.5 162.833 150.126 162.833 155.833C162.833 161.54 158.207 166.167 152.5 166.167Z" stroke="#603220" stroke-width="0.999999"/>
<path d="M162.5 211.167C156.793 211.167 152.167 206.54 152.167 200.833C152.167 195.126 156.793 190.5 162.5 190.5C168.207 190.5 172.833 195.126 172.833 200.833C172.833 206.54 168.207 211.167 162.5 211.167Z" stroke="#603220" stroke-width="0.999999"/>
<circle cx="152.5" cy="242.499" r="5.83333" fill="#272728"/>
<circle cx="162.5" cy="200.833" r="5.83333" fill="#AEAEAE"/>
<circle cx="152.5" cy="155.833" r="5.83333" fill="#AEAEAE"/>
<circle cx="122.5" cy="122.499" r="5.83333" fill="#1B1B1B"/>
<circle cx="122.5" cy="274.165" r="5.83333" fill="#1B1B1B"/>
<defs>
<linearGradient id="paint0_linear_5369_7688" x1="359.167" y1="314.321" x2="520.843" y2="336.335" gradientUnits="userSpaceOnUse">
<stop stop-color="#6C6C6C" stop-opacity="0.37"/>
<stop offset="1" stop-color="#676767" stop-opacity="0"/>
</linearGradient>
<linearGradient id="paint1_linear_5369_7688" x1="338.037" y1="297.963" x2="440.831" y2="297.494" gradientUnits="userSpaceOnUse">
<stop stop-color="#686868"/>
<stop offset="1" stop-color="#404040" stop-opacity="0"/>
</linearGradient>
<linearGradient id="paint2_linear_5369_7688" x1="285.32" y1="228.156" x2="285.32" y2="131.489" gradientUnits="userSpaceOnUse">
<stop stop-color="#75402C"/>
<stop offset="1" stop-color="#75402C" stop-opacity="0"/>
</linearGradient>
<linearGradient id="paint3_linear_5369_7688" x1="285.036" y1="141.389" x2="285.036" y2="214.722" gradientUnits="userSpaceOnUse">
<stop stop-color="#A45B3F"/>
<stop offset="1" stop-color="#843B26"/>
</linearGradient>
<linearGradient id="paint4_linear_5369_7688" x1="247.276" y1="275.438" x2="271.816" y2="256.631" gradientUnits="userSpaceOnUse">
<stop stop-color="#75402C"/>
<stop offset="1" stop-color="#121314" stop-opacity="0"/>
</linearGradient>
<linearGradient id="paint5_linear_5369_7688" x1="197.486" y1="199.464" x2="67.4646" y2="199.464" gradientUnits="userSpaceOnUse">
<stop stop-color="#515151" stop-opacity="0.697"/>
<stop offset="1" stop-color="#121314" stop-opacity="0"/>
</linearGradient>
<linearGradient id="paint6_linear_5369_7688" x1="187.784" y1="199.465" x2="67.4651" y2="199.465" gradientUnits="userSpaceOnUse">
<stop stop-color="#969696" stop-opacity="0.59"/>
<stop offset="1" stop-color="#121314" stop-opacity="0"/>
</linearGradient>
<linearGradient id="paint7_linear_5369_7688" x1="138.333" y1="200.01" x2="63.3335" y2="200.01" gradientUnits="userSpaceOnUse">
<stop stop-color="#969696"/>
<stop offset="1" stop-color="#121314" stop-opacity="0"/>
</linearGradient>
<radialGradient id="paint8_radial_5369_7688" cx="0" cy="0" r="1" gradientUnits="userSpaceOnUse" gradientTransform="translate(229.839 266.066) rotate(90) scale(21.0446 43.3777)">
<stop stop-color="#75402C"/>
<stop offset="1" stop-color="#333434" stop-opacity="0"/>
</radialGradient>
<linearGradient id="paint9_linear_5369_7688" x1="240.037" y1="289.118" x2="219.743" y2="252.259" gradientUnits="userSpaceOnUse">
<stop stop-color="#401F12"/>
<stop offset="0.515625" stop-color="#935238"/>
<stop offset="1" stop-color="#401F12"/>
</linearGradient>
<radialGradient id="paint10_radial_5369_7688" cx="0" cy="0" r="1" gradientUnits="userSpaceOnUse" gradientTransform="translate(200.832 266.668) rotate(50.7106) scale(59.2195 36.0804)">
<stop stop-color="#603220"/>
<stop offset="1" stop-color="#603220"/>
</radialGradient>
<linearGradient id="paint11_linear_5369_7688" x1="226.589" y1="304.031" x2="223.861" y2="261.596" gradientUnits="userSpaceOnUse">
<stop stop-color="#8D857C"/>
<stop offset="1" stop-color="#3A332B"/>
</linearGradient>
<radialGradient id="paint12_radial_5369_7688" cx="0" cy="0" r="1" gradientUnits="userSpaceOnUse" gradientTransform="translate(259.401 118.622) rotate(90) scale(15.5199 23.0138)">
<stop stop-color="#39170A"/>
<stop offset="0.895833" stop-color="#626262" stop-opacity="0"/>
</radialGradient>
<linearGradient id="paint13_linear_5369_7688" x1="247.5" y1="121.667" x2="271.283" y2="111.268" gradientUnits="userSpaceOnUse">
<stop stop-color="#401F12"/>
<stop offset="0.515625" stop-color="#935238"/>
<stop offset="1" stop-color="#401F12"/>
</linearGradient>
<linearGradient id="paint14_linear_5369_7688" x1="254.358" y1="107.15" x2="227.123" y2="111.395" gradientUnits="userSpaceOnUse">
<stop stop-color="#7D7D7D"/>
<stop offset="1" stop-color="#848484"/>
</linearGradient>
<linearGradient id="paint15_linear_5369_7688" x1="239.093" y1="112.571" x2="265.316" y2="113.276" gradientUnits="userSpaceOnUse">
<stop stop-color="#BCB09E"/>
<stop offset="1" stop-color="#2B261E"/>
</linearGradient>
<clipPath id="clip0_5369_7688">
<rect width="38.3333" height="30" fill="white" transform="translate(265 163.334)"/>
</clipPath>
</defs>
</svg>
