<svg width="400" height="400" viewBox="0 0 400 400" fill="none" xmlns="http://www.w3.org/2000/svg">
<path d="M81.6664 286.079V97.166C81.6664 91.366 86.408 86.666 92.258 86.666H321.075C326.925 86.666 331.666 91.366 331.666 97.166V286.166C331.666 291.966 326.925 296.666 321.075 296.666H92.2047C89.3897 296.653 86.6964 295.528 84.718 293.541C82.7414 291.554 81.643 288.869 81.6664 286.079Z" fill="url(#paint0_linear_5369_7680)"/>
<path d="M341.666 113.373V269.96C341.466 275.693 336.704 280.183 331.019 279.993H108.979C103.296 280.183 98.5325 275.693 98.3325 269.96V113.373C98.5325 107.64 103.296 103.15 108.979 103.34H331.019C336.703 103.15 341.466 107.64 341.666 113.373Z" fill="url(#paint1_linear_5369_7680)"/>
<path d="M343.333 121.668H260C254.477 121.668 250 126.145 250 131.668V208.335C250 213.857 254.477 218.335 260 218.335H343.333C348.856 218.335 353.333 213.857 353.333 208.335V131.668C353.333 126.145 348.856 121.668 343.333 121.668Z" fill="url(#paint2_linear_5369_7680)"/>
<path d="M331.683 131.668H271.65C266.136 131.668 261.667 136.138 261.667 141.651V195.018C261.667 200.532 266.136 205.001 271.65 205.001H331.683C337.197 205.001 341.667 200.532 341.667 195.018V141.651C341.667 136.138 337.197 131.668 331.683 131.668Z" fill="url(#paint3_linear_5369_7680)"/>
<g clip-path="url(#clip0_5369_7680)">
<path d="M303.338 186.668H300.946C300.862 186.654 300.778 186.636 300.692 186.627C299.729 186.534 298.758 186.483 297.801 186.341C294.204 185.804 290.825 184.631 287.705 182.765C282.918 179.903 279.334 175.97 277.06 170.883C276.927 170.587 276.798 170.288 276.667 169.991C276.667 169.957 276.667 169.922 276.667 169.888C276.698 169.817 276.735 169.749 276.762 169.678C277.928 166.503 279.623 163.636 281.82 161.056C287.962 153.842 297.379 150.43 306.744 152.075C312.208 153.035 316.971 155.427 321.006 159.209C324.116 162.124 326.357 165.589 327.544 169.693C327.587 169.838 327.586 170.018 327.541 170.162C326.631 173.071 325.092 175.626 322.996 177.831C317.973 183.113 311.724 185.87 304.498 186.567C304.112 186.605 303.724 186.635 303.338 186.669V186.668ZM289.328 169.159C289.331 176.178 295.074 181.888 302.131 181.89C309.207 181.891 314.965 176.175 314.957 169.154C314.949 162.134 309.209 156.44 302.14 156.441C295.075 156.441 289.324 162.15 289.328 169.159Z" fill="white"/>
<path d="M302.91 159.885C301.624 162.601 301.831 165.166 304 167.316C306.168 169.463 308.749 169.675 311.486 168.401C311.84 170.798 310.812 174.821 307.072 177.124C303.393 179.39 298.567 178.828 295.479 175.762C292.391 172.697 291.84 167.859 294.147 164.224C296.465 160.571 300.467 159.541 302.909 159.884L302.91 159.885Z" fill="white"/>
<circle cx="307.5" cy="164.168" r="2.5" fill="white"/>
</g>
<path d="M155.723 40C185.373 70.0817 185.153 118.347 155.23 148.158C125.307 177.97 76.8598 178.19 46.6665 148.65" fill="url(#paint4_linear_5369_7680)"/>
<path fill-rule="evenodd" clip-rule="evenodd" d="M147.135 176.713C147.135 176.713 141.555 220.795 157.84 285.767C158.163 287.007 157.511 288.29 156.318 288.767C155.126 289.242 153.765 288.762 153.14 287.645C140.356 265.42 116.271 225.25 111.728 206.692C111.575 206.068 111.71 205.408 112.095 204.892C112.478 204.377 113.075 204.058 113.718 204.025C115.998 204.003 118.258 203.605 120.408 202.85C122.266 202.057 123.705 200.522 124.375 198.622C125.043 196.722 124.883 194.628 123.93 192.852C122.506 190.642 122.15 187.913 122.961 185.415C125.585 178.468 147.135 171.748 147.135 176.715V176.713Z" fill="url(#paint5_linear_5369_7680)"/>
<path d="M186.667 190.833L176.667 204.999L166.667 190.833L176.667 176.666L186.667 190.833Z" fill="url(#paint6_linear_5369_7680)"/>
<path d="M186.667 229.167L176.667 243.333L166.667 229.167L176.667 215L186.667 229.167Z" fill="#272729"/>
<path fill-rule="evenodd" clip-rule="evenodd" d="M205.786 176.713C205.786 176.713 211.368 220.795 195.081 285.767C194.76 287.007 195.411 288.29 196.603 288.767C197.796 289.242 199.156 288.762 199.783 287.645C212.566 265.42 236.65 225.25 241.193 206.692C241.346 206.068 241.213 205.408 240.826 204.892C240.443 204.377 239.848 204.058 239.205 204.025C236.925 204.003 234.663 203.608 232.513 202.85C230.663 202.048 229.231 200.513 228.563 198.617C227.896 196.718 228.051 194.63 228.993 192.852C230.423 190.645 230.785 187.915 229.978 185.415C227.338 178.468 205.786 171.748 205.786 176.715V176.713Z" fill="url(#paint7_linear_5369_7680)"/>
<path fill-rule="evenodd" clip-rule="evenodd" d="M200.151 162.214L181.071 143.431C179.642 141.974 179.642 139.663 181.071 138.204L200.151 119.421C201.246 118.354 202.886 118.038 204.309 118.621C205.732 119.203 206.661 120.569 206.664 122.088V159.498C206.701 161.033 205.781 162.434 204.346 163.034C202.909 163.634 201.246 163.309 200.151 162.216V162.214Z" fill="url(#paint8_linear_5369_7680)"/>
<path fill-rule="evenodd" clip-rule="evenodd" d="M153.181 119.424L172.261 138.119C173.689 139.577 173.689 141.889 172.261 143.347L153.181 162.215C152.084 163.309 150.423 163.632 148.986 163.032C147.549 162.434 146.631 161.032 146.668 159.497V122.002C146.706 120.499 147.646 119.164 149.063 118.604C150.479 118.044 152.096 118.365 153.179 119.424H153.181Z" fill="url(#paint9_linear_5369_7680)"/>
<path d="M181.666 133.332H171.666C170.745 133.332 169.999 134.078 169.999 134.999V146.665C169.999 147.586 170.745 148.332 171.666 148.332H181.666C182.586 148.332 183.332 147.586 183.332 146.665V134.999C183.332 134.078 182.586 133.332 181.666 133.332Z" fill="#121314"/>
<path fill-rule="evenodd" clip-rule="evenodd" d="M203.453 157.519L189.176 143.622C188.636 143.105 188.333 142.399 188.333 141.665C188.333 140.93 188.636 140.225 189.176 139.709L203.453 125.812C204.269 125.019 205.499 124.779 206.568 125.21C207.634 125.64 208.333 126.654 208.333 127.777V155.554C208.333 156.677 207.636 157.69 206.568 158.12C205.501 158.55 204.269 158.312 203.451 157.519H203.453Z" fill="url(#paint10_linear_5369_7680)"/>
<path fill-rule="evenodd" clip-rule="evenodd" d="M159.164 139.708C159.697 140.226 159.999 140.931 159.999 141.664C159.999 142.398 159.699 143.103 159.164 143.621L144.877 157.518C144.061 158.311 142.831 158.551 141.762 158.119C140.696 157.689 139.999 156.676 139.999 155.553V127.776C139.999 126.653 140.696 125.639 141.762 125.209C142.831 124.779 144.059 125.018 144.877 125.811L159.164 139.708Z" fill="url(#paint11_linear_5369_7680)"/>
<path fill-rule="evenodd" clip-rule="evenodd" d="M210.121 157.519L195.834 143.622C195.301 143.104 194.999 142.399 194.999 141.665C194.999 140.932 195.299 140.227 195.834 139.709L210.121 125.812C210.937 125.019 212.167 124.779 213.236 125.21C214.302 125.64 214.999 126.654 214.999 127.777V155.554C214.999 156.677 214.302 157.69 213.236 158.12C212.167 158.55 210.939 158.312 210.121 157.519Z" fill="url(#paint12_linear_5369_7680)"/>
<path d="M171.666 148.332H181.666C182.586 148.332 183.333 147.586 183.333 146.665V134.999C183.333 134.078 182.586 133.332 181.666 133.332H171.666C170.745 133.332 169.999 134.078 169.999 134.999V146.665C169.999 147.586 170.745 148.332 171.666 148.332Z" fill="url(#paint13_linear_5369_7680)"/>
<defs>
<linearGradient id="paint0_linear_5369_7680" x1="391.944" y1="117.578" x2="226.409" y2="242.256" gradientUnits="userSpaceOnUse">
<stop stop-color="#121314" stop-opacity="0"/>
<stop offset="1" stop-color="#272729"/>
</linearGradient>
<linearGradient id="paint1_linear_5369_7680" x1="251.426" y1="261.366" x2="163.955" y2="72.0291" gradientUnits="userSpaceOnUse">
<stop stop-color="#CCCCCC" stop-opacity="0"/>
<stop offset="0.72181" stop-color="#929292" stop-opacity="0.8"/>
<stop offset="1" stop-color="#6C6C6C" stop-opacity="0"/>
</linearGradient>
<linearGradient id="paint2_linear_5369_7680" x1="301.987" y1="218.156" x2="301.987" y2="121.489" gradientUnits="userSpaceOnUse">
<stop stop-color="#75402C"/>
<stop offset="1" stop-color="#75402C" stop-opacity="0"/>
</linearGradient>
<linearGradient id="paint3_linear_5369_7680" x1="301.703" y1="131.389" x2="301.703" y2="204.722" gradientUnits="userSpaceOnUse">
<stop stop-color="#A45B3F"/>
<stop offset="1" stop-color="#843B26"/>
</linearGradient>
<linearGradient id="paint4_linear_5369_7680" x1="155.733" y1="148.334" x2="100.99" y2="93.2689" gradientUnits="userSpaceOnUse">
<stop stop-color="#75402C"/>
<stop offset="1" stop-color="#121314" stop-opacity="0"/>
</linearGradient>
<linearGradient id="paint5_linear_5369_7680" x1="135.311" y1="155.639" x2="132.177" y2="236.193" gradientUnits="userSpaceOnUse">
<stop offset="0.00074" stop-color="#121314" stop-opacity="0"/>
<stop offset="1" stop-color="#272729"/>
</linearGradient>
<linearGradient id="paint6_linear_5369_7680" x1="186.743" y1="190.845" x2="166.743" y2="190.845" gradientUnits="userSpaceOnUse">
<stop stop-color="#5C3121"/>
<stop offset="1" stop-color="#A45B3F"/>
</linearGradient>
<linearGradient id="paint7_linear_5369_7680" x1="218.644" y1="155.698" x2="215.512" y2="236.193" gradientUnits="userSpaceOnUse">
<stop offset="0.00074" stop-color="#121314" stop-opacity="0"/>
<stop offset="1" stop-color="#272729"/>
</linearGradient>
<linearGradient id="paint8_linear_5369_7680" x1="179.957" y1="140.784" x2="206.664" y2="140.784" gradientUnits="userSpaceOnUse">
<stop stop-color="#121314" stop-opacity="0"/>
<stop offset="0.3" stop-color="#1B1C1D" stop-opacity="0.43"/>
<stop offset="0.7" stop-color="#242426" stop-opacity="0.85"/>
<stop offset="1" stop-color="#272729"/>
</linearGradient>
<linearGradient id="paint9_linear_5369_7680" x1="173.375" y1="140.784" x2="146.668" y2="140.784" gradientUnits="userSpaceOnUse">
<stop stop-color="#121314" stop-opacity="0"/>
<stop offset="0.3" stop-color="#1B1C1D" stop-opacity="0.43"/>
<stop offset="0.7" stop-color="#242426" stop-opacity="0.85"/>
<stop offset="1" stop-color="#272729"/>
</linearGradient>
<linearGradient id="paint10_linear_5369_7680" x1="188.338" y1="141.674" x2="208.333" y2="141.674" gradientUnits="userSpaceOnUse">
<stop stop-color="#75402C" stop-opacity="0.8"/>
<stop offset="1" stop-color="#121314" stop-opacity="0"/>
</linearGradient>
<linearGradient id="paint11_linear_5369_7680" x1="140.017" y1="141.674" x2="160.019" y2="141.674" gradientUnits="userSpaceOnUse">
<stop offset="0.11" stop-color="#CCCCCC" stop-opacity="0"/>
<stop offset="0.26" stop-color="#CCCCCC" stop-opacity="0.09"/>
<stop offset="0.57" stop-color="#CCCCCC" stop-opacity="0.32"/>
<stop offset="1" stop-color="#CCCCCC" stop-opacity="0.7"/>
</linearGradient>
<linearGradient id="paint12_linear_5369_7680" x1="214.999" y1="141.656" x2="195.015" y2="141.656" gradientUnits="userSpaceOnUse">
<stop offset="0.11" stop-color="#CCCCCC" stop-opacity="0"/>
<stop offset="0.26" stop-color="#CCCCCC" stop-opacity="0.09"/>
<stop offset="0.57" stop-color="#CCCCCC" stop-opacity="0.32"/>
<stop offset="1" stop-color="#CCCCCC" stop-opacity="0.7"/>
</linearGradient>
<linearGradient id="paint13_linear_5369_7680" x1="181.829" y1="146.965" x2="170.202" y2="136.052" gradientUnits="userSpaceOnUse">
<stop stop-color="#75402C"/>
<stop offset="0.13" stop-color="#75402C"/>
<stop offset="0.28" stop-color="#75402C" stop-opacity="0.42"/>
<stop offset="0.43" stop-color="#75402C" stop-opacity="0.27"/>
<stop offset="0.58" stop-color="#75402C" stop-opacity="0.15"/>
<stop offset="0.72" stop-color="#262419" stop-opacity="0.07"/>
<stop offset="0.87" stop-color="#171715" stop-opacity="0.02"/>
<stop offset="1" stop-color="#121314" stop-opacity="0"/>
</linearGradient>
<clipPath id="clip0_5369_7680">
<rect width="50.9091" height="35" fill="white" transform="translate(276.667 151.668)"/>
</clipPath>
</defs>
</svg>
