<svg width="400" height="400" viewBox="0 0 400 400" fill="none" xmlns="http://www.w3.org/2000/svg">
<rect x="329.386" y="290.002" width="241.667" height="178.333" rx="8.33333" transform="rotate(-180 329.386 290.002)" fill="url(#paint0_linear_5369_7681)"/>
<path opacity="0.7" d="M162.719 291.667H97.1542C91.9432 291.667 87.7192 287.465 87.7192 282.28V113.334" fill="url(#paint1_linear_5369_7681)"/>
<path d="M166.534 290.395H333.827C338.371 290.395 342.054 286.711 342.054 282.167V183.437C342.054 178.893 338.371 175.209 333.827 175.209L166.534 175.209C161.99 175.209 158.307 178.893 158.307 183.437V282.167C158.307 286.711 161.99 290.395 166.534 290.395Z" fill="url(#paint2_linear_5369_7681)"/>
<path d="M170.802 287.937L328.915 233.284C333.209 231.799 335.488 227.114 334.003 222.82L301.748 129.507C300.264 125.212 295.579 122.934 291.284 124.419L133.171 179.073C128.877 180.557 126.599 185.242 128.083 189.537L160.338 282.849C161.822 287.144 166.507 289.422 170.802 287.937Z" fill="url(#paint3_linear_5369_7681)"/>
<path d="M172.006 286.677L295.701 174.043C299.061 170.984 299.305 165.78 296.245 162.421L229.773 89.42C226.714 86.0603 221.51 85.8167 218.15 88.876L94.4551 201.509C91.0954 204.569 90.8518 209.772 93.9111 213.132L160.383 286.133C163.443 289.492 168.646 289.736 172.006 286.677Z" fill="url(#paint4_linear_5369_7681)"/>
<path opacity="0.71" d="M68.696 111.077C105.966 79.6048 161.223 84.3993 192.523 121.821C223.823 159.243 219.472 215.311 182.771 247.462" fill="url(#paint5_linear_5369_7681)"/>
<path d="M329.712 266.775C320.973 253.976 314.203 254.751 314.203 254.751C310.611 254.751 307.71 257.678 307.71 261.31C307.71 262.932 308.297 264.378 309.23 265.541C305.706 265.259 303.669 260.534 303.012 259.406L302.287 259.406L302.287 266.74L302.287 274.11L303.012 274.11C303.669 272.981 305.672 268.256 309.23 267.974C308.297 269.103 307.71 270.583 307.71 272.17C307.71 275.802 310.611 278.729 314.169 278.729C314.169 278.729 320.939 279.54 329.712 266.775Z" fill="#272729"/>
<path d="M315.647 209.95C303.337 200.534 297.151 203.392 297.151 203.392C293.74 204.518 291.902 208.206 293.04 211.655C293.548 213.195 294.559 214.384 295.809 215.197C292.375 216.033 288.959 212.185 287.983 211.319L287.294 211.546L289.592 218.511L291.901 225.509L292.59 225.282C292.86 224.005 293.282 218.89 296.572 217.507C296.04 218.871 295.946 220.462 296.443 221.968C297.581 225.417 301.254 227.287 304.632 226.173C304.632 226.173 311.315 224.821 315.647 209.95Z" fill="#272729"/>
<path d="M274.555 159.521C259.519 155.764 254.975 160.842 254.975 160.842C252.291 163.229 252.068 167.344 254.481 170.058C255.559 171.27 256.959 171.961 258.429 172.21C255.609 174.341 250.946 172.164 249.706 171.757L249.164 172.239L254.038 177.72L258.935 183.227L259.477 182.745C259.218 181.465 257.575 176.603 260.046 174.028C260.099 175.491 260.644 176.988 261.699 178.174C264.112 180.888 268.225 181.147 270.884 178.782C270.884 178.782 276.481 174.889 274.555 159.521Z" fill="#272729"/>
<path d="M116.029 218.144C131.259 221.015 135.498 215.68 135.498 215.68C138.038 213.14 138.02 209.019 135.452 206.45C134.305 205.304 132.868 204.696 131.385 204.533C134.076 202.241 138.858 204.141 140.12 204.475L140.633 203.962L135.447 198.776L130.236 193.565L129.723 194.078C130.057 195.34 131.981 200.098 129.665 202.813C129.526 201.355 128.895 199.893 127.773 198.771C125.204 196.203 121.083 196.185 118.568 198.701C118.568 198.701 113.207 202.914 116.029 218.144Z" fill="#272729"/>
<path d="M174.386 125.002H91.0522C85.5294 125.002 81.0522 129.479 81.0522 135.002V211.669C81.0522 217.191 85.5294 221.669 91.0522 221.669H174.386C179.908 221.669 184.386 217.191 184.386 211.669V135.002C184.386 129.479 179.908 125.002 174.386 125.002Z" fill="url(#paint6_linear_5369_7681)"/>
<path d="M162.735 135.002H102.702C97.1884 135.002 92.7188 139.472 92.7188 144.985V198.352C92.7188 203.866 97.1884 208.335 102.702 208.335H162.735C168.249 208.335 172.719 203.866 172.719 198.352V144.985C172.719 139.472 168.249 135.002 162.735 135.002Z" fill="url(#paint7_linear_5369_7681)"/>
<path d="M150.994 168.298C150.843 167.848 150.442 167.515 149.975 167.448L138.847 165.865L133.818 155.698C133.667 155.398 133.4 155.165 133.083 155.065C132.765 154.965 132.414 154.982 132.097 155.132C131.846 155.248 131.646 155.448 131.529 155.698L126.533 165.798L115.472 167.382C114.77 167.482 114.286 168.132 114.403 168.832C114.436 169.115 114.57 169.365 114.787 169.548L122.857 177.448L120.919 188.498C120.835 188.982 121.036 189.465 121.437 189.748C121.838 190.032 122.356 190.082 122.79 189.865L132.715 184.615L142.69 189.848C143.124 190.082 143.642 190.032 144.043 189.748C144.444 189.465 144.628 188.965 144.544 188.482L142.64 177.432L150.726 169.548C151.027 169.198 151.127 168.732 150.994 168.298Z" fill="white"/>
<defs>
<linearGradient id="paint0_linear_5369_7681" x1="362.635" y1="307.979" x2="519.703" y2="330.348" gradientUnits="userSpaceOnUse">
<stop stop-color="#6C6C6C" stop-opacity="0.37"/>
<stop offset="1" stop-color="#676767" stop-opacity="0"/>
</linearGradient>
<linearGradient id="paint1_linear_5369_7681" x1="119.386" y1="307.501" x2="173.528" y2="261.306" gradientUnits="userSpaceOnUse">
<stop stop-color="#75402C" stop-opacity="0.62"/>
<stop offset="1" stop-opacity="0"/>
</linearGradient>
<linearGradient id="paint2_linear_5369_7681" x1="152.136" y1="261.757" x2="272.397" y2="184.466" gradientUnits="userSpaceOnUse">
<stop stop-color="#121212"/>
<stop offset="0.479167" stop-color="#2E2E2E"/>
<stop offset="1" stop-color="#444444"/>
</linearGradient>
<linearGradient id="paint3_linear_5369_7681" x1="130.194" y1="236.231" x2="276.734" y2="131.507" gradientUnits="userSpaceOnUse">
<stop stop-color="#1B1B1B"/>
<stop offset="1" stop-color="#7A7A7A"/>
</linearGradient>
<linearGradient id="paint4_linear_5369_7681" x1="142.08" y1="275.196" x2="170.768" y2="130.373" gradientUnits="userSpaceOnUse">
<stop stop-color="#282828"/>
<stop offset="0.479167" stop-color="#595959"/>
<stop offset="1" stop-color="#A5A5A5"/>
</linearGradient>
<linearGradient id="paint5_linear_5369_7681" x1="192.773" y1="121.256" x2="123.927" y2="178.714" gradientUnits="userSpaceOnUse">
<stop stop-color="#75402C"/>
<stop offset="1" stop-color="#383838" stop-opacity="0"/>
</linearGradient>
<linearGradient id="paint6_linear_5369_7681" x1="133.039" y1="221.49" x2="133.039" y2="124.823" gradientUnits="userSpaceOnUse">
<stop stop-color="#75402C"/>
<stop offset="1" stop-color="#75402C" stop-opacity="0"/>
</linearGradient>
<linearGradient id="paint7_linear_5369_7681" x1="132.755" y1="134.723" x2="132.755" y2="208.056" gradientUnits="userSpaceOnUse">
<stop stop-color="#A45B3F"/>
<stop offset="1" stop-color="#843B26"/>
</linearGradient>
</defs>
</svg>
