<svg width="56" height="56" viewBox="0 0 56 56" fill="none" xmlns="http://www.w3.org/2000/svg">
<rect width="56" height="56" rx="28" fill="white"/>
<path d="M34.0608 36.4853C34.7302 37.1548 35.8157 37.1548 36.4851 36.4853C37.1546 35.8158 37.1546 34.7304 36.4851 34.0609L30.4242 28L36.4851 21.9391C37.1546 21.2696 37.1546 20.1842 36.4851 19.5147C35.8157 18.8453 34.7302 18.8452 34.0608 19.5147L27.9999 25.5756L21.9389 19.5147C21.2695 18.8452 20.184 18.8452 19.5146 19.5147C18.8451 20.1842 18.8451 21.2696 19.5146 21.9391L25.5755 28L19.5146 34.0609C18.8451 34.7304 18.8451 35.8158 19.5146 36.4853C20.184 37.1548 21.2695 37.1548 21.9389 36.4853L27.9999 30.4244L34.0608 36.4853Z" fill="#060606"/>
</svg>
