<svg width="56" height="56" viewBox="0 0 56 56" fill="none" xmlns="http://www.w3.org/2000/svg">
<rect width="56" height="56" rx="28" fill="#191919"/>
<path d="M26.2857 38.2857C26.2857 39.2325 27.0532 40 28 40C28.9468 40 29.7143 39.2325 29.7143 38.2857V29.7143H38.2857C39.2325 29.7143 40 28.9468 40 28C40 27.0532 39.2325 26.2857 38.2857 26.2857L29.7143 26.2857V17.7143C29.7143 16.7675 28.9468 16 28 16C27.0532 16 26.2857 16.7675 26.2857 17.7143V26.2857L17.7143 26.2857C16.7675 26.2857 16 27.0532 16 28C16 28.9468 16.7675 29.7143 17.7143 29.7143H26.2857V38.2857Z" fill="#676767"/>
</svg>
