<svg width="400" height="400" viewBox="0 0 400 400" fill="none" xmlns="http://www.w3.org/2000/svg">
<path d="M71.6664 306.081V117.168C71.6664 111.368 76.408 106.668 82.258 106.668H311.075C316.925 106.668 321.666 111.368 321.666 117.168V306.168C321.666 311.968 316.925 316.668 311.075 316.668H82.2047C79.3897 316.655 76.6964 315.53 74.718 313.543C72.7414 311.556 71.643 308.871 71.6664 306.081Z" fill="url(#paint0_linear_6134_3673)"/>
<path d="M331.666 133.373V289.96C331.466 295.693 326.705 300.183 321.02 299.993H98.9797C93.2963 300.183 88.533 295.693 88.333 289.96V133.373C88.533 127.64 93.2963 123.15 98.9797 123.34H321.02C326.703 123.15 331.466 127.64 331.666 133.373Z" fill="url(#paint1_linear_6134_3673)"/>
<path d="M333.332 141.668H249.999C244.476 141.668 239.999 146.145 239.999 151.668V228.335C239.999 233.857 244.476 238.335 249.999 238.335H333.332C338.855 238.335 343.332 233.857 343.332 228.335V151.668C343.332 146.145 338.855 141.668 333.332 141.668Z" fill="url(#paint2_linear_6134_3673)"/>
<path d="M321.683 151.668H261.649C256.136 151.668 251.666 156.138 251.666 161.651V215.018C251.666 220.532 256.136 225.001 261.649 225.001H321.683C327.196 225.001 331.666 220.532 331.666 215.018V161.651C331.666 156.138 327.196 151.668 321.683 151.668Z" fill="url(#paint3_linear_6134_3673)"/>
<path d="M309.942 184.962C309.791 184.512 309.39 184.179 308.922 184.112L297.795 182.529L292.765 172.362C292.615 172.062 292.348 171.829 292.03 171.729C291.713 171.629 291.362 171.646 291.045 171.796C290.794 171.912 290.593 172.112 290.476 172.362L285.481 182.462L274.42 184.046C273.718 184.146 273.233 184.796 273.35 185.496C273.384 185.779 273.518 186.029 273.735 186.212L281.805 194.112L279.867 205.162C279.783 205.646 279.984 206.129 280.385 206.412C280.786 206.696 281.304 206.746 281.738 206.529L291.663 201.279L301.638 206.512C302.072 206.746 302.59 206.696 302.991 206.412C303.392 206.129 303.576 205.629 303.492 205.146L301.587 194.096L309.674 186.212C309.975 185.862 310.075 185.396 309.942 184.962Z" fill="white"/>
<path d="M95 244.168C95 264.879 111.789 281.668 132.5 281.668H195.833C216.544 281.668 233.333 264.879 233.333 244.168V211.668C233.333 201.313 224.939 192.918 214.583 192.918H113.75C103.395 192.918 95 201.313 95 211.668V244.168Z" fill="url(#paint4_linear_6134_3673)"/>
<path d="M95 179.168C95 158.457 111.789 141.668 132.5 141.668H195.833C216.544 141.668 233.333 158.457 233.333 179.168V211.668C233.333 222.023 224.939 230.418 214.583 230.418H113.75C103.395 230.418 95 222.023 95 211.668V179.168Z" fill="url(#paint5_linear_6134_3673)"/>
<mask id="mask0_6134_3673" style="mask-type:alpha" maskUnits="userSpaceOnUse" x="95" y="141" width="139" height="90">
<path d="M95 179.168C95 158.457 111.789 141.668 132.5 141.668H195.833C216.544 141.668 233.333 158.457 233.333 179.168V211.668C233.333 222.023 224.939 230.418 214.583 230.418H113.75C103.395 230.418 95 222.023 95 211.668V179.168Z" fill="url(#paint6_linear_6134_3673)"/>
</mask>
<g mask="url(#mask0_6134_3673)">
<g opacity="0.1">
<path d="M261.667 119.04C250.413 121.124 238.36 120.482 227.399 117.131C219.636 114.757 212.627 111.103 204.396 105.135C201.026 102.692 198.806 101.333 195.024 99.397C179.658 91.5308 162.54 89.6146 145.891 93.8979C136.333 96.3565 130.087 99.5046 117.917 107.997C108.45 114.603 96.6188 118.85 84.4995 119.993C80.8421 120.338 74.4592 120.238 70 119.819V120.757C71.7827 120.91 73.9257 120.941 78.0145 120.941C84.6667 120.941 86.1681 120.857 89.347 120.305C100.61 118.35 110.309 114.413 118.911 108.305C127.237 102.394 132.211 99.5353 138.243 97.1934C156.916 89.9434 176.912 91.0163 194.881 100.232C198.171 101.92 199.898 103.027 208.795 109.156C216.891 114.734 227.4 118.79 238.051 120.45C243.12 121.24 254.798 121.16 259.76 120.301C260.401 120.19 261.037 120.073 261.667 119.95V119.04Z" fill="white" fill-opacity="0.7"/>
<path d="M261.667 128.259C255.986 129.316 250.12 129.674 244.099 129.325C231.348 128.587 218.833 124.362 208.784 117.405L202.773 113.24C194.097 107.221 184.736 103.541 173.013 101.54C168.395 100.752 157.359 100.831 152.565 101.687C144.33 103.156 138.236 105.17 131.274 108.72C127.909 110.436 125.453 112 117.632 117.406C107.475 124.427 95.0033 128.621 82.1323 129.343C78.0395 129.573 73.9847 129.463 70 129.022V129.94C75.5702 130.513 82.9861 130.434 87.9547 129.701C99.3894 128.014 109.45 124.105 118.419 117.865C125.668 112.822 128.405 111.075 131.774 109.346C139.389 105.435 147.951 102.897 156.589 101.99C161.142 101.511 169.975 101.807 174.397 102.586C184.351 104.339 194.045 108.233 201.913 113.639C210.908 119.819 212.604 120.91 215.657 122.476C225.992 127.779 236.396 130.26 248.416 130.288C252.956 130.298 257.375 129.916 261.667 129.142V128.259Z" fill="white" fill-opacity="0.7"/>
<path fill-rule="evenodd" clip-rule="evenodd" d="M261.667 137.479C253.909 138.957 245.906 139.132 237.909 137.94C225.998 136.164 216.353 132.117 205.49 124.336C200.838 121.004 197.957 119.256 193.745 117.207C180.633 110.831 165.842 108.638 151.997 111.016C141.763 112.774 131.321 117.031 123.313 122.712C117.51 126.827 113.759 129.213 110.391 130.93C102.968 134.713 95.5768 137.007 86.8187 138.244C83.3755 138.731 74.6704 138.724 70 138.29V139.15L73.186 139.509L70.7727 139.723C70.5145 139.746 70.2572 139.77 70 139.795V140.629C70.4915 140.587 70.9849 140.552 71.4824 140.522C84.7367 139.723 96.3726 142.033 107.834 147.738C112.241 149.931 119.03 154.169 119.246 154.861C119.326 155.122 114.85 158.199 113.805 158.602C113.542 158.703 111.852 157.998 109.728 156.901C97.2394 150.454 83.4796 147.838 70 149.077V149.941L70.6766 149.875C71.038 149.841 71.4013 149.809 71.7666 149.779C83.5096 148.825 97.2604 151.604 108.261 157.155C110.677 158.374 111.866 158.886 111.859 159.382C111.853 159.797 111.009 160.2 109.345 160.994L108.449 161.423C105.577 162.811 104.316 163.282 103.763 163.172C103.347 163.089 101.345 162.446 99.3143 161.742C91.8514 159.156 85.056 158.05 76.5941 158.043C74.296 158.041 72.116 158.123 70 158.297V159.12C70.4905 159.066 70.9769 159.016 71.4554 158.971C71.7516 158.944 72.0449 158.919 72.3342 158.895C78.2817 158.412 87.9037 159.351 94.0604 161.015C97.6488 161.985 102.297 163.583 102.297 163.846C102.297 164.394 93.9003 166.666 89.1799 167.396C86.6225 167.791 85.7116 167.813 83.3885 167.535C81.7399 167.338 77.6551 167.241 73.218 167.293L70 167.332V168.697C87.145 170.61 104.551 166.343 118.577 156.532C129.297 149.034 133.012 146.994 141.142 144.143C144.393 143.003 148.072 142.073 152.423 141.291C155.663 140.71 157.003 140.629 163.357 140.635C169.963 140.641 170.961 140.708 174.718 141.4C184.613 143.223 194.444 147.202 201.982 152.435C210.064 158.045 212.943 159.87 216.497 161.633C223.976 165.345 231.901 167.716 240.181 168.717C244.818 169.279 253.971 169.135 258.641 168.428C259.66 168.273 260.669 168.101 261.667 167.911V167.022C260.956 167.163 260.283 167.286 259.675 167.382C257.227 167.767 256.252 167.791 253.869 167.528C252.272 167.352 247.732 167.248 243.605 167.293C236.404 167.372 236.116 167.353 232.938 166.601C228.724 165.603 222.328 163.532 222.625 163.261C222.954 162.961 226.93 161.695 230.098 160.88C233.183 160.087 237.813 159.321 241.574 158.981C247.06 158.485 255.372 159.059 261.667 160.354V159.48C257.038 158.483 252.357 158.038 246.996 158.043C238.775 158.05 232.329 159.07 224.467 161.608L223.716 161.853C222.423 162.278 221.684 162.52 220.954 162.499C219.982 162.471 219.024 161.978 216.793 160.829L215.817 160.328L212.471 158.616L213.851 157.859C221.258 153.796 231.371 150.787 240.654 149.885C244.17 149.543 253.1 149.766 256.665 150.285C258.305 150.524 259.985 150.831 261.667 151.197V150.29C260.074 149.949 258.452 149.653 256.794 149.401C252.78 148.79 242.07 148.712 238.192 149.265C230.114 150.417 222.593 152.65 215.93 155.875C213.683 156.962 211.702 157.853 211.528 157.855C211.115 157.858 205.673 154.136 205.673 153.85C205.673 153.406 211.621 149.778 215.663 147.757C224.431 143.373 233.382 140.965 242.736 140.476C249.238 140.136 255.557 140.608 261.667 141.888V141.036C259.841 140.662 258.003 140.364 256.156 140.145C254.476 139.946 253.103 139.701 253.103 139.602C253.103 139.546 253.445 139.471 253.983 139.396C254.417 139.336 254.977 139.277 255.587 139.231C257.383 139.094 259.485 138.791 261.667 138.373V137.479ZM160.883 111.061C161.057 111.072 161.249 111.081 161.452 111.088C162.306 111.116 163.349 111.106 164.007 111.06C164.821 111.003 164.082 110.957 162.363 110.957C160.645 110.958 159.979 111.004 160.883 111.061ZM150.293 112.12C146.644 112.88 142.968 113.906 139.803 115.047L137.69 115.809L138.667 116.216C140.399 116.938 145.232 118.261 148.731 118.97C158.345 120.919 168.84 120.617 178.693 118.108C181.49 117.396 185.971 115.94 186.803 115.474C187.483 115.092 181.97 113.347 176.563 112.231L172.303 111.353L167.128 111.712C162.549 112.03 158.048 111.975 154.553 111.559C154.006 111.493 152.09 111.746 150.293 112.12ZM185.51 116.907C182.02 118.207 176.154 119.714 171.736 120.444C167.295 121.179 156.275 121.177 151.855 120.441C147.491 119.714 143.619 118.771 139.678 117.474L136.305 116.364L132.4 118.277C130.253 119.328 128.42 120.312 128.327 120.463C128.059 120.899 134.473 123.948 138.989 125.53C156.566 131.691 174.747 130.653 191.675 122.523C192.14 122.299 192.568 122.096 192.961 121.909C195.37 120.762 196.44 120.253 196.421 119.788C196.406 119.416 195.696 119.072 194.42 118.453C194.161 118.327 193.878 118.19 193.574 118.039L192.886 117.698C190.483 116.504 189.493 116.014 188.512 116.028C187.738 116.039 186.967 116.364 185.51 116.907ZM193.019 122.822C183.101 127.825 172.73 130.312 161.796 130.31C151.083 130.308 140.839 127.909 131.031 123.104L127.054 121.157L124.687 122.735C123.385 123.603 122.026 124.543 121.67 124.824L121.021 125.334L121.953 126.041C123.549 127.25 128.116 129.946 131.028 131.397C137.868 134.808 143.94 136.708 152.423 138.093C156.789 138.806 166.48 138.807 171.025 138.095C179.431 136.779 186.416 134.539 193.462 130.901C197.068 129.039 203.443 124.925 203.613 124.351C203.697 124.066 199.81 121.284 198.432 120.643C197.981 120.433 196.863 120.883 193.019 122.822ZM201.84 126.845C192.282 133.551 180.988 137.825 169.322 139.148L166.056 139.519L168.043 139.725C176.421 140.591 183.033 142.204 190.423 145.182C192.345 145.957 192.357 145.958 192.98 145.405C194.369 144.167 200.312 140.519 204.163 138.54C207.456 136.846 212.737 134.541 215.046 133.788C216.463 133.326 217.197 133.1 217.226 132.804C217.256 132.499 216.536 132.121 215.038 131.336L214.848 131.236C211.944 129.711 207.756 127.081 205.917 125.627C205.348 125.177 204.837 124.819 204.781 124.83C204.726 124.843 203.401 125.749 201.84 126.845ZM118.201 127.263C115.682 129.012 113.086 130.53 109.772 132.19L106.982 133.587L107.834 133.907C115.549 136.797 124.245 141.423 130.002 145.702L131.86 147.082L133.479 146.312C140.317 143.059 151.657 140.018 157.473 139.877C158.615 139.85 158.632 139.837 157.819 139.616C157.618 139.561 157.168 139.484 156.583 139.401C155.807 139.291 154.793 139.17 153.8 139.072C143.773 138.085 132.155 133.835 123.086 127.837C121.515 126.798 120.189 125.956 120.138 125.965C120.088 125.974 119.216 126.558 118.201 127.263ZM215.329 134.617C210.216 136.56 208.086 137.505 204.041 139.628C200.803 141.327 193.178 146.033 193.178 146.332C193.178 146.388 194.482 147.105 196.076 147.926C197.67 148.747 200.263 150.272 201.84 151.314L204.705 153.207L207.674 151.251C212.542 148.044 219.32 144.783 224.844 142.991C229.325 141.537 236.222 140.159 241.175 139.727L243.588 139.517L240.322 139.144C233.582 138.375 225.957 136.393 220.347 133.952C219.592 133.623 218.89 133.359 218.786 133.366C218.682 133.372 217.126 133.935 215.329 134.617ZM104.852 134.475C103.974 134.987 98.0552 136.838 94.7701 137.628C91.2198 138.482 85.7547 139.336 83.8439 139.336C83.2333 139.336 82.6548 139.465 82.5587 139.621C82.4526 139.792 82.8159 139.906 83.4646 139.906C85.2222 139.907 91.3969 140.994 94.9122 141.923C102.39 143.899 109.946 147.32 116.408 151.654L120.437 154.357L121.378 153.58C122.576 152.591 126.578 150.008 129.068 148.617L130.99 147.544L130.346 147.044C124.968 142.867 115.83 137.859 108.687 135.173C105.988 134.158 105.537 134.076 104.852 134.475ZM78.6531 168.311C79.0825 168.246 78.7311 168.193 77.8723 168.193C77.47 168.193 77.1797 168.204 77.0286 168.224C76.8564 168.245 76.8634 168.277 77.0916 168.311C77.521 168.377 78.2237 168.377 78.6531 168.311ZM249.197 168.308C249.548 168.24 249.261 168.185 248.558 168.185C248.275 168.185 248.06 168.194 247.926 168.209C247.728 168.232 247.709 168.268 247.919 168.308C248.122 168.348 248.401 168.364 248.668 168.358C248.862 168.354 249.049 168.337 249.197 168.308Z" fill="white" fill-opacity="0.7"/>
<path d="M261.667 176.24C260.807 176.404 259.931 176.558 259.033 176.702C253.671 177.56 243.703 177.627 238.618 176.838C230.065 175.512 223.133 173.306 215.898 169.611C212.646 167.95 210.555 166.612 202.426 160.985C200.874 159.911 199.277 158.864 198.876 158.66C198.636 158.537 198.214 158.303 197.761 158.044C197.462 157.872 197.15 157.689 196.869 157.521C194.716 156.227 189.247 153.848 185.51 152.578C172.809 148.265 158.919 147.708 146.233 151.005C137.946 153.158 129.715 156.909 123.385 161.416C112.979 168.825 106.498 172.203 98.0361 174.63C90.8584 176.688 85.8738 177.36 77.8723 177.35C74.7034 177.346 72.2781 177.268 70 177.043V177.916C75.5582 178.407 83.915 178.352 88.0969 177.706C100.683 175.763 110.514 171.658 121.325 163.834C125.876 160.54 128.181 159.141 132.827 156.855C152.336 147.253 174.102 147.249 193.603 156.844C198.222 159.116 200.504 160.503 205.106 163.834C217.025 172.46 227.665 176.577 241.977 178.099C245.962 178.523 254.634 178.295 258.782 177.658C259.751 177.509 260.713 177.342 261.667 177.159V176.24Z" fill="white" fill-opacity="0.7"/>
<path d="M261.667 185.493C260.858 185.648 260.039 185.792 259.208 185.925C254.699 186.652 244.687 186.8 240.03 186.208C227.182 184.576 216.695 180.404 205.944 172.645C201.075 169.132 198.225 167.387 193.887 165.266C175.635 156.339 154.981 155.738 136.177 163.588C130.885 165.797 126.742 168.185 120.663 172.528C111.542 179.045 103.314 182.82 93.4188 185.029C86.2521 186.629 77.7382 187.037 70 186.233V187.129C75.8144 187.585 85.3954 187.416 89.6583 186.676C101.662 184.593 111.023 180.512 122.081 172.543C133.51 164.307 144.954 160.128 159.231 158.979C163.14 158.664 164.846 158.713 170.742 159.311C178.661 160.114 187.894 162.954 195.45 166.911C197.689 168.084 201.357 170.468 208.813 175.598C217.695 181.707 229.465 185.988 240.666 187.184C244.23 187.564 252.637 187.562 256.167 187.179C258.024 186.978 259.857 186.709 261.667 186.373V185.493Z" fill="white" fill-opacity="0.7"/>
<path d="M261.667 194.678C251.093 196.692 240.15 196.279 229.53 193.348C224.441 191.943 222.303 191.126 217.151 188.618C212.929 186.562 210.207 184.861 202.55 179.496C189.699 170.491 171.633 165.869 156.284 167.661C142.494 169.271 131.397 173.73 120.017 182.236C106.104 192.636 87.7065 197.392 70 195.466V196.348C77.4369 197.176 85.038 196.888 92.1296 195.441C95.4567 194.762 101.073 193.163 103.667 192.154C107.606 190.624 114.75 186.861 117.917 184.649C129.77 176.368 134.824 173.686 143.619 171.008C150.369 168.952 155.359 168.25 163.215 168.25C173.113 168.25 180.203 169.637 189.54 173.399C195.23 175.691 197.961 177.311 208.514 184.644C211.993 187.062 218.587 190.494 222.956 192.162C235.103 196.798 248.777 197.945 261.667 195.59V194.678Z" fill="white" fill-opacity="0.7"/>
<path d="M261.667 203.951C257.706 204.714 253.909 204.981 248.416 204.981C240.635 204.981 236.257 204.445 229.996 202.724C220.994 200.249 213.901 196.82 206.018 191.13C200.608 187.225 197.273 185.222 192.588 183.064C177.312 176.028 160.939 174.659 144.692 179.062C137.435 181.028 128.776 185.15 122.603 189.578C115.58 194.614 113.532 195.881 108.545 198.267C96.6939 203.937 83.3735 206.133 70 204.666V205.571C74.5272 205.988 81.3105 206.085 84.8468 205.724C97.5427 204.426 109.094 200.171 118.933 193.169C127.493 187.076 132.815 184.075 139.29 181.689C154.87 175.947 170.692 175.84 186.362 181.37C192.824 183.651 198.471 186.732 205.873 192.02C216.269 199.447 225.7 203.33 238.23 205.343C242.627 206.049 254.207 206.042 258.782 205.329C259.75 205.178 260.712 205.01 261.667 204.824V203.951Z" fill="white" fill-opacity="0.7"/>
<path d="M261.667 213.151C260.859 213.308 260.04 213.456 259.208 213.594C254.724 214.338 242.101 214.338 237.624 213.593C226.535 211.747 215.477 207.283 207.52 201.44C198.293 194.664 191.258 191.036 182.371 188.471C170.619 185.078 157.818 184.879 146.117 187.908C137.864 190.045 129.043 194.11 122.852 198.629C110.802 207.426 102.543 211.104 89.5893 213.442C84.7658 214.313 75.9225 214.487 70 213.88V214.804C83.6687 216.327 97.5086 213.93 109.823 207.791C114.109 205.654 117.516 203.561 121.379 200.689C134.803 190.709 151.393 185.617 167.049 186.67C177.115 187.347 185.583 189.642 194.433 194.091C198.035 195.903 200.904 197.691 205.605 201.057C207.677 202.54 210.169 204.237 211.144 204.829C226.375 214.065 244.399 217.246 261.667 214.019V213.151Z" fill="white" fill-opacity="0.7"/>
<path fill-rule="evenodd" clip-rule="evenodd" d="M261.667 222.344C258.856 222.854 255.922 223.208 252.764 223.432C237.783 224.492 220.912 219.946 208.993 211.637C196.636 203.024 191.69 200.412 182.886 197.847C170.027 194.101 157.559 194.017 144.454 197.59C137.01 199.619 128.475 203.735 122.319 208.263C116.252 212.726 109.604 216.563 104.546 218.519C93.2006 222.908 81.5277 224.45 70 223.137V224.015L70.2462 224.041L73.7545 224.402L70.9139 224.617C70.6086 224.641 70.3043 224.666 70 224.693V225.481C70.4925 225.433 70.9869 225.388 71.4824 225.349C75.0647 225.067 81.9371 225.279 85.8258 225.793C93.4439 226.799 100.646 229.034 107.834 232.624C112.517 234.963 119.215 239.172 119.175 239.75C119.152 240.074 116.393 242.071 114.645 243.029L113.478 243.669L108.526 241.226C101.037 237.531 93.8622 235.335 85.3984 234.148C82.5677 233.751 74.5042 233.681 70 233.941V234.795C79.7231 233.83 90.0407 235.096 99.8889 238.472C103.32 239.647 111.438 243.4 111.986 244.064C112.212 244.337 111.622 244.752 109.491 245.818C108.701 246.213 107.827 246.63 107.066 246.98C106.806 247.099 106.56 247.21 106.335 247.31C105.936 247.486 105.604 247.626 105.379 247.711L104.059 248.208L100.747 247.042C91.3429 243.73 81.2054 242.286 72.186 242.974C71.4353 243.031 70.7077 243.093 70 243.161V243.969C70.7457 243.886 71.4393 243.821 72.0499 243.779C77.4099 243.412 86.0179 244.085 91.6272 245.311C95.757 246.214 102.297 248.298 102.297 248.712C102.297 248.988 97.5457 250.507 94.3437 251.254C89.0397 252.493 86.5394 252.751 83.2964 252.396C81.3796 252.186 77.8904 252.125 73.6894 252.228C72.5894 252.255 71.6656 252.276 70.8748 252.289C70.5635 252.294 70.2733 252.298 70 252.301V253.55C76.7873 254.301 83.7268 254.116 90.352 252.962C100.469 251.2 110.098 247.271 118.321 241.549C128.058 234.774 132.239 232.352 137.957 230.175C147.696 226.467 155.226 225.164 165.312 225.442C178.754 225.812 191.362 229.945 202.407 237.601C212.075 244.301 214.766 245.912 220.083 248.182C226.157 250.775 232.593 252.55 239.187 253.45C243.926 254.098 252.843 254.098 257.584 253.451C258.96 253.263 260.321 253.041 261.667 252.785V251.89C261.16 251.991 260.67 252.083 260.202 252.165C257.273 252.676 256.618 252.7 253.84 252.396C251.846 252.178 248.461 252.115 244.326 252.219C237.571 252.389 235.911 252.237 231.092 251.011C227.497 250.096 222.398 248.356 222.637 248.125C222.996 247.781 228.035 246.225 231.234 245.471C233.863 244.851 238.763 244.117 242.594 243.769C246.99 243.37 256.101 244.085 261.667 245.251V244.386C255.946 243.189 249.836 242.603 244.724 242.844C236.873 243.216 231.147 244.273 223.673 246.734L220.799 247.681L216.966 245.814C214.858 244.788 213.051 243.816 212.952 243.654C212.738 243.307 214.328 242.383 218.111 240.653C224.762 237.611 233.377 235.393 241.317 234.678C241.941 234.622 244.196 234.554 246.327 234.528C251.434 234.465 256.563 234.982 261.667 236.07V235.149C257.794 234.353 253.801 233.89 249.552 233.724C237.331 233.247 223.972 236.269 213.561 241.866C213.159 242.082 212.758 242.28 212.42 242.433C212.002 242.622 211.681 242.742 211.572 242.743C211.137 242.746 205.673 239.045 205.673 238.747C205.673 238.432 210.129 235.521 212.971 233.979C222.204 228.971 231.261 226.256 241.742 225.356C247.197 224.886 255.657 225.489 261.667 226.723V225.914C259.868 225.541 258.08 225.251 256.32 225.051C252.3 224.594 251.972 224.348 255.101 224.14C256.982 224.016 259.279 223.686 261.667 223.227V222.344ZM163.428 195.949C164.249 195.891 163.577 195.844 161.938 195.844C160.297 195.844 159.627 195.891 160.446 195.949C161.266 196.006 162.608 196.006 163.428 195.949ZM151.571 196.751C147.16 197.557 138.507 200.059 137.849 200.719C137.679 200.89 143.125 202.571 146.175 203.287C152.177 204.698 154.885 204.993 161.796 204.993C168.591 204.993 171.493 204.687 176.99 203.388C179.786 202.727 186.315 200.711 186.906 200.325C187.481 199.949 181.87 198.21 176.563 197.118L172.303 196.241L167.14 196.6C162.589 196.916 158.506 196.866 154.837 196.448C154.291 196.386 152.821 196.522 151.571 196.751ZM187.355 201.077C177.021 204.848 171.712 205.838 161.796 205.843C153.006 205.846 147.21 204.906 139.169 202.173L136.275 201.189L132.563 203.05C130.521 204.074 128.688 205.045 128.489 205.209C128.041 205.576 128.574 205.911 132.588 207.786C152.316 216.999 174.316 216.486 193.809 206.358C195.484 205.488 196.794 204.677 196.72 204.557C196.546 204.275 190.966 201.532 189.562 201.038C188.659 200.72 188.314 200.726 187.355 201.077ZM195.308 206.569C184.776 212.369 171.659 215.587 160.029 215.226C149.677 214.904 139.234 212.216 130.064 207.514L127.017 205.951L120.987 210.106L121.795 210.759C123.025 211.753 128.287 214.909 130.839 216.184C142.72 222.12 156.185 224.634 168.612 223.234C181.016 221.836 193.571 217.008 202.755 210.103C203.871 209.265 203.92 209.171 203.465 208.768C202.978 208.337 198.077 205.129 197.937 205.15C197.897 205.156 196.713 205.794 195.308 206.569ZM201.077 212.224C191.451 218.823 179.79 223.057 168.186 224.167L165.771 224.398L168.186 224.62C175.71 225.312 182.968 227.04 189.448 229.681L192.11 230.766L194.908 228.921C202.236 224.09 209.012 220.717 217.171 217.839C217.369 217.769 217.391 217.664 217.16 217.466C216.867 217.214 216.165 216.813 214.899 216.145C211.949 214.589 207.702 211.927 205.917 210.515C205.727 210.365 205.542 210.225 205.38 210.106C205.057 209.869 204.818 209.715 204.781 209.726C204.747 209.735 204.101 210.166 203.146 210.813C202.552 211.216 201.838 211.703 201.077 212.224ZM117.207 212.779C116.54 213.225 115.626 213.791 114.639 214.374C113.314 215.157 111.862 215.971 110.709 216.567L107.051 218.458L109.289 219.327C116.748 222.226 125.621 227.103 130.782 231.142L131.861 231.986L134.47 230.77C137.56 229.33 143.308 227.338 146.718 226.526C150.25 225.685 155.561 224.795 157.051 224.795C159.249 224.795 158.166 224.482 154.507 224.059C142.435 222.664 130.628 218.221 121.495 211.635C120.886 211.196 120.311 210.846 120.217 210.859C120.124 210.871 118.768 211.735 117.207 212.779ZM215.329 219.483C207.765 222.323 202.172 225.152 195.934 229.292L193.152 231.138L193.946 231.615C194.383 231.877 195.89 232.714 197.296 233.476C198.702 234.237 200.942 235.592 202.273 236.486L204.696 238.113L207.67 236.156C217.814 229.482 228.457 225.853 241.742 224.539C243.375 224.378 243.735 224.288 242.857 224.263C237.678 224.112 228.963 222.132 222.442 219.625C220.796 218.991 219.256 218.424 219.022 218.365C218.788 218.305 217.126 218.808 215.329 219.483ZM103.433 219.82C98.94 221.713 90.412 223.701 85.042 224.108C83.6067 224.217 82.4886 224.396 82.5567 224.508C82.5877 224.557 82.8029 224.619 83.1342 224.68C83.5436 224.756 84.1292 224.832 84.7618 224.886C85.9058 224.983 88.243 225.329 89.9546 225.655C99.5225 227.476 108.374 231.133 116.565 236.649C118.711 238.094 120.541 239.158 120.63 239.013C120.862 238.637 126.79 234.764 129.082 233.491L131.017 232.417L128.971 230.922C125.698 228.531 121.681 226.109 117.421 223.957C112.897 221.671 106.571 219.082 105.63 219.13C105.281 219.148 104.292 219.458 103.433 219.82Z" fill="white" fill-opacity="0.7"/>
<path d="M261.667 261.12C260.539 261.34 259.389 261.54 258.214 261.723C253.686 262.426 243.522 262.427 238.76 261.726C227.548 260.074 217.189 256.092 208.656 250.153C198.657 243.194 194.663 240.885 188.491 238.494C179.041 234.833 168.109 233.147 158.583 233.881C154.115 234.225 147.425 235.415 143.841 236.501C136.301 238.788 128.703 242.468 122.745 246.72C116.957 250.85 113.271 253.173 109.823 254.866C102.374 258.521 95.3256 260.669 86.8187 261.875C83.4075 262.358 74.8125 262.349 70 261.916V262.782L70.3443 262.823C79.1726 263.847 90.0477 262.874 98.4625 260.308C105.372 258.201 112.698 254.673 118.427 250.693C125.705 245.637 127.663 244.39 131.343 242.465C151.181 232.089 174.108 231.881 194.073 241.896C197.661 243.696 201.963 246.329 204.537 248.301C211.109 253.332 219.538 257.688 227.42 260.123C238.155 263.439 250.385 264.07 261.667 262.013V261.12Z" fill="white" fill-opacity="0.7"/>
<path d="M261.667 270.324C247.872 272.884 233.23 271.362 220.442 265.87C215.318 263.67 210.352 260.77 204.961 256.832C192.479 247.712 178.272 242.997 163.219 242.977C149.068 242.959 134.309 247.633 123.171 255.661C119.134 258.571 115.91 260.724 113.489 262.127C102.773 268.334 90.7614 271.512 78.0145 271.512C75.3089 271.512 72.6355 271.367 70 271.08V271.965C72.6124 272.234 75.3029 272.366 78.0945 272.366C83.7188 272.366 87.0909 272.053 91.9304 271.081C98.8069 269.7 104.152 267.85 110.391 264.691C114.938 262.389 116.131 261.65 121.467 257.833C127.548 253.482 133.059 250.447 138.742 248.319C154.791 242.306 170.811 242.204 186.93 248.011C192.764 250.112 198.424 253.129 203.77 256.988C215.732 265.622 224.803 269.564 237.624 271.698C242.087 272.44 254.404 272.446 259.052 271.707C259.933 271.567 260.805 271.415 261.667 271.249V270.324Z" fill="white" fill-opacity="0.7"/>
</g>
</g>
<path d="M149.6 181.804H163.505V185.299H158.3V192.334H154.805V185.299H149.6V181.804ZM164.456 192.334V181.819H167.951V192.334H164.456ZM169.173 181.819H180.798V184.729H172.668V185.659H180.273V188.464H172.668V189.424H180.798V192.334H169.173V181.819Z" fill="white"/>
<path d="M134.024 255.52H141.659V259H130.529V248.47H134.024V255.52ZM148.824 259C145.989 259 143.574 258.58 142.719 256.93C142.104 255.76 141.984 254.26 141.984 251.005V248.47H145.674C145.674 248.47 145.674 251.905 145.674 253.18C145.674 254.47 145.974 256.12 148.824 256.12C151.674 256.12 151.884 254.47 151.884 253.18C151.884 251.905 151.884 248.47 151.884 248.47H155.574V251.005C155.574 254.26 155.454 255.76 154.839 256.93C153.984 258.58 151.659 259 148.824 259ZM163.478 248.38C168.908 248.38 170.708 250.285 170.708 253.12H167.123C167.123 253.12 166.883 251.38 163.448 251.38C160.508 251.38 160.013 252.55 160.013 253.72C160.013 255.025 160.748 256.09 163.448 256.09C167.093 256.09 167.123 254.62 167.123 254.62H170.708C170.708 257.035 169.268 259.045 163.568 259.045C158.123 259.045 156.398 257.38 156.398 253.84C156.398 249.805 158.888 248.38 163.478 248.38ZM184.13 248.47L178.385 253.78L184.13 259H179.39L176.15 255.85L175.025 256.9V259H171.53V248.47H175.025V252.655L179.39 248.47H184.13ZM193.667 248.47H197.792L192.692 255.91V259H189.197V255.91L184.127 248.47H188.252L190.952 252.115L193.667 248.47Z" fill="white"/>
<ellipse cx="264.398" cy="291.507" rx="43.3777" ry="21.0446" transform="rotate(-48.8278 264.398 291.507)" fill="url(#paint7_radial_6134_3673)"/>
<path d="M283.313 275.97C289.363 274.654 294.327 275.473 297.557 277.91C300.007 279.986 302.303 282.234 304.43 284.638C306.835 288.257 303.022 289.614 300.956 295.938C296.308 310.066 280.906 324.052 266.536 327.164C261.133 328.332 260.981 332.187 257.662 330.258C256.81 329.747 251.501 324.76 250.924 324.069C247.416 320.483 246.445 314.541 248.859 307.218C253.532 292.995 268.936 279.025 283.313 275.97Z" fill="url(#paint8_linear_6134_3673)"/>
<path d="M266.896 292.213C253.538 304.493 248.415 320.654 255.452 328.309C262.49 335.964 279.024 332.215 292.381 319.936C305.739 307.656 310.862 291.495 303.825 283.84C296.787 276.185 280.254 279.934 266.896 292.213Z" fill="url(#paint9_radial_6134_3673)"/>
<path d="M268.341 293.906C256.526 304.767 251.993 319.059 258.215 325.827C264.437 332.595 279.059 329.277 290.873 318.416C302.688 307.555 307.222 293.263 300.999 286.495C294.777 279.727 280.156 283.045 268.341 293.906Z" fill="url(#paint10_linear_6134_3673)"/>
<ellipse cx="87.7296" cy="166.485" rx="24.7075" ry="16.662" transform="rotate(-136.658 87.7296 166.485)" fill="url(#paint11_radial_6134_3673)"/>
<path d="M78.2451 158.292C76.7055 154.492 76.6813 151.159 77.9086 148.777C78.9879 146.944 80.1969 145.193 81.5261 143.534C83.618 141.557 84.9324 143.893 89.2926 144.53C99.0365 145.974 109.898 154.453 113.546 163.482C114.917 166.876 117.45 166.542 116.565 168.925C116.326 169.539 113.669 173.565 113.283 174.019C111.337 176.713 107.568 178.015 102.517 177.264C92.708 175.814 81.858 167.332 78.2461 158.292L78.2451 158.292Z" fill="url(#paint12_linear_6134_3673)"/>
<path opacity="0.78" d="M90.697 167.176C100.215 174.512 111.339 176.038 115.544 170.583C119.748 165.128 115.441 154.759 105.923 147.423C96.4052 140.086 85.281 138.561 81.0765 144.015C76.8719 149.47 81.1792 159.839 90.697 167.176Z" fill="url(#paint13_linear_6134_3673)"/>
<path opacity="0.57" d="M91.6375 166.044C100.056 172.533 109.894 173.884 113.611 169.061C117.329 164.238 113.518 155.068 105.099 148.579C96.6809 142.09 86.8429 140.74 83.1256 145.562C79.4082 150.385 83.2192 159.555 91.6375 166.044Z" fill="url(#paint14_linear_6134_3673)"/>
<defs>
<linearGradient id="paint0_linear_6134_3673" x1="381.944" y1="137.58" x2="216.409" y2="262.258" gradientUnits="userSpaceOnUse">
<stop stop-color="#121314" stop-opacity="0"/>
<stop offset="1" stop-color="#272729"/>
</linearGradient>
<linearGradient id="paint1_linear_6134_3673" x1="241.426" y1="281.366" x2="153.955" y2="92.0291" gradientUnits="userSpaceOnUse">
<stop stop-color="#CCCCCC" stop-opacity="0"/>
<stop offset="0.72181" stop-color="#929292" stop-opacity="0.8"/>
<stop offset="1" stop-color="#6C6C6C" stop-opacity="0"/>
</linearGradient>
<linearGradient id="paint2_linear_6134_3673" x1="291.986" y1="238.156" x2="291.986" y2="141.489" gradientUnits="userSpaceOnUse">
<stop stop-color="#E58900"/>
<stop offset="1" stop-color="#7F4C00" stop-opacity="0"/>
</linearGradient>
<linearGradient id="paint3_linear_6134_3673" x1="291.702" y1="151.389" x2="291.702" y2="224.722" gradientUnits="userSpaceOnUse">
<stop stop-color="#7F4C00"/>
<stop offset="1" stop-color="#E58900"/>
</linearGradient>
<linearGradient id="paint4_linear_6134_3673" x1="162.245" y1="230.261" x2="162.245" y2="281.742" gradientUnits="userSpaceOnUse">
<stop stop-color="#7F4C00"/>
<stop offset="1" stop-color="#E58900"/>
</linearGradient>
<linearGradient id="paint5_linear_6134_3673" x1="164.167" y1="141.668" x2="164.167" y2="230.335" gradientUnits="userSpaceOnUse">
<stop stop-color="#A5A5A5"/>
<stop offset="0.487213" stop-color="#595959"/>
<stop offset="1" stop-color="#282828"/>
</linearGradient>
<linearGradient id="paint6_linear_6134_3673" x1="164.167" y1="141.668" x2="164.167" y2="230.335" gradientUnits="userSpaceOnUse">
<stop stop-color="#A5A5A5"/>
<stop offset="0.487213" stop-color="#595959"/>
<stop offset="1" stop-color="#282828"/>
</linearGradient>
<radialGradient id="paint7_radial_6134_3673" cx="0" cy="0" r="1" gradientUnits="userSpaceOnUse" gradientTransform="translate(264.398 291.507) rotate(90) scale(21.0446 43.3777)">
<stop stop-color="#FF9E00"/>
<stop offset="1" stop-color="#333434" stop-opacity="0"/>
</radialGradient>
<linearGradient id="paint8_linear_6134_3673" x1="285.833" y1="281.349" x2="251.614" y2="308.795" gradientUnits="userSpaceOnUse">
<stop stop-color="#A87A1D"/>
<stop offset="0.5" stop-color="#FFDD9A"/>
<stop offset="1" stop-color="#422A00"/>
</linearGradient>
<radialGradient id="paint9_radial_6134_3673" cx="0" cy="0" r="1" gradientUnits="userSpaceOnUse" gradientTransform="translate(264.999 320.512) rotate(-39.2894) scale(59.2195 36.0804)">
<stop stop-color="#4F3A18"/>
<stop offset="1" stop-color="#56482F"/>
</radialGradient>
<linearGradient id="paint10_linear_6134_3673" x1="302.363" y1="294.757" x2="259.928" y2="297.486" gradientUnits="userSpaceOnUse">
<stop stop-color="#8D857C"/>
<stop offset="1" stop-color="#3A332B"/>
</linearGradient>
<radialGradient id="paint11_radial_6134_3673" cx="0" cy="0" r="1" gradientUnits="userSpaceOnUse" gradientTransform="translate(87.7296 166.485) rotate(90) scale(16.662 24.7075)">
<stop stop-color="#FFD693"/>
<stop offset="0.895833" stop-color="#626262" stop-opacity="0"/>
</radialGradient>
<linearGradient id="paint12_linear_6134_3673" x1="81.2653" y1="154.991" x2="98.6584" y2="176.765" gradientUnits="userSpaceOnUse">
<stop stop-color="#6F5B33"/>
<stop offset="0.515625" stop-color="#FCDA96"/>
<stop offset="1" stop-color="#362C19"/>
</linearGradient>
<linearGradient id="paint13_linear_6134_3673" x1="98.2275" y1="158.066" x2="86.2577" y2="131.002" gradientUnits="userSpaceOnUse">
<stop stop-color="#7D7D7D"/>
<stop offset="1" stop-color="#848484"/>
</linearGradient>
<linearGradient id="paint14_linear_6134_3673" x1="88.3645" y1="143.743" x2="94.9204" y2="171.132" gradientUnits="userSpaceOnUse">
<stop stop-color="#BCB09E"/>
<stop offset="1" stop-color="#2B261E"/>
</linearGradient>
</defs>
</svg>
