<svg width="400" height="400" viewBox="0 0 400 400" fill="none" xmlns="http://www.w3.org/2000/svg">
<path d="M81.6664 286.079V97.166C81.6664 91.366 86.408 86.666 92.258 86.666H321.075C326.925 86.666 331.666 91.366 331.666 97.166V286.166C331.666 291.966 326.925 296.666 321.075 296.666H92.2047C89.3897 296.653 86.6964 295.528 84.718 293.541C82.7414 291.554 81.643 288.869 81.6664 286.079Z" fill="url(#paint0_linear_6006_3857)"/>
<path d="M341.666 113.373V269.96C341.466 275.693 336.705 280.183 331.02 279.993H108.98C103.296 280.183 98.533 275.693 98.333 269.96V113.373C98.533 107.64 103.296 103.15 108.98 103.34H331.02C336.703 103.15 341.466 107.64 341.666 113.373Z" fill="url(#paint1_linear_6006_3857)"/>
<path d="M343.332 121.668H259.999C254.476 121.668 249.999 126.145 249.999 131.668V208.335C249.999 213.857 254.476 218.335 259.999 218.335H343.332C348.855 218.335 353.332 213.857 353.332 208.335V131.668C353.332 126.145 348.855 121.668 343.332 121.668Z" fill="url(#paint2_linear_6006_3857)"/>
<path d="M331.683 131.668H271.649C266.136 131.668 261.666 136.138 261.666 141.651V195.018C261.666 200.532 266.136 205.001 271.649 205.001H331.683C337.196 205.001 341.666 200.532 341.666 195.018V141.651C341.666 136.138 337.196 131.668 331.683 131.668Z" fill="url(#paint3_linear_6006_3857)"/>
<g clip-path="url(#clip0_6006_3857)">
<path d="M303.338 186.668H300.946C300.861 186.654 300.777 186.636 300.692 186.627C299.728 186.534 298.758 186.483 297.801 186.341C294.203 185.804 290.825 184.631 287.705 182.765C282.917 179.903 279.334 175.97 277.059 170.883C276.927 170.587 276.797 170.288 276.666 169.991C276.666 169.957 276.666 169.922 276.666 169.888C276.698 169.817 276.735 169.749 276.761 169.678C277.927 166.503 279.622 163.636 281.819 161.056C287.962 153.842 297.379 150.43 306.744 152.075C312.207 153.035 316.971 155.427 321.006 159.209C324.116 162.124 326.356 165.589 327.544 169.693C327.586 169.838 327.586 170.018 327.54 170.162C326.631 173.071 325.092 175.626 322.995 177.831C317.972 183.113 311.724 185.87 304.498 186.567C304.111 186.605 303.724 186.635 303.338 186.669V186.668ZM289.327 169.159C289.33 176.178 295.073 181.888 302.13 181.89C309.207 181.891 314.964 176.175 314.956 169.154C314.949 162.134 309.208 156.44 302.139 156.441C295.074 156.441 289.324 162.15 289.327 169.159Z" fill="white"/>
<path d="M302.908 159.885C301.622 162.601 301.829 165.166 303.998 167.316C306.166 169.463 308.747 169.675 311.484 168.401C311.839 170.798 310.81 174.821 307.071 177.124C303.391 179.39 298.565 178.828 295.477 175.762C292.389 172.697 291.838 167.859 294.145 164.224C296.463 160.571 300.465 159.541 302.908 159.884L302.908 159.885Z" fill="white"/>
<circle cx="307.499" cy="164.168" r="2.5" fill="white"/>
</g>
<path d="M155.723 40C185.373 70.0817 185.153 118.347 155.229 148.158C125.306 177.97 76.8593 178.19 46.666 148.65" fill="url(#paint4_linear_6006_3857)"/>
<path fill-rule="evenodd" clip-rule="evenodd" d="M147.135 176.713C147.135 176.713 141.555 220.795 157.84 285.767C158.163 287.007 157.511 288.29 156.318 288.767C155.126 289.242 153.765 288.762 153.14 287.645C140.356 265.42 116.271 225.25 111.728 206.692C111.575 206.068 111.71 205.408 112.095 204.892C112.478 204.377 113.075 204.058 113.718 204.025C115.998 204.003 118.258 203.605 120.408 202.85C122.266 202.057 123.705 200.522 124.375 198.622C125.043 196.722 124.883 194.628 123.93 192.852C122.506 190.642 122.15 187.913 122.961 185.415C125.585 178.468 147.135 171.748 147.135 176.715V176.713Z" fill="url(#paint5_linear_6006_3857)"/>
<path d="M186.666 190.833L176.666 204.999L166.666 190.833L176.666 176.666L186.666 190.833Z" fill="url(#paint6_linear_6006_3857)"/>
<path d="M186.666 229.167L176.666 243.333L166.666 229.167L176.666 215L186.666 229.167Z" fill="#272729"/>
<path fill-rule="evenodd" clip-rule="evenodd" d="M205.786 176.713C205.786 176.713 211.367 220.795 195.081 285.767C194.759 287.007 195.411 288.29 196.602 288.767C197.796 289.242 199.156 288.762 199.782 287.645C212.566 265.42 236.649 225.25 241.192 206.692C241.346 206.068 241.212 205.408 240.826 204.892C240.442 204.377 239.847 204.058 239.204 204.025C236.924 204.003 234.662 203.608 232.512 202.85C230.662 202.048 229.231 200.513 228.562 198.617C227.896 196.718 228.051 194.63 228.992 192.852C230.422 190.645 230.784 187.915 229.977 185.415C227.337 178.468 205.786 171.748 205.786 176.715V176.713Z" fill="url(#paint7_linear_6006_3857)"/>
<path fill-rule="evenodd" clip-rule="evenodd" d="M200.15 162.214L181.07 143.431C179.642 141.974 179.642 139.663 181.07 138.204L200.15 119.421C201.245 118.354 202.885 118.038 204.309 118.621C205.732 119.203 206.66 120.569 206.664 122.088V159.498C206.7 161.033 205.78 162.434 204.345 163.034C202.909 163.634 201.245 163.309 200.15 162.216V162.214Z" fill="url(#paint8_linear_6006_3857)"/>
<path fill-rule="evenodd" clip-rule="evenodd" d="M153.18 119.424L172.26 138.119C173.689 139.577 173.689 141.889 172.26 143.347L153.18 162.215C152.084 163.309 150.422 163.632 148.985 163.032C147.549 162.434 146.63 161.032 146.667 159.497V122.002C146.705 120.499 147.645 119.164 149.062 118.604C150.479 118.044 152.095 118.365 153.179 119.424H153.18Z" fill="url(#paint9_linear_6006_3857)"/>
<path d="M181.666 133.332H171.666C170.745 133.332 169.999 134.078 169.999 134.999V146.665C169.999 147.586 170.745 148.332 171.666 148.332H181.666C182.586 148.332 183.332 147.586 183.332 146.665V134.999C183.332 134.078 182.586 133.332 181.666 133.332Z" fill="#121314"/>
<path fill-rule="evenodd" clip-rule="evenodd" d="M203.452 157.519L189.175 143.622C188.635 143.105 188.332 142.399 188.332 141.665C188.332 140.93 188.635 140.225 189.175 139.709L203.452 125.812C204.269 125.019 205.499 124.779 206.567 125.21C207.634 125.64 208.332 126.654 208.332 127.777V155.554C208.332 156.677 207.635 157.69 206.567 158.12C205.5 158.55 204.269 158.312 203.45 157.519H203.452Z" fill="url(#paint10_linear_6006_3857)"/>
<path fill-rule="evenodd" clip-rule="evenodd" d="M159.164 139.708C159.697 140.226 159.999 140.931 159.999 141.664C159.999 142.398 159.699 143.103 159.164 143.621L144.877 157.518C144.061 158.311 142.831 158.551 141.762 158.119C140.696 157.689 139.999 156.676 139.999 155.553V127.776C139.999 126.653 140.696 125.639 141.762 125.209C142.831 124.779 144.059 125.018 144.877 125.811L159.164 139.708Z" fill="url(#paint11_linear_6006_3857)"/>
<path fill-rule="evenodd" clip-rule="evenodd" d="M210.121 157.519L195.834 143.622C195.301 143.104 194.999 142.399 194.999 141.665C194.999 140.932 195.299 140.227 195.834 139.709L210.121 125.812C210.937 125.019 212.167 124.779 213.236 125.21C214.302 125.64 214.999 126.654 214.999 127.777V155.554C214.999 156.677 214.302 157.69 213.236 158.12C212.167 158.55 210.939 158.312 210.121 157.519Z" fill="url(#paint12_linear_6006_3857)"/>
<path d="M171.665 148.332H181.665C182.586 148.332 183.332 147.586 183.332 146.665V134.999C183.332 134.078 182.586 133.332 181.665 133.332H171.665C170.745 133.332 169.999 134.078 169.999 134.999V146.665C169.999 147.586 170.745 148.332 171.665 148.332Z" fill="url(#paint13_linear_6006_3857)"/>
<defs>
<linearGradient id="paint0_linear_6006_3857" x1="391.944" y1="117.578" x2="226.409" y2="242.256" gradientUnits="userSpaceOnUse">
<stop stop-color="#121314" stop-opacity="0"/>
<stop offset="1" stop-color="#272729"/>
</linearGradient>
<linearGradient id="paint1_linear_6006_3857" x1="251.426" y1="261.366" x2="163.955" y2="72.0291" gradientUnits="userSpaceOnUse">
<stop stop-color="#CCCCCC" stop-opacity="0"/>
<stop offset="0.72181" stop-color="#929292" stop-opacity="0.8"/>
<stop offset="1" stop-color="#6C6C6C" stop-opacity="0"/>
</linearGradient>
<linearGradient id="paint2_linear_6006_3857" x1="301.986" y1="218.156" x2="301.986" y2="121.489" gradientUnits="userSpaceOnUse">
<stop stop-color="#E58900"/>
<stop offset="1" stop-color="#7F4C00" stop-opacity="0"/>
</linearGradient>
<linearGradient id="paint3_linear_6006_3857" x1="301.702" y1="131.389" x2="301.702" y2="204.722" gradientUnits="userSpaceOnUse">
<stop stop-color="#7F4C00"/>
<stop offset="1" stop-color="#E58900"/>
</linearGradient>
<linearGradient id="paint4_linear_6006_3857" x1="155.732" y1="148.334" x2="100.99" y2="93.2689" gradientUnits="userSpaceOnUse">
<stop stop-color="#E58900"/>
<stop offset="1" stop-color="#121314" stop-opacity="0"/>
</linearGradient>
<linearGradient id="paint5_linear_6006_3857" x1="135.311" y1="155.639" x2="132.177" y2="236.193" gradientUnits="userSpaceOnUse">
<stop offset="0.00074" stop-color="#121314" stop-opacity="0"/>
<stop offset="1" stop-color="#272729"/>
</linearGradient>
<linearGradient id="paint6_linear_6006_3857" x1="181.667" y1="186.009" x2="173.645" y2="197.049" gradientUnits="userSpaceOnUse">
<stop stop-color="#D6AA5D"/>
<stop offset="1" stop-color="#967232"/>
</linearGradient>
<linearGradient id="paint7_linear_6006_3857" x1="218.644" y1="155.698" x2="215.512" y2="236.193" gradientUnits="userSpaceOnUse">
<stop offset="0.00074" stop-color="#121314" stop-opacity="0"/>
<stop offset="1" stop-color="#272729"/>
</linearGradient>
<linearGradient id="paint8_linear_6006_3857" x1="179.956" y1="140.784" x2="206.664" y2="140.784" gradientUnits="userSpaceOnUse">
<stop stop-color="#121314" stop-opacity="0"/>
<stop offset="0.3" stop-color="#1B1C1D" stop-opacity="0.43"/>
<stop offset="0.7" stop-color="#242426" stop-opacity="0.85"/>
<stop offset="1" stop-color="#272729"/>
</linearGradient>
<linearGradient id="paint9_linear_6006_3857" x1="173.375" y1="140.784" x2="146.667" y2="140.784" gradientUnits="userSpaceOnUse">
<stop stop-color="#121314" stop-opacity="0"/>
<stop offset="0.3" stop-color="#1B1C1D" stop-opacity="0.43"/>
<stop offset="0.7" stop-color="#242426" stop-opacity="0.85"/>
<stop offset="1" stop-color="#272729"/>
</linearGradient>
<linearGradient id="paint10_linear_6006_3857" x1="188.338" y1="141.674" x2="208.332" y2="141.674" gradientUnits="userSpaceOnUse">
<stop stop-color="#FAB44B" stop-opacity="0.8"/>
<stop offset="1" stop-color="#121314" stop-opacity="0"/>
</linearGradient>
<linearGradient id="paint11_linear_6006_3857" x1="140.017" y1="141.674" x2="160.019" y2="141.674" gradientUnits="userSpaceOnUse">
<stop offset="0.11" stop-color="#CCCCCC" stop-opacity="0"/>
<stop offset="0.26" stop-color="#CCCCCC" stop-opacity="0.09"/>
<stop offset="0.57" stop-color="#CCCCCC" stop-opacity="0.32"/>
<stop offset="1" stop-color="#CCCCCC" stop-opacity="0.7"/>
</linearGradient>
<linearGradient id="paint12_linear_6006_3857" x1="214.999" y1="141.656" x2="195.015" y2="141.656" gradientUnits="userSpaceOnUse">
<stop offset="0.11" stop-color="#CCCCCC" stop-opacity="0"/>
<stop offset="0.26" stop-color="#CCCCCC" stop-opacity="0.09"/>
<stop offset="0.57" stop-color="#CCCCCC" stop-opacity="0.32"/>
<stop offset="1" stop-color="#CCCCCC" stop-opacity="0.7"/>
</linearGradient>
<linearGradient id="paint13_linear_6006_3857" x1="181.828" y1="146.965" x2="170.201" y2="136.052" gradientUnits="userSpaceOnUse">
<stop stop-color="#D0AA66"/>
<stop offset="0.13" stop-color="#988563"/>
<stop offset="0.28" stop-color="#8D6331" stop-opacity="0.42"/>
<stop offset="0.43" stop-color="#615827" stop-opacity="0.27"/>
<stop offset="0.58" stop-color="#3E3A1E" stop-opacity="0.15"/>
<stop offset="0.72" stop-color="#262419" stop-opacity="0.07"/>
<stop offset="0.87" stop-color="#171715" stop-opacity="0.02"/>
<stop offset="1" stop-color="#121314" stop-opacity="0"/>
</linearGradient>
<clipPath id="clip0_6006_3857">
<rect width="50.9091" height="35" fill="white" transform="translate(276.666 151.668)"/>
</clipPath>
</defs>
</svg>
