<svg width="128" height="12" viewBox="0 0 128 12" fill="none" xmlns="http://www.w3.org/2000/svg">
<path id="Vector" opacity="0.3" d="M3.30594 5.05879H3.56024C4.196 5.05879 4.93348 5.05879 5.56924 5.05879C5.97612 5.05879 6.30672 4.98403 6.61188 4.73483C7.34936 4.18658 7.34936 3.16485 6.61188 2.69137C6.35758 2.54185 6.1287 2.36741 5.8744 2.36741C4.98434 2.29265 4.17057 2.36741 3.30594 2.29265V5.05879ZM3.30594 9.86838H3.56024C4.29772 9.86838 4.93348 9.86838 5.64553 9.86838C5.79811 9.86838 5.97612 9.86838 6.1287 9.86838C7.09506 9.71886 7.73081 8.84665 7.42565 7.89968C7.27307 7.27668 6.68817 6.95272 6.1287 6.80319C5.72182 6.72843 5.23864 6.72844 4.83176 6.72844C4.34858 6.72844 3.86541 6.72844 3.30594 6.72844V9.86838ZM0.0762898 0.473481C0.966351 0.473481 1.9327 0.473481 2.82276 0.473481C4.04342 0.473481 5.23864 0.473478 6.4593 0.548239C7.42565 0.548239 8.23942 0.872206 8.79889 1.64473C9.43464 2.51694 9.61266 3.4639 9.28206 4.48563C9.12948 4.95911 8.79889 5.28307 8.392 5.50735C8.23942 5.58211 8.1377 5.65687 7.98512 5.75655C8.31571 5.90607 8.62088 6.08051 8.87518 6.30479C9.51094 6.85304 9.84153 7.65048 9.84153 8.52268C9.84153 9.46965 9.51093 10.2671 8.7226 10.8901C8.16313 11.3636 7.50194 11.6128 6.78989 11.6875C6.53559 11.6875 6.30672 11.7623 6.05241 11.7623C4.11971 11.7623 2.18701 11.7623 0.254303 11.7623C0.178012 11.7623 0.101721 11.7623 0 11.7623V9.94313H0.890061V2.36741H0L0.0762898 0.473481ZM96.3809 5.83131C96.2283 6.62876 95.974 7.40128 95.8214 8.19872C95.5671 9.29521 95.2619 10.4166 95.0076 11.5131C95.0076 11.5879 95.0076 11.6626 94.8551 11.6626C94.1176 11.6626 93.4055 11.6626 92.6681 11.6626C92.5918 11.4134 92.5155 11.1891 92.5155 10.9399C91.956 8.97125 91.3965 6.97764 90.9134 5.00895C90.9134 4.85943 90.8371 4.75975 90.6591 4.75975C90.5065 4.75975 90.3285 4.75975 90.0996 4.75975V3.0901H93.5581V4.75975H92.6681C93.0749 6.4294 93.4818 8.07413 93.8887 9.74378C93.965 9.59425 93.965 9.34505 94.0413 9.19553C94.4482 7.22684 94.8551 5.23323 95.3382 3.3393C95.3382 3.26454 95.4145 3.18977 95.4908 3.18977C96.1266 3.18977 96.7878 3.18977 97.4235 3.18977C97.5761 3.18977 97.5761 3.26454 97.5761 3.3393C98.0593 5.38275 98.4662 7.45112 98.9493 9.49457C98.9493 9.56933 98.9493 9.56933 99.0256 9.64409L100.145 4.73483H99.2545V3.06517H102.713V4.73483C102.56 4.73483 102.306 4.73483 102.154 4.73483C102.077 4.73483 102.001 4.73483 102.001 4.88435C101.442 7.02748 100.78 9.22045 100.221 11.3636C100.145 11.5131 100.145 11.6128 99.9666 11.6128C99.3308 11.6128 98.6696 11.6128 98.0339 11.6128C97.8813 11.6128 97.8813 11.6128 97.7795 11.4633C97.2964 9.64409 96.8895 7.82492 96.4063 5.93099C96.4572 5.90607 96.4572 5.90607 96.3809 5.83131ZM84.7592 2.66645C84.1998 4.3361 83.7166 5.90607 83.2334 7.57572H86.2088C85.7256 5.90607 85.2424 4.26134 84.7592 2.66645ZM90.1505 9.86838V11.6875H87.582C87.4294 11.1393 87.2514 10.5911 87.0988 10.0179C87.0225 9.76869 86.9462 9.54441 86.8445 9.29521C86.8445 9.22045 86.7682 9.22045 86.6919 9.22045C85.395 9.22045 84.1235 9.22045 82.9028 9.22045C82.7502 9.22045 82.7502 9.29521 82.7502 9.36997C82.4959 10.0927 82.3433 10.7904 82.1145 11.5131C82.1145 11.5879 82.1145 11.5879 82.0382 11.6626H79.368V9.84345C79.6223 9.84345 79.8512 9.84345 80.1055 9.84345C80.2581 9.84345 80.2581 9.84345 80.3598 9.69393C81.3261 6.60384 82.3688 3.61342 83.3351 0.523324C83.3351 0.373804 83.4114 0.373802 83.5894 0.373802C84.4032 0.373802 85.1915 0.373802 86.0816 0.373802C86.2342 0.373802 86.2342 0.448564 86.3359 0.523324C87.3785 3.53866 88.3449 6.60384 89.413 9.61918C89.4893 9.7687 89.4893 9.76869 89.6673 9.76869C89.6673 9.86837 89.9216 9.86838 90.1505 9.86838ZM121.786 6.30479L125.499 6.37956C125.499 5.43259 124.761 4.70991 123.795 4.70991C122.828 4.66006 121.862 5.43259 121.786 6.30479ZM127.991 7.89968H121.786C121.862 8.69712 122.116 9.39489 122.752 9.86838C123.312 10.2671 123.973 10.3419 124.685 10.1176C125.168 9.96806 125.422 9.64409 125.651 9.17061C125.727 9.09585 125.727 9.02109 125.905 9.02109C126.541 9.02109 127.279 9.02109 127.914 8.94633C127.914 9.09585 127.838 9.19553 127.838 9.27029C127.355 10.7655 126.312 11.6377 124.685 11.8869C123.718 12.0364 122.828 11.9617 121.938 11.4882C120.819 10.9399 120.082 9.99298 119.751 8.72205C119.421 7.22684 119.599 5.80639 120.565 4.53546C122.167 2.39233 125.575 2.49201 127.177 4.61023C127.66 5.43259 128.067 6.95271 127.991 7.89968ZM13.5544 6.30479L17.2672 6.37956C17.3435 5.50735 16.6314 4.80959 15.6651 4.70991C14.6733 4.5853 13.6306 5.35783 13.5544 6.30479ZM19.6068 7.89968H13.4018C13.4018 8.0492 13.4018 8.22365 13.4781 8.37317C13.5544 8.69713 13.6306 8.99617 13.8087 9.32013C14.2155 10.0428 14.9276 10.2671 15.7414 10.1923C16.4788 10.1176 16.962 9.71885 17.1909 9.09585C17.1909 9.02109 17.2672 9.02109 17.3435 9.02109C17.9792 9.02109 18.7167 8.94633 19.3525 8.94633H19.4288C19.3525 9.41981 19.1745 9.81853 18.9456 10.2173C18.3098 11.1642 17.4198 11.7125 16.2754 11.8869C15.309 12.0364 14.3427 11.9617 13.4526 11.4882C12.232 10.8652 11.5962 9.81853 11.2656 8.57253C11.0113 7.3016 11.113 6.05559 11.8251 4.93419C13.2746 2.49201 16.9874 2.24281 18.6913 4.61023C19.327 5.55719 19.6576 6.65368 19.6576 7.84984C19.6831 7.82492 19.6831 7.82492 19.6068 7.89968ZM108.943 7.65048C108.384 7.72524 107.825 7.72524 107.341 7.89968C106.934 7.97444 106.604 8.0492 106.222 8.22365C105.739 8.37317 105.587 8.77189 105.587 9.24537C105.587 9.71886 105.917 10.0428 106.4 10.1923C107.138 10.4415 108.003 10.1923 108.587 9.64409C109.045 9.07093 109.045 8.37316 108.943 7.65048ZM108.943 6.23003C108.943 5.98083 108.867 5.68179 108.867 5.43259C108.791 4.95911 108.46 4.63514 107.977 4.56038C107.647 4.48562 107.24 4.48562 106.934 4.56038C106.375 4.7099 105.968 5.03386 105.968 5.65687C105.968 5.73163 105.968 5.80639 105.968 5.90607L103.883 5.83131C103.883 5.43259 103.959 5.03387 104.213 4.73483C104.544 4.11182 105.103 3.63834 105.739 3.38914C107.036 2.91566 108.308 2.91565 109.605 3.4639C110.647 3.86262 111.13 4.73483 111.207 5.75655C111.283 6.70352 111.207 7.65048 111.207 8.67221C111.207 9.14569 111.207 9.61917 111.207 10.1674H111.944V11.8371H109.198V10.8901C109.121 10.9649 108.943 11.1393 108.867 11.2141C107.57 12.3105 105.409 12.2358 104.188 11.1393C103.145 10.1176 103.145 8.0492 104.747 7.27668C105.485 6.87795 106.197 6.72843 107.011 6.65367C107.647 6.57891 108.308 6.50415 109.02 6.40447C108.867 6.23003 108.867 6.23003 108.943 6.23003ZM44.1216 4.66006C44.4522 4.3361 44.6811 4.03706 45.0117 3.7131C45.7491 3.0901 46.5375 2.8409 47.5038 2.99042C48.2413 3.13994 48.6228 3.53866 48.8771 4.18658C48.9533 4.3361 48.9533 4.51054 49.0296 4.66006C49.1059 4.5853 49.1822 4.41086 49.2839 4.3361C49.6908 3.7131 50.2503 3.13994 51.0641 2.99042C51.8015 2.8409 52.5136 2.84089 53.0731 3.31438C53.5562 3.7131 53.7088 4.26134 53.8105 4.80958C53.8105 4.95911 53.8105 5.20831 53.8105 5.35783C53.8105 7.02748 53.8105 8.6722 53.8105 10.2671V10.5163H55.0312V11.538H52.6153V11.2888C52.6153 9.32013 52.6153 7.4262 52.6153 5.43259C52.6153 5.18339 52.6153 5.03387 52.539 4.80958C52.3864 4.01214 51.8015 3.61342 50.9369 3.86262C50.3012 4.01214 49.8943 4.41086 49.4874 4.95911C49.1568 5.43259 49.0042 5.98083 49.0042 6.52907C49.0042 7.8 49.0042 9.04601 49.0042 10.3169V10.5661H50.3012V11.5879H47.6564V11.3387C47.6564 9.36997 47.6564 7.37636 47.6564 5.40767C47.6564 5.15846 47.6564 4.93419 47.5801 4.68498C47.4275 4.2115 47.0969 3.9623 46.6138 3.88754C45.8763 3.81278 45.3931 4.13674 44.9099 4.61023C44.3505 5.23323 44.0199 5.88115 44.0962 6.75336C44.0962 7.94953 44.0962 9.12077 44.0962 10.3917V10.6409H45.3931V11.6626H41.7057V10.6409H42.9264V4.0869H41.7057V3.06517H44.2742C44.0453 3.61342 44.0453 4.11182 44.1216 4.66006ZM29.3466 7.10224H26.6764C26.6764 6.77828 26.6764 6.37955 26.7527 6.08051H30.7961V11.6128H29.5246V9.86838C29.4483 9.94314 29.4483 9.94313 29.4483 10.0179C28.6345 11.2141 27.5919 11.8371 26.1424 11.9118C25.0234 11.9118 24.1334 11.5131 23.2433 10.8153C22.277 9.94313 21.7175 8.84665 21.4632 7.65048C21.1326 6.08051 21.3106 4.48563 21.9464 2.99042C22.4295 1.96869 23.167 1.09649 24.2097 0.623003C25.9135 -0.174441 27.9988 0.149522 29.2194 1.89393C29.2194 1.96869 29.2957 1.96869 29.372 2.04345V0.299037H30.5927V3.86262H29.2703C29.194 3.38914 28.9397 2.99042 28.7108 2.59169C28.0751 1.71949 27.185 1.24601 26.1424 1.24601C25.176 1.24601 24.3622 1.71949 23.8028 2.44217C23.2433 3.06517 22.989 3.86262 22.8364 4.73483C22.6838 5.93099 22.7601 7.02748 23.167 8.12397C23.4213 8.74697 23.7265 9.32013 24.2859 9.79361C25.2523 10.6658 26.473 10.8153 27.5919 10.2671C28.7108 9.79361 29.4483 8.44793 29.3466 7.10224ZM63.5503 7.35144C63.5503 7.20192 63.5503 7.02748 63.5503 6.80319C63.4741 6.18019 63.296 5.53227 62.9909 4.98403C62.3551 4.11182 61.287 3.78786 60.3207 4.26135C59.4306 4.66007 58.5406 5.75655 58.7186 6.95272C58.7949 7.57572 58.7186 8.14888 58.8712 8.77188C59.0238 9.79361 60.0918 10.6658 61.1345 10.8153C62.0245 10.8901 62.8383 10.4166 63.2198 9.61918C63.3978 8.84665 63.5503 8.12397 63.5503 7.35144ZM57.3454 1.02173H56.2264V0H58.6423V4.90926C58.7186 4.8345 58.7186 4.75975 58.7949 4.75975C59.0492 4.36103 59.4306 3.9623 59.8375 3.66326C60.9565 2.86581 62.3297 2.86581 63.4741 3.81278C64.2878 4.43578 64.6947 5.30799 64.9236 6.25496C65.2542 7.6754 65.0762 9.02109 64.2878 10.292C63.8809 10.915 63.3215 11.4882 62.584 11.7872C61.4651 12.1859 60.1681 11.862 59.3543 10.9898C59.2018 10.7406 58.9475 10.5163 58.7186 10.2671V11.7623H56.2264V10.7406H57.4471V1.02173H57.3454ZM37.9929 7.35144C37.9166 7.35144 37.8403 7.35144 37.8403 7.35144C37.1028 7.4262 36.3908 7.60064 35.577 7.75016C35.0938 7.82493 34.6107 7.99936 34.2038 8.2984C33.9495 8.44792 33.7206 8.69713 33.7206 9.09585C33.568 10.0428 34.2801 10.9898 35.3227 11.0645C36.4416 11.1393 37.6623 10.2671 37.8912 9.17061C37.9929 8.44792 37.8912 7.89968 37.9929 7.35144ZM39.1118 10.7406H40.3325C40.3325 11.0645 40.4088 11.4633 40.4088 11.7623H37.9166V10.2671C37.8403 10.3419 37.8403 10.3419 37.8403 10.3419C37.2045 11.3636 36.2382 11.8371 35.0175 11.9118C33.9749 11.9866 33.1611 11.5879 32.6017 10.7157C32.1185 9.91822 31.9659 9.14569 32.4491 8.27348C32.7034 7.72524 33.1866 7.47604 33.746 7.25176C34.4835 6.9278 35.2718 6.77828 36.0856 6.62876C36.6451 6.554 37.3063 6.47924 37.942 6.37956C37.942 5.98084 37.942 5.50735 37.8657 5.10863C37.7132 4.48563 37.23 4.16166 36.6451 4.01214C36.1619 3.86262 35.6024 3.93738 35.1193 4.01214C34.4835 4.16166 34.0766 4.63514 33.8986 5.20831C33.8223 5.35783 33.8223 5.45751 33.568 5.45751C33.1611 5.45751 32.8305 5.45751 32.4491 5.45751C32.7034 4.43578 33.1866 3.7131 34.1529 3.23962C35.2718 2.76614 36.4162 2.76614 37.5351 3.23962C38.4252 3.63834 38.9084 4.3361 39.061 5.28307C39.061 5.53227 39.061 5.68179 39.061 5.90607C39.061 7.40128 39.061 8.82173 39.061 10.3419L39.1118 10.7406ZM71.7643 6.70352H76.5198C76.5198 5.98083 76.2655 5.43259 75.9603 4.88435C75.4772 4.26135 74.9177 3.93738 74.1039 4.0869C72.5781 4.26134 71.8661 5.35783 71.7643 6.70352ZM77.9948 7.65048H71.7135C71.7898 7.97444 71.7898 8.19872 71.8661 8.44793C71.9424 8.92141 72.1204 9.39489 72.4255 9.86838C73.0613 10.8153 74.5108 11.1393 75.4009 10.5911C75.8078 10.3419 76.0366 9.96805 76.2909 9.56933C76.3672 9.41981 76.4435 9.32013 76.6215 9.32013C77.0284 9.32013 77.4353 9.32013 77.8422 9.32013C77.7659 9.46965 77.7659 9.64409 77.6896 9.79361C77.1301 11.0645 75.6043 11.9367 74.1294 11.7623C72.1204 11.6128 70.7471 10.2671 70.4165 8.27348C70.1622 7.00255 70.3402 5.75655 71.0523 4.63515C71.6118 3.68818 72.5018 3.06518 73.6207 2.89074C75.2229 2.64154 76.6978 3.43898 77.4099 4.85943C77.8167 5.65687 77.9693 6.52908 77.9693 7.47604C77.9948 7.65048 77.9948 7.65048 77.9948 7.65048ZM115.962 10.0179H117.005V11.6875H112.961V10.0179H113.852V4.80958H112.961V3.13994H115.937V4.41086C116.013 4.3361 116.089 4.16166 116.089 4.0869C116.42 3.61342 116.827 3.13993 117.463 3.06517C117.946 2.91565 118.505 2.99041 118.988 3.06517L119.065 3.13994C119.065 3.76294 119.065 4.41086 119.065 5.03386C118.81 5.03386 118.582 4.95911 118.327 4.95911C117.691 4.88435 117.03 5.03387 116.547 5.43259C116.14 5.75655 115.988 6.23003 115.911 6.70352C115.911 7.72524 115.911 8.74697 115.911 9.86838C115.886 9.94314 115.886 9.94313 115.962 10.0179ZM66.8563 0.946962H65.6356V0H68.1278V10.6658H69.2467V11.6875H65.6356V10.6658H66.8563V0.946962Z" fill="white"/>
</svg>
