<svg width="32" height="32" viewBox="0 0 32 32" fill="none" xmlns="http://www.w3.org/2000/svg">
<circle cx="16" cy="16" r="16" fill="#1C1C1C"/>
<path fill-rule="evenodd" clip-rule="evenodd" d="M11.8198 8.22701C11.8198 9.22308 11.0614 10.0292 9.87532 10.0292C8.73548 10.0292 7.97706 9.22308 8.00053 8.22701C7.97706 7.18253 8.73547 6.3999 9.89804 6.3999C11.0614 6.3999 11.7971 7.18253 11.8198 8.22701ZM8.09589 23.0551V11.4529H11.7017V23.0544H8.09589V23.0551Z" fill="white"/>
<path fill-rule="evenodd" clip-rule="evenodd" d="M14.5918 15.1559C14.5918 13.7087 14.5441 12.475 14.4965 11.4547H17.6284L17.7949 13.0442H17.8661C18.3407 12.3085 19.5267 11.1943 21.4484 11.1943C23.8205 11.1943 25.6 12.7603 25.6 16.1754V23.057H21.9942V16.6273C21.9942 15.1317 21.4727 14.1121 20.1678 14.1121C19.171 14.1121 18.5783 14.8001 18.3414 15.464C18.246 15.7016 18.1991 16.0331 18.1991 16.3661V23.057H14.5933V15.1559H14.5918Z" fill="white"/>
</svg>
