<svg width="47" height="34" viewBox="0 0 47 34" fill="none" xmlns="http://www.w3.org/2000/svg">
<path d="M41.825 22.1064L39.8713 17.6286C34.4806 17.3126 29.0377 17.1513 23.549 17.1513C18.0277 17.1513 12.5521 17.3194 7.1418 17.6354L5.1881 22.1131C11.2126 21.7097 17.335 21.5013 23.549 21.5013C29.7303 21.4946 35.8266 21.703 41.825 22.1064ZM33.0235 1.91616L32.2459 0.14119C29.3578 0.0470635 26.4567 0 23.5425 0C20.6021 0 17.6683 0.0537868 14.7541 0.14119L13.983 1.91616C17.1456 1.80858 20.3342 1.73463 23.549 1.73463C26.7311 1.74135 29.8871 1.80858 33.0235 1.91616ZM38.2769 13.9644L34.4087 5.08958C30.8084 4.95511 27.1885 4.88116 23.549 4.88116C19.8768 4.88116 16.2308 4.95511 12.6043 5.0963L8.73613 13.9779C13.6302 13.7156 18.57 13.5812 23.5555 13.5812C28.4953 13.5745 33.409 13.7089 38.2769 13.9644ZM45.8173 31.2703C41.4787 30.9207 37.1008 30.6787 32.6837 30.5375L33.8141 33.1797C38.2639 33.3478 42.6613 33.6168 47 33.9865L45.8173 31.2703ZM43.2298 25.3269C36.7545 24.8697 30.1811 24.6344 23.549 24.6344C16.8842 24.6344 10.2847 24.8697 3.78326 25.3336L2.60058 28.0431C9.44835 27.5187 16.4464 27.243 23.549 27.243C30.6255 27.243 37.5909 27.5187 44.4125 28.0364L43.2298 25.3269ZM0 34C4.33213 33.6235 8.7296 33.3546 13.1728 33.1865L14.3097 30.5375C9.89921 30.6854 5.52134 30.9274 1.18268 31.277L0 34Z" fill="white"/>
</svg>
