<svg viewBox="0 0 940 914" fill="none" xmlns="http://www.w3.org/2000/svg">
<path d="M171.96 153L132.187 7.54545H150.085L180.483 126.011H181.903L212.869 7.54545H232.755L263.721 126.011H265.142L295.539 7.54545H313.437L273.664 153H255.483L223.38 37.0909H222.244L190.142 153H171.96ZM352.693 155.273C342.181 155.273 333.114 152.953 325.491 148.312C317.915 143.625 312.068 137.091 307.949 128.71C303.877 120.282 301.841 110.481 301.841 99.3068C301.841 88.1326 303.877 78.2841 307.949 69.7614C312.068 61.1913 317.797 54.5152 325.136 49.733C332.522 44.9034 341.14 42.4886 350.988 42.4886C356.67 42.4886 362.281 43.4356 367.821 45.3295C373.36 47.2235 378.403 50.3011 382.949 54.5625C387.494 58.7765 391.116 64.3636 393.815 71.3239C396.514 78.2841 397.863 86.8542 397.863 97.0341V104.136H313.772V89.6477H380.818C380.818 83.4924 379.587 78 377.125 73.1705C374.71 68.3409 371.253 64.5294 366.755 61.7358C362.305 58.9422 357.049 57.5455 350.988 57.5455C344.312 57.5455 338.536 59.2026 333.659 62.517C328.829 65.7841 325.112 70.0455 322.508 75.3011C319.904 80.5568 318.602 86.1913 318.602 92.2045V101.864C318.602 110.102 320.022 117.086 322.863 122.815C325.752 128.497 329.752 132.83 334.866 135.812C339.98 138.748 345.922 140.216 352.693 140.216C357.096 140.216 361.074 139.6 364.625 138.369C368.223 137.091 371.324 135.197 373.929 132.688C376.533 130.131 378.545 126.958 379.966 123.17L396.159 127.716C394.454 133.208 391.59 138.038 387.565 142.205C383.54 146.324 378.569 149.544 372.65 151.864C366.732 154.136 360.079 155.273 352.693 155.273ZM491.929 155.273C481.701 155.273 472.895 152.858 465.508 148.028C458.122 143.199 452.44 136.546 448.463 128.071C444.485 119.596 442.497 109.913 442.497 99.0227C442.497 87.9432 444.533 78.1657 448.605 69.6903C452.724 61.1676 458.453 54.5152 465.792 49.733C473.179 44.9034 481.796 42.4886 491.645 42.4886C499.315 42.4886 506.228 43.9091 512.383 46.75C518.538 49.5909 523.581 53.5682 527.511 58.6818C531.441 63.7955 533.879 69.7614 534.826 76.5795H518.065C516.787 71.608 513.946 67.2045 509.542 63.3693C505.186 59.4867 499.315 57.5455 491.929 57.5455C485.395 57.5455 479.665 59.25 474.741 62.6591C469.864 66.0208 466.053 70.7794 463.306 76.9347C460.608 83.0426 459.258 90.2159 459.258 98.4545C459.258 106.883 460.584 114.222 463.235 120.472C465.934 126.722 469.722 131.575 474.599 135.031C479.523 138.488 485.3 140.216 491.929 140.216C496.285 140.216 500.238 139.458 503.789 137.943C507.341 136.428 510.347 134.25 512.809 131.409C515.271 128.568 517.023 125.159 518.065 121.182H534.826C533.879 127.621 531.536 133.421 527.795 138.582C524.102 143.696 519.201 147.768 513.093 150.798C507.033 153.781 499.978 155.273 491.929 155.273ZM543.329 153V43.9091H559.522V60.3864H560.659C562.647 54.9886 566.246 50.6089 571.454 47.2472C576.663 43.8854 582.534 42.2045 589.068 42.2045C590.299 42.2045 591.838 42.2282 593.684 42.2756C595.531 42.3229 596.928 42.3939 597.875 42.4886V59.5341C597.306 59.392 596.004 59.179 593.968 58.8949C591.98 58.5634 589.873 58.3977 587.647 58.3977C582.344 58.3977 577.609 59.5104 573.443 61.7358C569.324 63.9138 566.056 66.9441 563.642 70.8267C561.274 74.6619 560.091 79.0417 560.091 83.9659V153H543.329ZM633.846 155.557C626.933 155.557 620.659 154.255 615.025 151.651C609.39 148.999 604.916 145.188 601.601 140.216C598.287 135.197 596.63 129.136 596.63 122.034C596.63 115.784 597.861 110.718 600.323 106.835C602.785 102.905 606.076 99.8276 610.195 97.6023C614.314 95.3769 618.86 93.7197 623.831 92.6307C628.85 91.4943 633.893 90.5947 638.959 89.9318C645.588 89.0795 650.962 88.4403 655.081 88.0142C659.248 87.5407 662.278 86.7595 664.172 85.6705C666.114 84.5814 667.084 82.6875 667.084 79.9886V79.4205C667.084 72.4129 665.167 66.9678 661.331 63.0852C657.543 59.2027 651.791 57.2614 644.073 57.2614C636.071 57.2614 629.797 59.0133 625.252 62.517C620.706 66.0208 617.51 69.7614 615.664 73.7386L599.755 68.0568C602.596 61.428 606.383 56.267 611.118 52.5739C615.9 48.8333 621.109 46.2292 626.743 44.7614C632.425 43.2462 638.012 42.4886 643.505 42.4886C647.008 42.4886 651.033 42.9148 655.578 43.767C660.171 44.572 664.598 46.2528 668.86 48.8097C673.168 51.3665 676.743 55.2254 679.584 60.3864C682.425 65.5473 683.846 72.4602 683.846 81.125V153H667.084V138.227H666.232C665.096 140.595 663.202 143.128 660.55 145.827C657.899 148.526 654.371 150.822 649.968 152.716C645.564 154.61 640.19 155.557 633.846 155.557ZM636.402 140.5C643.031 140.5 648.618 139.198 653.164 136.594C657.757 133.99 661.213 130.628 663.533 126.509C665.9 122.389 667.084 118.057 667.084 113.511V98.1705C666.374 99.0227 664.811 99.804 662.397 100.514C660.029 101.177 657.283 101.769 654.158 102.29C651.08 102.763 648.074 103.189 645.138 103.568C642.25 103.9 639.906 104.184 638.107 104.42C633.751 104.989 629.679 105.912 625.891 107.19C622.15 108.421 619.12 110.292 616.8 112.801C614.527 115.263 613.391 118.625 613.391 122.886C613.391 128.71 615.545 133.114 619.854 136.097C624.21 139.032 629.726 140.5 636.402 140.5ZM747.018 43.9091V58.1136H688.211V43.9091H747.018ZM705.825 153V28.8523C705.825 22.6023 707.293 17.3939 710.228 13.2273C713.164 9.0606 716.975 5.9356 721.663 3.85226C726.35 1.76893 731.298 0.727263 736.507 0.727263C740.626 0.727263 743.988 1.0587 746.592 1.72159C749.196 2.38446 751.137 2.99999 752.416 3.56818L747.586 18.0568C746.734 17.7727 745.55 17.4176 744.035 16.9915C742.567 16.5653 740.626 16.3523 738.211 16.3523C732.672 16.3523 728.671 17.749 726.208 20.5426C723.794 23.3362 722.586 27.4318 722.586 32.8295V153H705.825ZM801.952 43.9091V58.1136H745.418V43.9091H801.952ZM761.895 17.7727H778.657V121.75C778.657 126.485 779.343 130.036 780.716 132.403C782.137 134.723 783.936 136.286 786.114 137.091C788.339 137.848 790.683 138.227 793.145 138.227C794.992 138.227 796.507 138.133 797.691 137.943C798.874 137.706 799.821 137.517 800.532 137.375L803.941 152.432C802.804 152.858 801.218 153.284 799.182 153.71C797.146 154.184 794.566 154.42 791.441 154.42C786.706 154.42 782.066 153.402 777.52 151.366C773.022 149.33 769.282 146.229 766.299 142.062C763.363 137.896 761.895 132.64 761.895 126.295V17.7727ZM11.4418 333V187.545H29.0554V317.375H96.669V333H11.4418ZM105.669 333V223.909H122.43V333H105.669ZM114.192 205.727C110.925 205.727 108.107 204.615 105.74 202.389C103.42 200.164 102.26 197.489 102.26 194.364C102.26 191.239 103.42 188.563 105.74 186.338C108.107 184.113 110.925 183 114.192 183C117.459 183 120.252 184.113 122.572 186.338C124.94 188.563 126.124 191.239 126.124 194.364C126.124 197.489 124.94 200.164 122.572 202.389C120.252 204.615 117.459 205.727 114.192 205.727ZM226.335 223.909L185.994 333H168.948L128.607 223.909H146.789L176.903 310.841H178.039L208.153 223.909H226.335ZM274.29 335.273C263.779 335.273 254.712 332.953 247.089 328.312C239.513 323.625 233.665 317.091 229.546 308.71C225.474 300.282 223.438 290.481 223.438 279.307C223.438 268.133 225.474 258.284 229.546 249.761C233.665 241.191 239.395 234.515 246.734 229.733C254.12 224.903 262.737 222.489 272.586 222.489C278.268 222.489 283.879 223.436 289.418 225.33C294.958 227.223 300.001 230.301 304.546 234.562C309.092 238.777 312.714 244.364 315.413 251.324C318.112 258.284 319.461 266.854 319.461 277.034V284.136H235.37V269.648H302.415C302.415 263.492 301.184 258 298.722 253.17C296.308 248.341 292.851 244.529 288.353 241.736C283.902 238.942 278.647 237.545 272.586 237.545C265.91 237.545 260.133 239.203 255.256 242.517C250.427 245.784 246.71 250.045 244.106 255.301C241.502 260.557 240.2 266.191 240.2 272.205V281.864C240.2 290.102 241.62 297.086 244.461 302.815C247.349 308.497 251.35 312.83 256.464 315.812C261.577 318.748 267.52 320.216 274.29 320.216C278.694 320.216 282.671 319.6 286.222 318.369C289.821 317.091 292.922 315.197 295.526 312.688C298.13 310.131 300.143 306.958 301.563 303.17L317.756 307.716C316.052 313.208 313.187 318.038 309.163 322.205C305.138 326.324 300.166 329.544 294.248 331.864C288.329 334.136 281.677 335.273 274.29 335.273ZM470.913 233C469.35 228.218 467.29 223.933 464.734 220.145C462.224 216.31 459.218 213.043 455.714 210.344C452.257 207.645 448.327 205.585 443.924 204.165C439.521 202.744 434.691 202.034 429.435 202.034C420.818 202.034 412.982 204.259 405.927 208.71C398.872 213.161 393.261 219.719 389.094 228.384C384.928 237.048 382.844 247.678 382.844 260.273C382.844 272.867 384.951 283.497 389.165 292.162C393.379 300.827 399.085 307.384 406.282 311.835C413.479 316.286 421.576 318.511 430.572 318.511C438.905 318.511 446.244 316.736 452.589 313.185C458.981 309.586 463.952 304.52 467.504 297.986C471.102 291.404 472.901 283.663 472.901 274.761L478.299 275.898H434.549V260.273H489.947V275.898C489.947 287.877 487.39 298.294 482.276 307.148C477.21 316.002 470.202 322.867 461.254 327.744C452.352 332.574 442.125 334.989 430.572 334.989C417.693 334.989 406.377 331.958 396.623 325.898C386.916 319.837 379.341 311.22 373.896 300.045C368.498 288.871 365.799 275.614 365.799 260.273C365.799 248.767 367.338 238.421 370.415 229.236C373.54 220.003 377.944 212.143 383.626 205.656C389.308 199.17 396.031 194.198 403.796 190.741C411.561 187.285 420.108 185.557 429.435 185.557C437.106 185.557 444.255 186.717 450.884 189.037C457.56 191.31 463.503 194.553 468.711 198.767C473.967 202.934 478.346 207.929 481.85 213.753C485.354 219.529 487.769 225.945 489.094 233H470.913ZM533.943 335.557C527.03 335.557 520.757 334.255 515.122 331.651C509.488 328.999 505.013 325.188 501.699 320.216C498.384 315.197 496.727 309.136 496.727 302.034C496.727 295.784 497.958 290.718 500.42 286.835C502.883 282.905 506.173 279.828 510.293 277.602C514.412 275.377 518.957 273.72 523.929 272.631C528.948 271.494 533.991 270.595 539.057 269.932C545.686 269.08 551.06 268.44 555.179 268.014C559.346 267.541 562.376 266.759 564.27 265.67C566.211 264.581 567.182 262.687 567.182 259.989V259.42C567.182 252.413 565.264 246.968 561.429 243.085C557.641 239.203 551.888 237.261 544.17 237.261C536.169 237.261 529.895 239.013 525.349 242.517C520.804 246.021 517.608 249.761 515.761 253.739L499.852 248.057C502.693 241.428 506.481 236.267 511.216 232.574C515.998 228.833 521.206 226.229 526.841 224.761C532.523 223.246 538.11 222.489 543.602 222.489C547.106 222.489 551.131 222.915 555.676 223.767C560.269 224.572 564.696 226.253 568.957 228.81C573.266 231.366 576.841 235.225 579.682 240.386C582.523 245.547 583.943 252.46 583.943 261.125V333H567.182V318.227H566.33C565.193 320.595 563.299 323.128 560.648 325.827C557.996 328.526 554.469 330.822 550.065 332.716C545.662 334.61 540.288 335.557 533.943 335.557ZM536.5 320.5C543.129 320.5 548.716 319.198 553.261 316.594C557.854 313.99 561.311 310.628 563.631 306.509C565.998 302.389 567.182 298.057 567.182 293.511V278.17C566.472 279.023 564.909 279.804 562.494 280.514C560.127 281.177 557.381 281.769 554.256 282.29C551.178 282.763 548.171 283.189 545.236 283.568C542.348 283.9 540.004 284.184 538.205 284.42C533.848 284.989 529.777 285.912 525.989 287.19C522.248 288.421 519.218 290.292 516.898 292.801C514.625 295.263 513.489 298.625 513.489 302.886C513.489 308.71 515.643 313.114 519.952 316.097C524.308 319.032 529.824 320.5 536.5 320.5ZM598.536 333V223.909H614.729V240.955H616.15C618.423 235.131 622.092 230.609 627.158 227.389C632.225 224.122 638.309 222.489 645.411 222.489C652.608 222.489 658.598 224.122 663.38 227.389C668.21 230.609 671.974 235.131 674.673 240.955H675.809C678.603 235.32 682.793 230.846 688.38 227.531C693.967 224.17 700.667 222.489 708.479 222.489C718.233 222.489 726.211 225.543 732.414 231.651C738.617 237.711 741.718 247.157 741.718 259.989V333H724.957V259.989C724.957 251.939 722.755 246.187 718.352 242.73C713.948 239.274 708.763 237.545 702.798 237.545C695.127 237.545 689.185 239.866 684.971 244.506C680.757 249.098 678.65 254.922 678.65 261.977V333H661.604V258.284C661.604 252.081 659.592 247.086 655.567 243.298C651.543 239.463 646.358 237.545 640.013 237.545C635.657 237.545 631.585 238.705 627.798 241.026C624.057 243.346 621.027 246.565 618.707 250.685C616.434 254.757 615.298 259.468 615.298 264.818V333H598.536ZM802.103 335.273C791.592 335.273 782.524 332.953 774.901 328.312C767.326 323.625 761.478 317.091 757.359 308.71C753.287 300.282 751.251 290.481 751.251 279.307C751.251 268.133 753.287 258.284 757.359 249.761C761.478 241.191 767.207 234.515 774.546 229.733C781.933 224.903 790.55 222.489 800.398 222.489C806.08 222.489 811.691 223.436 817.231 225.33C822.771 227.223 827.813 230.301 832.359 234.562C836.904 238.777 840.526 244.364 843.225 251.324C845.924 258.284 847.273 266.854 847.273 277.034V284.136H763.183V269.648H830.228C830.228 263.492 828.997 258 826.535 253.17C824.12 248.341 820.664 244.529 816.165 241.736C811.715 238.942 806.459 237.545 800.398 237.545C793.722 237.545 787.946 239.203 783.069 242.517C778.239 245.784 774.522 250.045 771.918 255.301C769.314 260.557 768.012 266.191 768.012 272.205V281.864C768.012 290.102 769.433 297.086 772.273 302.815C775.162 308.497 779.163 312.83 784.276 315.812C789.39 318.748 795.332 320.216 802.103 320.216C806.506 320.216 810.484 319.6 814.035 318.369C817.633 317.091 820.735 315.197 823.339 312.688C825.943 310.131 827.955 306.958 829.376 303.17L845.569 307.716C843.864 313.208 841 318.038 836.975 322.205C832.951 326.324 827.979 329.544 822.06 331.864C816.142 334.136 809.489 335.273 802.103 335.273ZM934.043 248.341L918.987 252.602C918.04 250.093 916.643 247.654 914.796 245.287C912.997 242.872 910.535 240.884 907.41 239.321C904.285 237.759 900.284 236.977 895.407 236.977C888.731 236.977 883.167 238.516 878.717 241.594C874.313 244.624 872.112 248.483 872.112 253.17C872.112 257.337 873.627 260.628 876.657 263.043C879.687 265.457 884.422 267.47 890.862 269.08L907.055 273.057C916.808 275.424 924.076 279.046 928.859 283.923C933.641 288.753 936.032 294.979 936.032 302.602C936.032 308.852 934.233 314.439 930.634 319.364C927.083 324.288 922.112 328.17 915.719 331.011C909.327 333.852 901.894 335.273 893.418 335.273C882.291 335.273 873.082 332.858 865.79 328.028C858.499 323.199 853.882 316.144 851.941 306.864L867.85 302.886C869.365 308.758 872.23 313.161 876.444 316.097C880.705 319.032 886.269 320.5 893.134 320.5C900.947 320.5 907.149 318.843 911.742 315.528C916.382 312.167 918.702 308.142 918.702 303.455C918.702 299.667 917.377 296.494 914.725 293.938C912.074 291.333 908.002 289.392 902.509 288.114L884.327 283.852C874.337 281.485 866.998 277.815 862.31 272.844C857.67 267.825 855.35 261.551 855.35 254.023C855.35 247.867 857.078 242.422 860.535 237.688C864.039 232.953 868.797 229.236 874.81 226.537C880.871 223.838 887.737 222.489 895.407 222.489C906.202 222.489 914.678 224.856 920.833 229.591C927.036 234.326 931.439 240.576 934.043 248.341ZM46.8388 515.273C37.7479 515.273 29.7223 512.976 22.7621 508.384C15.8018 503.743 10.3568 497.209 6.42685 488.781C2.49692 480.306 0.531961 470.292 0.531961 458.739C0.531961 447.28 2.49692 437.337 6.42685 428.909C10.3568 420.481 15.8255 413.971 22.8331 409.378C29.8407 404.785 37.9373 402.489 47.1229 402.489C54.2251 402.489 59.8359 403.672 63.9553 406.04C68.1219 408.36 71.2943 411.011 73.4723 413.994C75.6977 416.93 77.4259 419.345 78.657 421.239H80.0774V367.545H96.8388V513H80.6456V496.239H78.657C77.4259 498.227 75.674 500.737 73.4013 503.767C71.1286 506.75 67.8852 509.425 63.6712 511.793C59.4572 514.113 53.8464 515.273 46.8388 515.273ZM49.1115 500.216C55.835 500.216 61.5168 498.464 66.157 494.96C70.7971 491.409 74.3246 486.509 76.7393 480.259C79.1541 473.961 80.3615 466.693 80.3615 458.455C80.3615 450.311 79.1778 443.185 76.8104 437.077C74.4429 430.921 70.9392 426.139 66.299 422.73C61.6589 419.274 55.9297 417.545 49.1115 417.545C42.0092 417.545 36.0907 419.368 31.3558 423.014C26.6683 426.613 23.1409 431.513 20.7734 437.716C18.4534 443.871 17.2933 450.784 17.2933 458.455C17.2933 466.22 18.477 473.275 20.8445 479.619C23.2592 485.917 26.8104 490.936 31.4979 494.676C36.2327 498.369 42.1039 500.216 49.1115 500.216ZM159.603 515.273C149.092 515.273 140.024 512.953 132.401 508.312C124.826 503.625 118.978 497.091 114.859 488.71C110.787 480.282 108.751 470.481 108.751 459.307C108.751 448.133 110.787 438.284 114.859 429.761C118.978 421.191 124.707 414.515 132.046 409.733C139.433 404.903 148.05 402.489 157.898 402.489C163.58 402.489 169.191 403.436 174.731 405.33C180.271 407.223 185.313 410.301 189.859 414.562C194.404 418.777 198.026 424.364 200.725 431.324C203.424 438.284 204.773 446.854 204.773 457.034V464.136H120.683V449.648H187.728C187.728 443.492 186.497 438 184.035 433.17C181.62 428.341 178.164 424.529 173.665 421.736C169.215 418.942 163.959 417.545 157.898 417.545C151.222 417.545 145.446 419.203 140.569 422.517C135.739 425.784 132.022 430.045 129.418 435.301C126.814 440.557 125.512 446.191 125.512 452.205V461.864C125.512 470.102 126.933 477.086 129.773 482.815C132.662 488.497 136.663 492.83 141.776 495.812C146.89 498.748 152.832 500.216 159.603 500.216C164.006 500.216 167.984 499.6 171.535 498.369C175.133 497.091 178.235 495.197 180.839 492.688C183.443 490.131 185.455 486.958 186.876 483.17L203.069 487.716C201.364 493.208 198.5 498.038 194.475 502.205C190.451 506.324 185.479 509.544 179.56 511.864C173.642 514.136 166.989 515.273 159.603 515.273ZM291.543 428.341L276.487 432.602C275.54 430.093 274.143 427.654 272.296 425.287C270.497 422.872 268.035 420.884 264.91 419.321C261.785 417.759 257.784 416.977 252.907 416.977C246.231 416.977 240.667 418.516 236.217 421.594C231.813 424.624 229.612 428.483 229.612 433.17C229.612 437.337 231.127 440.628 234.157 443.043C237.187 445.457 241.922 447.47 248.362 449.08L264.555 453.057C274.308 455.424 281.576 459.046 286.359 463.923C291.141 468.753 293.532 474.979 293.532 482.602C293.532 488.852 291.733 494.439 288.134 499.364C284.583 504.288 279.612 508.17 273.219 511.011C266.827 513.852 259.394 515.273 250.918 515.273C239.791 515.273 230.582 512.858 223.29 508.028C215.999 503.199 211.382 496.144 209.441 486.864L225.35 482.886C226.865 488.758 229.73 493.161 233.944 496.097C238.205 499.032 243.769 500.5 250.634 500.5C258.447 500.5 264.649 498.843 269.242 495.528C273.882 492.167 276.202 488.142 276.202 483.455C276.202 479.667 274.877 476.494 272.225 473.938C269.574 471.333 265.502 469.392 260.009 468.114L241.827 463.852C231.837 461.485 224.498 457.815 219.81 452.844C215.17 447.825 212.85 441.551 212.85 434.023C212.85 427.867 214.578 422.422 218.035 417.688C221.539 412.953 226.297 409.236 232.31 406.537C238.371 403.838 245.237 402.489 252.907 402.489C263.702 402.489 272.178 404.856 278.333 409.591C284.536 414.326 288.939 420.576 291.543 428.341ZM302.763 513V403.909H319.524V513H302.763ZM311.286 385.727C308.018 385.727 305.201 384.615 302.834 382.389C300.514 380.164 299.354 377.489 299.354 374.364C299.354 371.239 300.514 368.563 302.834 366.338C305.201 364.113 308.018 363 311.286 363C314.553 363 317.346 364.113 319.666 366.338C322.034 368.563 323.217 371.239 323.217 374.364C323.217 377.489 322.034 380.164 319.666 382.389C317.346 384.615 314.553 385.727 311.286 385.727ZM378.258 556.182C370.161 556.182 363.201 555.14 357.377 553.057C351.553 551.021 346.7 548.322 342.817 544.96C338.982 541.646 335.928 538.095 333.656 534.307L347.008 524.932C348.523 526.92 350.441 529.193 352.761 531.75C355.081 534.354 358.253 536.603 362.278 538.497C366.35 540.438 371.676 541.409 378.258 541.409C387.065 541.409 394.333 539.278 400.062 535.017C405.791 530.756 408.656 524.08 408.656 514.989V492.83H407.235C406.004 494.818 404.252 497.28 401.979 500.216C399.754 503.104 396.534 505.685 392.32 507.957C388.154 510.183 382.519 511.295 375.417 511.295C366.61 511.295 358.703 509.212 351.695 505.045C344.735 500.879 339.219 494.818 335.147 486.864C331.122 478.909 329.11 469.25 329.11 457.886C329.11 446.712 331.075 436.982 335.005 428.696C338.935 420.363 344.404 413.923 351.411 409.378C358.419 404.785 366.515 402.489 375.701 402.489C382.803 402.489 388.438 403.672 392.604 406.04C396.818 408.36 400.038 411.011 402.263 413.994C404.536 416.93 406.288 419.345 407.519 421.239H409.224V403.909H425.417V516.125C425.417 525.5 423.286 533.123 419.025 538.994C414.811 544.913 409.129 549.245 401.979 551.991C394.877 554.785 386.97 556.182 378.258 556.182ZM377.69 496.239C384.413 496.239 390.095 494.7 394.735 491.622C399.375 488.545 402.903 484.117 405.317 478.341C407.732 472.564 408.94 465.652 408.94 457.602C408.94 449.742 407.756 442.806 405.388 436.793C403.021 430.779 399.517 426.068 394.877 422.659C390.237 419.25 384.508 417.545 377.69 417.545C370.587 417.545 364.669 419.345 359.934 422.943C355.246 426.542 351.719 431.371 349.352 437.432C347.031 443.492 345.871 450.216 345.871 457.602C345.871 465.178 347.055 471.878 349.423 477.702C351.837 483.478 355.388 488.024 360.076 491.338C364.811 494.605 370.682 496.239 377.69 496.239ZM456.86 447.375V513H440.099V403.909H456.292V420.955H457.712C460.269 415.415 464.152 410.964 469.36 407.602C474.568 404.193 481.292 402.489 489.531 402.489C496.917 402.489 503.38 404.004 508.92 407.034C514.46 410.017 518.768 414.562 521.846 420.67C524.924 426.731 526.462 434.402 526.462 443.682V513H509.701V444.818C509.701 436.248 507.476 429.572 503.025 424.79C498.574 419.96 492.466 417.545 484.701 417.545C479.351 417.545 474.568 418.705 470.354 421.026C466.188 423.346 462.897 426.731 460.482 431.182C458.067 435.633 456.86 441.03 456.86 447.375ZM586.83 515.273C576.318 515.273 567.251 512.953 559.628 508.312C552.052 503.625 546.205 497.091 542.085 488.71C538.013 480.282 535.977 470.481 535.977 459.307C535.977 448.133 538.013 438.284 542.085 429.761C546.205 421.191 551.934 414.515 559.273 409.733C566.659 404.903 575.277 402.489 585.125 402.489C590.807 402.489 596.418 403.436 601.957 405.33C607.497 407.223 612.54 410.301 617.085 414.562C621.631 418.777 625.253 424.364 627.952 431.324C630.651 438.284 632 446.854 632 457.034V464.136H547.909V449.648H614.955C614.955 443.492 613.723 438 611.261 433.17C608.847 428.341 605.39 424.529 600.892 421.736C596.441 418.942 591.186 417.545 585.125 417.545C578.449 417.545 572.672 419.203 567.795 422.517C562.966 425.784 559.249 430.045 556.645 435.301C554.041 440.557 552.739 446.191 552.739 452.205V461.864C552.739 470.102 554.159 477.086 557 482.815C559.888 488.497 563.889 492.83 569.003 495.812C574.116 498.748 580.059 500.216 586.83 500.216C591.233 500.216 595.21 499.6 598.761 498.369C602.36 497.091 605.461 495.197 608.065 492.688C610.67 490.131 612.682 486.958 614.102 483.17L630.295 487.716C628.591 493.208 625.726 498.038 621.702 502.205C617.677 506.324 612.705 509.544 606.787 511.864C600.868 514.136 594.216 515.273 586.83 515.273ZM682.69 515.273C673.599 515.273 665.574 512.976 658.614 508.384C651.653 503.743 646.208 497.209 642.278 488.781C638.348 480.306 636.384 470.292 636.384 458.739C636.384 447.28 638.348 437.337 642.278 428.909C646.208 420.481 651.677 413.971 658.685 409.378C665.692 404.785 673.789 402.489 682.974 402.489C690.077 402.489 695.688 403.672 699.807 406.04C703.973 408.36 707.146 411.011 709.324 413.994C711.549 416.93 713.277 419.345 714.509 421.239H715.929V367.545H732.69V513H716.497V496.239H714.509C713.277 498.227 711.526 500.737 709.253 503.767C706.98 506.75 703.737 509.425 699.523 511.793C695.309 514.113 689.698 515.273 682.69 515.273ZM684.963 500.216C691.687 500.216 697.368 498.464 702.009 494.96C706.649 491.409 710.176 486.509 712.591 480.259C715.006 473.961 716.213 466.693 716.213 458.455C716.213 450.311 715.029 443.185 712.662 437.077C710.295 430.921 706.791 426.139 702.151 422.73C697.51 419.274 691.781 417.545 684.963 417.545C677.861 417.545 671.942 419.368 667.207 423.014C662.52 426.613 658.992 431.513 656.625 437.716C654.305 443.871 653.145 450.784 653.145 458.455C653.145 466.22 654.329 473.275 656.696 479.619C659.111 485.917 662.662 490.936 667.349 494.676C672.084 498.369 677.955 500.216 684.963 500.216ZM837.409 403.909V418.114H780.875V403.909H837.409ZM797.352 377.773H814.114V481.75C814.114 486.485 814.8 490.036 816.173 492.403C817.594 494.723 819.393 496.286 821.571 497.091C823.796 497.848 826.14 498.227 828.602 498.227C830.449 498.227 831.964 498.133 833.148 497.943C834.331 497.706 835.278 497.517 835.989 497.375L839.398 512.432C838.261 512.858 836.675 513.284 834.639 513.71C832.603 514.184 830.023 514.42 826.898 514.42C822.163 514.42 817.523 513.402 812.977 511.366C808.479 509.33 804.739 506.229 801.756 502.062C798.82 497.896 797.352 492.64 797.352 486.295V377.773ZM889.768 515.273C879.92 515.273 871.279 512.929 863.845 508.241C856.459 503.554 850.682 496.996 846.516 488.568C842.396 480.14 840.337 470.292 840.337 459.023C840.337 447.659 842.396 437.74 846.516 429.264C850.682 420.789 856.459 414.207 863.845 409.52C871.279 404.832 879.92 402.489 889.768 402.489C899.617 402.489 908.234 404.832 915.621 409.52C923.054 414.207 928.831 420.789 932.95 429.264C937.117 437.74 939.2 447.659 939.2 459.023C939.2 470.292 937.117 480.14 932.95 488.568C928.831 496.996 923.054 503.554 915.621 508.241C908.234 512.929 899.617 515.273 889.768 515.273ZM889.768 500.216C897.25 500.216 903.405 498.298 908.234 494.463C913.064 490.628 916.639 485.585 918.959 479.335C921.279 473.085 922.439 466.314 922.439 459.023C922.439 451.731 921.279 444.937 918.959 438.639C916.639 432.342 913.064 427.252 908.234 423.369C903.405 419.487 897.25 417.545 889.768 417.545C882.287 417.545 876.132 419.487 871.303 423.369C866.473 427.252 862.898 432.342 860.578 438.639C858.258 444.937 857.098 451.731 857.098 459.023C857.098 466.314 858.258 473.085 860.578 479.335C862.898 485.585 866.473 490.628 871.303 494.463C876.132 498.298 882.287 500.216 889.768 500.216ZM156.034 695.273C145.807 695.273 137 692.858 129.614 688.028C122.227 683.199 116.545 676.546 112.568 668.071C108.591 659.596 106.602 649.913 106.602 639.023C106.602 627.943 108.638 618.166 112.71 609.69C116.83 601.168 122.559 594.515 129.898 589.733C137.284 584.903 145.902 582.489 155.75 582.489C163.42 582.489 170.333 583.909 176.489 586.75C182.644 589.591 187.687 593.568 191.616 598.682C195.546 603.795 197.985 609.761 198.932 616.58H182.17C180.892 611.608 178.051 607.205 173.648 603.369C169.292 599.487 163.42 597.545 156.034 597.545C149.5 597.545 143.771 599.25 138.847 602.659C133.97 606.021 130.158 610.779 127.412 616.935C124.713 623.043 123.364 630.216 123.364 638.455C123.364 646.883 124.689 654.222 127.341 660.472C130.04 666.722 133.828 671.575 138.705 675.031C143.629 678.488 149.405 680.216 156.034 680.216C160.39 680.216 164.344 679.458 167.895 677.943C171.446 676.428 174.453 674.25 176.915 671.409C179.377 668.568 181.129 665.159 182.17 661.182H198.932C197.985 667.621 195.641 673.421 191.901 678.582C188.207 683.696 183.307 687.768 177.199 690.798C171.138 693.781 164.083 695.273 156.034 695.273ZM239.537 695.557C232.624 695.557 226.35 694.255 220.716 691.651C215.081 688.999 210.607 685.188 207.293 680.216C203.978 675.197 202.321 669.136 202.321 662.034C202.321 655.784 203.552 650.718 206.014 646.835C208.476 642.905 211.767 639.828 215.886 637.602C220.006 635.377 224.551 633.72 229.523 632.631C234.542 631.494 239.584 630.595 244.651 629.932C251.279 629.08 256.653 628.44 260.773 628.014C264.939 627.541 267.97 626.759 269.864 625.67C271.805 624.581 272.776 622.687 272.776 619.989V619.42C272.776 612.413 270.858 606.968 267.023 603.085C263.235 599.203 257.482 597.261 249.764 597.261C241.762 597.261 235.489 599.013 230.943 602.517C226.398 606.021 223.202 609.761 221.355 613.739L205.446 608.057C208.287 601.428 212.075 596.267 216.81 592.574C221.592 588.833 226.8 586.229 232.435 584.761C238.116 583.246 243.704 582.489 249.196 582.489C252.7 582.489 256.724 582.915 261.27 583.767C265.863 584.572 270.29 586.253 274.551 588.81C278.86 591.366 282.435 595.225 285.276 600.386C288.116 605.547 289.537 612.46 289.537 621.125V693H272.776V678.227H271.923C270.787 680.595 268.893 683.128 266.241 685.827C263.59 688.526 260.063 690.822 255.659 692.716C251.256 694.61 245.882 695.557 239.537 695.557ZM242.094 680.5C248.723 680.5 254.31 679.198 258.855 676.594C263.448 673.99 266.904 670.628 269.224 666.509C271.592 662.389 272.776 658.057 272.776 653.511V638.17C272.065 639.023 270.503 639.804 268.088 640.514C265.721 641.177 262.974 641.769 259.849 642.29C256.772 642.763 253.765 643.189 250.83 643.568C247.941 643.9 245.598 644.184 243.798 644.42C239.442 644.989 235.37 645.912 231.582 647.19C227.842 648.421 224.812 650.292 222.491 652.801C220.219 655.263 219.082 658.625 219.082 662.886C219.082 668.71 221.237 673.114 225.545 676.097C229.902 679.032 235.418 680.5 242.094 680.5ZM304.13 733.909V583.909H320.323V601.239H322.312C323.543 599.345 325.247 596.93 327.425 593.994C329.651 591.011 332.823 588.36 336.942 586.04C341.109 583.672 346.744 582.489 353.846 582.489C363.031 582.489 371.128 584.785 378.136 589.378C385.143 593.971 390.612 600.481 394.542 608.909C398.472 617.337 400.437 627.28 400.437 638.739C400.437 650.292 398.472 660.306 394.542 668.781C390.612 677.209 385.167 683.743 378.207 688.384C371.246 692.976 363.221 695.273 354.13 695.273C347.122 695.273 341.512 694.113 337.298 691.793C333.084 689.425 329.84 686.75 327.567 683.767C325.295 680.737 323.543 678.227 322.312 676.239H320.891V733.909H304.13ZM320.607 638.455C320.607 646.693 321.815 653.961 324.229 660.259C326.644 666.509 330.172 671.409 334.812 674.96C339.452 678.464 345.134 680.216 351.857 680.216C358.865 680.216 364.712 678.369 369.4 674.676C374.135 670.936 377.686 665.917 380.053 659.619C382.468 653.275 383.675 646.22 383.675 638.455C383.675 630.784 382.492 623.871 380.124 617.716C377.804 611.513 374.277 606.613 369.542 603.014C364.854 599.368 358.96 597.545 351.857 597.545C345.039 597.545 339.31 599.274 334.67 602.73C330.03 606.139 326.526 610.921 324.158 617.077C321.791 623.185 320.607 630.311 320.607 638.455ZM457.448 583.909V598.114H400.914V583.909H457.448ZM417.391 557.773H434.153V661.75C434.153 666.485 434.839 670.036 436.212 672.403C437.633 674.723 439.432 676.286 441.61 677.091C443.835 677.848 446.179 678.227 448.641 678.227C450.488 678.227 452.003 678.133 453.187 677.943C454.371 677.706 455.317 677.517 456.028 677.375L459.437 692.432C458.3 692.858 456.714 693.284 454.678 693.71C452.642 694.184 450.062 694.42 446.937 694.42C442.202 694.42 437.562 693.402 433.016 691.366C428.518 689.33 424.778 686.229 421.795 682.062C418.859 677.896 417.391 672.64 417.391 666.295V557.773ZM466.661 693V583.909H483.423V693H466.661ZM475.184 565.727C471.917 565.727 469.1 564.615 466.732 562.389C464.412 560.164 463.252 557.489 463.252 554.364C463.252 551.239 464.412 548.563 466.732 546.338C469.1 544.113 471.917 543 475.184 543C478.451 543 481.245 544.113 483.565 546.338C485.932 548.563 487.116 551.239 487.116 554.364C487.116 557.489 485.932 560.164 483.565 562.389C481.245 564.615 478.451 565.727 475.184 565.727ZM587.327 583.909L546.986 693H529.94L489.599 583.909H507.781L537.895 670.841H539.031L569.145 583.909H587.327ZM622.232 695.557C615.319 695.557 609.046 694.255 603.411 691.651C597.777 688.999 593.302 685.188 589.988 680.216C586.674 675.197 585.016 669.136 585.016 662.034C585.016 655.784 586.247 650.718 588.71 646.835C591.172 642.905 594.462 639.828 598.582 637.602C602.701 635.377 607.246 633.72 612.218 632.631C617.237 631.494 622.28 630.595 627.346 629.932C633.975 629.08 639.349 628.44 643.468 628.014C647.635 627.541 650.665 626.759 652.559 625.67C654.5 624.581 655.471 622.687 655.471 619.989V619.42C655.471 612.413 653.553 606.968 649.718 603.085C645.93 599.203 640.177 597.261 632.46 597.261C624.458 597.261 618.184 599.013 613.638 602.517C609.093 606.021 605.897 609.761 604.05 613.739L588.141 608.057C590.982 601.428 594.77 596.267 599.505 592.574C604.287 588.833 609.496 586.229 615.13 584.761C620.812 583.246 626.399 582.489 631.891 582.489C635.395 582.489 639.42 582.915 643.965 583.767C648.558 584.572 652.985 586.253 657.246 588.81C661.555 591.366 665.13 595.225 667.971 600.386C670.812 605.547 672.232 612.46 672.232 621.125V693H655.471V678.227H654.619C653.482 680.595 651.588 683.128 648.937 685.827C646.285 688.526 642.758 690.822 638.354 692.716C633.951 694.61 628.577 695.557 622.232 695.557ZM624.789 680.5C631.418 680.5 637.005 679.198 641.55 676.594C646.143 673.99 649.6 670.628 651.92 666.509C654.287 662.389 655.471 658.057 655.471 653.511V638.17C654.761 639.023 653.198 639.804 650.783 640.514C648.416 641.177 645.67 641.769 642.545 642.29C639.467 642.763 636.46 643.189 633.525 643.568C630.637 643.9 628.293 644.184 626.494 644.42C622.138 644.989 618.066 645.912 614.278 647.19C610.537 648.421 607.507 650.292 605.187 652.801C602.914 655.263 601.778 658.625 601.778 662.886C601.778 668.71 603.932 673.114 608.241 676.097C612.597 679.032 618.113 680.5 624.789 680.5ZM734.268 583.909V598.114H677.734V583.909H734.268ZM694.212 557.773H710.973V661.75C710.973 666.485 711.66 670.036 713.033 672.403C714.453 674.723 716.252 676.286 718.43 677.091C720.656 677.848 723 678.227 725.462 678.227C727.308 678.227 728.823 678.133 730.007 677.943C731.191 677.706 732.138 677.517 732.848 677.375L736.257 692.432C735.121 692.858 733.535 693.284 731.499 693.71C729.463 694.184 726.882 694.42 723.757 694.42C719.022 694.42 714.382 693.402 709.837 691.366C705.339 689.33 701.598 686.229 698.615 682.062C695.679 677.896 694.212 672.64 694.212 666.295V557.773ZM788.048 695.273C777.537 695.273 768.47 692.953 760.847 688.312C753.271 683.625 747.423 677.091 743.304 668.71C739.232 660.282 737.196 650.481 737.196 639.307C737.196 628.133 739.232 618.284 743.304 609.761C747.423 601.191 753.152 594.515 760.491 589.733C767.878 584.903 776.495 582.489 786.344 582.489C792.026 582.489 797.636 583.436 803.176 585.33C808.716 587.223 813.759 590.301 818.304 594.562C822.849 598.777 826.472 604.364 829.17 611.324C831.869 618.284 833.219 626.854 833.219 637.034V644.136H749.128V629.648H816.173C816.173 623.492 814.942 618 812.48 613.17C810.065 608.341 806.609 604.529 802.111 601.736C797.66 598.942 792.404 597.545 786.344 597.545C779.668 597.545 773.891 599.203 769.014 602.517C764.185 605.784 760.468 610.045 757.864 615.301C755.259 620.557 753.957 626.191 753.957 632.205V641.864C753.957 650.102 755.378 657.086 758.219 662.815C761.107 668.497 765.108 672.83 770.222 675.812C775.335 678.748 781.277 680.216 788.048 680.216C792.452 680.216 796.429 679.6 799.98 678.369C803.579 677.091 806.68 675.197 809.284 672.688C811.888 670.131 813.901 666.958 815.321 663.17L831.514 667.716C829.81 673.208 826.945 678.038 822.92 682.205C818.896 686.324 813.924 689.544 808.006 691.864C802.087 694.136 795.435 695.273 788.048 695.273ZM212.911 913.909V763.909H229.104V781.239H231.093C232.324 779.345 234.029 776.93 236.207 773.994C238.432 771.011 241.604 768.36 245.724 766.04C249.89 763.672 255.525 762.489 262.627 762.489C271.813 762.489 279.909 764.785 286.917 769.378C293.924 773.971 299.393 780.481 303.323 788.909C307.253 797.337 309.218 807.28 309.218 818.739C309.218 830.292 307.253 840.306 303.323 848.781C299.393 857.209 293.948 863.743 286.988 868.384C280.028 872.976 272.002 875.273 262.911 875.273C255.904 875.273 250.293 874.113 246.079 871.793C241.865 869.425 238.621 866.75 236.349 863.767C234.076 860.737 232.324 858.227 231.093 856.239H229.673V913.909H212.911ZM229.388 818.455C229.388 826.693 230.596 833.961 233.011 840.259C235.425 846.509 238.953 851.409 243.593 854.96C248.233 858.464 253.915 860.216 260.638 860.216C267.646 860.216 273.494 858.369 278.181 854.676C282.916 850.936 286.467 845.917 288.835 839.619C291.249 833.275 292.457 826.22 292.457 818.455C292.457 810.784 291.273 803.871 288.906 797.716C286.585 791.513 283.058 786.613 278.323 783.014C273.636 779.368 267.741 777.545 260.638 777.545C253.82 777.545 248.091 779.274 243.451 782.73C238.811 786.139 235.307 790.921 232.94 797.077C230.572 803.185 229.388 810.311 229.388 818.455ZM335.548 727.545V873H318.786V727.545H335.548ZM382.349 875.557C375.437 875.557 369.163 874.255 363.528 871.651C357.894 868.999 353.42 865.188 350.105 860.216C346.791 855.197 345.134 849.136 345.134 842.034C345.134 835.784 346.365 830.718 348.827 826.835C351.289 822.905 354.58 819.828 358.699 817.602C362.818 815.377 367.364 813.72 372.335 812.631C377.354 811.494 382.397 810.595 387.463 809.932C394.092 809.08 399.466 808.44 403.585 808.014C407.752 807.541 410.782 806.759 412.676 805.67C414.617 804.581 415.588 802.687 415.588 799.989V799.42C415.588 792.413 413.67 786.968 409.835 783.085C406.047 779.203 400.295 777.261 392.577 777.261C384.575 777.261 378.301 779.013 373.756 782.517C369.21 786.021 366.014 789.761 364.168 793.739L348.259 788.057C351.099 781.428 354.887 776.267 359.622 772.574C364.404 768.833 369.613 766.229 375.247 764.761C380.929 763.246 386.516 762.489 392.009 762.489C395.512 762.489 399.537 762.915 404.082 763.767C408.675 764.572 413.102 766.253 417.364 768.81C421.672 771.366 425.247 775.225 428.088 780.386C430.929 785.547 432.349 792.46 432.349 801.125V873H415.588V858.227H414.736C413.599 860.595 411.705 863.128 409.054 865.827C406.402 868.526 402.875 870.822 398.472 872.716C394.068 874.61 388.694 875.557 382.349 875.557ZM384.906 860.5C391.535 860.5 397.122 859.198 401.668 856.594C406.26 853.99 409.717 850.628 412.037 846.509C414.404 842.389 415.588 838.057 415.588 833.511V818.17C414.878 819.023 413.315 819.804 410.901 820.514C408.533 821.177 405.787 821.769 402.662 822.29C399.584 822.763 396.578 823.189 393.642 823.568C390.754 823.9 388.41 824.184 386.611 824.42C382.255 824.989 378.183 825.912 374.395 827.19C370.654 828.421 367.624 830.292 365.304 832.801C363.031 835.263 361.895 838.625 361.895 842.886C361.895 848.71 364.049 853.114 368.358 856.097C372.714 859.032 378.23 860.5 384.906 860.5ZM453.832 913.909C450.991 913.909 448.458 913.672 446.232 913.199C444.007 912.773 442.468 912.347 441.616 911.92L445.877 897.148C449.949 898.189 453.548 898.568 456.673 898.284C459.798 898 462.567 896.603 464.982 894.094C467.444 891.632 469.693 887.631 471.729 882.091L474.854 873.568L434.513 763.909H452.695L482.809 850.841H483.945L514.059 763.909H532.241L485.934 888.909C483.851 894.544 481.27 899.207 478.192 902.901C475.115 906.641 471.54 909.411 467.468 911.21C463.443 913.009 458.898 913.909 453.832 913.909ZM580.197 875.273C569.685 875.273 560.618 872.953 552.995 868.312C545.419 863.625 539.572 857.091 535.452 848.71C531.38 840.282 529.344 830.481 529.344 819.307C529.344 808.133 531.38 798.284 535.452 789.761C539.572 781.191 545.301 774.515 552.64 769.733C560.026 764.903 568.644 762.489 578.492 762.489C584.174 762.489 589.785 763.436 595.325 765.33C600.864 767.223 605.907 770.301 610.452 774.562C614.998 778.777 618.62 784.364 621.319 791.324C624.018 798.284 625.367 806.854 625.367 817.034V824.136H541.276V809.648H608.322C608.322 803.492 607.091 798 604.629 793.17C602.214 788.341 598.757 784.529 594.259 781.736C589.808 778.942 584.553 777.545 578.492 777.545C571.816 777.545 566.04 779.203 561.163 782.517C556.333 785.784 552.616 790.045 550.012 795.301C547.408 800.557 546.106 806.191 546.106 812.205V821.864C546.106 830.102 547.526 837.086 550.367 842.815C553.255 848.497 557.256 852.83 562.37 855.812C567.484 858.748 573.426 860.216 580.197 860.216C584.6 860.216 588.577 859.6 592.129 858.369C595.727 857.091 598.828 855.197 601.433 852.688C604.037 850.131 606.049 846.958 607.469 843.17L623.663 847.716C621.958 853.208 619.094 858.038 615.069 862.205C611.044 866.324 606.073 869.544 600.154 871.864C594.236 874.136 587.583 875.273 580.197 875.273ZM634.864 873V763.909H651.058V780.386H652.194C654.183 774.989 657.781 770.609 662.989 767.247C668.198 763.885 674.069 762.205 680.603 762.205C681.834 762.205 683.373 762.228 685.219 762.276C687.066 762.323 688.463 762.394 689.41 762.489V779.534C688.842 779.392 687.54 779.179 685.504 778.895C683.515 778.563 681.408 778.398 679.183 778.398C673.88 778.398 669.145 779.51 664.978 781.736C660.859 783.914 657.592 786.944 655.177 790.827C652.809 794.662 651.626 799.042 651.626 803.966V873H634.864ZM770.551 788.341L755.494 792.602C754.547 790.093 753.151 787.654 751.304 785.287C749.505 782.872 747.043 780.884 743.918 779.321C740.793 777.759 736.792 776.977 731.915 776.977C725.239 776.977 719.675 778.516 715.224 781.594C710.821 784.624 708.619 788.483 708.619 793.17C708.619 797.337 710.134 800.628 713.165 803.043C716.195 805.457 720.93 807.47 727.369 809.08L743.562 813.057C753.316 815.424 760.584 819.046 765.366 823.923C770.149 828.753 772.54 834.979 772.54 842.602C772.54 848.852 770.741 854.439 767.142 859.364C763.591 864.288 758.619 868.17 752.227 871.011C745.835 873.852 738.402 875.273 729.926 875.273C718.799 875.273 709.59 872.858 702.298 868.028C695.007 863.199 690.39 856.144 688.449 846.864L704.358 842.886C705.873 848.758 708.738 853.161 712.952 856.097C717.213 859.032 722.777 860.5 729.642 860.5C737.455 860.5 743.657 858.843 748.25 855.528C752.89 852.167 755.21 848.142 755.21 843.455C755.21 839.667 753.884 836.494 751.233 833.938C748.581 831.333 744.509 829.392 739.017 828.114L720.835 823.852C710.845 821.485 703.506 817.815 698.818 812.844C694.178 807.825 691.858 801.551 691.858 794.023C691.858 787.867 693.586 782.422 697.043 777.688C700.546 772.953 705.305 769.236 711.318 766.537C717.379 763.838 724.244 762.489 731.915 762.489C742.71 762.489 751.186 764.856 757.341 769.591C763.544 774.326 767.947 780.576 770.551 788.341Z" fill="white"/>
</svg>
