<svg width="400" height="400" viewBox="0 0 400 400" fill="none" xmlns="http://www.w3.org/2000/svg">
<g clip-path="url(#clip0_5369_7683)">
<path d="M68.3339 105.5C68.3339 99.7 73.0822 95 78.9389 95H292.736C298.591 95 303.336 99.7 303.336 105.5V294.5C303.336 300.3 298.591 305 292.736 305H78.8489C76.0372 304.977 73.3489 303.85 71.3772 301.863C69.4055 299.877 68.3105 297.197 68.3339 294.413V105.5Z" fill="url(#paint0_linear_5369_7683)"/>
<path d="M90.0012 280H293.334C298.857 280 303.334 275.523 303.334 270V150C303.334 144.477 298.857 140 293.334 140L90.0012 140C84.4783 140 80.0011 144.477 80.0011 150L80.0011 270C80.0011 275.523 84.4783 280 90.0012 280Z" fill="url(#paint1_linear_5369_7683)"/>
<path opacity="0.86" d="M106.609 255H100.058C99.1054 255 98.3335 255.772 98.3335 256.724V263.276C98.3335 264.228 99.1054 265 100.058 265H106.609C107.562 265 108.333 264.228 108.333 263.276V256.724C108.333 255.772 107.562 255 106.609 255Z" fill="#33805E"/>
<path opacity="0.86" d="M123.276 255H116.724C115.772 255 115 255.772 115 256.724V263.276C115 264.228 115.772 265 116.724 265H123.276C124.228 265 125 264.228 125 263.276V256.724C125 255.772 124.228 255 123.276 255Z" fill="url(#paint2_linear_5369_7683)"/>
<path opacity="0.86" d="M139.942 255H133.391C132.438 255 131.667 255.772 131.667 256.724V263.276C131.667 264.228 132.438 265 133.391 265H139.942C140.895 265 141.667 264.228 141.667 263.276V256.724C141.667 255.772 140.895 255 139.942 255Z" fill="#B52439"/>
<path d="M161.668 130H78.3345C72.8116 130 68.3345 134.477 68.3345 140V216.667C68.3345 222.19 72.8116 226.667 78.3345 226.667H161.668C167.191 226.667 171.668 222.19 171.668 216.667V140C171.668 134.477 167.191 130 161.668 130Z" fill="url(#paint3_linear_5369_7683)"/>
<path d="M150.001 140H90.0015C84.4786 140 80.0015 144.477 80.0015 150V203.333C80.0015 208.856 84.4786 213.333 90.0015 213.333H150.001C155.524 213.333 160.001 208.856 160.001 203.333V150C160.001 144.477 155.524 140 150.001 140Z" fill="url(#paint4_linear_5369_7683)"/>
<rect x="200" y="125" width="126.667" height="98.3333" rx="8.33333" fill="url(#paint5_linear_5369_7683)"/>
<path d="M237.484 183.78H292.03V160.005C292.03 158.678 291.491 157.405 290.532 156.466C289.573 155.527 288.272 155 286.916 155H242.598C241.242 155 239.941 155.527 238.982 156.466C238.023 157.405 237.484 158.678 237.484 160.005V183.78Z" fill="url(#paint6_linear_5369_7683)"/>
<path d="M192.505 294.809C168.372 255.961 181.497 206.975 221.822 185.397C262.146 163.82 314.398 177.821 338.532 216.669" fill="url(#paint7_linear_5369_7683)"/>
<path d="M211.09 225.27C227.703 196.494 264.499 186.635 293.275 203.249C322.05 219.863 331.909 256.658 315.296 285.434" fill="url(#paint8_linear_5369_7683)"/>
<path d="M303.333 297.557C280.076 320.815 242.367 320.815 219.109 297.557C195.852 274.299 195.852 236.592 219.109 213.334" fill="url(#paint9_linear_5369_7683)"/>
<rect x="267.484" y="261.666" width="6.66667" height="58.3333" rx="3.33333" transform="rotate(-180 267.484 261.666)" fill="url(#paint10_linear_5369_7683)"/>
<rect x="237.484" y="236.381" width="6.66667" height="38.3333" rx="3.33333" transform="rotate(-45 237.484 236.381)" fill="url(#paint11_linear_5369_7683)"/>
<path d="M134.444 175.989C134.058 175.732 133.631 175.602 133.163 175.602C130.4 175.603 127.637 175.604 124.875 175.605C124.309 175.605 123.744 175.605 123.148 175.605C123.404 174.805 123.648 174.052 123.887 173.297C124.424 171.597 124.955 169.895 125.496 168.197C126.327 165.591 127.169 162.986 127.995 160.378C128.157 159.869 128.168 159.357 127.784 158.913C127.09 158.113 125.994 158.147 125.233 158.983C124.112 160.213 122.985 161.44 121.858 162.664C119.508 165.215 117.156 167.765 114.804 170.314C112.64 172.66 110.473 175.002 108.313 177.35C106.802 178.992 105.296 180.639 103.794 182.289C103.206 182.935 103.174 184.053 103.738 184.517C104.149 184.855 104.643 185.059 105.179 185.062C107.312 185.075 109.445 185.066 111.578 185.065C112.53 185.065 113.484 185.065 114.457 185.065C114.433 185.187 114.419 185.276 114.396 185.363C113.435 189.044 112.473 192.724 111.514 196.405C111.082 198.062 110.652 199.72 110.231 201.38C110.05 202.096 110.422 202.891 111.055 203.194C111.664 203.485 112.528 203.304 112.943 202.823C113.772 201.86 114.61 200.904 115.453 199.953C117.594 197.541 119.743 195.135 121.885 192.723C124.258 190.052 126.627 187.379 128.996 184.705C130.781 182.689 132.575 180.679 134.339 178.645C134.609 178.334 134.794 177.924 134.924 177.529C135.128 176.909 134.906 176.296 134.444 175.988V175.989Z" fill="#E9F0FD"/>
</g>
<defs>
<linearGradient id="paint0_linear_5369_7683" x1="270.834" y1="280.833" x2="166.3" y2="227.065" gradientUnits="userSpaceOnUse">
<stop stop-color="#121314" stop-opacity="0"/>
<stop offset="1" stop-color="#272729"/>
</linearGradient>
<linearGradient id="paint1_linear_5369_7683" x1="249.166" y1="229.167" x2="53.1504" y2="275.795" gradientUnits="userSpaceOnUse">
<stop stop-color="#121314" stop-opacity="0"/>
<stop offset="1" stop-color="#CCCCCC" stop-opacity="0.7"/>
</linearGradient>
<linearGradient id="paint2_linear_5369_7683" x1="115" y1="260" x2="125" y2="265" gradientUnits="userSpaceOnUse">
<stop stop-color="#272729"/>
<stop offset="1" stop-color="#3D3E3E"/>
</linearGradient>
<linearGradient id="paint3_linear_5369_7683" x1="120.321" y1="226.488" x2="120.321" y2="129.821" gradientUnits="userSpaceOnUse">
<stop stop-color="#862511" stop-opacity="0.797"/>
<stop offset="1" stop-color="#7B7B7C" stop-opacity="0"/>
</linearGradient>
<linearGradient id="paint4_linear_5369_7683" x1="120.037" y1="139.721" x2="120.037" y2="213.054" gradientUnits="userSpaceOnUse">
<stop stop-color="#862511" stop-opacity="0"/>
<stop offset="1" stop-color="#862511"/>
</linearGradient>
<linearGradient id="paint5_linear_5369_7683" x1="263.333" y1="125" x2="263.333" y2="223.333" gradientUnits="userSpaceOnUse">
<stop stop-color="white" stop-opacity="0.22"/>
<stop offset="1" stop-opacity="0"/>
</linearGradient>
<linearGradient id="paint6_linear_5369_7683" x1="264.757" y1="150.145" x2="264.757" y2="176.806" gradientUnits="userSpaceOnUse">
<stop stop-color="white"/>
<stop offset="1" stop-color="#5A5A5E" stop-opacity="0"/>
</linearGradient>
<linearGradient id="paint7_linear_5369_7683" x1="221.828" y1="185.401" x2="260.814" y2="258.26" gradientUnits="userSpaceOnUse">
<stop stop-color="#862511" stop-opacity="0.6"/>
<stop offset="0.38" stop-color="#9B9B9B" stop-opacity="0.35"/>
<stop offset="0.8" stop-color="#5C5C5C" stop-opacity="0.1"/>
<stop offset="1" stop-color="#5A5A5A" stop-opacity="0"/>
</linearGradient>
<linearGradient id="paint8_linear_5369_7683" x1="293.274" y1="203.254" x2="263.193" y2="255.355" gradientUnits="userSpaceOnUse">
<stop stop-color="#862511" stop-opacity="0.6"/>
<stop offset="0.38" stop-color="#989898" stop-opacity="0.35"/>
<stop offset="0.8" stop-color="#5F5F5F" stop-opacity="0.1"/>
<stop offset="1" stop-color="#535353" stop-opacity="0"/>
</linearGradient>
<linearGradient id="paint9_linear_5369_7683" x1="219.111" y1="297.553" x2="261.222" y2="255.442" gradientUnits="userSpaceOnUse">
<stop stop-opacity="0.6"/>
<stop offset="0.8" stop-color="#5F5F5F" stop-opacity="0.1"/>
<stop offset="1" stop-color="#535353" stop-opacity="0"/>
</linearGradient>
<linearGradient id="paint10_linear_5369_7683" x1="270.818" y1="261.666" x2="270.818" y2="319.999" gradientUnits="userSpaceOnUse">
<stop stop-color="white"/>
<stop offset="1" stop-color="white" stop-opacity="0"/>
</linearGradient>
<linearGradient id="paint11_linear_5369_7683" x1="240.818" y1="236.381" x2="240.818" y2="274.714" gradientUnits="userSpaceOnUse">
<stop stop-color="white"/>
<stop offset="1" stop-color="white" stop-opacity="0"/>
</linearGradient>
<clipPath id="clip0_5369_7683">
<rect width="400" height="400" fill="white"/>
</clipPath>
</defs>
</svg>
