<svg width="400" height="400" viewBox="0 0 400 400" fill="none" xmlns="http://www.w3.org/2000/svg">
<path d="M77.2603 84.9999C71.7374 84.9999 67.2603 89.477 67.2603 94.9999V299.183C67.2603 304.706 71.7375 309.184 77.2604 309.183L311.215 309.181C316.737 309.181 321.214 304.704 321.214 299.181V94.9999C321.214 89.477 316.737 84.9999 311.214 84.9999H77.2603Z" fill="url(#paint0_linear_5369_7687)"/>
<path d="M184.604 300.353V142.798C184.604 137.995 188.627 134.089 193.621 134.041H312.198C317.192 134.089 321.214 137.995 321.214 142.798V300.425C321.214 305.228 317.192 309.134 312.198 309.182H193.621C188.597 309.134 184.562 305.183 184.604 300.353Z" fill="url(#paint1_linear_5369_7687)"/>
<path d="M67.2598 279.366V114.817C67.4717 108.799 72.5263 104.085 78.5651 104.274H290.626C296.672 104.074 301.737 108.792 301.951 114.817V279.366C301.737 285.391 296.672 290.109 290.626 289.909H78.5651C72.5228 290.109 67.4612 285.389 67.2598 279.366Z" fill="url(#paint2_linear_5369_7687)"/>
<path d="M153.079 123.535H65.5085C59.7048 123.535 55 128.24 55 134.044V214.609C55 220.412 59.7048 225.117 65.5085 225.117H153.079C158.883 225.117 163.588 220.412 163.588 214.609V134.044C163.588 128.24 158.883 123.535 153.079 123.535Z" fill="url(#paint3_linear_5369_7687)"/>
<path d="M140.837 134.043H77.7507C71.9567 134.043 67.2598 138.74 67.2598 144.534V200.614C67.2598 206.408 71.9567 211.105 77.7507 211.105H140.837C146.631 211.105 151.328 206.408 151.328 200.614V144.534C151.328 138.74 146.631 134.043 140.837 134.043Z" fill="url(#paint4_linear_5369_7687)"/>
<path d="M131.987 167.767C131.793 167.159 131.276 166.708 130.672 166.618L116.321 164.479L109.835 150.742C109.641 150.336 109.296 150.021 108.887 149.886C108.477 149.751 108.025 149.773 107.616 149.976C107.292 150.134 107.034 150.404 106.883 150.742L100.44 164.389L86.175 166.528C85.27 166.663 84.6451 167.541 84.7959 168.487C84.839 168.87 85.0114 169.208 85.2915 169.456L95.6993 180.13L93.1997 195.061C93.092 195.714 93.3506 196.367 93.8677 196.75C94.3849 197.133 95.0529 197.2 95.6132 196.907L108.413 189.814L121.277 196.885C121.837 197.2 122.505 197.133 123.023 196.75C123.54 196.367 123.777 195.691 123.669 195.038L121.213 180.108L131.642 169.456C132.03 168.983 132.159 168.352 131.987 167.767Z" fill="#E9F0FD"/>
<path d="M333.474 111.272C336.376 111.272 338.729 108.92 338.729 106.018C338.729 103.116 336.376 100.764 333.474 100.764C330.573 100.764 328.22 103.116 328.22 106.018C328.22 108.92 330.573 111.272 333.474 111.272Z" fill="url(#paint5_linear_5369_7687)"/>
<rect x="195.113" y="144.551" width="35.0282" height="63.0508" rx="6.66667" fill="url(#paint6_linear_5369_7687)"/>
<rect x="275.678" y="144.551" width="35.0282" height="63.0508" rx="6.66667" fill="url(#paint7_linear_5369_7687)"/>
<rect x="235.396" y="144.551" width="35.0282" height="63.0508" rx="6.66667" fill="url(#paint8_linear_5369_7687)"/>
<path d="M222.702 164.416C222.702 162.896 221.382 161.736 219.822 161.736H207.022C205.502 161.736 204.302 162.896 204.302 164.296C204.302 165.736 205.582 166.856 207.022 166.856H216.102L207.342 186.856C207.182 187.216 207.142 187.696 207.142 187.936C207.142 189.456 208.542 190.296 210.022 190.296C211.542 190.296 212.182 189.416 212.502 188.696L222.462 165.576C222.662 165.216 222.702 164.696 222.702 164.416Z" fill="url(#paint9_linear_5369_7687)"/>
<path d="M262.984 164.416C262.984 162.896 261.664 161.736 260.104 161.736H247.304C245.784 161.736 244.584 162.896 244.584 164.296C244.584 165.736 245.864 166.856 247.304 166.856H256.384L247.624 186.856C247.464 187.216 247.424 187.696 247.424 187.936C247.424 189.456 248.824 190.296 250.304 190.296C251.824 190.296 252.464 189.416 252.784 188.696L262.744 165.576C262.944 165.216 262.984 164.696 262.984 164.416Z" fill="url(#paint10_linear_5369_7687)"/>
<path d="M303.267 164.416C303.267 162.896 301.947 161.736 300.387 161.736H287.587C286.067 161.736 284.867 162.896 284.867 164.296C284.867 165.736 286.147 166.856 287.587 166.856H296.667L287.907 186.856C287.747 187.216 287.707 187.696 287.707 187.936C287.707 189.456 289.107 190.296 290.587 190.296C292.107 190.296 292.747 189.416 293.067 188.696L303.027 165.576C303.227 165.216 303.267 164.696 303.267 164.416Z" fill="url(#paint11_linear_5369_7687)"/>
<rect x="331.723" y="113.027" width="3.50282" height="64.8023" rx="1.75141" fill="url(#paint12_linear_5369_7687)"/>
<rect x="322.966" y="160.311" width="7.00565" height="33.2768" rx="3.50282" fill="url(#paint13_linear_5369_7687)"/>
<path d="M142.581 279.409C142.042 258.23 163.117 238.538 197.747 227.865C232.377 217.193 275.194 217.193 309.824 227.865C344.454 238.538 365.529 258.231 364.99 279.409" fill="url(#paint14_linear_5369_7687)"/>
<path d="M169.186 279.826C168.778 264.003 184.723 249.291 210.922 241.318C237.121 233.345 269.515 233.345 295.714 241.318C321.914 249.291 337.858 264.003 337.45 279.826" fill="url(#paint15_linear_5369_7687)"/>
<path d="M190.468 280.705L202.893 279.824C203.141 280.757 203.625 282.124 204.632 283.582C205.737 285.172 207.007 286.197 207.863 286.789L196.501 289.495C195.493 288.681 194.237 287.498 193.05 285.882C191.628 283.924 190.869 282.045 190.455 280.705H190.468Z" fill="#535353"/>
<path d="M205.929 269.863C205.276 270.753 204.549 271.945 204.044 273.425C203.718 274.362 203.555 275.218 203.466 275.958C199.134 275.877 194.787 275.796 190.455 275.715C190.677 274.581 191.122 273.113 192.012 271.494C192.769 270.14 193.644 269.042 194.416 268.221L205.929 269.863Z" fill="#646464"/>
<path d="M215.601 260.164C214.267 260.926 212.846 261.841 211.349 262.908C209.777 264.044 208.381 265.194 207.161 266.288C204.167 265.513 201.186 264.75 198.192 263.975C199.438 262.52 201.161 260.802 203.437 259.208C205.098 258.044 206.67 257.213 208.029 256.617C210.557 257.795 213.072 258.987 215.601 260.164Z" fill="#686868"/>
<path d="M213.68 254.752C216.576 253.819 219.812 252.925 223.36 252.147C226.029 251.577 228.555 251.136 230.926 250.812L234.943 255.374C232.601 255.802 230.174 256.307 227.661 256.891C225.39 257.422 223.204 257.979 221.118 258.549C218.634 257.279 216.15 256.022 213.666 254.752H213.68Z" fill="#696969"/>
<path d="M312.298 280.705L299.874 279.824C299.625 280.757 299.142 282.124 298.134 283.582C297.03 285.172 295.76 286.197 294.904 286.789L306.265 289.495C307.273 288.681 308.529 287.498 309.717 285.882C311.139 283.924 311.898 282.045 312.312 280.705H312.298Z" fill="#535353"/>
<path d="M298.773 269.863C299.344 270.753 299.98 271.945 300.422 273.425C300.707 274.362 300.85 275.218 300.928 275.958C304.718 275.877 308.522 275.796 312.313 275.715C312.118 274.581 311.729 273.113 310.95 271.494C310.288 270.14 309.522 269.042 308.847 268.221L298.773 269.863Z" fill="#646464"/>
<path d="M287.167 260.164C288.648 260.926 290.228 261.841 291.891 262.908C293.638 264.044 295.189 265.194 296.545 266.288C299.871 265.513 303.183 264.75 306.509 263.975C305.126 262.52 303.211 260.802 300.682 259.208C298.837 258.044 297.09 257.213 295.58 256.617C292.771 257.795 289.976 258.987 287.167 260.164Z" fill="#686868"/>
<path d="M289.089 254.752C286.457 253.819 283.515 252.925 280.289 252.147C277.863 251.577 275.566 251.136 273.411 250.812L269.759 255.374C271.888 255.802 274.095 256.307 276.379 256.891C278.443 257.422 280.431 257.979 282.327 258.549C284.585 257.279 286.844 256.022 289.102 254.752H289.089Z" fill="#696969"/>
<path d="M212.63 279.415C212.435 271.94 220.068 264.99 232.612 261.223C245.155 257.457 260.663 257.457 273.206 261.223C285.749 264.99 293.383 271.941 293.188 279.415" fill="url(#paint16_linear_5369_7687)"/>
<path d="M252.034 246.133C255.42 246.133 258.164 243.388 258.164 240.003C258.164 236.618 255.42 233.873 252.034 233.873C248.649 233.873 245.904 236.618 245.904 240.003C245.904 243.388 248.649 246.133 252.034 246.133Z" fill="url(#paint17_linear_5369_7687)"/>
<path d="M244.657 273.753C243.855 272.199 247.656 270.205 248.439 266.116C248.716 264.691 248.506 263.598 248.257 262.283C247.77 259.729 246.089 254.895 245.115 252.367C245.087 252.285 245.01 252.092 245.058 251.862C245.268 250.906 247.35 250.539 248.84 250.382C249.04 250.143 249.308 249.757 249.356 249.252C249.422 248.563 249.031 248.241 249.203 248.002C249.489 247.598 250.664 248.37 252.402 248.351C253.959 248.333 255 247.69 255.267 248.076C255.43 248.305 255.114 248.599 255.133 249.353C255.143 249.785 255.258 250.143 255.353 250.382C256.69 250.649 258.839 251.228 259.049 252.395C259.106 252.726 259.001 252.992 258.934 253.139C257.521 256.521 256.088 259.912 255.687 262.182C255.601 262.651 255.372 264.167 255.773 266.024C256.709 270.389 260.233 272.558 259.374 274.028C258.82 274.966 256.977 274.8 256.614 276.124C256.595 276.206 256.585 276.436 256.576 276.905C256.537 278.816 256.7 279.276 256.365 279.781C256.155 280.112 255.888 280.305 255.334 280.516C252.841 281.463 250.377 281.426 248.057 280.066C247.694 279.855 247.541 279.147 247.465 278.651C247.398 278.21 247.465 277.98 247.446 276.703C247.446 276.372 247.436 276.206 247.426 276.16C247.255 274.874 245.154 274.773 244.638 273.762L244.657 273.753Z" fill="url(#paint18_linear_5369_7687)"/>
<rect x="77.7681" y="267.146" width="59.548" height="5.25424" rx="2.62712" fill="#313131"/>
<rect x="79.5195" y="265.396" width="35.0282" height="5.25424" rx="2.62712" fill="url(#paint19_linear_5369_7687)"/>
<defs>
<linearGradient id="paint0_linear_5369_7687" x1="255.552" y1="87.6124" x2="189.905" y2="199.262" gradientUnits="userSpaceOnUse">
<stop stop-color="#121314" stop-opacity="0"/>
<stop offset="1" stop-color="#272729"/>
</linearGradient>
<linearGradient id="paint1_linear_5369_7687" x1="266.944" y1="242.136" x2="312.707" y2="134.306" gradientUnits="userSpaceOnUse">
<stop stop-color="#171717" stop-opacity="0"/>
<stop offset="1" stop-color="#585858"/>
</linearGradient>
<linearGradient id="paint2_linear_5369_7687" x1="315.085" y1="270.649" x2="36.6921" y2="141.008" gradientUnits="userSpaceOnUse">
<stop stop-color="#121314" stop-opacity="0"/>
<stop offset="1" stop-color="#CCCCCC" stop-opacity="0.7"/>
</linearGradient>
<linearGradient id="paint3_linear_5369_7687" x1="109.63" y1="224.929" x2="109.63" y2="123.347" gradientUnits="userSpaceOnUse">
<stop stop-color="#862511" stop-opacity="0.797"/>
<stop offset="1" stop-color="#7B7B7C" stop-opacity="0"/>
</linearGradient>
<linearGradient id="paint4_linear_5369_7687" x1="109.331" y1="133.749" x2="109.331" y2="210.812" gradientUnits="userSpaceOnUse">
<stop stop-color="#862511" stop-opacity="0"/>
<stop offset="1" stop-color="#862511"/>
</linearGradient>
<linearGradient id="paint5_linear_5369_7687" x1="328.22" y1="106.018" x2="338.729" y2="106.018" gradientUnits="userSpaceOnUse">
<stop stop-color="#33805E"/>
<stop offset="0.9875" stop-color="#33805E"/>
</linearGradient>
<linearGradient id="paint6_linear_5369_7687" x1="212.627" y1="144.551" x2="212.627" y2="207.602" gradientUnits="userSpaceOnUse">
<stop stop-color="#606060" stop-opacity="0.22"/>
<stop offset="0.503125" stop-color="#A9A9A9" stop-opacity="0.7"/>
<stop offset="1" stop-opacity="0.15"/>
</linearGradient>
<linearGradient id="paint7_linear_5369_7687" x1="293.192" y1="144.551" x2="293.192" y2="207.602" gradientUnits="userSpaceOnUse">
<stop stop-color="#606060" stop-opacity="0.22"/>
<stop offset="0.503125" stop-color="#A9A9A9" stop-opacity="0.7"/>
<stop offset="1" stop-opacity="0.15"/>
</linearGradient>
<linearGradient id="paint8_linear_5369_7687" x1="252.91" y1="144.551" x2="252.91" y2="207.602" gradientUnits="userSpaceOnUse">
<stop stop-color="#606060" stop-opacity="0.22"/>
<stop offset="0.503125" stop-color="#A9A9A9" stop-opacity="0.7"/>
<stop offset="1" stop-opacity="0.15"/>
</linearGradient>
<linearGradient id="paint9_linear_5369_7687" x1="213.503" y1="153.31" x2="213.503" y2="209.355" gradientUnits="userSpaceOnUse">
<stop stop-color="#FFD600"/>
<stop offset="1" stop-opacity="0"/>
</linearGradient>
<linearGradient id="paint10_linear_5369_7687" x1="253.786" y1="153.31" x2="253.786" y2="209.355" gradientUnits="userSpaceOnUse">
<stop stop-color="#2FBA7D"/>
<stop offset="1" stop-opacity="0"/>
</linearGradient>
<linearGradient id="paint11_linear_5369_7687" x1="294.068" y1="153.31" x2="294.068" y2="209.355" gradientUnits="userSpaceOnUse">
<stop stop-color="#B52439"/>
<stop offset="1" stop-opacity="0"/>
</linearGradient>
<linearGradient id="paint12_linear_5369_7687" x1="333.474" y1="113.027" x2="333.474" y2="177.83" gradientUnits="userSpaceOnUse">
<stop stop-color="white" stop-opacity="0.14"/>
<stop offset="1" stop-color="#878787" stop-opacity="0.38"/>
</linearGradient>
<linearGradient id="paint13_linear_5369_7687" x1="326.469" y1="160.311" x2="326.469" y2="193.587" gradientUnits="userSpaceOnUse">
<stop stop-color="#707070" stop-opacity="0.61"/>
<stop offset="1" stop-color="#515151" stop-opacity="0.36"/>
</linearGradient>
<linearGradient id="paint14_linear_5369_7687" x1="249.604" y1="163.331" x2="249.604" y2="267.831" gradientUnits="userSpaceOnUse">
<stop stop-color="#862511"/>
<stop offset="1" stop-color="#121314" stop-opacity="0"/>
</linearGradient>
<linearGradient id="paint15_linear_5369_7687" x1="253.31" y1="217.235" x2="253.349" y2="279.826" gradientUnits="userSpaceOnUse">
<stop stop-color="#862511"/>
<stop offset="1" stop-color="#121314" stop-opacity="0"/>
</linearGradient>
<linearGradient id="paint16_linear_5369_7687" x1="253.3" y1="245.638" x2="252.936" y2="279.416" gradientUnits="userSpaceOnUse">
<stop stop-opacity="0.697"/>
<stop offset="1" stop-color="#121314" stop-opacity="0"/>
</linearGradient>
<linearGradient id="paint17_linear_5369_7687" x1="245.904" y1="240.003" x2="258.164" y2="240.003" gradientUnits="userSpaceOnUse">
<stop stop-color="white"/>
</linearGradient>
<linearGradient id="paint18_linear_5369_7687" x1="259.04" y1="281.162" x2="259.04" y2="251.388" gradientUnits="userSpaceOnUse">
<stop stop-color="#2E2E2E"/>
<stop offset="0.230455" stop-color="#646464"/>
<stop offset="0.620359" stop-color="#292929"/>
<stop offset="1" stop-color="#575757"/>
</linearGradient>
<linearGradient id="paint19_linear_5369_7687" x1="97.0337" y1="265.396" x2="97.0337" y2="270.651" gradientUnits="userSpaceOnUse">
<stop stop-color="#862511"/>
<stop offset="1" stop-color="#A62E15"/>
</linearGradient>
</defs>
</svg>
