<svg viewBox="0 0 21 16" fill="none" xmlns="http://www.w3.org/2000/svg">
<rect width="21" height="15" rx="3" fill="#F93939"/>
<path fill-rule="evenodd" clip-rule="evenodd" d="M14.0011 8.652L12.8391 9.262L13.0611 7.969L12.1211 7.052L13.4211 6.862L14.0011 5.686L14.5811 6.863L15.8811 7.053L14.9411 7.968L15.1631 9.261" fill="white"/>
<path fill-rule="evenodd" clip-rule="evenodd" d="M9.5 11C11.433 11 13 9.433 13 7.5C13 5.567 11.433 4 9.5 4C7.567 4 6 5.567 6 7.5C6 9.433 7.567 11 9.5 11ZM10.5 10C11.88 10 13 8.88 13 7.5C13 6.12 11.88 5 10.5 5C9.12 5 8 6.12 8 7.5C8 8.88 9.12 10 10.5 10Z" fill="white"/>
</svg>
