<svg width="400" height="400" viewBox="0 0 400 400" fill="none" xmlns="http://www.w3.org/2000/svg">
<g clip-path="url(#clip0_5381_13005)">
<path d="M96.3324 91.5078C96.3324 85.7078 101.081 81.0078 106.937 81.0078H320.734C326.589 81.0078 331.334 85.7078 331.334 91.5078V280.508C331.334 286.308 326.589 291.008 320.734 291.008H106.847C104.036 290.984 101.347 289.858 99.3757 287.871C97.4041 285.884 96.3091 283.204 96.3324 280.421V91.5078Z" fill="url(#paint0_linear_5381_13005)"/>
<path d="M118 266.008H321.333C326.856 266.008 331.333 261.531 331.333 256.008V136.008C331.333 130.485 326.856 126.008 321.333 126.008L118 126.008C112.477 126.008 108 130.485 108 136.008L108 256.008C108 261.531 112.477 266.008 118 266.008Z" fill="url(#paint1_linear_5381_13005)"/>
<path d="M316.334 151.114L309.668 161.222L303.001 151.114L309.668 141.004L316.334 151.114Z" fill="#A4393B"/>
<path d="M316.334 180.698L309.668 190.806L303.001 180.698L309.668 170.588L316.334 180.698Z" fill="#272729"/>
<path d="M189.667 116.008H106.333C100.811 116.008 96.3335 120.485 96.3335 126.008V202.674C96.3335 208.197 100.811 212.674 106.333 212.674H189.667C195.19 212.674 199.667 208.197 199.667 202.674V126.008C199.667 120.485 195.19 116.008 189.667 116.008Z" fill="url(#paint2_linear_5381_13005)"/>
<path d="M178 126.006H118C112.478 126.006 108 130.483 108 136.006V189.339C108 194.862 112.478 199.339 118 199.339H178C183.523 199.339 188 194.862 188 189.339V136.006C188 130.483 183.523 126.006 178 126.006Z" fill="url(#paint3_linear_5381_13005)"/>
<path d="M244.225 245.74H256.285V251.682H238.001V220.175H244.225V245.74ZM262.401 226.452C261.458 226.449 260.553 226.069 259.891 225.394C259.226 224.744 258.856 223.854 258.866 222.927C258.866 221.977 259.248 221.069 259.926 220.405C260.593 219.725 261.505 219.344 262.456 219.344C263.406 219.344 264.318 219.727 264.985 220.405C265.663 221.069 266.046 221.977 266.045 222.925C266.051 223.865 265.666 224.765 264.985 225.412C264.301 226.095 263.368 226.472 262.401 226.452ZM259.52 251.664V229.167H265.336V251.684L259.52 251.664ZM285.531 229.167H291.931L283.356 251.682H276.725L268.15 229.167H274.568L280.031 244.929L285.531 229.167ZM298.756 242.814C299.535 245.635 301.656 247.045 305.123 247.045C307.066 247.162 308.945 246.319 310.145 244.789L314.848 247.485C312.63 250.692 308.898 252.515 304.998 252.299C301.673 252.45 298.431 251.232 296.033 248.932C293.775 246.687 292.546 243.612 292.638 240.432C292.548 237.265 293.755 234.199 295.981 231.935C298.243 229.667 301.35 228.44 304.556 228.55C307.656 228.442 310.646 229.692 312.743 231.97C314.903 234.254 316.066 237.297 315.98 240.434C315.968 241.232 315.891 242.029 315.75 242.814H298.756ZM298.668 238.317H310.145C309.933 236.955 309.198 235.727 308.093 234.897C307.071 234.144 305.826 233.747 304.556 233.769C303.163 233.714 301.791 234.13 300.666 234.95C299.623 235.804 298.916 236.995 298.668 238.317Z" fill="white"/>
<path d="M165.88 151.518L156.89 158.229V154.618C156.89 152.623 155.273 151.006 153.28 151.006H131.613C129.618 151.006 128.001 152.623 128.001 154.618V176.284C128.001 178.278 129.618 179.896 131.613 179.896H153.28C155.273 179.896 156.89 178.279 156.89 176.284V172.673L165.88 179.384C168.286 180.814 171.335 179.078 171.335 176.274V154.629C171.335 151.823 168.286 150.088 165.88 151.518Z" fill="white"/>
<path d="M135.301 262.767C131.455 270.314 114.006 271.247 97.4991 262.836C80.9902 254.424 71.5055 239.768 75.3508 232.221C79.1961 224.674 95.787 225.424 112.28 233.828C128.769 242.23 139.146 255.22 135.301 262.767Z" fill="url(#paint4_linear_5381_13005)"/>
<path d="M130.178 272.696C126.342 280.225 109.759 279.456 93.3017 271.071C76.8448 262.686 66.5939 249.782 70.3128 242.194L75.4111 232.188L135.327 262.716L130.178 272.696Z" fill="url(#paint5_linear_5381_13005)"/>
<path d="M99.9441 258.037C112.401 264.384 124.904 264.808 127.871 258.984C130.839 253.16 123.147 243.294 110.69 236.947C98.2337 230.6 85.7302 230.176 82.7628 236C79.7954 241.824 87.4877 251.69 99.9441 258.037Z" fill="url(#paint6_linear_5381_13005)"/>
<path opacity="0.574" d="M98.9538 258.31C112.449 265.186 125.93 265.774 129.065 259.623C132.199 253.472 123.799 242.911 110.304 236.035C96.808 229.158 83.3269 228.57 80.1928 234.722C77.0586 240.873 85.4582 251.434 98.9538 258.31Z" fill="url(#paint7_linear_5381_13005)"/>
<path d="M135.232 262.9C134.4 264.397 133.197 265.654 131.739 266.552C130.262 267.386 128.674 268.006 127.023 268.391C123.677 269.135 120.236 269.357 116.823 269.049C103.06 267.697 90.3124 261.201 81.1288 250.862C78.8697 248.284 77.0262 245.367 75.6652 242.223C75.0025 240.66 74.5707 239.011 74.3815 237.327C74.247 235.612 74.5604 233.892 75.2915 232.336C74.6312 233.9 74.3953 235.611 74.6113 237.294C74.8589 238.956 75.3497 240.574 76.0709 242.091C77.4863 245.143 79.3679 247.956 81.6471 250.428C83.9076 252.923 86.3977 255.202 89.0865 257.23C91.7988 259.22 94.6632 260.992 97.6524 262.53C100.679 264.069 103.821 265.365 107.051 266.406C110.268 267.383 113.569 268.055 116.912 268.417C120.254 268.812 123.638 268.691 126.941 268.052C128.593 267.725 130.192 267.168 131.688 266.398C133.147 265.55 134.366 264.346 135.232 262.9Z" fill="url(#paint8_linear_5381_13005)"/>
<path d="M294.974 116.251C298.444 121.207 293.18 132.525 282.34 140.115C271.5 147.705 259.076 148.773 255.605 143.817C252.135 138.862 258.174 128.651 269.003 121.068C279.833 113.486 291.504 111.295 294.974 116.251Z" fill="url(#paint9_linear_5381_13005)"/>
<path d="M299.519 122.81C302.981 127.755 296.935 137.956 286.128 145.523C275.321 153.091 263.746 155.228 260.206 150.337L255.606 143.768L294.951 116.218L299.519 122.81Z" fill="url(#paint10_linear_5381_13005)"/>
<path d="M280.133 136.962C288.313 131.234 292.774 123.491 290.096 119.667C287.418 115.842 278.616 117.385 270.436 123.113C262.255 128.841 257.795 136.585 260.473 140.409C263.15 144.233 271.953 142.69 280.133 136.962Z" fill="url(#paint11_linear_5381_13005)"/>
<path d="M280.469 136.304C288.741 130.513 293.306 122.761 290.666 118.991C288.026 115.221 279.181 116.86 270.909 122.652C262.638 128.444 258.073 136.195 260.712 139.965C263.352 143.735 272.198 142.096 280.469 136.304Z" fill="url(#paint12_linear_5381_13005)"/>
<path d="M295.037 116.337C295.701 117.364 296.092 118.545 296.167 119.765C296.201 120.975 296.059 122.185 295.747 123.356C295.093 125.716 294.081 127.961 292.742 130.012C287.273 138.236 278.901 144.098 269.303 146.424C266.919 146.982 264.463 147.168 262.02 146.972C260.815 146.866 259.629 146.585 258.503 146.139C257.377 145.649 256.397 144.874 255.661 143.893C256.425 144.833 257.425 145.555 258.559 145.983C259.691 146.385 260.874 146.616 262.074 146.671C264.473 146.802 266.879 146.559 269.201 145.95C271.536 145.361 273.807 144.554 275.987 143.538C278.151 142.497 280.228 141.285 282.201 139.913C284.188 138.522 286.058 136.974 287.798 135.286C289.492 133.585 291.024 131.729 292.373 129.743C293.743 127.766 294.8 125.592 295.507 123.294C295.854 122.142 296.038 120.949 296.054 119.745C296.009 118.542 295.659 117.369 295.037 116.337Z" fill="url(#paint13_linear_5381_13005)"/>
<path opacity="0.565" d="M179.668 291.008H106.818C101.028 291.008 96.335 286.294 96.335 280.479V91.0078" fill="url(#paint14_linear_5381_13005)"/>
<path d="M314.668 319.331C279.101 319.8 246.033 301.481 228.109 271.381C210.188 241.281 210.188 204.065 228.109 173.965C246.033 143.865 279.103 125.546 314.668 126.015" fill="url(#paint15_linear_5381_13005)"/>
</g>
<defs>
<linearGradient id="paint0_linear_5381_13005" x1="323.264" y1="122.141" x2="209.897" y2="214.019" gradientUnits="userSpaceOnUse">
<stop stop-color="#121314" stop-opacity="0"/>
<stop offset="1" stop-color="#272729"/>
</linearGradient>
<linearGradient id="paint1_linear_5381_13005" x1="100.501" y1="231.201" x2="246.669" y2="137.258" gradientUnits="userSpaceOnUse">
<stop stop-color="#121314" stop-opacity="0"/>
<stop offset="1" stop-color="#CCCCCC" stop-opacity="0.7"/>
</linearGradient>
<linearGradient id="paint2_linear_5381_13005" x1="148.32" y1="212.496" x2="148.32" y2="115.829" gradientUnits="userSpaceOnUse">
<stop stop-color="#013F1E" stop-opacity="0.797"/>
<stop offset="1" stop-color="#7B7B7C" stop-opacity="0"/>
</linearGradient>
<linearGradient id="paint3_linear_5381_13005" x1="148.364" y1="126.006" x2="148.364" y2="199.339" gradientUnits="userSpaceOnUse">
<stop stop-color="#056431"/>
<stop offset="1" stop-color="#056431" stop-opacity="0"/>
</linearGradient>
<linearGradient id="paint4_linear_5381_13005" x1="98.0985" y1="256.66" x2="106.555" y2="241.92" gradientUnits="userSpaceOnUse">
<stop stop-color="#121314" stop-opacity="0"/>
<stop offset="0.12" stop-color="#18181A" stop-opacity="0.26"/>
<stop offset="0.38" stop-color="#202122" stop-opacity="0.68"/>
<stop offset="0.65" stop-color="#252527" stop-opacity="0.92"/>
<stop offset="1" stop-color="#272729"/>
</linearGradient>
<linearGradient id="paint5_linear_5381_13005" x1="94.6145" y1="263.499" x2="99.5053" y2="254.97" gradientUnits="userSpaceOnUse">
<stop stop-color="#121314" stop-opacity="0"/>
<stop offset="0.13" stop-color="#18191A" stop-opacity="0.29"/>
<stop offset="0.15" stop-color="#191A1B" stop-opacity="0.36"/>
<stop offset="0.24" stop-color="#212123" stop-opacity="0.72"/>
<stop offset="0.34" stop-color="#262628" stop-opacity="0.93"/>
<stop offset="0.46" stop-color="#272729"/>
</linearGradient>
<linearGradient id="paint6_linear_5381_13005" x1="100.644" y1="253.125" x2="106.392" y2="243.1" gradientUnits="userSpaceOnUse">
<stop stop-color="#121314" stop-opacity="0"/>
<stop offset="0.07" stop-color="#18181A" stop-opacity="0.26"/>
<stop offset="0.22" stop-color="#202122" stop-opacity="0.68"/>
<stop offset="0.39" stop-color="#252527" stop-opacity="0.92"/>
<stop offset="0.59" stop-color="#272729"/>
</linearGradient>
<linearGradient id="paint7_linear_5381_13005" x1="99.8566" y1="252.788" x2="105.632" y2="242.714" gradientUnits="userSpaceOnUse">
<stop stop-color="#121314" stop-opacity="0"/>
<stop offset="0.14" stop-color="#505152" stop-opacity="0.07"/>
<stop offset="0.36" stop-color="#969697" stop-opacity="0.14"/>
<stop offset="0.62" stop-color="#BFBFBF" stop-opacity="0.19"/>
<stop offset="1" stop-color="#CCCCCC" stop-opacity="0.2"/>
</linearGradient>
<linearGradient id="paint8_linear_5381_13005" x1="100.2" y1="255.615" x2="100.887" y2="254.417" gradientUnits="userSpaceOnUse">
<stop stop-color="#056431" stop-opacity="0.9"/>
<stop offset="1" stop-color="#056431" stop-opacity="0"/>
</linearGradient>
<linearGradient id="paint9_linear_5381_13005" x1="278.647" y1="137.666" x2="272.187" y2="127.391" gradientUnits="userSpaceOnUse">
<stop stop-color="#121314" stop-opacity="0"/>
<stop offset="0.12" stop-color="#18181A" stop-opacity="0.26"/>
<stop offset="0.38" stop-color="#202122" stop-opacity="0.68"/>
<stop offset="0.65" stop-color="#252527" stop-opacity="0.92"/>
<stop offset="1" stop-color="#272729"/>
</linearGradient>
<linearGradient id="paint10_linear_5381_13005" x1="281.793" y1="142.156" x2="278.054" y2="136.212" gradientUnits="userSpaceOnUse">
<stop stop-color="#121314" stop-opacity="0"/>
<stop offset="0.13" stop-color="#18191A" stop-opacity="0.29"/>
<stop offset="0.15" stop-color="#191A1B" stop-opacity="0.36"/>
<stop offset="0.24" stop-color="#212123" stop-opacity="0.72"/>
<stop offset="0.34" stop-color="#262628" stop-opacity="0.93"/>
<stop offset="0.46" stop-color="#272729"/>
</linearGradient>
<linearGradient id="paint11_linear_5381_13005" x1="277.269" y1="134.874" x2="272.875" y2="127.887" gradientUnits="userSpaceOnUse">
<stop stop-color="#121314" stop-opacity="0"/>
<stop offset="0.07" stop-color="#18181A" stop-opacity="0.26"/>
<stop offset="0.22" stop-color="#202122" stop-opacity="0.68"/>
<stop offset="0.39" stop-color="#252527" stop-opacity="0.92"/>
<stop offset="0.59" stop-color="#272729"/>
</linearGradient>
<linearGradient id="paint12_linear_5381_13005" x1="277.501" y1="134.045" x2="273.379" y2="127.492" gradientUnits="userSpaceOnUse">
<stop stop-color="#121314" stop-opacity="0"/>
<stop offset="0.14" stop-color="#505152" stop-opacity="0.07"/>
<stop offset="0.36" stop-color="#969697" stop-opacity="0.14"/>
<stop offset="0.62" stop-color="#BFBFBF" stop-opacity="0.19"/>
<stop offset="1" stop-color="#CCCCCC" stop-opacity="0.2"/>
</linearGradient>
<linearGradient id="paint13_linear_5381_13005" x1="278.695" y1="135.989" x2="278.17" y2="135.154" gradientUnits="userSpaceOnUse">
<stop stop-color="#056431" stop-opacity="0.9"/>
<stop offset="1" stop-color="#056431" stop-opacity="0"/>
</linearGradient>
<linearGradient id="paint14_linear_5381_13005" x1="129.27" y1="283.302" x2="157.67" y2="265.35" gradientUnits="userSpaceOnUse">
<stop stop-color="#013F1E" stop-opacity="0.6"/>
<stop offset="1" stop-color="#121314" stop-opacity="0"/>
</linearGradient>
<linearGradient id="paint15_linear_5381_13005" x1="214.668" y1="222.683" x2="314.668" y2="222.683" gradientUnits="userSpaceOnUse">
<stop stop-color="#013F1E"/>
<stop offset="1" stop-color="#121314" stop-opacity="0"/>
</linearGradient>
<clipPath id="clip0_5381_13005">
<rect width="263.333" height="238.333" fill="white" transform="translate(68 81)"/>
</clipPath>
</defs>
</svg>
