<svg width="400" height="400" viewBox="0 0 400 400" fill="none" xmlns="http://www.w3.org/2000/svg">
<g clip-path="url(#clip0_5381_13368)">
<path d="M84.6679 103.752V295.663C84.6679 301.513 89.4279 306.272 95.3379 306.33H191.55V92.9967H95.3379C89.3929 93.0551 84.6179 97.8684 84.6679 103.752Z" fill="url(#paint0_linear_5381_13368)"/>
<path d="M164.668 295.574V103.663C164.668 97.8128 169.428 93.0544 175.338 92.9961H315.665C321.575 93.0544 326.335 97.8128 326.335 103.663V295.663C326.335 301.513 321.575 306.271 315.665 306.329H175.338C169.393 306.271 164.618 301.458 164.668 295.574Z" fill="url(#paint1_linear_5381_13368)"/>
<path d="M84.6675 277.956V121.369C84.8691 115.643 89.6791 111.156 95.4258 111.336H297.226C302.979 111.146 307.799 115.636 308.002 121.369V277.956C307.799 283.689 302.979 288.179 297.226 287.989H95.4258C89.6758 288.179 84.8591 283.688 84.6675 277.956Z" fill="url(#paint2_linear_5381_13368)"/>
<path d="M166.334 129.662H83.001C77.4781 129.662 73.001 134.139 73.001 139.662V216.329C73.001 221.852 77.4781 226.329 83.001 226.329H166.334C171.857 226.329 176.334 221.852 176.334 216.329V139.662C176.334 134.139 171.857 129.662 166.334 129.662Z" fill="url(#paint3_linear_5381_13368)"/>
<path d="M154.684 139.662H94.6508C89.1372 139.662 84.6675 144.132 84.6675 149.645V203.012C84.6675 208.526 89.1372 212.995 94.6508 212.995H154.684C160.198 212.995 164.667 208.526 164.667 203.012V149.645C164.667 144.132 160.198 139.662 154.684 139.662Z" fill="url(#paint4_linear_5381_13368)"/>
<path d="M294.883 196.33H198.216C194.533 196.33 191.549 199.313 191.549 202.997C191.549 206.68 194.533 209.663 198.216 209.663H294.883C298.564 209.663 301.549 206.68 301.549 202.997C301.549 199.313 298.564 196.33 294.883 196.33ZM294.883 229.663H198.216C194.533 229.663 191.549 232.647 191.549 236.33C191.549 240.013 194.533 242.997 198.216 242.997H294.883C298.564 242.997 301.549 240.013 301.549 236.33C301.549 232.647 298.564 229.663 294.883 229.663ZM294.883 262.997H198.216C194.533 262.997 191.549 265.98 191.549 269.663C191.549 273.347 194.533 276.33 198.216 276.33H294.883C298.564 276.33 301.549 273.347 301.549 269.663C301.549 265.98 298.564 262.997 294.883 262.997Z" fill="url(#paint5_linear_5381_13368)"/>
<path d="M198.001 209.663H244.668C248.349 209.663 251.334 206.68 251.334 202.997C251.334 199.313 248.349 196.33 244.668 196.33H198.001C194.318 196.33 191.334 199.313 191.334 202.997C191.334 206.68 194.318 209.663 198.001 209.663Z" fill="url(#paint6_linear_5381_13368)"/>
<path d="M214.668 242.995H229.668C233.349 242.995 236.334 240.012 236.334 236.329C236.334 232.645 233.349 229.662 229.668 229.662H214.668C210.984 229.662 208.001 232.645 208.001 236.329C208.001 240.012 210.984 242.995 214.668 242.995Z" fill="url(#paint7_linear_5381_13368)"/>
<path d="M305.374 275.73H197.458" stroke="url(#paint8_linear_5381_13368)" stroke-width="13.3333" stroke-linecap="round"/>
<path d="M198.001 276.329H276.334C280.016 276.329 283.001 273.346 283.001 269.663C283.001 265.979 280.016 262.996 276.334 262.996H198.001C194.318 262.996 191.334 265.979 191.334 269.663C191.334 273.346 194.318 276.329 198.001 276.329Z" fill="url(#paint9_linear_5381_13368)"/>
<path d="M104.834 239.662H97.8341C96.0852 239.662 94.6675 241.08 94.6675 242.829V249.829C94.6675 251.578 96.0852 252.995 97.8341 252.995H104.834C106.583 252.995 108.001 251.578 108.001 249.829V242.829C108.001 241.08 106.583 239.662 104.834 239.662Z" fill="url(#paint10_linear_5381_13368)"/>
<path d="M131.501 239.662H124.501C122.752 239.662 121.334 241.08 121.334 242.829V249.829C121.334 251.578 122.752 252.995 124.501 252.995H131.501C133.25 252.995 134.668 251.578 134.668 249.829V242.829C134.668 241.08 133.25 239.662 131.501 239.662Z" fill="url(#paint11_linear_5381_13368)"/>
<path d="M158.168 239.662H151.168C149.419 239.662 148.001 241.08 148.001 242.829V249.829C148.001 251.578 149.419 252.995 151.168 252.995H158.168C159.917 252.995 161.334 251.578 161.334 249.829V242.829C161.334 241.08 159.917 239.662 158.168 239.662Z" fill="#2C574D"/>
<path d="M104.834 262.996H97.8341C96.0852 262.996 94.6675 264.414 94.6675 266.163V273.163C94.6675 274.912 96.0852 276.329 97.8341 276.329H104.834C106.583 276.329 108.001 274.912 108.001 273.163V266.163C108.001 264.414 106.583 262.996 104.834 262.996Z" fill="url(#paint12_linear_5381_13368)"/>
<path d="M131.501 262.996H124.501C122.752 262.996 121.334 264.414 121.334 266.163V273.163C121.334 274.912 122.752 276.329 124.501 276.329H131.501C133.25 276.329 134.668 274.912 134.668 273.163V266.163C134.668 264.414 133.25 262.996 131.501 262.996Z" fill="#A24543"/>
<path d="M158.168 262.996H151.168C149.419 262.996 148.001 264.414 148.001 266.163V273.163C148.001 274.912 149.419 276.329 151.168 276.329H158.168C159.917 276.329 161.334 274.912 161.334 273.163V266.163C161.334 264.414 159.917 262.996 158.168 262.996Z" fill="url(#paint13_linear_5381_13368)"/>
<path d="M228.109 139.662L238.218 146.329L228.109 152.995L218.001 146.329L228.109 139.662Z" fill="#A4393B"/>
<path d="M201.443 139.662L211.551 146.329L201.443 152.995L191.334 146.329L201.443 139.662Z" fill="#272729"/>
<path d="M120.472 181.595C120.072 196.995 130.927 200.872 130.927 200.872C149.659 191.125 137.897 169.515 137.897 169.515C135.039 178.22 130.301 178.024 130.301 178.024C134.656 159.445 121.779 155.174 121.779 155.174C121.779 155.174 121.587 162.21 111.186 169.712C100.784 177.215 101.934 192.112 115.542 198.557C115.542 198.557 112.684 187.895 120.472 181.595Z" fill="#E9F0FD"/>
</g>
<defs>
<linearGradient id="paint0_linear_5381_13368" x1="163.914" y1="95.4799" x2="95.2287" y2="147.145" gradientUnits="userSpaceOnUse">
<stop stop-color="#121314" stop-opacity="0"/>
<stop offset="1" stop-color="#272729"/>
</linearGradient>
<linearGradient id="paint1_linear_5381_13368" x1="301.066" y1="144.465" x2="198.48" y2="208.403" gradientUnits="userSpaceOnUse">
<stop stop-color="#121314" stop-opacity="0"/>
<stop offset="1" stop-color="#272729"/>
</linearGradient>
<linearGradient id="paint2_linear_5381_13368" x1="332.174" y1="134.756" x2="202.859" y2="285.428" gradientUnits="userSpaceOnUse">
<stop stop-color="#121314" stop-opacity="0"/>
<stop offset="1" stop-color="#CCCCCC" stop-opacity="0.7"/>
</linearGradient>
<linearGradient id="paint3_linear_5381_13368" x1="124.988" y1="226.15" x2="124.988" y2="129.483" gradientUnits="userSpaceOnUse">
<stop stop-color="#013F1E" stop-opacity="0.797"/>
<stop offset="1" stop-color="#7B7B7C" stop-opacity="0"/>
</linearGradient>
<linearGradient id="paint4_linear_5381_13368" x1="125.031" y1="139.662" x2="125.031" y2="212.995" gradientUnits="userSpaceOnUse">
<stop stop-color="#056431"/>
<stop offset="1" stop-color="#056431" stop-opacity="0"/>
</linearGradient>
<linearGradient id="paint5_linear_5381_13368" x1="173.207" y1="236.33" x2="320.809" y2="236.33" gradientUnits="userSpaceOnUse">
<stop stop-color="#121314"/>
<stop offset="0.51" stop-color="#121314" stop-opacity="0.34"/>
<stop offset="1" stop-color="#121314" stop-opacity="0"/>
</linearGradient>
<linearGradient id="paint6_linear_5381_13368" x1="309.365" y1="202.997" x2="133.914" y2="202.997" gradientUnits="userSpaceOnUse">
<stop stop-color="#121314"/>
<stop offset="0.51" stop-color="#121314" stop-opacity="0.34"/>
<stop offset="1" stop-color="#121314" stop-opacity="0"/>
</linearGradient>
<linearGradient id="paint7_linear_5381_13368" x1="263.738" y1="236.329" x2="180.886" y2="236.329" gradientUnits="userSpaceOnUse">
<stop stop-color="#121314"/>
<stop offset="0.51" stop-color="#121314" stop-opacity="0.34"/>
<stop offset="1" stop-color="#121314" stop-opacity="0"/>
</linearGradient>
<linearGradient id="paint8_linear_5381_13368" x1="-nan" y1="-nan" x2="-nan" y2="-nan" gradientUnits="userSpaceOnUse">
<stop stop-color="#121314"/>
<stop offset="0.51" stop-color="#121314" stop-opacity="0.34"/>
<stop offset="1" stop-color="#121314" stop-opacity="0"/>
</linearGradient>
<linearGradient id="paint9_linear_5381_13368" x1="191.334" y1="269.663" x2="283.001" y2="269.663" gradientUnits="userSpaceOnUse">
<stop stop-color="#013F1E"/>
<stop offset="1" stop-color="#024F26"/>
</linearGradient>
<linearGradient id="paint10_linear_5381_13368" x1="94.6675" y1="246.329" x2="108.001" y2="246.329" gradientUnits="userSpaceOnUse">
<stop offset="0.59" stop-color="#272729"/>
<stop offset="0.71" stop-color="#272729"/>
</linearGradient>
<linearGradient id="paint11_linear_5381_13368" x1="121.334" y1="246.329" x2="134.668" y2="246.329" gradientUnits="userSpaceOnUse">
<stop offset="0.59" stop-color="#272729"/>
<stop offset="0.71" stop-color="#272729"/>
</linearGradient>
<linearGradient id="paint12_linear_5381_13368" x1="94.6675" y1="269.663" x2="108.001" y2="269.663" gradientUnits="userSpaceOnUse">
<stop offset="0.59" stop-color="#272729"/>
<stop offset="0.71" stop-color="#272729"/>
</linearGradient>
<linearGradient id="paint13_linear_5381_13368" x1="148.001" y1="269.663" x2="161.334" y2="269.663" gradientUnits="userSpaceOnUse">
<stop offset="0.59" stop-color="#272729"/>
<stop offset="0.71" stop-color="#272729"/>
</linearGradient>
<clipPath id="clip0_5381_13368">
<rect width="253.333" height="213.333" fill="white" transform="translate(73 93)"/>
</clipPath>
</defs>
</svg>
