<svg width="180" height="100" viewBox="0 0 180 100" fill="none" xmlns="http://www.w3.org/2000/svg">
<path d="M19.7947 47.8626C15.9839 47.8626 12.8572 44.8227 12.8572 41.1178C12.8572 37.4129 15.9839 34.373 19.7947 34.373C23.6054 34.373 26.7321 37.4129 26.7321 41.1178C26.7321 44.8227 23.6054 47.8626 19.7947 47.8626ZM19.7947 36.748C17.303 36.748 15.3 38.6954 15.3 41.1178C15.3 43.5402 17.303 45.4877 19.7947 45.4877C22.2863 45.4877 24.2894 43.5402 24.2894 41.1178C24.2894 38.6954 22.2863 36.748 19.7947 36.748Z" fill="white"/>
<path d="M42.2686 51.9949C39.435 51.9949 37.1876 49.7625 37.1876 47.0551C37.1876 44.3002 39.4838 42.1152 42.2686 42.1152C45.1022 42.1152 47.3496 44.3477 47.3496 47.0551C47.3984 49.7625 45.1022 51.9949 42.2686 51.9949ZM42.2686 44.0152C40.5587 44.0152 39.1418 45.3926 39.1418 47.0551C39.1418 48.7175 40.5587 50.095 42.2686 50.095C43.9785 50.095 45.3953 48.7175 45.3953 47.0551C45.4442 45.3451 44.0274 44.0152 42.2686 44.0152Z" fill="white"/>
<path d="M27.3186 65.5322C25.0712 65.5322 23.2635 63.7747 23.2635 61.5898C23.2635 59.4049 25.0712 57.6475 27.3186 57.6475C29.5659 57.6475 31.3736 59.4049 31.3736 61.5898C31.3736 63.7747 29.5659 65.5322 27.3186 65.5322ZM27.3186 59.4999C26.146 59.4999 25.2178 60.4024 25.2178 61.5423C25.2178 62.6823 26.146 63.5848 27.3186 63.5848C28.4911 63.5848 29.4193 62.6823 29.4193 61.5423C29.4193 60.4499 28.4911 59.4999 27.3186 59.4999Z" fill="white"/>
<path d="M22.3908 47.1054L21.4823 47.4551L26.0142 58.5844L26.9227 58.2347L22.3908 47.1054Z" fill="white"/>
<path d="M39.0121 50.1532L29.4955 58.7573L30.1609 59.453L39.6775 50.8488L39.0121 50.1532Z" fill="white"/>
<path d="M25.916 42.2142L25.687 43.1377L37.7501 45.9656L37.9791 45.0422L25.916 42.2142Z" fill="white"/>
<path d="M53.3583 35.3706C55.0682 35.0381 57.2667 34.8481 59.5629 34.8481C62.0546 34.8481 63.8622 35.1331 65.4256 36.0356C66.989 36.8431 68.1615 38.3155 68.1615 40.263C68.1615 43.1604 65.963 45.0128 63.3737 45.7253V45.8203C65.621 46.5327 67.0867 48.3377 67.0867 50.8551C67.0867 53.325 65.7187 55.13 63.8622 56.3174C61.8591 57.6474 58.8301 58.1698 54.9217 58.1698C52.2346 58.1698 50.085 57.9799 48.9613 57.7424L53.3583 35.3706ZM54.6285 54.2275C55.2148 54.3225 55.8499 54.3225 56.5828 54.3225C59.3187 54.3225 61.8103 53.2775 61.8103 50.7126C61.8103 48.4327 59.8072 47.7677 57.4622 47.7677H55.8988L54.6285 54.2275ZM56.6805 44.1103H58.3416C61.1263 44.1103 63.0317 42.9704 63.0317 40.9754C63.0317 39.313 61.6637 38.6005 59.7095 38.6005C58.8301 38.6005 58.0973 38.648 57.7064 38.743L56.6805 44.1103Z" fill="white"/>
<path d="M92.5406 44.2055C92.5406 48.3854 91.0261 52.4702 88.2902 55.0826C86.0917 57.1726 83.1115 58.4075 79.5451 58.4075C73.3893 58.4075 69.9205 54.1802 69.9205 48.8129C69.9205 44.633 71.4839 40.5006 74.3175 37.8882C76.516 35.8458 79.5451 34.6108 82.9649 34.6108C89.2184 34.6108 92.5406 38.6957 92.5406 44.2055ZM78.2748 40.4531C76.3695 42.3056 75.2946 45.868 75.2946 48.6229C75.2946 51.8528 76.8092 54.2752 80.2779 54.2752C81.7436 54.2752 83.1604 53.6577 84.2352 52.5652C86.0917 50.7603 87.1177 47.0079 87.1177 44.3005C87.1177 41.4031 86.0428 38.6482 82.3298 38.6482C80.7664 38.6957 79.3985 39.3607 78.2748 40.4531Z" fill="white"/>
<path d="M112.767 56.9823C110.959 57.5523 108.077 58.2648 105.097 58.2648C101.872 58.2648 99.1363 57.4573 97.1821 55.7473C95.2767 54.1324 94.2019 51.5675 94.2019 48.6226C94.2019 44.3002 96.0096 40.5954 99.0386 38.078C101.726 35.893 105.39 34.7056 109.494 34.7056C112.572 34.7056 114.868 35.2755 115.796 35.7505L114.282 39.8829C113.207 39.4079 111.35 38.9329 109.249 38.9329C106.904 38.9329 104.804 39.5979 103.24 40.7854C101.188 42.4003 99.8203 45.1077 99.8203 48.2426C99.8203 52.1375 102.165 54.0374 105.927 54.0374C107.1 54.0374 107.93 53.8474 108.517 53.6099L109.445 48.7651H105.781L106.562 44.8227H115.161L112.767 56.9823Z" fill="white"/>
<path d="M122.831 52.0426L120.046 58.0274H114.624L126.202 34.9907H132.7L135.436 58.0274H130.111L129.622 52.0426H122.831ZM129.427 48.2903L128.987 43.3029C128.889 42.0205 128.792 40.168 128.645 38.7906H128.547C127.912 40.2155 127.277 41.973 126.642 43.3029L124.297 48.2903H129.427Z" fill="white"/>
<path d="M141.884 35.4181C143.399 35.0381 145.793 34.8481 148.04 34.8481C150.19 34.8481 152.633 35.1806 154.343 36.3681C155.955 37.4131 156.932 39.028 156.932 41.2604C156.932 44.1578 155.564 46.3428 153.707 47.7202C151.753 49.1927 149.017 49.8576 146.135 49.8576C145.304 49.8576 144.571 49.7626 144.083 49.7151L142.471 58.0274H137.536L141.884 35.4181ZM144.865 45.6778C145.402 45.7728 145.939 45.8678 146.819 45.8678C149.848 45.8678 151.851 43.9678 151.851 41.6404C151.851 39.408 150.19 38.6955 148.236 38.6955C147.307 38.6955 146.575 38.743 146.184 38.838L144.865 45.6778Z" fill="white"/>
<path d="M144.132 57.0775C144.132 56.46 144.621 55.9375 145.256 55.9375C145.842 55.9375 146.233 56.3175 146.233 56.8875C146.233 57.5524 145.744 58.0274 145.06 58.0274C144.474 58.0274 144.132 57.6474 144.132 57.0775Z" fill="white"/>
<path d="M151.119 57.7422C150.777 57.9322 150.19 58.0272 149.506 58.0272C148.09 58.0272 147.112 57.1723 147.112 55.7473C147.112 53.7524 148.676 52.2324 150.825 52.2324C151.314 52.2324 151.754 52.3274 151.998 52.4224L151.607 53.6574C151.412 53.5624 151.167 53.5149 150.825 53.5149C149.604 53.5149 148.871 54.5123 148.871 55.5573C148.871 56.3173 149.36 56.6973 149.995 56.6973C150.483 56.6973 150.825 56.6023 151.119 56.4598V57.7422Z" fill="white"/>
<path d="M157.763 54.5123C157.763 56.5548 156.346 58.0272 154.343 58.0272C152.877 58.0272 151.9 57.1248 151.9 55.7473C151.9 53.7999 153.268 52.2324 155.32 52.2324C156.884 52.2324 157.763 53.2774 157.763 54.5123ZM153.659 55.6998C153.659 56.3648 154.001 56.7923 154.587 56.7923C155.516 56.7923 156.004 55.4623 156.004 54.5123C156.004 53.9899 155.76 53.4674 155.125 53.4674C154.148 53.4674 153.659 54.8448 153.659 55.6998Z" fill="white"/>
<path d="M158.056 57.9322L158.789 54.1799C158.936 53.4674 159.033 52.8499 159.082 52.3749H160.548L160.45 53.2774C160.988 52.5649 161.672 52.2324 162.404 52.2324C163.333 52.2324 163.724 52.8024 163.772 53.2774C164.31 52.5649 164.994 52.2324 165.727 52.2324C166.606 52.2324 167.143 52.8024 167.143 53.7049C167.143 53.9424 167.095 54.3698 167.046 54.6548L166.411 57.8847H164.798L165.385 54.8448C165.433 54.6073 165.482 54.3698 165.482 54.1799C165.482 53.7999 165.287 53.5149 164.896 53.5149C164.359 53.5149 163.772 54.2274 163.577 55.3673L163.088 57.8847H161.476L162.062 54.8448C162.111 54.6073 162.16 54.4173 162.16 54.2274C162.16 53.8474 162.014 53.5624 161.623 53.5624C161.036 53.5624 160.45 54.3224 160.255 55.4148L159.766 57.9322H158.056Z" fill="white"/>
<path d="M49.988 64.2022L49.3529 65.5322H48.5223L50.8674 60.7349H51.8934L52.3819 65.5322H51.4537L51.356 64.2022H49.988ZM51.356 63.5848L51.2582 62.3973C51.2582 62.1123 51.2094 61.7323 51.2094 61.3998C51.0628 61.7323 50.9651 62.1123 50.8185 62.3973L50.2811 63.5848H51.356Z" fill="white"/>
<path d="M57.4629 60.7349H59.9545L59.8568 61.4473H58.1958L57.9026 62.8248H59.466L59.3194 63.4898H57.7561L57.3652 65.5322H56.5347L57.4629 60.7349Z" fill="white"/>
<path d="M64.4494 60.7349H66.941L66.7945 61.3998H65.1334L64.8402 62.7773H66.4036L66.2571 63.4423H64.6937L64.3028 65.4847H63.4723L64.4494 60.7349Z" fill="white"/>
<path d="M72.2661 60.7349L71.3379 65.5322H70.5073L71.4356 60.7349H72.2661Z" fill="white"/>
<path d="M76.9076 60.7349H77.7381L76.9565 64.8197H78.7153L78.5687 65.5322H76.0282L76.9076 60.7349Z" fill="white"/>
<path d="M84.5288 60.7349L83.6006 65.5322H82.77L83.6983 60.7349H84.5288Z" fill="white"/>
<path d="M89.3652 64.2022L88.7301 65.5322H87.8995L90.2446 60.7349H91.2706L91.7591 65.5322H90.9286L90.8309 64.2022H89.3652ZM90.6843 63.5848L90.5866 62.3973C90.5866 62.1123 90.5377 61.7323 90.5377 61.3998C90.3912 61.7323 90.2935 62.1123 90.1469 62.3973L89.6095 63.5848H90.6843Z" fill="white"/>
<path d="M97.0357 61.4473H95.8143L95.9609 60.7349H99.2342L99.0876 61.4473H97.8663L97.0846 65.5322H96.254L97.0357 61.4473Z" fill="white"/>
<path d="M105.341 63.3948H103.778L103.484 64.8672H105.292L105.145 65.5322H102.556L103.484 60.7349H105.976L105.829 61.3998H104.168L103.924 62.6823H105.536L105.341 63.3948Z" fill="white"/>
<path d="M114.477 65.5322L115.405 60.7349H116.285L117.018 62.9673C117.213 63.5373 117.311 64.0123 117.408 64.4397C117.457 63.9648 117.506 63.3948 117.653 62.7298L118.044 60.7349H118.776L117.848 65.5322H117.067L116.334 63.2998C116.138 62.6823 116.041 62.3023 115.943 61.7323C115.894 62.2073 115.796 62.8248 115.65 63.5373L115.259 65.4847H114.477V65.5322Z" fill="white"/>
<path d="M125.323 63.3948H123.759L123.466 64.8672H125.274L125.127 65.5322H122.538L123.466 60.7349H125.958L125.811 61.3998H124.15L123.906 62.6823H125.518L125.323 63.3948Z" fill="white"/>
<path d="M131.088 61.4473H129.867L130.014 60.7349H133.287L133.14 61.4473H131.919L131.137 65.5322H130.307L131.088 61.4473Z" fill="white"/>
<path d="M137.488 65.5322L137.39 60.7349H138.221V63.2048C138.221 63.7748 138.172 64.2022 138.172 64.6297C138.319 64.2022 138.465 63.8223 138.709 63.2523L139.784 60.7349H140.664V63.1573C140.664 63.7273 140.664 64.1547 140.615 64.5822C140.761 64.1073 140.908 63.6798 141.103 63.2048L142.129 60.7349H142.96L140.859 65.5322H139.98L139.931 63.2998C139.931 62.7773 139.931 62.3498 139.98 61.8273C139.833 62.3023 139.638 62.7773 139.442 63.2998L138.416 65.5322H137.488Z" fill="white"/>
<path d="M150.533 62.5396C150.533 63.4421 150.191 64.4395 149.604 65.0095C149.214 65.3895 148.676 65.627 148.041 65.627C146.82 65.627 146.331 64.677 146.331 63.7745C146.331 62.8721 146.673 61.8746 147.308 61.2571C147.699 60.8771 148.236 60.6396 148.823 60.6396C150.093 60.6871 150.533 61.5896 150.533 62.5396ZM147.943 61.6846C147.504 62.1121 147.259 63.1096 147.259 63.727C147.259 64.3445 147.504 64.9145 148.236 64.9145C148.53 64.9145 148.823 64.772 149.018 64.582C149.458 64.1545 149.702 63.1096 149.702 62.4921C149.702 61.9221 149.556 61.3046 148.774 61.3046C148.432 61.3521 148.188 61.4946 147.943 61.6846Z" fill="white"/>
<path d="M155.369 60.8299C155.662 60.7824 156.102 60.7349 156.493 60.7349C156.933 60.7349 157.372 60.8299 157.665 61.0674C157.91 61.2573 158.056 61.5423 158.056 61.9223C158.056 62.6348 157.568 63.1098 156.933 63.2998C157.226 63.4423 157.372 63.7273 157.421 64.2497C157.47 64.8672 157.519 65.3897 157.568 65.5797H156.737C156.688 65.4372 156.688 65.0097 156.639 64.4397C156.591 63.8223 156.395 63.5848 156.004 63.5848H155.662L155.271 65.5797H154.441L155.369 60.8299ZM155.76 62.9673H156.151C156.786 62.9673 157.177 62.5398 157.177 62.0173C157.177 61.6373 156.884 61.3998 156.444 61.3998C156.249 61.3998 156.151 61.3998 156.053 61.4473L155.76 62.9673Z" fill="white"/>
<path d="M162.844 60.7349H163.674L163.235 62.9673H163.284C163.43 62.7298 163.577 62.5398 163.723 62.3973L165.14 60.7349H166.117L164.212 62.8248L165.238 65.5322H164.31L163.528 63.3473L163.039 63.8223L162.697 65.5322H161.867L162.844 60.7349Z" fill="white"/>
</svg>
