<svg width="180" height="100" viewBox="0 0 180 100" fill="none" xmlns="http://www.w3.org/2000/svg">
<path fill-rule="evenodd" clip-rule="evenodd" d="M48.0678 42.6646L48.0054 44.0057L50.5789 44.0935C50.9929 44.1076 51.2715 43.6854 51.0855 43.3254L50.5442 42.2779L48.6476 42.1593C48.3431 42.1403 48.0816 42.3681 48.0678 42.6646ZM47.3123 44.5181L47.2395 46.5897C47.2199 47.146 46.7615 47.593 46.1894 47.6135L44.2049 47.6847C43.8301 47.6982 43.4752 47.8518 43.2143 48.1135L42.9753 48.3531C42.5784 48.7511 42.3751 49.2949 42.4164 49.8478L42.5139 51.1505C42.5304 51.3731 42.5846 51.5915 42.6741 51.797L42.6848 51.8218C42.8579 52.2195 43.1612 52.5505 43.5476 52.7634C43.8038 52.9045 44.0944 52.9759 44.3887 52.97L46.6868 52.924C46.8466 52.9208 47.0046 52.8894 47.153 52.8314L47.2446 52.7956C47.5759 52.666 47.8498 52.4275 48.0185 52.1215C48.1056 51.9637 48.148 51.7862 48.1414 51.6072L48.0636 49.4638C48.0467 48.9954 48.4 48.5916 48.8784 48.533C49.8985 48.4079 50.9284 48.3743 51.9548 48.4326L52.3925 48.4575L52.4969 51.1515C52.5156 51.635 52.131 52.0433 51.6339 52.0676L49.3708 52.1781C49.0493 52.1938 48.7526 52.3501 48.5635 52.6033C48.3776 52.8523 48.1527 53.0712 47.8969 53.252L47.481 53.5459L47.7574 55.814H45.2761C44.7364 55.814 44.2524 55.4915 44.0574 55.0022L43.7261 54.1704C43.6234 53.9126 43.421 53.7041 43.1623 53.5895L43.1486 53.5835C42.6979 53.3839 42.3167 53.0612 42.0515 52.6547C41.8994 52.4217 41.6461 52.2692 41.3638 52.2406L40.6228 52.1658C40.3608 52.1393 40.144 51.9498 40.0847 51.7003C39.9107 50.9689 39.8507 50.2047 39.9118 49.4564L39.9249 49.2947C39.9491 48.9991 40.2028 48.7712 40.5079 48.7712H41.1616C41.4058 48.7712 41.6309 48.6425 41.7494 48.4349L41.7934 48.358C42.0582 47.8949 42.4564 47.5172 42.9392 47.2715C43.1388 47.1699 43.2788 46.9843 43.3185 46.7687L43.5243 45.6475C43.629 45.0774 44.1264 44.6541 44.7215 44.6287L47.3123 44.5181ZM52.9396 44.9624L54.5821 45.0665L55.4402 47.1922C55.5339 47.4242 55.358 47.675 55.1016 47.675H52.942C52.942 47.675 52.9262 46.696 52.5582 45.4342C52.4872 45.1915 52.6807 44.9459 52.9396 44.9624ZM55.615 52.2389L54.9864 54.0724C54.8516 54.4657 54.523 54.7673 54.111 54.8743C53.3128 55.0814 52.3996 55.3156 52.3996 55.3156L52.8549 53.6568C53.018 53.0628 53.5186 52.6133 54.1405 52.5022L55.615 52.2389ZM48.4805 57.8424L48.4365 57.1574C48.406 56.6826 48.7673 56.2695 49.2542 56.2226L51.5959 55.9973L51.4522 56.2461C50.9764 57.0698 50.1298 57.6281 49.1666 57.7532L48.4805 57.8424ZM58.8672 44.7662C59.2385 44.6146 59.6671 44.6944 59.9546 44.9686L67.8005 52.4512V44.7788H69.8007V54.767C69.8007 55.1586 69.559 55.5119 69.1877 55.6635C68.8164 55.8151 68.3879 55.7353 68.1002 55.4611L60.2544 47.9785V55.4741H58.2543V45.6627C58.2543 45.2711 58.4959 44.9178 58.8672 44.7662ZM12.8572 44.6904H20.676C22.9356 44.6904 24.7673 46.4712 24.7673 48.668C24.7673 50.8648 22.9356 52.6456 20.676 52.6456H16.312V50.701H20.676C21.8309 50.701 22.7671 49.7908 22.7671 48.668C22.7671 47.5452 21.8309 46.635 20.676 46.635H14.8573V55.4741H12.8572V44.6904ZM143.932 44.9686C143.645 44.6944 143.216 44.6146 142.845 44.7662C142.473 44.9178 142.232 45.2711 142.232 45.6627V55.4741H144.232V47.9785L152.078 55.4611C152.365 55.7353 152.794 55.8151 153.165 55.6635C153.536 55.5119 153.778 55.1586 153.778 54.767V44.7788H151.778V52.4512L143.932 44.9686ZM71.5281 44.6904H81.1653V46.635H73.5283V53.7063H81.1653V55.6509H71.5281V44.6904ZM82.2192 46.635H86.1286V55.5625H88.1288V46.635H92.4019V44.6904H82.2192V46.635ZM74.892 49.1983H80.8925V50.9662H74.892V49.1983ZM25.6764 44.6904H33.4953C35.7547 44.6904 37.5865 46.4712 37.5865 48.668C37.5865 50.1927 36.7041 51.5171 35.4087 52.1847L38.8594 55.6033H35.8517L33.0434 52.6456H29.1313V50.701H33.4953C34.6501 50.701 35.5864 49.7908 35.5864 48.668C35.5864 47.5452 34.6501 46.635 33.4953 46.635H27.6766V55.4741H25.6764V44.6904ZM93.6376 50.259C93.6376 47.2812 96.1206 44.8672 99.1835 44.8672H104.82V46.8118H99.1835C97.2252 46.8118 95.6378 48.3552 95.6378 50.259C95.6378 52.1629 97.2252 53.7063 99.1835 53.7063H103.638V51.143H98.729V49.1983H105.639V55.6509H99.1835C96.1206 55.6509 93.6376 53.2369 93.6376 50.259ZM160.688 44.8672C157.625 44.8672 155.142 47.2812 155.142 50.259C155.142 53.2369 157.625 55.6509 160.688 55.6509H167.143V49.1983H160.233V51.143H165.143V53.7063H160.688C158.729 53.7063 157.142 52.1629 157.142 50.259C157.142 48.3552 158.729 46.8118 160.688 46.8118H166.325V44.8672H160.688ZM138.595 55.6509V44.9556H140.595V55.6509H138.595ZM113.565 44.8066C113.915 44.8066 114.24 44.9848 114.421 45.2763L120.95 55.6509H118.528L116.936 53.0876H111.585L112.585 51.3197H115.838L113.565 47.66L108.656 55.6181H106.201L112.709 45.2763C112.89 44.9848 113.215 44.8066 113.565 44.8066ZM133.818 44.7819C134.236 44.8147 134.589 45.0978 134.701 45.4909L137.595 55.5625L135.502 55.5576L133.504 48.567L130.373 55.1739C130.209 55.5186 129.855 55.7393 129.464 55.7393C129.074 55.7393 128.72 55.5186 128.556 55.1739L125.41 48.5354L123.334 55.5656H121.23L124.23 45.4828C124.345 45.0922 124.699 44.8125 125.115 44.7816C125.532 44.7507 125.925 44.9751 126.1 45.3442L129.464 52.7972L132.829 45.3442C133.005 44.9737 133.4 44.7492 133.818 44.7819Z" fill="white"/>
</svg>
